<?xml version="1.0" standalone="no"?>
<!DOCTYPE svg PUBLIC "-//W3C//DTD SVG 1.1//EN"
  "http://www.w3.org/Graphics/SVG/1.1/DTD/svg11.dtd">
<svg width="800.0" height="1066.6666666666667" version="1.1"
  xmlns="http://www.w3.org/2000/svg">
<g style="stroke:black;"><rect x="0.0" y="933.3333333333334" width="240.0" height="133.33333333333334" rx="0" ry="0" style="stroke-width:1;fill:red;"/><rect x="106.66666666666667" y="933.3333333333334" width="16.0" height="16.0" rx="0" ry="0" style="stroke-width:1;fill:gray;"/><text x="106.66666666666667" y="986.6666666666667" font-size="12"><tspan x="106.66666666666667" dy="0em">f2</tspan></text><rect x="0.0" y="266.6666666666667" width="533.3333333333334" height="400.0" rx="0" ry="0" style="stroke-width:1;fill:green;"/><rect x="266.6666666666667" y="650.6666666666666" width="16.0" height="16.0" rx="0" ry="0" style="stroke-width:1;fill:gray;"/><text x="266.6666666666667" y="453.33333333333337" font-size="12"><tspan x="266.6666666666667" dy="0em">f4</tspan></text><rect x="533.3333333333334" y="266.6666666666667" width="266.6666666666667" height="266.6666666666667" rx="0" ry="0" style="stroke-width:1;fill:blue;"/><rect x="666.6666666666667" y="266.6666666666667" width="16.0" height="16.0" rx="0" ry="0" style="stroke-width:1;fill:gray;"/><text x="666.6666666666667" y="400.0" font-size="12"><tspan x="666.6666666666667" dy="0em">f3</tspan></text><rect x="0.0" y="0.0" width="480.0" height="266.6666666666667" rx="0" ry="0" style="stroke-width:1;fill:yellow;"/><rect x="464.0" y="133.33333333333334" width="16.0" height="16.0" rx="0" ry="0" style="stroke-width:1;fill:gray;"/><text x="240.0" y="133.33333333333334" font-size="12"><tspan x="240.0" dy="0em">f1</tspan></text></g></svg>