<?xml version="1.0" standalone="no"?>
<!DOCTYPE svg PUBLIC "-//W3C//DTD SVG 1.1//EN"
  "http://www.w3.org/Graphics/SVG/1.1/DTD/svg11.dtd">
<svg width="800.0" height="651.0344827586207" version="1.1"
  xmlns="http://www.w3.org/2000/svg">
<g style="stroke:black;"><rect x="0.0" y="44.13793103448276" width="49.65517241379311" height="38.62068965517241" rx="0" ry="0" style="stroke-width:1;fill:red;"/><text x="22.06896551724138" y="60.689655172413794" font-size="12"><tspan x="22.06896551724138" dy="0em">f1</tspan></text><rect x="0.0" y="0.0" width="44.13793103448276" height="44.13793103448276" rx="0" ry="0" style="stroke-width:1;fill:green;"/><text x="22.06896551724138" y="22.06896551724138" font-size="12"><tspan x="22.06896551724138" dy="0em">f4</tspan></text><rect x="93.79310344827587" y="0.0" width="66.20689655172414" height="44.13793103448276" rx="0" ry="0" style="stroke-width:1;fill:blue;"/><text x="126.89655172413794" y="22.06896551724138" font-size="12"><tspan x="126.89655172413794" dy="0em">f12</tspan></text><rect x="160.0" y="0.0" width="66.20689655172414" height="66.20689655172414" rx="0" ry="0" style="stroke-width:1;fill:yellow;"/><text x="193.10344827586206" y="33.10344827586207" font-size="12"><tspan x="193.10344827586206" dy="0em">f5</tspan></text><rect x="226.20689655172416" y="231.7241379310345" width="55.17241379310345" height="55.17241379310345" rx="0" ry="0" style="stroke-width:1;fill:brown;"/><text x="253.79310344827587" y="259.3103448275862" font-size="12"><tspan x="253.79310344827587" dy="0em">f10</tspan></text><rect x="226.20689655172416" y="171.0344827586207" width="60.689655172413794" height="60.689655172413794" rx="0" ry="0" style="stroke-width:1;fill:pink;"/><text x="253.79310344827587" y="198.6206896551724" font-size="12"><tspan x="253.79310344827587" dy="0em">f11</tspan></text><rect x="342.0689655172414" y="292.4137931034483" width="66.20689655172414" height="49.65517241379311" rx="0" ry="0" style="stroke-width:1;fill:cyan;"/><text x="375.1724137931035" y="314.4827586206897" font-size="12"><tspan x="375.1724137931035" dy="0em">f9</tspan></text><rect x="342.0689655172414" y="215.17241379310346" width="110.3448275862069" height="77.24137931034483" rx="0" ry="0" style="stroke-width:1;fill:gray;"/><text x="397.2413793103448" y="253.79310344827587" font-size="12"><tspan x="397.2413793103448" dy="0em">f7</tspan></text><rect x="342.0689655172414" y="171.0344827586207" width="55.17241379310345" height="44.13793103448276" rx="0" ry="0" style="stroke-width:1;fill:red;"/><text x="369.65517241379314" y="193.1034482758621" font-size="12"><tspan x="369.65517241379314" dy="0em">f6</tspan></text><rect x="226.20689655172416" y="60.689655172413794" width="66.20689655172414" height="55.17241379310345" rx="0" ry="0" style="stroke-width:1;fill:green;"/><text x="259.3103448275862" y="88.27586206896552" font-size="12"><tspan x="259.3103448275862" dy="0em">f3</tspan></text><rect x="292.4137931034483" y="60.689655172413794" width="77.24137931034483" height="55.17241379310345" rx="0" ry="0" style="stroke-width:1;fill:blue;"/><text x="331.0344827586207" y="88.27586206896552" font-size="12"><tspan x="331.0344827586207" dy="0em">f2</tspan></text><rect x="226.20689655172416" y="0.0" width="82.75862068965517" height="60.689655172413794" rx="0" ry="0" style="stroke-width:1;fill:yellow;"/><text x="264.82758620689657" y="27.586206896551726" font-size="12"><tspan x="264.82758620689657" dy="0em">f8</tspan></text></g></svg>