<?xml version="1.0" standalone="no"?>
<!DOCTYPE svg PUBLIC "-//W3C//DTD SVG 1.1//EN"
  "http://www.w3.org/Graphics/SVG/1.1/DTD/svg11.dtd">
<svg width="800.0" height="651.0344827586207" version="1.1"
  xmlns="http://www.w3.org/2000/svg">
<g style="stroke:black;"><rect x="0.0" y="60.689655172413794" width="44.13793103448276" height="44.13793103448276" rx="0" ry="0" style="stroke-width:1;fill:red;"/><text x="22.06896551724138" y="82.75862068965517" font-size="12"><tspan x="22.06896551724138" dy="0em">f4</tspan></text><rect x="44.13793103448276" y="115.86206896551725" width="66.20689655172414" height="44.13793103448276" rx="0" ry="0" style="stroke-width:1;fill:green;"/><text x="77.24137931034483" y="137.93103448275863" font-size="12"><tspan x="77.24137931034483" dy="0em">f12</tspan></text><rect x="44.13793103448276" y="60.689655172413794" width="66.20689655172414" height="55.17241379310345" rx="0" ry="0" style="stroke-width:1;fill:blue;"/><text x="77.24137931034483" y="88.27586206896552" font-size="12"><tspan x="77.24137931034483" dy="0em">f3</tspan></text><rect x="0.0" y="0.0" width="60.689655172413794" height="60.689655172413794" rx="0" ry="0" style="stroke-width:1;fill:yellow;"/><text x="27.586206896551726" y="27.586206896551726" font-size="12"><tspan x="27.586206896551726" dy="0em">f11</tspan></text><rect x="237.24137931034485" y="259.3103448275862" width="77.24137931034483" height="55.17241379310345" rx="0" ry="0" style="stroke-width:1;fill:brown;"/><text x="275.86206896551727" y="286.89655172413796" font-size="12"><tspan x="275.86206896551727" dy="0em">f2</tspan></text><rect x="237.24137931034485" y="0.0" width="55.17241379310345" height="44.13793103448276" rx="0" ry="0" style="stroke-width:1;fill:pink;"/><text x="264.82758620689657" y="22.06896551724138" font-size="12"><tspan x="264.82758620689657" dy="0em">f6</tspan></text><rect x="292.4137931034483" y="0.0" width="66.20689655172414" height="66.20689655172414" rx="0" ry="0" style="stroke-width:1;fill:cyan;"/><text x="325.5172413793104" y="33.10344827586207" font-size="12"><tspan x="325.5172413793104" dy="0em">f5</tspan></text><rect x="358.62068965517244" y="0.0" width="66.20689655172414" height="49.65517241379311" rx="0" ry="0" style="stroke-width:1;fill:gray;"/><text x="391.72413793103453" y="22.06896551724138" font-size="12"><tspan x="391.72413793103453" dy="0em">f9</tspan></text><rect x="424.82758620689657" y="0.0" width="82.75862068965517" height="60.689655172413794" rx="0" ry="0" style="stroke-width:1;fill:red;"/><text x="463.44827586206895" y="27.586206896551726" font-size="12"><tspan x="463.44827586206895" dy="0em">f8</tspan></text><rect x="507.58620689655174" y="0.0" width="49.65517241379311" height="38.62068965517241" rx="0" ry="0" style="stroke-width:1;fill:green;"/><text x="529.6551724137931" y="16.551724137931036" font-size="12"><tspan x="529.6551724137931" dy="0em">f1</tspan></text><rect x="634.4827586206897" y="77.24137931034483" width="55.17241379310345" height="55.17241379310345" rx="0" ry="0" style="stroke-width:1;fill:blue;"/><text x="662.0689655172414" y="104.82758620689656" font-size="12"><tspan x="662.0689655172414" dy="0em">f10</tspan></text><rect x="634.4827586206897" y="0.0" width="110.3448275862069" height="77.24137931034483" rx="0" ry="0" style="stroke-width:1;fill:yellow;"/><text x="689.6551724137931" y="38.62068965517241" font-size="12"><tspan x="689.6551724137931" dy="0em">f7</tspan></text></g></svg>