<?xml version="1.0" standalone="no"?>
<!DOCTYPE svg PUBLIC "-//W3C//DTD SVG 1.1//EN"
  "http://www.w3.org/Graphics/SVG/1.1/DTD/svg11.dtd">
<svg width="799.9999999999999" height="676.2886597938143" version="1.1"
  xmlns="http://www.w3.org/2000/svg">
<g style="stroke:black;"><rect x="0.0" y="560.8247422680412" width="164.9484536082474" height="115.46391752577318" rx="0" ry="0" style="stroke-width:1;fill:red;"/><rect x="82.4742268041237" y="560.8247422680412" width="15.999999999999998" height="15.999999999999998" rx="0" ry="0" style="stroke-width:1;fill:gray;"/><text x="82.4742268041237" y="618.5567010309278" font-size="12"><tspan x="82.4742268041237" dy="0em">f7</tspan></text><rect x="164.9484536082474" y="560.8247422680412" width="65.97938144329896" height="65.97938144329896" rx="0" ry="0" style="stroke-width:1;fill:green;"/><rect x="197.9381443298969" y="560.8247422680412" width="15.999999999999998" height="15.999999999999998" rx="0" ry="0" style="stroke-width:1;fill:gray;"/><text x="197.9381443298969" y="593.8144329896907" font-size="12"><tspan x="197.9381443298969" dy="0em">f4</tspan></text><rect x="0.0" y="321.64948453608247" width="90.72164948453607" height="90.72164948453607" rx="0" ry="0" style="stroke-width:1;fill:blue;"/><rect x="41.23711340206185" y="321.64948453608247" width="15.999999999999998" height="15.999999999999998" rx="0" ry="0" style="stroke-width:1;fill:gray;"/><text x="41.23711340206185" y="362.8865979381443" font-size="12"><tspan x="41.23711340206185" dy="0em">f11</tspan></text><rect x="90.72164948453607" y="387.62886597938143" width="115.46391752577318" height="82.4742268041237" rx="0" ry="0" style="stroke-width:1;fill:yellow;"/><rect x="90.72164948453607" y="428.86597938144325" width="15.999999999999998" height="15.999999999999998" rx="0" ry="0" style="stroke-width:1;fill:gray;"/><text x="148.45360824742266" y="428.86597938144325" font-size="12"><tspan x="148.45360824742266" dy="0em">f2</tspan></text><rect x="90.72164948453607" y="321.64948453608247" width="82.4742268041237" height="65.97938144329896" rx="0" ry="0" style="stroke-width:1;fill:brown;"/><rect x="157.19587628865978" y="354.63917525773195" width="15.999999999999998" height="15.999999999999998" rx="0" ry="0" style="stroke-width:1;fill:gray;"/><text x="131.95876288659792" y="354.63917525773195" font-size="12"><tspan x="131.95876288659792" dy="0em">f6</tspan></text><rect x="519.5876288659794" y="321.64948453608247" width="123.71134020618555" height="90.72164948453607" rx="0" ry="0" style="stroke-width:1;fill:pink;"/><rect x="519.5876288659794" y="362.8865979381443" width="15.999999999999998" height="15.999999999999998" rx="0" ry="0" style="stroke-width:1;fill:gray;"/><text x="577.319587628866" y="362.8865979381443" font-size="12"><tspan x="577.319587628866" dy="0em">f8</tspan></text><rect x="643.2989690721649" y="321.64948453608247" width="74.22680412371133" height="57.73195876288659" rx="0" ry="0" style="stroke-width:1;fill:cyan;"/><rect x="676.2886597938143" y="321.64948453608247" width="15.999999999999998" height="15.999999999999998" rx="0" ry="0" style="stroke-width:1;fill:gray;"/><text x="676.2886597938144" y="346.3917525773196" font-size="12"><tspan x="676.2886597938144" dy="0em">f1</tspan></text><rect x="717.5257731958762" y="321.64948453608247" width="82.4742268041237" height="82.4742268041237" rx="0" ry="0" style="stroke-width:1;fill:gray;"/><rect x="717.5257731958762" y="362.8865979381443" width="15.999999999999998" height="15.999999999999998" rx="0" ry="0" style="stroke-width:1;fill:gray;"/><text x="758.7628865979381" y="362.8865979381443" font-size="12"><tspan x="758.7628865979381" dy="0em">f10</tspan></text><rect x="0.0" y="0.0" width="98.96907216494844" height="82.4742268041237" rx="0" ry="0" style="stroke-width:1;fill:red;"/><rect x="49.48453608247422" y="66.4742268041237" width="15.999999999999998" height="15.999999999999998" rx="0" ry="0" style="stroke-width:1;fill:gray;"/><text x="49.48453608247422" y="41.23711340206185" font-size="12"><tspan x="49.48453608247422" dy="0em">f3</tspan></text><rect x="98.96907216494844" y="0.0" width="98.96907216494844" height="65.97938144329896" rx="0" ry="0" style="stroke-width:1;fill:green;"/><rect x="148.45360824742266" y="49.97938144329897" width="15.999999999999998" height="15.999999999999998" rx="0" ry="0" style="stroke-width:1;fill:gray;"/><text x="148.45360824742266" y="32.98969072164948" font-size="12"><tspan x="148.45360824742266" dy="0em">f12</tspan></text><rect x="197.9381443298969" y="74.22680412371133" width="98.96907216494844" height="98.96907216494844" rx="0" ry="0" style="stroke-width:1;fill:blue;"/><rect x="197.9381443298969" y="123.71134020618555" width="15.999999999999998" height="15.999999999999998" rx="0" ry="0" style="stroke-width:1;fill:gray;"/><text x="247.4226804123711" y="123.71134020618555" font-size="12"><tspan x="247.4226804123711" dy="0em">f5</tspan></text><rect x="197.9381443298969" y="0.0" width="98.96907216494844" height="74.22680412371133" rx="0" ry="0" style="stroke-width:1;fill:yellow;"/><rect x="197.9381443298969" y="32.98969072164948" width="15.999999999999998" height="15.999999999999998" rx="0" ry="0" style="stroke-width:1;fill:gray;"/><text x="247.4226804123711" y="32.98969072164948" font-size="12"><tspan x="247.4226804123711" dy="0em">f9</tspan></text></g></svg>