<?xml version="1.0" standalone="no"?>
<!DOCTYPE svg PUBLIC "-//W3C//DTD SVG 1.1//EN"
  "http://www.w3.org/Graphics/SVG/1.1/DTD/svg11.dtd">
<svg width="800.0" height="2000.0000000000002" version="1.1"
  xmlns="http://www.w3.org/2000/svg">
<g style="stroke:black;"><rect x="0.0" y="736.8421052631579" width="252.63157894736844" height="252.63157894736844" rx="0" ry="0" style="stroke-width:1;fill:red;"/><rect x="236.63157894736844" y="863.1578947368422" width="16.0" height="16.0" rx="0" ry="0" style="stroke-width:1;fill:gray;"/><text x="126.31578947368422" y="863.1578947368421" font-size="12"><tspan x="126.31578947368422" dy="0em">f5</tspan></text><rect x="0.0" y="505.2631578947369" width="231.57894736842107" height="231.57894736842107" rx="0" ry="0" style="stroke-width:1;fill:green;"/><rect x="215.57894736842107" y="610.5263157894738" width="16.0" height="16.0" rx="0" ry="0" style="stroke-width:1;fill:gray;"/><text x="105.26315789473685" y="610.5263157894738" font-size="12"><tspan x="105.26315789473685" dy="0em">f11</tspan></text><rect x="484.2105263157895" y="1831.5789473684213" width="168.42105263157896" height="168.42105263157896" rx="0" ry="0" style="stroke-width:1;fill:blue;"/><rect x="568.421052631579" y="1831.5789473684213" width="16.0" height="16.0" rx="0" ry="0" style="stroke-width:1;fill:gray;"/><text x="568.421052631579" y="1915.7894736842109" font-size="12"><tspan x="568.421052631579" dy="0em">f4</tspan></text><rect x="484.2105263157895" y="1684.2105263157896" width="189.47368421052633" height="147.3684210526316" rx="0" ry="0" style="stroke-width:1;fill:yellow;"/><rect x="484.2105263157895" y="1747.3684210526317" width="16.0" height="16.0" rx="0" ry="0" style="stroke-width:1;fill:gray;"/><text x="568.421052631579" y="1747.3684210526317" font-size="12"><tspan x="568.421052631579" dy="0em">f1</tspan></text><rect x="484.2105263157895" y="1473.6842105263158" width="294.7368421052632" height="210.5263157894737" rx="0" ry="0" style="stroke-width:1;fill:brown;"/><rect x="484.2105263157895" y="1578.9473684210527" width="16.0" height="16.0" rx="0" ry="0" style="stroke-width:1;fill:gray;"/><text x="631.578947368421" y="1578.9473684210527" font-size="12"><tspan x="631.578947368421" dy="0em">f2</tspan></text><rect x="484.2105263157895" y="1305.2631578947369" width="252.63157894736844" height="168.42105263157896" rx="0" ry="0" style="stroke-width:1;fill:pink;"/><rect x="484.2105263157895" y="1389.4736842105265" width="16.0" height="16.0" rx="0" ry="0" style="stroke-width:1;fill:gray;"/><text x="610.5263157894738" y="1389.4736842105262" font-size="12"><tspan x="610.5263157894738" dy="0em">f12</tspan></text><rect x="484.2105263157895" y="1094.7368421052633" width="252.63157894736844" height="210.5263157894737" rx="0" ry="0" style="stroke-width:1;fill:cyan;"/><rect x="484.2105263157895" y="1200.0" width="16.0" height="16.0" rx="0" ry="0" style="stroke-width:1;fill:gray;"/><text x="610.5263157894738" y="1200.0000000000002" font-size="12"><tspan x="610.5263157894738" dy="0em">f3</tspan></text><rect x="484.2105263157895" y="926.3157894736843" width="210.5263157894737" height="168.42105263157896" rx="0" ry="0" style="stroke-width:1;fill:gray;"/><rect x="484.2105263157895" y="1010.5263157894738" width="16.0" height="16.0" rx="0" ry="0" style="stroke-width:1;fill:gray;"/><text x="589.4736842105264" y="1010.5263157894738" font-size="12"><tspan x="589.4736842105264" dy="0em">f6</tspan></text><rect x="484.2105263157895" y="736.8421052631579" width="252.63157894736844" height="189.47368421052633" rx="0" ry="0" style="stroke-width:1;fill:red;"/><rect x="484.2105263157895" y="821.0526315789474" width="16.0" height="16.0" rx="0" ry="0" style="stroke-width:1;fill:gray;"/><text x="610.5263157894738" y="821.0526315789474" font-size="12"><tspan x="610.5263157894738" dy="0em">f9</tspan></text><rect x="484.2105263157895" y="505.2631578947369" width="315.7894736842105" height="231.57894736842107" rx="0" ry="0" style="stroke-width:1;fill:green;"/><rect x="484.2105263157895" y="610.5263157894738" width="16.0" height="16.0" rx="0" ry="0" style="stroke-width:1;fill:gray;"/><text x="631.578947368421" y="610.5263157894738" font-size="12"><tspan x="631.578947368421" dy="0em">f8</tspan></text><rect x="0.0" y="294.7368421052632" width="210.5263157894737" height="210.5263157894737" rx="0" ry="0" style="stroke-width:1;fill:blue;"/><rect x="194.5263157894737" y="400.0" width="16.0" height="16.0" rx="0" ry="0" style="stroke-width:1;fill:gray;"/><text x="105.26315789473685" y="400.0" font-size="12"><tspan x="105.26315789473685" dy="0em">f10</tspan></text><rect x="0.0" y="0.0" width="421.0526315789474" height="294.7368421052632" rx="0" ry="0" style="stroke-width:1;fill:yellow;"/><rect x="210.5263157894737" y="278.7368421052632" width="16.0" height="16.0" rx="0" ry="0" style="stroke-width:1;fill:gray;"/><text x="210.5263157894737" y="147.3684210526316" font-size="12"><tspan x="210.5263157894737" dy="0em">f7</tspan></text></g></svg>