<?xml version="1.0" standalone="no"?>
<!DOCTYPE svg PUBLIC "-//W3C//DTD SVG 1.1//EN"
  "http://www.w3.org/Graphics/SVG/1.1/DTD/svg11.dtd">
<svg width="800.0" height="788.2352941176471" version="1.1"
  xmlns="http://www.w3.org/2000/svg">
<g style="stroke:black;"><rect x="0.0" y="282.3529411764706" width="94.11764705882354" height="94.11764705882354" rx="0" ry="0" style="stroke-width:1;fill:red;"/><rect x="78.11764705882354" y="329.4117647058824" width="16.000000000000004" height="16.000000000000004" rx="0" ry="0" style="stroke-width:1;fill:gray;"/><text x="47.05882352941177" y="329.4117647058824" font-size="12"><tspan x="47.05882352941177" dy="0em">f4</tspan></text><rect x="94.11764705882354" y="282.3529411764706" width="141.1764705882353" height="117.64705882352942" rx="0" ry="0" style="stroke-width:1;fill:green;"/><rect x="219.29411764705884" y="341.1764705882353" width="16.000000000000004" height="16.000000000000004" rx="0" ry="0" style="stroke-width:1;fill:gray;"/><text x="164.7058823529412" y="341.1764705882353" font-size="12"><tspan x="164.7058823529412" dy="0em">f3</tspan></text><rect x="235.29411764705884" y="552.9411764705883" width="117.64705882352942" height="117.64705882352942" rx="0" ry="0" style="stroke-width:1;fill:blue;"/><rect x="294.11764705882354" y="552.9411764705883" width="16.000000000000004" height="16.000000000000004" rx="0" ry="0" style="stroke-width:1;fill:gray;"/><text x="294.11764705882354" y="611.764705882353" font-size="12"><tspan x="294.11764705882354" dy="0em">f10</tspan></text><rect x="352.9411764705883" y="552.9411764705883" width="141.1764705882353" height="141.1764705882353" rx="0" ry="0" style="stroke-width:1;fill:yellow;"/><rect x="423.5294117647059" y="552.9411764705883" width="16.000000000000004" height="16.000000000000004" rx="0" ry="0" style="stroke-width:1;fill:gray;"/><text x="423.52941176470597" y="623.529411764706" font-size="12"><tspan x="423.52941176470597" dy="0em">f5</tspan></text><rect x="494.11764705882354" y="658.8235294117648" width="129.41176470588238" height="129.41176470588238" rx="0" ry="0" style="stroke-width:1;fill:brown;"/><rect x="552.9411764705883" y="658.8235294117648" width="16.000000000000004" height="16.000000000000004" rx="0" ry="0" style="stroke-width:1;fill:gray;"/><text x="552.9411764705883" y="717.6470588235295" font-size="12"><tspan x="552.9411764705883" dy="0em">f11</tspan></text><rect x="623.529411764706" y="658.8235294117648" width="176.47058823529414" height="129.41176470588238" rx="0" ry="0" style="stroke-width:1;fill:pink;"/><rect x="623.529411764706" y="717.6470588235295" width="16.000000000000004" height="16.000000000000004" rx="0" ry="0" style="stroke-width:1;fill:gray;"/><text x="705.8823529411766" y="717.6470588235295" font-size="12"><tspan x="705.8823529411766" dy="0em">f8</tspan></text><rect x="494.11764705882354" y="552.9411764705883" width="141.1764705882353" height="105.88235294117648" rx="0" ry="0" style="stroke-width:1;fill:cyan;"/><rect x="494.11764705882354" y="600.0" width="16.000000000000004" height="16.000000000000004" rx="0" ry="0" style="stroke-width:1;fill:gray;"/><text x="564.7058823529412" y="600.0" font-size="12"><tspan x="564.7058823529412" dy="0em">f9</tspan></text><rect x="235.29411764705884" y="458.82352941176475" width="117.64705882352942" height="94.11764705882354" rx="0" ry="0" style="stroke-width:1;fill:gray;"/><rect x="294.11764705882354" y="536.9411764705883" width="16.000000000000004" height="16.000000000000004" rx="0" ry="0" style="stroke-width:1;fill:gray;"/><text x="294.11764705882354" y="505.8823529411765" font-size="12"><tspan x="294.11764705882354" dy="0em">f6</tspan></text><rect x="235.29411764705884" y="364.7058823529412" width="141.1764705882353" height="94.11764705882354" rx="0" ry="0" style="stroke-width:1;fill:red;"/><rect x="235.29411764705884" y="411.764705882353" width="16.000000000000004" height="16.000000000000004" rx="0" ry="0" style="stroke-width:1;fill:gray;"/><text x="305.88235294117646" y="411.764705882353" font-size="12"><tspan x="305.88235294117646" dy="0em">f12</tspan></text><rect x="235.29411764705884" y="282.3529411764706" width="105.88235294117648" height="82.3529411764706" rx="0" ry="0" style="stroke-width:1;fill:green;"/><rect x="282.3529411764706" y="348.7058823529412" width="16.000000000000004" height="16.000000000000004" rx="0" ry="0" style="stroke-width:1;fill:gray;"/><text x="282.3529411764706" y="317.64705882352945" font-size="12"><tspan x="282.3529411764706" dy="0em">f1</tspan></text><rect x="0.0" y="164.7058823529412" width="164.7058823529412" height="117.64705882352942" rx="0" ry="0" style="stroke-width:1;fill:blue;"/><rect x="148.7058823529412" y="223.5294117647059" width="16.000000000000004" height="16.000000000000004" rx="0" ry="0" style="stroke-width:1;fill:gray;"/><text x="82.3529411764706" y="223.5294117647059" font-size="12"><tspan x="82.3529411764706" dy="0em">f2</tspan></text><rect x="0.0" y="0.0" width="235.29411764705884" height="164.7058823529412" rx="0" ry="0" style="stroke-width:1;fill:yellow;"/><rect x="117.64705882352942" y="148.7058823529412" width="16.000000000000004" height="16.000000000000004" rx="0" ry="0" style="stroke-width:1;fill:gray;"/><text x="117.64705882352942" y="82.3529411764706" font-size="12"><tspan x="117.64705882352942" dy="0em">f7</tspan></text></g></svg>