<?xml version="1.0" standalone="no"?>
<!DOCTYPE svg PUBLIC "-//W3C//DTD SVG 1.1//EN"
  "http://www.w3.org/Graphics/SVG/1.1/DTD/svg11.dtd">
<svg width="800.0" height="311.50442477876106" version="1.1"
  xmlns="http://www.w3.org/2000/svg">
<g style="stroke:black;"><rect x="0.0" y="247.78761061946904" width="84.95575221238938" height="63.71681415929204" rx="0" ry="0" style="stroke-width:1;fill:red;"/><rect x="42.47787610619469" y="247.78761061946904" width="16.0" height="16.0" rx="0" ry="0" style="stroke-width:1;fill:gray;"/><text x="42.47787610619469" y="276.1061946902655" font-size="12"><tspan x="42.47787610619469" dy="0em">f9</tspan></text><rect x="0.0" y="198.23008849557522" width="63.71681415929204" height="49.557522123893804" rx="0" ry="0" style="stroke-width:1;fill:green;"/><rect x="47.71681415929204" y="219.4690265486726" width="16.0" height="16.0" rx="0" ry="0" style="stroke-width:1;fill:gray;"/><text x="28.31858407079646" y="219.46902654867256" font-size="12"><tspan x="28.31858407079646" dy="0em">f1</tspan></text><rect x="0.0" y="141.59292035398232" width="70.79646017699116" height="56.63716814159292" rx="0" ry="0" style="stroke-width:1;fill:blue;"/><rect x="54.796460176991154" y="169.91150442477877" width="16.0" height="16.0" rx="0" ry="0" style="stroke-width:1;fill:gray;"/><text x="35.39823008849558" y="169.9115044247788" font-size="12"><tspan x="35.39823008849558" dy="0em">f6</tspan></text><rect x="219.4690265486726" y="141.59292035398232" width="77.87610619469027" height="77.87610619469027" rx="0" ry="0" style="stroke-width:1;fill:yellow;"/><rect x="254.86725663716817" y="141.59292035398232" width="16.0" height="16.0" rx="0" ry="0" style="stroke-width:1;fill:gray;"/><text x="254.86725663716817" y="176.9911504424779" font-size="12"><tspan x="254.86725663716817" dy="0em">f11</tspan></text><rect x="297.34513274336285" y="141.59292035398232" width="84.95575221238938" height="70.79646017699116" rx="0" ry="0" style="stroke-width:1;fill:brown;"/><rect x="297.34513274336285" y="176.99115044247787" width="16.0" height="16.0" rx="0" ry="0" style="stroke-width:1;fill:gray;"/><text x="339.82300884955754" y="176.9911504424779" font-size="12"><tspan x="339.82300884955754" dy="0em">f3</tspan></text><rect x="382.3008849557522" y="141.59292035398232" width="141.59292035398232" height="99.11504424778761" rx="0" ry="0" style="stroke-width:1;fill:pink;"/><rect x="507.8938053097345" y="191.1504424778761" width="16.0" height="16.0" rx="0" ry="0" style="stroke-width:1;fill:gray;"/><text x="453.0973451327434" y="191.15044247787614" font-size="12"><tspan x="453.0973451327434" dy="0em">f7</tspan></text><rect x="523.8938053097345" y="198.23008849557522" width="106.19469026548673" height="77.87610619469027" rx="0" ry="0" style="stroke-width:1;fill:cyan;"/><rect x="523.8938053097345" y="233.6283185840708" width="16.0" height="16.0" rx="0" ry="0" style="stroke-width:1;fill:gray;"/><text x="573.4513274336283" y="233.6283185840708" font-size="12"><tspan x="573.4513274336283" dy="0em">f8</tspan></text><rect x="630.0884955752213" y="198.23008849557522" width="70.79646017699116" height="70.79646017699116" rx="0" ry="0" style="stroke-width:1;fill:gray;"/><rect x="630.0884955752213" y="233.6283185840708" width="16.0" height="16.0" rx="0" ry="0" style="stroke-width:1;fill:gray;"/><text x="665.4867256637168" y="233.6283185840708" font-size="12"><tspan x="665.4867256637168" dy="0em">f10</tspan></text><rect x="700.8849557522125" y="198.23008849557522" width="99.11504424778761" height="70.79646017699116" rx="0" ry="0" style="stroke-width:1;fill:red;"/><rect x="700.8849557522125" y="233.6283185840708" width="16.0" height="16.0" rx="0" ry="0" style="stroke-width:1;fill:gray;"/><text x="750.4424778761063" y="233.6283185840708" font-size="12"><tspan x="750.4424778761063" dy="0em">f2</tspan></text><rect x="523.8938053097345" y="141.59292035398232" width="84.95575221238938" height="56.63716814159292" rx="0" ry="0" style="stroke-width:1;fill:green;"/><rect x="523.8938053097345" y="169.91150442477877" width="16.0" height="16.0" rx="0" ry="0" style="stroke-width:1;fill:gray;"/><text x="566.3716814159292" y="169.9115044247788" font-size="12"><tspan x="566.3716814159292" dy="0em">f12</tspan></text><rect x="0.0" y="0.0" width="56.63716814159292" height="56.63716814159292" rx="0" ry="0" style="stroke-width:1;fill:blue;"/><rect x="40.63716814159292" y="28.31858407079646" width="16.0" height="16.0" rx="0" ry="0" style="stroke-width:1;fill:gray;"/><text x="28.31858407079646" y="28.31858407079646" font-size="12"><tspan x="28.31858407079646" dy="0em">f4</tspan></text><rect x="56.63716814159292" y="0.0" width="84.95575221238938" height="84.95575221238938" rx="0" ry="0" style="stroke-width:1;fill:yellow;"/><rect x="125.59292035398232" y="42.47787610619469" width="16.0" height="16.0" rx="0" ry="0" style="stroke-width:1;fill:gray;"/><text x="99.11504424778761" y="42.47787610619469" font-size="12"><tspan x="99.11504424778761" dy="0em">f5</tspan></text></g></svg>