<?xml version="1.0" standalone="no"?>
<!DOCTYPE svg PUBLIC "-//W3C//DTD SVG 1.1//EN"
  "http://www.w3.org/Graphics/SVG/1.1/DTD/svg11.dtd">
<svg width="800.0" height="1103.4482758620688" version="1.1"
  xmlns="http://www.w3.org/2000/svg">
<g style="stroke:black;"><rect x="0.0" y="827.5862068965516" width="275.8620689655172" height="275.8620689655172" rx="0" ry="0" style="stroke-width:1;fill:red;"/><rect x="137.9310344827586" y="827.5862068965516" width="15.999999999999998" height="15.999999999999998" rx="0" ry="0" style="stroke-width:1;fill:gray;"/><text x="137.9310344827586" y="965.5172413793102" font-size="12"><tspan x="137.9310344827586" dy="0em">f3</tspan></text><rect x="0.0" y="551.7241379310344" width="496.551724137931" height="275.8620689655172" rx="0" ry="0" style="stroke-width:1;fill:green;"/><rect x="248.2758620689655" y="811.5862068965517" width="15.999999999999998" height="15.999999999999998" rx="0" ry="0" style="stroke-width:1;fill:gray;"/><text x="248.2758620689655" y="689.655172413793" font-size="12"><tspan x="248.2758620689655" dy="0em">f1</tspan></text><rect x="0.0" y="0.0" width="248.2758620689655" height="137.9310344827586" rx="0" ry="0" style="stroke-width:1;fill:blue;"/><rect x="232.2758620689655" y="55.172413793103445" width="15.999999999999998" height="15.999999999999998" rx="0" ry="0" style="stroke-width:1;fill:gray;"/><text x="110.34482758620689" y="55.172413793103445" font-size="12"><tspan x="110.34482758620689" dy="0em">f2</tspan></text><rect x="248.2758620689655" y="0.0" width="551.7241379310344" height="413.7931034482758" rx="0" ry="0" style="stroke-width:1;fill:yellow;"/><rect x="248.2758620689655" y="193.10344827586206" width="15.999999999999998" height="15.999999999999998" rx="0" ry="0" style="stroke-width:1;fill:gray;"/><text x="524.1379310344827" y="193.10344827586206" font-size="12"><tspan x="524.1379310344827" dy="0em">f4</tspan></text></g></svg>