<?xml version="1.0" standalone="no"?>
<!DOCTYPE svg PUBLIC "-//W3C//DTD SVG 1.1//EN"
  "http://www.w3.org/Graphics/SVG/1.1/DTD/svg11.dtd">
<svg width="800.0" height="651.0344827586207" version="1.1"
  xmlns="http://www.w3.org/2000/svg">
<g style="stroke:black;"><rect x="0.0" y="193.1034482758621" width="55.17241379310345" height="55.17241379310345" rx="0" ry="0" style="stroke-width:1;fill:red;"/><text x="27.586206896551726" y="220.6896551724138" font-size="12"><tspan x="27.586206896551726" dy="0em">f10</tspan></text><rect x="0.0" y="143.44827586206898" width="66.20689655172414" height="49.65517241379311" rx="0" ry="0" style="stroke-width:1;fill:green;"/><text x="33.10344827586207" y="165.51724137931035" font-size="12"><tspan x="33.10344827586207" dy="0em">f9</tspan></text><rect x="0.0" y="104.82758620689656" width="49.65517241379311" height="38.62068965517241" rx="0" ry="0" style="stroke-width:1;fill:blue;"/><text x="22.06896551724138" y="121.37931034482759" font-size="12"><tspan x="22.06896551724138" dy="0em">f1</tspan></text><rect x="0.0" y="0.0" width="82.75862068965517" height="60.689655172413794" rx="0" ry="0" style="stroke-width:1;fill:yellow;"/><text x="38.62068965517241" y="27.586206896551726" font-size="12"><tspan x="38.62068965517241" dy="0em">f8</tspan></text><rect x="82.75862068965517" y="0.0" width="55.17241379310345" height="44.13793103448276" rx="0" ry="0" style="stroke-width:1;fill:brown;"/><text x="110.3448275862069" y="22.06896551724138" font-size="12"><tspan x="110.3448275862069" dy="0em">f6</tspan></text><rect x="308.9655172413793" y="0.0" width="66.20689655172414" height="44.13793103448276" rx="0" ry="0" style="stroke-width:1;fill:pink;"/><text x="342.0689655172414" y="22.06896551724138" font-size="12"><tspan x="342.0689655172414" dy="0em">f12</tspan></text><rect x="375.1724137931035" y="0.0" width="44.13793103448276" height="44.13793103448276" rx="0" ry="0" style="stroke-width:1;fill:cyan;"/><text x="397.2413793103449" y="22.06896551724138" font-size="12"><tspan x="397.2413793103449" dy="0em">f4</tspan></text><rect x="419.3103448275862" y="0.0" width="60.689655172413794" height="60.689655172413794" rx="0" ry="0" style="stroke-width:1;fill:gray;"/><text x="446.89655172413796" y="27.586206896551726" font-size="12"><tspan x="446.89655172413796" dy="0em">f11</tspan></text><rect x="480.00000000000006" y="0.0" width="110.3448275862069" height="77.24137931034483" rx="0" ry="0" style="stroke-width:1;fill:red;"/><text x="535.1724137931035" y="38.62068965517241" font-size="12"><tspan x="535.1724137931035" dy="0em">f7</tspan></text><rect x="590.344827586207" y="0.0" width="66.20689655172414" height="55.17241379310345" rx="0" ry="0" style="stroke-width:1;fill:green;"/><text x="623.4482758620691" y="27.586206896551726" font-size="12"><tspan x="623.4482758620691" dy="0em">f3</tspan></text><rect x="656.551724137931" y="0.0" width="77.24137931034483" height="55.17241379310345" rx="0" ry="0" style="stroke-width:1;fill:blue;"/><text x="695.1724137931035" y="27.586206896551726" font-size="12"><tspan x="695.1724137931035" dy="0em">f2</tspan></text><rect x="733.7931034482759" y="0.0" width="66.20689655172414" height="66.20689655172414" rx="0" ry="0" style="stroke-width:1;fill:yellow;"/><text x="766.896551724138" y="33.10344827586207" font-size="12"><tspan x="766.896551724138" dy="0em">f5</tspan></text></g></svg>