<?xml version="1.0" standalone="no"?>
<!DOCTYPE svg PUBLIC "-//W3C//DTD SVG 1.1//EN"
  "http://www.w3.org/Graphics/SVG/1.1/DTD/svg11.dtd">
<svg width="800.0" height="651.0344827586207" version="1.1"
  xmlns="http://www.w3.org/2000/svg">
<g style="stroke:black;"><rect x="0.0" y="275.86206896551727" width="82.75862068965517" height="60.689655172413794" rx="0" ry="0" style="stroke-width:1;fill:red;"/><text x="38.62068965517241" y="303.448275862069" font-size="12"><tspan x="38.62068965517241" dy="0em">f8</tspan></text><rect x="82.75862068965517" y="275.86206896551727" width="55.17241379310345" height="55.17241379310345" rx="0" ry="0" style="stroke-width:1;fill:green;"/><text x="110.3448275862069" y="303.448275862069" font-size="12"><tspan x="110.3448275862069" dy="0em">f10</tspan></text><rect x="0.0" y="215.17241379310346" width="60.689655172413794" height="60.689655172413794" rx="0" ry="0" style="stroke-width:1;fill:blue;"/><text x="27.586206896551726" y="242.75862068965517" font-size="12"><tspan x="27.586206896551726" dy="0em">f11</tspan></text><rect x="198.62068965517244" y="430.3448275862069" width="44.13793103448276" height="44.13793103448276" rx="0" ry="0" style="stroke-width:1;fill:yellow;"/><text x="220.68965517241384" y="452.4137931034483" font-size="12"><tspan x="220.68965517241384" dy="0em">f4</tspan></text><rect x="198.62068965517244" y="375.1724137931035" width="66.20689655172414" height="55.17241379310345" rx="0" ry="0" style="stroke-width:1;fill:brown;"/><text x="231.7241379310345" y="402.75862068965523" font-size="12"><tspan x="231.7241379310345" dy="0em">f3</tspan></text><rect x="198.62068965517244" y="320.0" width="77.24137931034483" height="55.17241379310345" rx="0" ry="0" style="stroke-width:1;fill:pink;"/><text x="237.24137931034485" y="347.58620689655174" font-size="12"><tspan x="237.24137931034485" dy="0em">f2</tspan></text><rect x="198.62068965517244" y="281.3793103448276" width="49.65517241379311" height="38.62068965517241" rx="0" ry="0" style="stroke-width:1;fill:cyan;"/><text x="220.68965517241384" y="297.93103448275866" font-size="12"><tspan x="220.68965517241384" dy="0em">f1</tspan></text><rect x="198.62068965517244" y="215.17241379310346" width="66.20689655172414" height="66.20689655172414" rx="0" ry="0" style="stroke-width:1;fill:gray;"/><text x="231.7241379310345" y="248.27586206896552" font-size="12"><tspan x="231.7241379310345" dy="0em">f5</tspan></text><rect x="0.0" y="171.0344827586207" width="66.20689655172414" height="44.13793103448276" rx="0" ry="0" style="stroke-width:1;fill:red;"/><text x="33.10344827586207" y="193.1034482758621" font-size="12"><tspan x="33.10344827586207" dy="0em">f12</tspan></text><rect x="0.0" y="121.37931034482759" width="66.20689655172414" height="49.65517241379311" rx="0" ry="0" style="stroke-width:1;fill:green;"/><text x="33.10344827586207" y="143.44827586206895" font-size="12"><tspan x="33.10344827586207" dy="0em">f9</tspan></text><rect x="0.0" y="77.24137931034483" width="55.17241379310345" height="44.13793103448276" rx="0" ry="0" style="stroke-width:1;fill:blue;"/><text x="27.586206896551726" y="99.3103448275862" font-size="12"><tspan x="27.586206896551726" dy="0em">f6</tspan></text><rect x="0.0" y="0.0" width="110.3448275862069" height="77.24137931034483" rx="0" ry="0" style="stroke-width:1;fill:yellow;"/><text x="55.17241379310345" y="38.62068965517241" font-size="12"><tspan x="55.17241379310345" dy="0em">f7</tspan></text></g></svg>