<?xml version="1.0" standalone="no"?>
<!DOCTYPE svg PUBLIC "-//W3C//DTD SVG 1.1//EN"
  "http://www.w3.org/Graphics/SVG/1.1/DTD/svg11.dtd">
<svg width="800.0" height="651.0344827586207" version="1.1"
  xmlns="http://www.w3.org/2000/svg">
<g style="stroke:black;"><rect x="0.0" y="60.689655172413794" width="66.20689655172414" height="49.65517241379311" rx="0" ry="0" style="stroke-width:1;fill:red;"/><text x="33.10344827586207" y="82.75862068965517" font-size="12"><tspan x="33.10344827586207" dy="0em">f9</tspan></text><rect x="66.20689655172414" y="491.0344827586207" width="66.20689655172414" height="66.20689655172414" rx="0" ry="0" style="stroke-width:1;fill:green;"/><text x="99.31034482758622" y="524.1379310344828" font-size="12"><tspan x="99.31034482758622" dy="0em">f5</tspan></text><rect x="132.41379310344828" y="491.0344827586207" width="55.17241379310345" height="44.13793103448276" rx="0" ry="0" style="stroke-width:1;fill:blue;"/><text x="160.0" y="513.1034482758621" font-size="12"><tspan x="160.0" dy="0em">f6</tspan></text><rect x="66.20689655172414" y="435.86206896551727" width="77.24137931034483" height="55.17241379310345" rx="0" ry="0" style="stroke-width:1;fill:yellow;"/><text x="104.82758620689656" y="463.448275862069" font-size="12"><tspan x="104.82758620689656" dy="0em">f2</tspan></text><rect x="66.20689655172414" y="380.68965517241384" width="66.20689655172414" height="55.17241379310345" rx="0" ry="0" style="stroke-width:1;fill:brown;"/><text x="99.31034482758622" y="408.2758620689656" font-size="12"><tspan x="99.31034482758622" dy="0em">f3</tspan></text><rect x="66.20689655172414" y="336.55172413793105" width="66.20689655172414" height="44.13793103448276" rx="0" ry="0" style="stroke-width:1;fill:pink;"/><text x="99.31034482758622" y="358.62068965517244" font-size="12"><tspan x="99.31034482758622" dy="0em">f12</tspan></text><rect x="66.20689655172414" y="292.4137931034483" width="44.13793103448276" height="44.13793103448276" rx="0" ry="0" style="stroke-width:1;fill:cyan;"/><text x="88.27586206896552" y="314.4827586206897" font-size="12"><tspan x="88.27586206896552" dy="0em">f4</tspan></text><rect x="66.20689655172414" y="193.1034482758621" width="49.65517241379311" height="38.62068965517241" rx="0" ry="0" style="stroke-width:1;fill:gray;"/><text x="88.27586206896552" y="209.65517241379314" font-size="12"><tspan x="88.27586206896552" dy="0em">f1</tspan></text><rect x="66.20689655172414" y="115.86206896551725" width="110.3448275862069" height="77.24137931034483" rx="0" ry="0" style="stroke-width:1;fill:red;"/><text x="121.37931034482759" y="154.48275862068965" font-size="12"><tspan x="121.37931034482759" dy="0em">f7</tspan></text><rect x="226.20689655172416" y="115.86206896551725" width="82.75862068965517" height="60.689655172413794" rx="0" ry="0" style="stroke-width:1;fill:green;"/><text x="264.82758620689657" y="143.44827586206898" font-size="12"><tspan x="264.82758620689657" dy="0em">f8</tspan></text><rect x="66.20689655172414" y="60.689655172413794" width="55.17241379310345" height="55.17241379310345" rx="0" ry="0" style="stroke-width:1;fill:blue;"/><text x="93.79310344827587" y="88.27586206896552" font-size="12"><tspan x="93.79310344827587" dy="0em">f10</tspan></text><rect x="0.0" y="0.0" width="60.689655172413794" height="60.689655172413794" rx="0" ry="0" style="stroke-width:1;fill:yellow;"/><text x="27.586206896551726" y="27.586206896551726" font-size="12"><tspan x="27.586206896551726" dy="0em">f11</tspan></text></g></svg>