<?xml version="1.0" standalone="no"?>
<!DOCTYPE svg PUBLIC "-//W3C//DTD SVG 1.1//EN"
  "http://www.w3.org/Graphics/SVG/1.1/DTD/svg11.dtd">
<svg width="800.0" height="651.0344827586207" version="1.1"
  xmlns="http://www.w3.org/2000/svg">
<g style="stroke:black;"><rect x="0.0" y="314.48275862068965" width="60.689655172413794" height="60.689655172413794" rx="0" ry="0" style="stroke-width:1;fill:red;"/><text x="27.586206896551726" y="342.0689655172414" font-size="12"><tspan x="27.586206896551726" dy="0em">f11</tspan></text><rect x="60.689655172413794" y="314.48275862068965" width="66.20689655172414" height="66.20689655172414" rx="0" ry="0" style="stroke-width:1;fill:green;"/><text x="93.79310344827587" y="347.58620689655174" font-size="12"><tspan x="93.79310344827587" dy="0em">f5</tspan></text><rect x="126.89655172413794" y="358.62068965517244" width="55.17241379310345" height="55.17241379310345" rx="0" ry="0" style="stroke-width:1;fill:blue;"/><text x="154.48275862068965" y="386.2068965517242" font-size="12"><tspan x="154.48275862068965" dy="0em">f10</tspan></text><rect x="182.0689655172414" y="408.2758620689655" width="82.75862068965517" height="60.689655172413794" rx="0" ry="0" style="stroke-width:1;fill:yellow;"/><text x="220.6896551724138" y="435.86206896551727" font-size="12"><tspan x="220.6896551724138" dy="0em">f8</tspan></text><rect x="182.0689655172414" y="358.62068965517244" width="66.20689655172414" height="49.65517241379311" rx="0" ry="0" style="stroke-width:1;fill:brown;"/><text x="215.17241379310346" y="380.68965517241384" font-size="12"><tspan x="215.17241379310346" dy="0em">f9</tspan></text><rect x="126.89655172413794" y="314.48275862068965" width="55.17241379310345" height="44.13793103448276" rx="0" ry="0" style="stroke-width:1;fill:pink;"/><text x="154.48275862068965" y="336.55172413793105" font-size="12"><tspan x="154.48275862068965" dy="0em">f6</tspan></text><rect x="0.0" y="176.55172413793105" width="66.20689655172414" height="55.17241379310345" rx="0" ry="0" style="stroke-width:1;fill:cyan;"/><text x="33.10344827586207" y="204.13793103448276" font-size="12"><tspan x="33.10344827586207" dy="0em">f3</tspan></text><rect x="66.20689655172414" y="215.17241379310346" width="66.20689655172414" height="44.13793103448276" rx="0" ry="0" style="stroke-width:1;fill:gray;"/><text x="99.31034482758622" y="237.24137931034483" font-size="12"><tspan x="99.31034482758622" dy="0em">f12</tspan></text><rect x="66.20689655172414" y="176.55172413793105" width="49.65517241379311" height="38.62068965517241" rx="0" ry="0" style="stroke-width:1;fill:red;"/><text x="88.27586206896552" y="193.1034482758621" font-size="12"><tspan x="88.27586206896552" dy="0em">f1</tspan></text><rect x="0.0" y="132.41379310344828" width="44.13793103448276" height="44.13793103448276" rx="0" ry="0" style="stroke-width:1;fill:green;"/><text x="22.06896551724138" y="154.48275862068965" font-size="12"><tspan x="22.06896551724138" dy="0em">f4</tspan></text><rect x="0.0" y="77.24137931034483" width="77.24137931034483" height="55.17241379310345" rx="0" ry="0" style="stroke-width:1;fill:blue;"/><text x="38.62068965517241" y="104.82758620689656" font-size="12"><tspan x="38.62068965517241" dy="0em">f2</tspan></text><rect x="0.0" y="0.0" width="110.3448275862069" height="77.24137931034483" rx="0" ry="0" style="stroke-width:1;fill:yellow;"/><text x="55.17241379310345" y="38.62068965517241" font-size="12"><tspan x="55.17241379310345" dy="0em">f7</tspan></text></g></svg>