<?xml version="1.0" standalone="no"?>
<!DOCTYPE svg PUBLIC "-//W3C//DTD SVG 1.1//EN"
  "http://www.w3.org/Graphics/SVG/1.1/DTD/svg11.dtd">
<svg width="800.0" height="651.0344827586207" version="1.1"
  xmlns="http://www.w3.org/2000/svg">
<g style="stroke:black;"><rect x="0.0" y="557.2413793103449" width="49.65517241379311" height="38.62068965517241" rx="0" ry="0" style="stroke-width:1;fill:red;"/><text x="22.06896551724138" y="573.7931034482759" font-size="12"><tspan x="22.06896551724138" dy="0em">f1</tspan></text><rect x="0.0" y="502.0689655172414" width="77.24137931034483" height="55.17241379310345" rx="0" ry="0" style="stroke-width:1;fill:green;"/><text x="38.62068965517241" y="529.6551724137931" font-size="12"><tspan x="38.62068965517241" dy="0em">f2</tspan></text><rect x="126.89655172413794" y="502.0689655172414" width="66.20689655172414" height="55.17241379310345" rx="0" ry="0" style="stroke-width:1;fill:blue;"/><text x="160.0" y="529.6551724137931" font-size="12"><tspan x="160.0" dy="0em">f3</tspan></text><rect x="0.0" y="44.13793103448276" width="44.13793103448276" height="44.13793103448276" rx="0" ry="0" style="stroke-width:1;fill:yellow;"/><text x="22.06896551724138" y="66.20689655172414" font-size="12"><tspan x="22.06896551724138" dy="0em">f4</tspan></text><rect x="44.13793103448276" y="148.96551724137933" width="66.20689655172414" height="66.20689655172414" rx="0" ry="0" style="stroke-width:1;fill:brown;"/><text x="77.24137931034483" y="182.0689655172414" font-size="12"><tspan x="77.24137931034483" dy="0em">f5</tspan></text><rect x="44.13793103448276" y="104.82758620689656" width="55.17241379310345" height="44.13793103448276" rx="0" ry="0" style="stroke-width:1;fill:pink;"/><text x="71.72413793103449" y="126.89655172413794" font-size="12"><tspan x="71.72413793103449" dy="0em">f6</tspan></text><rect x="165.51724137931035" y="104.82758620689656" width="110.3448275862069" height="77.24137931034483" rx="0" ry="0" style="stroke-width:1;fill:cyan;"/><text x="220.6896551724138" y="143.44827586206895" font-size="12"><tspan x="220.6896551724138" dy="0em">f7</tspan></text><rect x="44.13793103448276" y="44.13793103448276" width="82.75862068965517" height="60.689655172413794" rx="0" ry="0" style="stroke-width:1;fill:gray;"/><text x="82.75862068965517" y="71.72413793103449" font-size="12"><tspan x="82.75862068965517" dy="0em">f8</tspan></text><rect x="358.62068965517244" y="99.31034482758622" width="66.20689655172414" height="49.65517241379311" rx="0" ry="0" style="stroke-width:1;fill:red;"/><text x="391.72413793103453" y="121.3793103448276" font-size="12"><tspan x="391.72413793103453" dy="0em">f9</tspan></text><rect x="358.62068965517244" y="44.13793103448276" width="55.17241379310345" height="55.17241379310345" rx="0" ry="0" style="stroke-width:1;fill:green;"/><text x="386.2068965517242" y="71.72413793103449" font-size="12"><tspan x="386.2068965517242" dy="0em">f10</tspan></text><rect x="480.00000000000006" y="44.13793103448276" width="60.689655172413794" height="60.689655172413794" rx="0" ry="0" style="stroke-width:1;fill:blue;"/><text x="507.5862068965518" y="71.72413793103449" font-size="12"><tspan x="507.5862068965518" dy="0em">f11</tspan></text><rect x="0.0" y="0.0" width="66.20689655172414" height="44.13793103448276" rx="0" ry="0" style="stroke-width:1;fill:yellow;"/><text x="33.10344827586207" y="22.06896551724138" font-size="12"><tspan x="33.10344827586207" dy="0em">f12</tspan></text></g></svg>