<?xml version="1.0" standalone="no"?>
<!DOCTYPE svg PUBLIC "-//W3C//DTD SVG 1.1//EN"
  "http://www.w3.org/Graphics/SVG/1.1/DTD/svg11.dtd">
<svg width="800.0" height="615.3846153846154" version="1.1"
  xmlns="http://www.w3.org/2000/svg">
<g style="stroke:black;"><rect x="0.0" y="169.23076923076923" width="107.6923076923077" height="76.92307692307692" rx="0" ry="0" style="stroke-width:1;fill:red;"/><text x="53.84615384615385" y="207.69230769230768" font-size="12"><tspan x="53.84615384615385" dy="0em">f1</tspan></text><rect x="0.0" y="115.38461538461539" width="76.92307692307692" height="53.84615384615385" rx="0" ry="0" style="stroke-width:1;fill:green;"/><text x="38.46153846153846" y="138.46153846153845" font-size="12"><tspan x="38.46153846153846" dy="0em">f2</tspan></text><rect x="184.6153846153846" y="115.38461538461539" width="76.92307692307692" height="76.92307692307692" rx="0" ry="0" style="stroke-width:1;fill:blue;"/><text x="223.07692307692307" y="153.84615384615384" font-size="12"><tspan x="223.07692307692307" dy="0em">f3</tspan></text><rect x="0.0" y="0.0" width="153.84615384615384" height="115.38461538461539" rx="0" ry="0" style="stroke-width:1;fill:yellow;"/><text x="76.92307692307692" y="53.84615384615385" font-size="12"><tspan x="76.92307692307692" dy="0em">f4</tspan></text><rect x="415.3846153846154" y="192.30769230769232" width="138.46153846153845" height="100.0" rx="0" ry="0" style="stroke-width:1;fill:brown;"/><text x="484.61538461538464" y="238.46153846153848" font-size="12"><tspan x="484.61538461538464" dy="0em">f5</tspan></text><rect x="415.3846153846154" y="0.0" width="61.53846153846154" height="61.53846153846154" rx="0" ry="0" style="stroke-width:1;fill:pink;"/><text x="446.1538461538462" y="30.76923076923077" font-size="12"><tspan x="446.1538461538462" dy="0em">f6</tspan></text><rect x="476.92307692307696" y="84.61538461538461" width="69.23076923076923" height="46.15384615384615" rx="0" ry="0" style="stroke-width:1;fill:cyan;"/><text x="507.69230769230774" y="107.6923076923077" font-size="12"><tspan x="507.69230769230774" dy="0em">f7</tspan></text><rect x="476.92307692307696" y="0.0" width="115.38461538461539" height="84.61538461538461" rx="0" ry="0" style="stroke-width:1;fill:gray;"/><text x="530.7692307692308" y="38.46153846153846" font-size="12"><tspan x="530.7692307692308" dy="0em">f8</tspan></text></g></svg>