<?xml version="1.0" standalone="no"?>
<!DOCTYPE svg PUBLIC "-//W3C//DTD SVG 1.1//EN"
  "http://www.w3.org/Graphics/SVG/1.1/DTD/svg11.dtd">
<svg width="800.0" height="615.3846153846154" version="1.1"
  xmlns="http://www.w3.org/2000/svg">
<g style="stroke:black;"><rect x="0.0" y="0.0" width="153.84615384615384" height="115.38461538461539" rx="0" ry="0" style="stroke-width:1;fill:red;"/><text x="76.92307692307692" y="53.84615384615385" font-size="12"><tspan x="76.92307692307692" dy="0em">f4</tspan></text><rect x="153.84615384615384" y="123.07692307692308" width="61.53846153846154" height="61.53846153846154" rx="0" ry="0" style="stroke-width:1;fill:green;"/><text x="184.6153846153846" y="153.84615384615384" font-size="12"><tspan x="184.6153846153846" dy="0em">f6</tspan></text><rect x="215.3846153846154" y="361.53846153846155" width="107.6923076923077" height="76.92307692307692" rx="0" ry="0" style="stroke-width:1;fill:blue;"/><text x="269.2307692307692" y="400.0" font-size="12"><tspan x="269.2307692307692" dy="0em">f1</tspan></text><rect x="215.3846153846154" y="307.6923076923077" width="76.92307692307692" height="53.84615384615385" rx="0" ry="0" style="stroke-width:1;fill:yellow;"/><text x="253.84615384615384" y="330.7692307692308" font-size="12"><tspan x="253.84615384615384" dy="0em">f2</tspan></text><rect x="215.3846153846154" y="207.6923076923077" width="138.46153846153845" height="100.0" rx="0" ry="0" style="stroke-width:1;fill:brown;"/><text x="284.61538461538464" y="253.84615384615387" font-size="12"><tspan x="284.61538461538464" dy="0em">f5</tspan></text><rect x="215.3846153846154" y="123.07692307692308" width="115.38461538461539" height="84.61538461538461" rx="0" ry="0" style="stroke-width:1;fill:pink;"/><text x="269.2307692307692" y="161.53846153846155" font-size="12"><tspan x="269.2307692307692" dy="0em">f8</tspan></text><rect x="153.84615384615384" y="76.92307692307692" width="69.23076923076923" height="46.15384615384615" rx="0" ry="0" style="stroke-width:1;fill:cyan;"/><text x="184.6153846153846" y="100.0" font-size="12"><tspan x="184.6153846153846" dy="0em">f7</tspan></text><rect x="153.84615384615384" y="0.0" width="76.92307692307692" height="76.92307692307692" rx="0" ry="0" style="stroke-width:1;fill:gray;"/><text x="192.3076923076923" y="38.46153846153846" font-size="12"><tspan x="192.3076923076923" dy="0em">f3</tspan></text></g></svg>