<?xml version="1.0" standalone="no"?>
<!DOCTYPE svg PUBLIC "-//W3C//DTD SVG 1.1//EN"
  "http://www.w3.org/Graphics/SVG/1.1/DTD/svg11.dtd">
<svg width="800.0" height="604.1958041958042" version="1.1"
  xmlns="http://www.w3.org/2000/svg">
<g style="stroke:black;"><rect x="0.0" y="0.0" width="111.88811188811188" height="89.5104895104895" rx="0" ry="0" style="stroke-width:1;fill:red;"/><text x="55.94405594405594" y="44.75524475524475" font-size="12"><tspan x="55.94405594405594" dy="0em">f7</tspan></text><rect x="111.88811188811188" y="0.0" width="106.2937062937063" height="72.72727272727272" rx="0" ry="0" style="stroke-width:1;fill:green;"/><text x="162.23776223776224" y="33.56643356643357" font-size="12"><tspan x="162.23776223776224" dy="0em">f10</tspan></text><rect x="218.18181818181816" y="123.07692307692307" width="61.53846153846153" height="61.53846153846153" rx="0" ry="0" style="stroke-width:1;fill:blue;"/><text x="246.15384615384613" y="151.04895104895104" font-size="12"><tspan x="246.15384615384613" dy="0em">f9</tspan></text><rect x="279.72027972027973" y="173.4265734265734" width="50.34965034965035" height="33.56643356643357" rx="0" ry="0" style="stroke-width:1;fill:yellow;"/><text x="302.09790209790214" y="190.20979020979019" font-size="12"><tspan x="302.09790209790214" dy="0em">f5</tspan></text><rect x="279.72027972027973" y="123.07692307692307" width="50.34965034965035" height="50.34965034965035" rx="0" ry="0" style="stroke-width:1;fill:brown;"/><text x="302.09790209790214" y="145.45454545454544" font-size="12"><tspan x="302.09790209790214" dy="0em">f4</tspan></text><rect x="380.4195804195804" y="268.53146853146853" width="44.75524475524475" height="27.97202797202797" rx="0" ry="0" style="stroke-width:1;fill:pink;"/><text x="402.79720279720283" y="279.72027972027973" font-size="12"><tspan x="402.79720279720283" dy="0em">f8</tspan></text><rect x="380.4195804195804" y="167.8321678321678" width="139.86013986013987" height="100.6993006993007" rx="0" ry="0" style="stroke-width:1;fill:cyan;"/><text x="447.5524475524476" y="218.18181818181816" font-size="12"><tspan x="447.5524475524476" dy="0em">f6</tspan></text><rect x="380.4195804195804" y="123.07692307692307" width="67.13286713286713" height="44.75524475524475" rx="0" ry="0" style="stroke-width:1;fill:gray;"/><text x="413.986013986014" y="145.45454545454544" font-size="12"><tspan x="413.986013986014" dy="0em">f2</tspan></text><rect x="218.18181818181816" y="0.0" width="83.9160839160839" height="67.13286713286713" rx="0" ry="0" style="stroke-width:1;fill:red;"/><text x="257.34265734265733" y="33.56643356643357" font-size="12"><tspan x="257.34265734265733" dy="0em">f3</tspan></text><rect x="302.0979020979021" y="0.0" width="83.9160839160839" height="55.94405594405594" rx="0" ry="0" style="stroke-width:1;fill:green;"/><text x="341.2587412587412" y="27.97202797202797" font-size="12"><tspan x="341.2587412587412" dy="0em">f1</tspan></text></g></svg>