<?xml version="1.0" standalone="no"?>
<!DOCTYPE svg PUBLIC "-//W3C//DTD SVG 1.1//EN"
  "http://www.w3.org/Graphics/SVG/1.1/DTD/svg11.dtd">
<svg width="800.0" height="604.1958041958042" version="1.1"
  xmlns="http://www.w3.org/2000/svg">
<g style="stroke:black;"><rect x="0.0" y="89.5104895104895" width="106.2937062937063" height="72.72727272727272" rx="0" ry="0" style="stroke-width:1;fill:red;"/><text x="50.34965034965035" y="123.07692307692307" font-size="12"><tspan x="50.34965034965035" dy="0em">f10</tspan></text><rect x="0.0" y="0.0" width="111.88811188811188" height="89.5104895104895" rx="0" ry="0" style="stroke-width:1;fill:green;"/><text x="55.94405594405594" y="44.75524475524475" font-size="12"><tspan x="55.94405594405594" dy="0em">f7</tspan></text><rect x="218.18181818181816" y="50.34965034965035" width="50.34965034965035" height="33.56643356643357" rx="0" ry="0" style="stroke-width:1;fill:blue;"/><text x="240.55944055944053" y="67.13286713286713" font-size="12"><tspan x="240.55944055944053" dy="0em">f5</tspan></text><rect x="218.18181818181816" y="0.0" width="50.34965034965035" height="50.34965034965035" rx="0" ry="0" style="stroke-width:1;fill:yellow;"/><text x="240.55944055944053" y="22.377622377622377" font-size="12"><tspan x="240.55944055944053" dy="0em">f4</tspan></text><rect x="318.8811188811189" y="296.5034965034965" width="61.53846153846153" height="61.53846153846153" rx="0" ry="0" style="stroke-width:1;fill:brown;"/><text x="346.8531468531468" y="324.4755244755244" font-size="12"><tspan x="346.8531468531468" dy="0em">f9</tspan></text><rect x="318.8811188811189" y="251.74825174825173" width="67.13286713286713" height="44.75524475524475" rx="0" ry="0" style="stroke-width:1;fill:pink;"/><text x="352.4475524475524" y="274.12587412587413" font-size="12"><tspan x="352.4475524475524" dy="0em">f2</tspan></text><rect x="318.8811188811189" y="184.6153846153846" width="83.9160839160839" height="67.13286713286713" rx="0" ry="0" style="stroke-width:1;fill:cyan;"/><text x="358.041958041958" y="218.1818181818182" font-size="12"><tspan x="358.041958041958" dy="0em">f3</tspan></text><rect x="318.8811188811189" y="128.67132867132867" width="83.9160839160839" height="55.94405594405594" rx="0" ry="0" style="stroke-width:1;fill:gray;"/><text x="358.041958041958" y="156.64335664335664" font-size="12"><tspan x="358.041958041958" dy="0em">f1</tspan></text><rect x="318.8811188811189" y="100.6993006993007" width="44.75524475524475" height="27.97202797202797" rx="0" ry="0" style="stroke-width:1;fill:red;"/><text x="341.2587412587413" y="111.88811188811188" font-size="12"><tspan x="341.2587412587413" dy="0em">f8</tspan></text><rect x="318.8811188811189" y="0.0" width="139.86013986013987" height="100.6993006993007" rx="0" ry="0" style="stroke-width:1;fill:green;"/><text x="386.013986013986" y="50.34965034965035" font-size="12"><tspan x="386.013986013986" dy="0em">f6</tspan></text></g></svg>