<?xml version="1.0" standalone="no"?>
<!DOCTYPE svg PUBLIC "-//W3C//DTD SVG 1.1//EN"
  "http://www.w3.org/Graphics/SVG/1.1/DTD/svg11.dtd">
<svg width="800.0" height="651.0344827586207" version="1.1"
  xmlns="http://www.w3.org/2000/svg">
<g style="stroke:black;"><rect x="0.0" y="77.24137931034483" width="82.75862068965517" height="60.689655172413794" rx="0" ry="0" style="stroke-width:1;fill:red;"/><text x="38.62068965517241" y="104.82758620689656" font-size="12"><tspan x="38.62068965517241" dy="0em">f8</tspan></text><rect x="82.75862068965517" y="77.24137931034483" width="60.689655172413794" height="60.689655172413794" rx="0" ry="0" style="stroke-width:1;fill:green;"/><text x="110.3448275862069" y="104.82758620689656" font-size="12"><tspan x="110.3448275862069" dy="0em">f11</tspan></text><rect x="143.44827586206898" y="132.41379310344828" width="49.65517241379311" height="38.62068965517241" rx="0" ry="0" style="stroke-width:1;fill:blue;"/><text x="165.51724137931035" y="148.96551724137933" font-size="12"><tspan x="165.51724137931035" dy="0em">f1</tspan></text><rect x="143.44827586206898" y="77.24137931034483" width="55.17241379310345" height="55.17241379310345" rx="0" ry="0" style="stroke-width:1;fill:yellow;"/><text x="171.0344827586207" y="104.82758620689656" font-size="12"><tspan x="171.0344827586207" dy="0em">f10</tspan></text><rect x="248.27586206896552" y="320.0" width="66.20689655172414" height="66.20689655172414" rx="0" ry="0" style="stroke-width:1;fill:brown;"/><text x="281.3793103448276" y="353.1034482758621" font-size="12"><tspan x="281.3793103448276" dy="0em">f5</tspan></text><rect x="248.27586206896552" y="275.86206896551727" width="44.13793103448276" height="44.13793103448276" rx="0" ry="0" style="stroke-width:1;fill:pink;"/><text x="270.3448275862069" y="297.93103448275866" font-size="12"><tspan x="270.3448275862069" dy="0em">f4</tspan></text><rect x="358.62068965517244" y="275.86206896551727" width="66.20689655172414" height="49.65517241379311" rx="0" ry="0" style="stroke-width:1;fill:cyan;"/><text x="391.72413793103453" y="297.93103448275866" font-size="12"><tspan x="391.72413793103453" dy="0em">f9</tspan></text><rect x="248.27586206896552" y="220.6896551724138" width="77.24137931034483" height="55.17241379310345" rx="0" ry="0" style="stroke-width:1;fill:gray;"/><text x="286.8965517241379" y="248.27586206896552" font-size="12"><tspan x="286.8965517241379" dy="0em">f2</tspan></text><rect x="248.27586206896552" y="165.51724137931035" width="66.20689655172414" height="55.17241379310345" rx="0" ry="0" style="stroke-width:1;fill:red;"/><text x="281.3793103448276" y="193.10344827586206" font-size="12"><tspan x="281.3793103448276" dy="0em">f3</tspan></text><rect x="248.27586206896552" y="121.37931034482759" width="55.17241379310345" height="44.13793103448276" rx="0" ry="0" style="stroke-width:1;fill:green;"/><text x="275.86206896551727" y="143.44827586206895" font-size="12"><tspan x="275.86206896551727" dy="0em">f6</tspan></text><rect x="248.27586206896552" y="77.24137931034483" width="66.20689655172414" height="44.13793103448276" rx="0" ry="0" style="stroke-width:1;fill:blue;"/><text x="281.3793103448276" y="99.3103448275862" font-size="12"><tspan x="281.3793103448276" dy="0em">f12</tspan></text><rect x="0.0" y="0.0" width="110.3448275862069" height="77.24137931034483" rx="0" ry="0" style="stroke-width:1;fill:yellow;"/><text x="55.17241379310345" y="38.62068965517241" font-size="12"><tspan x="55.17241379310345" dy="0em">f7</tspan></text></g></svg>