<?xml version="1.0" standalone="no"?>
<!DOCTYPE svg PUBLIC "-//W3C//DTD SVG 1.1//EN"
  "http://www.w3.org/Graphics/SVG/1.1/DTD/svg11.dtd">
<svg width="800.0" height="604.1958041958042" version="1.1"
  xmlns="http://www.w3.org/2000/svg">
<g style="stroke:black;"><rect x="0.0" y="44.75524475524475" width="83.9160839160839" height="55.94405594405594" rx="0" ry="0" style="stroke-width:1;fill:red;"/><text x="39.16083916083916" y="72.72727272727272" font-size="12"><tspan x="39.16083916083916" dy="0em">f1</tspan></text><rect x="0.0" y="0.0" width="67.13286713286713" height="44.75524475524475" rx="0" ry="0" style="stroke-width:1;fill:green;"/><text x="33.56643356643357" y="22.377622377622377" font-size="12"><tspan x="33.56643356643357" dy="0em">f2</tspan></text><rect x="151.04895104895104" y="50.34965034965035" width="83.9160839160839" height="67.13286713286713" rx="0" ry="0" style="stroke-width:1;fill:blue;"/><text x="190.20979020979019" y="83.91608391608392" font-size="12"><tspan x="190.20979020979019" dy="0em">f3</tspan></text><rect x="151.04895104895104" y="0.0" width="50.34965034965035" height="50.34965034965035" rx="0" ry="0" style="stroke-width:1;fill:yellow;"/><text x="173.4265734265734" y="22.377622377622377" font-size="12"><tspan x="173.4265734265734" dy="0em">f4</tspan></text><rect x="285.3146853146853" y="100.6993006993007" width="50.34965034965035" height="33.56643356643357" rx="0" ry="0" style="stroke-width:1;fill:brown;"/><text x="307.6923076923077" y="117.48251748251748" font-size="12"><tspan x="307.6923076923077" dy="0em">f5</tspan></text><rect x="285.3146853146853" y="0.0" width="139.86013986013987" height="100.6993006993007" rx="0" ry="0" style="stroke-width:1;fill:pink;"/><text x="352.4475524475524" y="50.34965034965035" font-size="12"><tspan x="352.4475524475524" dy="0em">f6</tspan></text><rect x="475.5244755244755" y="100.6993006993007" width="111.88811188811188" height="89.5104895104895" rx="0" ry="0" style="stroke-width:1;fill:cyan;"/><text x="531.4685314685314" y="145.45454545454544" font-size="12"><tspan x="531.4685314685314" dy="0em">f7</tspan></text><rect x="475.5244755244755" y="72.72727272727272" width="44.75524475524475" height="27.97202797202797" rx="0" ry="0" style="stroke-width:1;fill:gray;"/><text x="497.9020979020979" y="83.9160839160839" font-size="12"><tspan x="497.9020979020979" dy="0em">f8</tspan></text><rect x="632.1678321678321" y="72.72727272727272" width="61.53846153846153" height="61.53846153846153" rx="0" ry="0" style="stroke-width:1;fill:red;"/><text x="660.13986013986" y="100.6993006993007" font-size="12"><tspan x="660.13986013986" dy="0em">f9</tspan></text><rect x="475.5244755244755" y="0.0" width="106.2937062937063" height="72.72727272727272" rx="0" ry="0" style="stroke-width:1;fill:green;"/><text x="525.8741258741259" y="33.56643356643357" font-size="12"><tspan x="525.8741258741259" dy="0em">f10</tspan></text></g></svg>