<?xml version="1.0" standalone="no"?>
<!DOCTYPE svg PUBLIC "-//W3C//DTD SVG 1.1//EN"
  "http://www.w3.org/Graphics/SVG/1.1/DTD/svg11.dtd">
<svg width="800.0" height="651.0344827586207" version="1.1"
  xmlns="http://www.w3.org/2000/svg">
<g style="stroke:black;"><rect x="0.0" y="612.4137931034484" width="49.65517241379311" height="38.62068965517241" rx="0" ry="0" style="stroke-width:1;fill:red;"/><text x="22.06896551724138" y="628.9655172413794" font-size="12"><tspan x="22.06896551724138" dy="0em">f1</tspan></text><rect x="0.0" y="502.0689655172414" width="77.24137931034483" height="55.17241379310345" rx="0" ry="0" style="stroke-width:1;fill:green;"/><text x="38.62068965517241" y="529.6551724137931" font-size="12"><tspan x="38.62068965517241" dy="0em">f2</tspan></text><rect x="77.24137931034483" y="502.0689655172414" width="66.20689655172414" height="55.17241379310345" rx="0" ry="0" style="stroke-width:1;fill:blue;"/><text x="110.34482758620689" y="529.6551724137931" font-size="12"><tspan x="110.34482758620689" dy="0em">f3</tspan></text><rect x="0.0" y="0.0" width="44.13793103448276" height="44.13793103448276" rx="0" ry="0" style="stroke-width:1;fill:yellow;"/><text x="22.06896551724138" y="22.06896551724138" font-size="12"><tspan x="22.06896551724138" dy="0em">f4</tspan></text><rect x="44.13793103448276" y="182.0689655172414" width="66.20689655172414" height="66.20689655172414" rx="0" ry="0" style="stroke-width:1;fill:brown;"/><text x="77.24137931034483" y="215.17241379310346" font-size="12"><tspan x="77.24137931034483" dy="0em">f5</tspan></text><rect x="44.13793103448276" y="0.0" width="55.17241379310345" height="44.13793103448276" rx="0" ry="0" style="stroke-width:1;fill:pink;"/><text x="71.72413793103449" y="22.06896551724138" font-size="12"><tspan x="71.72413793103449" dy="0em">f6</tspan></text><rect x="99.31034482758622" y="60.689655172413794" width="110.3448275862069" height="77.24137931034483" rx="0" ry="0" style="stroke-width:1;fill:cyan;"/><text x="154.48275862068968" y="99.3103448275862" font-size="12"><tspan x="154.48275862068968" dy="0em">f7</tspan></text><rect x="99.31034482758622" y="0.0" width="82.75862068965517" height="60.689655172413794" rx="0" ry="0" style="stroke-width:1;fill:gray;"/><text x="137.93103448275863" y="27.586206896551726" font-size="12"><tspan x="137.93103448275863" dy="0em">f8</tspan></text><rect x="358.62068965517244" y="55.17241379310345" width="66.20689655172414" height="49.65517241379311" rx="0" ry="0" style="stroke-width:1;fill:red;"/><text x="391.72413793103453" y="77.24137931034483" font-size="12"><tspan x="391.72413793103453" dy="0em">f9</tspan></text><rect x="358.62068965517244" y="0.0" width="55.17241379310345" height="55.17241379310345" rx="0" ry="0" style="stroke-width:1;fill:green;"/><text x="386.2068965517242" y="27.586206896551726" font-size="12"><tspan x="386.2068965517242" dy="0em">f10</tspan></text><rect x="480.00000000000006" y="44.13793103448276" width="60.689655172413794" height="60.689655172413794" rx="0" ry="0" style="stroke-width:1;fill:blue;"/><text x="507.5862068965518" y="71.72413793103449" font-size="12"><tspan x="507.5862068965518" dy="0em">f11</tspan></text><rect x="480.00000000000006" y="0.0" width="66.20689655172414" height="44.13793103448276" rx="0" ry="0" style="stroke-width:1;fill:yellow;"/><text x="513.1034482758621" y="22.06896551724138" font-size="12"><tspan x="513.1034482758621" dy="0em">f12</tspan></text></g></svg>