<?xml version="1.0" standalone="no"?>
<!DOCTYPE svg PUBLIC "-//W3C//DTD SVG 1.1//EN"
  "http://www.w3.org/Graphics/SVG/1.1/DTD/svg11.dtd">
<svg width="1500" height="1700" version="1.1"
  xmlns="http://www.w3.org/2000/svg">
<g style="stroke:black;"><rect x="0" y="900" width="300" height="200" rx="0" ry="0" style="stroke-width:1;fill:red;"/><text x="150" y="1000" style="fill:black;"><tspan x="150" dy="0em">f2</tspan></text><rect x="300" y="900" width="300" height="100" rx="0" ry="0" style="stroke-width:1;fill:green;"/><text x="450" y="950" style="fill:black;"><tspan x="450" dy="0em">f6</tspan></text><rect x="600" y="900" width="300" height="200" rx="0" ry="0" style="stroke-width:1;fill:blue;"/><text x="750" y="1000" style="fill:black;"><tspan x="750" dy="0em">f3</tspan></text><rect x="900" y="900" width="300" height="300" rx="0" ry="0" style="stroke-width:1;fill:yellow;"/><text x="1050" y="1050" style="fill:black;"><tspan x="1050" dy="0em">f4</tspan></text><rect x="0" y="400" width="100" height="500" rx="0" ry="0" style="stroke-width:1;fill:brown;"/><text x="50" y="650" style="fill:black;"><tspan x="50" dy="0em">f5</tspan></text><rect x="0" y="200" width="100" height="200" rx="0" ry="0" style="stroke-width:1;fill:pink;"/><text x="50" y="300" style="fill:black;"><tspan x="50" dy="0em">f0</tspan></text><rect x="0" y="0" width="100" height="200" rx="0" ry="0" style="stroke-width:1;fill:cyan;"/><text x="50" y="100" style="fill:black;"><tspan x="50" dy="0em">f1</tspan></text></g></svg>