<?xml version="1.0" encoding="UTF-8" standalone="no"?>
<!DOCTYPE svg PUBLIC "-//W3C//DTD SVG 1.1//EN"
 "http://www.w3.org/Graphics/SVG/1.1/DTD/svg11.dtd">
<!-- Generated by graphviz version 2.38.0 (20140413.2041)
 -->
<!-- Title: edges Pages: 1 -->
<svg width="973pt" height="1610pt"
 viewBox="0.00 0.00 973.00 1610.00" xmlns="http://www.w3.org/2000/svg" xmlns:xlink="http://www.w3.org/1999/xlink">
<g id="graph0" class="graph" transform="scale(1 1) rotate(0) translate(4 1606)">
<title>edges</title>
<polygon fill="white" stroke="none" points="-4,4 -4,-1606 969,-1606 969,4 -4,4"/>
<!-- f2_n -->
<g id="node1" class="node"><title>f2_n</title>
<ellipse fill="none" stroke="black" cx="903" cy="-1584" rx="27" ry="18"/>
<text text-anchor="middle" x="903" y="-1580.3" font-family="Times,serif" font-size="14.00">f2_n</text>
</g>
<!-- f2_e -->
<g id="node2" class="node"><title>f2_e</title>
<ellipse fill="none" stroke="black" cx="841" cy="-1497" rx="27" ry="18"/>
<text text-anchor="middle" x="841" y="-1493.3" font-family="Times,serif" font-size="14.00">f2_e</text>
</g>
<!-- f2_n&#45;&gt;f2_e -->
<g id="edge1" class="edge"><title>f2_n&#45;&gt;f2_e</title>
<path fill="none" stroke="black" d="M878.786,-1575.71C865.456,-1570.33 850.029,-1561.55 842,-1548 837.983,-1541.22 836.689,-1532.97 836.691,-1525.13"/>
<polygon fill="black" stroke="black" points="840.201,-1525.1 837.364,-1514.89 833.216,-1524.64 840.201,-1525.1"/>
<text text-anchor="middle" x="852.5" y="-1536.8" font-family="Times,serif" font-size="14.00">250</text>
</g>
<!-- f2_w -->
<g id="node4" class="node"><title>f2_w</title>
<ellipse fill="none" stroke="black" cx="903" cy="-1323" rx="28.6953" ry="18"/>
<text text-anchor="middle" x="903" y="-1319.3" font-family="Times,serif" font-size="14.00">f2_w</text>
</g>
<!-- f2_n&#45;&gt;f2_w -->
<g id="edge5" class="edge"><title>f2_n&#45;&gt;f2_w</title>
<path fill="none" stroke="black" d="M903.328,-1565.93C903.995,-1530.28 905.488,-1445.3 906,-1374 906.048,-1367.33 906.285,-1365.66 906,-1359 905.891,-1356.44 905.736,-1353.78 905.555,-1351.12"/>
<polygon fill="black" stroke="black" points="909.038,-1350.76 904.758,-1341.07 902.06,-1351.32 909.038,-1350.76"/>
<text text-anchor="middle" x="916.5" y="-1449.8" font-family="Times,serif" font-size="14.00">250</text>
</g>
<!-- f2_e&#45;&gt;f2_n -->
<g id="edge8" class="edge"><title>f2_e&#45;&gt;f2_n</title>
<path fill="none" stroke="black" d="M852.3,-1513.49C861.63,-1526.28 875.027,-1544.65 885.706,-1559.29"/>
<polygon fill="black" stroke="black" points="882.907,-1561.39 891.628,-1567.41 888.563,-1557.27 882.907,-1561.39"/>
<text text-anchor="middle" x="886.5" y="-1536.8" font-family="Times,serif" font-size="14.00">250</text>
</g>
<!-- f2_s -->
<g id="node3" class="node"><title>f2_s</title>
<ellipse fill="none" stroke="black" cx="853" cy="-1410" rx="27" ry="18"/>
<text text-anchor="middle" x="853" y="-1406.3" font-family="Times,serif" font-size="14.00">f2_s</text>
</g>
<!-- f2_e&#45;&gt;f2_s -->
<g id="edge2" class="edge"><title>f2_e&#45;&gt;f2_s</title>
<path fill="none" stroke="black" d="M843.428,-1478.8C845.071,-1467.16 847.276,-1451.55 849.155,-1438.24"/>
<polygon fill="black" stroke="black" points="852.643,-1438.57 850.575,-1428.18 845.712,-1437.59 852.643,-1438.57"/>
<text text-anchor="middle" x="858.5" y="-1449.8" font-family="Times,serif" font-size="14.00">250</text>
</g>
<!-- f6_w -->
<g id="node5" class="node"><title>f6_w</title>
<ellipse fill="none" stroke="black" cx="764" cy="-1410" rx="28.6953" ry="18"/>
<text text-anchor="middle" x="764" y="-1406.3" font-family="Times,serif" font-size="14.00">f6_w</text>
</g>
<!-- f2_e&#45;&gt;f6_w -->
<g id="edge9" class="edge"><title>f2_e&#45;&gt;f6_w</title>
<path fill="none" stroke="black" d="M821.293,-1484.34C811.979,-1478.19 801.144,-1470.04 793,-1461 786.462,-1453.74 780.702,-1444.77 776.075,-1436.44"/>
<polygon fill="black" stroke="black" points="779.095,-1434.67 771.35,-1427.44 772.896,-1437.92 779.095,-1434.67"/>
<text text-anchor="middle" x="805" y="-1449.8" font-family="Times,serif" font-size="14.00">50.0</text>
</g>
<!-- f2_s&#45;&gt;f2_e -->
<g id="edge7" class="edge"><title>f2_s&#45;&gt;f2_e</title>
<path fill="none" stroke="black" d="M836.685,-1424.68C830.89,-1430.57 825.051,-1437.95 822,-1446 818.829,-1454.36 820.733,-1463.51 824.343,-1471.67"/>
<polygon fill="black" stroke="black" points="821.361,-1473.51 829.162,-1480.68 827.535,-1470.21 821.361,-1473.51"/>
<text text-anchor="middle" x="832.5" y="-1449.8" font-family="Times,serif" font-size="14.00">250</text>
</g>
<!-- f2_s&#45;&gt;f2_w -->
<g id="edge3" class="edge"><title>f2_s&#45;&gt;f2_w</title>
<path fill="none" stroke="black" d="M843.82,-1392.78C839.325,-1382.52 836.031,-1369.31 842,-1359 847.963,-1348.7 858.226,-1341.17 868.651,-1335.8"/>
<polygon fill="black" stroke="black" points="870.128,-1338.97 877.75,-1331.61 867.202,-1332.61 870.128,-1338.97"/>
<text text-anchor="middle" x="852.5" y="-1362.8" font-family="Times,serif" font-size="14.00">250</text>
</g>
<!-- f2_w&#45;&gt;f2_n -->
<g id="edge4" class="edge"><title>f2_w&#45;&gt;f2_n</title>
<path fill="none" stroke="black" d="M919.451,-1337.75C925.379,-1343.65 931.472,-1351.02 935,-1359 950.697,-1394.52 941.22,-1407.21 943,-1446 945.084,-1491.42 953.383,-1506.41 935,-1548 932.85,-1552.86 929.748,-1557.5 926.311,-1561.72"/>
<polygon fill="black" stroke="black" points="923.594,-1559.5 919.451,-1569.25 928.77,-1564.22 923.594,-1559.5"/>
<text text-anchor="middle" x="954.5" y="-1449.8" font-family="Times,serif" font-size="14.00">250</text>
</g>
<!-- f2_w&#45;&gt;f2_s -->
<g id="edge6" class="edge"><title>f2_w&#45;&gt;f2_s</title>
<path fill="none" stroke="black" d="M893.468,-1340.21C886.147,-1352.65 875.911,-1370.05 867.566,-1384.24"/>
<polygon fill="black" stroke="black" points="864.458,-1382.62 862.405,-1393.01 870.492,-1386.17 864.458,-1382.62"/>
<text text-anchor="middle" x="891.5" y="-1362.8" font-family="Times,serif" font-size="14.00">250</text>
</g>
<!-- f6_n -->
<g id="node6" class="node"><title>f6_n</title>
<ellipse fill="none" stroke="black" cx="696" cy="-1323" rx="27" ry="18"/>
<text text-anchor="middle" x="696" y="-1319.3" font-family="Times,serif" font-size="14.00">f6_n</text>
</g>
<!-- f6_w&#45;&gt;f6_n -->
<g id="edge13" class="edge"><title>f6_w&#45;&gt;f6_n</title>
<path fill="none" stroke="black" d="M736.316,-1404.61C718.365,-1400.17 696.291,-1391.35 685,-1374 680.261,-1366.72 680.745,-1357.71 683.154,-1349.35"/>
<polygon fill="black" stroke="black" points="686.433,-1350.57 686.669,-1339.98 679.879,-1348.11 686.433,-1350.57"/>
<text text-anchor="middle" x="695.5" y="-1362.8" font-family="Times,serif" font-size="14.00">200</text>
</g>
<!-- f6_s -->
<g id="node8" class="node"><title>f6_s</title>
<ellipse fill="none" stroke="black" cx="746" cy="-1149" rx="27" ry="18"/>
<text text-anchor="middle" x="746" y="-1145.3" font-family="Times,serif" font-size="14.00">f6_s</text>
</g>
<!-- f6_w&#45;&gt;f6_s -->
<g id="edge15" class="edge"><title>f6_w&#45;&gt;f6_s</title>
<path fill="none" stroke="black" d="M762.819,-1392.01C759.768,-1348.1 751.602,-1230.6 747.887,-1177.15"/>
<polygon fill="black" stroke="black" points="751.37,-1176.79 747.185,-1167.06 744.387,-1177.27 751.37,-1176.79"/>
<text text-anchor="middle" x="766.5" y="-1275.8" font-family="Times,serif" font-size="14.00">200</text>
</g>
<!-- f6_n&#45;&gt;f6_w -->
<g id="edge14" class="edge"><title>f6_n&#45;&gt;f6_w</title>
<path fill="none" stroke="black" d="M705.618,-1340.34C711.818,-1350.4 720.321,-1363.36 729,-1374 732.667,-1378.49 736.834,-1383.05 740.981,-1387.33"/>
<polygon fill="black" stroke="black" points="738.763,-1390.06 748.315,-1394.64 743.707,-1385.1 738.763,-1390.06"/>
<text text-anchor="middle" x="739.5" y="-1362.8" font-family="Times,serif" font-size="14.00">200</text>
</g>
<!-- f6_e -->
<g id="node7" class="node"><title>f6_e</title>
<ellipse fill="none" stroke="black" cx="684" cy="-1236" rx="27" ry="18"/>
<text text-anchor="middle" x="684" y="-1232.3" font-family="Times,serif" font-size="14.00">f6_e</text>
</g>
<!-- f6_n&#45;&gt;f6_e -->
<g id="edge10" class="edge"><title>f6_n&#45;&gt;f6_e</title>
<path fill="none" stroke="black" d="M679.685,-1308.32C673.89,-1302.43 668.051,-1295.05 665,-1287 661.829,-1278.64 663.733,-1269.49 667.343,-1261.33"/>
<polygon fill="black" stroke="black" points="670.535,-1262.79 672.162,-1252.32 664.361,-1259.49 670.535,-1262.79"/>
<text text-anchor="middle" x="675.5" y="-1275.8" font-family="Times,serif" font-size="14.00">200</text>
</g>
<!-- f6_e&#45;&gt;f6_n -->
<g id="edge17" class="edge"><title>f6_e&#45;&gt;f6_n</title>
<path fill="none" stroke="black" d="M686.425,-1254.18C688.067,-1265.81 690.271,-1281.42 692.151,-1294.73"/>
<polygon fill="black" stroke="black" points="688.708,-1295.39 693.572,-1304.8 695.639,-1294.41 688.708,-1295.39"/>
<text text-anchor="middle" x="701.5" y="-1275.8" font-family="Times,serif" font-size="14.00">200</text>
</g>
<!-- f6_e&#45;&gt;f6_s -->
<g id="edge11" class="edge"><title>f6_e&#45;&gt;f6_s</title>
<path fill="none" stroke="black" d="M680.364,-1218.11C679.074,-1207.84 679.157,-1194.86 685,-1185 691.21,-1174.52 701.846,-1166.89 712.513,-1161.49"/>
<polygon fill="black" stroke="black" points="714.118,-1164.6 721.786,-1157.29 711.232,-1158.22 714.118,-1164.6"/>
<text text-anchor="middle" x="695.5" y="-1188.8" font-family="Times,serif" font-size="14.00">200</text>
</g>
<!-- f3_w -->
<g id="node9" class="node"><title>f3_w</title>
<ellipse fill="none" stroke="black" cx="637" cy="-1149" rx="28.6953" ry="18"/>
<text text-anchor="middle" x="637" y="-1145.3" font-family="Times,serif" font-size="14.00">f3_w</text>
</g>
<!-- f6_e&#45;&gt;f3_w -->
<g id="edge18" class="edge"><title>f6_e&#45;&gt;f3_w</title>
<path fill="none" stroke="black" d="M662.987,-1224.66C653.557,-1218.82 643.365,-1210.56 638,-1200 634.484,-1193.08 633.302,-1184.9 633.251,-1177.18"/>
<polygon fill="black" stroke="black" points="636.751,-1177.27 633.772,-1167.1 629.761,-1176.91 636.751,-1177.27"/>
<text text-anchor="middle" x="650" y="-1188.8" font-family="Times,serif" font-size="14.00">50.0</text>
</g>
<!-- f6_s&#45;&gt;f6_w -->
<g id="edge12" class="edge"><title>f6_s&#45;&gt;f6_w</title>
<path fill="none" stroke="black" d="M762.451,-1163.75C768.379,-1169.65 774.472,-1177.02 778,-1185 811.958,-1261.83 797.649,-1292.33 778,-1374 777.273,-1377.02 776.335,-1380.12 775.288,-1383.18"/>
<polygon fill="black" stroke="black" points="771.992,-1382 771.701,-1392.59 778.534,-1384.49 771.992,-1382"/>
<text text-anchor="middle" x="809.5" y="-1275.8" font-family="Times,serif" font-size="14.00">200</text>
</g>
<!-- f6_s&#45;&gt;f6_e -->
<g id="edge16" class="edge"><title>f6_s&#45;&gt;f6_e</title>
<path fill="none" stroke="black" d="M734.7,-1165.49C725.37,-1178.28 711.973,-1196.65 701.294,-1211.29"/>
<polygon fill="black" stroke="black" points="698.437,-1209.27 695.372,-1219.41 704.093,-1213.39 698.437,-1209.27"/>
<text text-anchor="middle" x="729.5" y="-1188.8" font-family="Times,serif" font-size="14.00">200</text>
</g>
<!-- f3_n -->
<g id="node10" class="node"><title>f3_n</title>
<ellipse fill="none" stroke="black" cx="587" cy="-1062" rx="27" ry="18"/>
<text text-anchor="middle" x="587" y="-1058.3" font-family="Times,serif" font-size="14.00">f3_n</text>
</g>
<!-- f3_w&#45;&gt;f3_n -->
<g id="edge22" class="edge"><title>f3_w&#45;&gt;f3_n</title>
<path fill="none" stroke="black" d="M611.75,-1140.39C598.608,-1135 583.71,-1126.31 576,-1113 571.756,-1105.67 572.195,-1096.87 574.418,-1088.72"/>
<polygon fill="black" stroke="black" points="577.741,-1089.82 577.82,-1079.22 571.151,-1087.45 577.741,-1089.82"/>
<text text-anchor="middle" x="586.5" y="-1101.8" font-family="Times,serif" font-size="14.00">250</text>
</g>
<!-- f3_s -->
<g id="node12" class="node"><title>f3_s</title>
<ellipse fill="none" stroke="black" cx="637" cy="-888" rx="27" ry="18"/>
<text text-anchor="middle" x="637" y="-884.3" font-family="Times,serif" font-size="14.00">f3_s</text>
</g>
<!-- f3_w&#45;&gt;f3_s -->
<g id="edge24" class="edge"><title>f3_w&#45;&gt;f3_s</title>
<path fill="none" stroke="black" d="M638.758,-1130.93C639.265,-1125.23 639.75,-1118.85 640,-1113 640.285,-1106.34 640.048,-1104.67 640,-1098 639.532,-1032.82 638.244,-956.221 637.517,-916.311"/>
<polygon fill="black" stroke="black" points="641.012,-916 637.328,-906.067 634.013,-916.13 641.012,-916"/>
<text text-anchor="middle" x="650.5" y="-1014.8" font-family="Times,serif" font-size="14.00">250</text>
</g>
<!-- f3_n&#45;&gt;f3_w -->
<g id="edge23" class="edge"><title>f3_n&#45;&gt;f3_w</title>
<path fill="none" stroke="black" d="M596.441,-1079.05C603.698,-1091.39 613.858,-1108.66 622.194,-1122.83"/>
<polygon fill="black" stroke="black" points="619.272,-1124.77 627.359,-1131.61 625.306,-1121.22 619.272,-1124.77"/>
<text text-anchor="middle" x="625.5" y="-1101.8" font-family="Times,serif" font-size="14.00">250</text>
</g>
<!-- f3_e -->
<g id="node11" class="node"><title>f3_e</title>
<ellipse fill="none" stroke="black" cx="575" cy="-975" rx="27" ry="18"/>
<text text-anchor="middle" x="575" y="-971.3" font-family="Times,serif" font-size="14.00">f3_e</text>
</g>
<!-- f3_n&#45;&gt;f3_e -->
<g id="edge19" class="edge"><title>f3_n&#45;&gt;f3_e</title>
<path fill="none" stroke="black" d="M570.685,-1047.32C564.89,-1041.43 559.051,-1034.05 556,-1026 552.829,-1017.64 554.733,-1008.49 558.343,-1000.33"/>
<polygon fill="black" stroke="black" points="561.535,-1001.79 563.162,-991.316 555.361,-998.486 561.535,-1001.79"/>
<text text-anchor="middle" x="566.5" y="-1014.8" font-family="Times,serif" font-size="14.00">250</text>
</g>
<!-- f3_e&#45;&gt;f3_n -->
<g id="edge26" class="edge"><title>f3_e&#45;&gt;f3_n</title>
<path fill="none" stroke="black" d="M577.425,-993.175C579.067,-1004.81 581.271,-1020.42 583.151,-1033.73"/>
<polygon fill="black" stroke="black" points="579.708,-1034.39 584.572,-1043.8 586.639,-1033.41 579.708,-1034.39"/>
<text text-anchor="middle" x="592.5" y="-1014.8" font-family="Times,serif" font-size="14.00">250</text>
</g>
<!-- f3_e&#45;&gt;f3_s -->
<g id="edge20" class="edge"><title>f3_e&#45;&gt;f3_s</title>
<path fill="none" stroke="black" d="M586.372,-958.41C595.723,-945.589 609.123,-927.219 619.788,-912.597"/>
<polygon fill="black" stroke="black" points="622.635,-914.633 625.7,-904.491 616.98,-910.508 622.635,-914.633"/>
<text text-anchor="middle" x="620.5" y="-927.8" font-family="Times,serif" font-size="14.00">250</text>
</g>
<!-- f4_w -->
<g id="node13" class="node"><title>f4_w</title>
<ellipse fill="none" stroke="black" cx="528" cy="-888" rx="28.6953" ry="18"/>
<text text-anchor="middle" x="528" y="-884.3" font-family="Times,serif" font-size="14.00">f4_w</text>
</g>
<!-- f3_e&#45;&gt;f4_w -->
<g id="edge27" class="edge"><title>f3_e&#45;&gt;f4_w</title>
<path fill="none" stroke="black" d="M553.987,-963.656C544.557,-957.817 534.365,-949.556 529,-939 525.484,-932.082 524.302,-923.901 524.251,-916.18"/>
<polygon fill="black" stroke="black" points="527.751,-916.269 524.772,-906.101 520.761,-915.908 527.751,-916.269"/>
<text text-anchor="middle" x="541" y="-927.8" font-family="Times,serif" font-size="14.00">50.0</text>
</g>
<!-- f3_s&#45;&gt;f3_w -->
<g id="edge21" class="edge"><title>f3_s&#45;&gt;f3_w</title>
<path fill="none" stroke="black" d="M653.451,-902.746C659.379,-908.645 665.472,-916.018 669,-924 684.697,-959.515 675.22,-972.211 677,-1011 679.084,-1056.42 687.383,-1071.41 669,-1113 666.85,-1117.86 663.748,-1122.5 660.311,-1126.72"/>
<polygon fill="black" stroke="black" points="657.594,-1124.5 653.451,-1134.25 662.77,-1129.22 657.594,-1124.5"/>
<text text-anchor="middle" x="688.5" y="-1014.8" font-family="Times,serif" font-size="14.00">250</text>
</g>
<!-- f3_s&#45;&gt;f3_e -->
<g id="edge25" class="edge"><title>f3_s&#45;&gt;f3_e</title>
<path fill="none" stroke="black" d="M613.154,-896.868C600.458,-902.372 585.876,-911.087 578,-924 573.891,-930.738 572.318,-938.982 572,-946.817"/>
<polygon fill="black" stroke="black" points="568.506,-947.148 572.223,-957.069 575.504,-946.996 568.506,-947.148"/>
<text text-anchor="middle" x="588.5" y="-927.8" font-family="Times,serif" font-size="14.00">250</text>
</g>
<!-- f4_n -->
<g id="node14" class="node"><title>f4_n</title>
<ellipse fill="none" stroke="black" cx="466" cy="-801" rx="27" ry="18"/>
<text text-anchor="middle" x="466" y="-797.3" font-family="Times,serif" font-size="14.00">f4_n</text>
</g>
<!-- f4_w&#45;&gt;f4_n -->
<g id="edge31" class="edge"><title>f4_w&#45;&gt;f4_n</title>
<path fill="none" stroke="black" d="M502.853,-879.329C489.742,-873.921 474.843,-865.235 467,-852 462.983,-845.222 461.689,-836.966 461.691,-829.132"/>
<polygon fill="black" stroke="black" points="465.201,-829.097 462.364,-818.889 458.216,-828.638 465.201,-829.097"/>
<text text-anchor="middle" x="477.5" y="-840.8" font-family="Times,serif" font-size="14.00">300</text>
</g>
<!-- f4_s -->
<g id="node16" class="node"><title>f4_s</title>
<ellipse fill="none" stroke="black" cx="528" cy="-627" rx="27" ry="18"/>
<text text-anchor="middle" x="528" y="-623.3" font-family="Times,serif" font-size="14.00">f4_s</text>
</g>
<!-- f4_w&#45;&gt;f4_s -->
<g id="edge33" class="edge"><title>f4_w&#45;&gt;f4_s</title>
<path fill="none" stroke="black" d="M528.328,-869.933C528.995,-834.283 530.488,-749.305 531,-678 531.048,-671.334 531.285,-669.661 531,-663 530.891,-660.441 530.736,-657.779 530.555,-655.118"/>
<polygon fill="black" stroke="black" points="534.038,-654.763 529.758,-645.071 527.06,-655.317 534.038,-654.763"/>
<text text-anchor="middle" x="541.5" y="-753.8" font-family="Times,serif" font-size="14.00">300</text>
</g>
<!-- f4_n&#45;&gt;f4_w -->
<g id="edge32" class="edge"><title>f4_n&#45;&gt;f4_w</title>
<path fill="none" stroke="black" d="M477.3,-817.491C486.63,-830.283 500.027,-848.649 510.706,-863.29"/>
<polygon fill="black" stroke="black" points="507.907,-865.393 516.628,-871.41 513.563,-861.268 507.907,-865.393"/>
<text text-anchor="middle" x="511.5" y="-840.8" font-family="Times,serif" font-size="14.00">300</text>
</g>
<!-- f4_e -->
<g id="node15" class="node"><title>f4_e</title>
<ellipse fill="none" stroke="black" cx="478" cy="-714" rx="27" ry="18"/>
<text text-anchor="middle" x="478" y="-710.3" font-family="Times,serif" font-size="14.00">f4_e</text>
</g>
<!-- f4_n&#45;&gt;f4_e -->
<g id="edge28" class="edge"><title>f4_n&#45;&gt;f4_e</title>
<path fill="none" stroke="black" d="M474.03,-783.657C476.451,-777.903 478.787,-771.298 480,-765 481.407,-757.694 481.649,-749.681 481.347,-742.251"/>
<polygon fill="black" stroke="black" points="484.838,-741.992 480.625,-732.27 477.856,-742.497 484.838,-741.992"/>
<text text-anchor="middle" x="492.5" y="-753.8" font-family="Times,serif" font-size="14.00">300</text>
</g>
<!-- f5_e -->
<g id="node17" class="node"><title>f5_e</title>
<ellipse fill="none" stroke="black" cx="330" cy="-714" rx="27" ry="18"/>
<text text-anchor="middle" x="330" y="-710.3" font-family="Times,serif" font-size="14.00">f5_e</text>
</g>
<!-- f4_n&#45;&gt;f5_e -->
<g id="edge36" class="edge"><title>f4_n&#45;&gt;f5_e</title>
<path fill="none" stroke="black" d="M438.968,-799.371C411.684,-797.275 370.096,-789.849 345,-765 338.932,-758.992 335.299,-750.634 333.13,-742.469"/>
<polygon fill="black" stroke="black" points="336.511,-741.527 331.093,-732.422 329.65,-742.918 336.511,-741.527"/>
<text text-anchor="middle" x="397.5" y="-753.8" font-family="Times,serif" font-size="14.00">982.344135219425</text>
</g>
<!-- f4_e&#45;&gt;f4_n -->
<g id="edge35" class="edge"><title>f4_e&#45;&gt;f4_n</title>
<path fill="none" stroke="black" d="M465.352,-730.045C461.209,-735.895 457.126,-742.895 455,-750 452.697,-757.697 453.392,-766.192 455.255,-773.962"/>
<polygon fill="black" stroke="black" points="451.942,-775.098 458.222,-783.631 458.634,-773.044 451.942,-775.098"/>
<text text-anchor="middle" x="465.5" y="-753.8" font-family="Times,serif" font-size="14.00">300</text>
</g>
<!-- f4_e&#45;&gt;f4_s -->
<g id="edge29" class="edge"><title>f4_e&#45;&gt;f4_s</title>
<path fill="none" stroke="black" d="M468.82,-696.779C464.325,-686.523 461.031,-673.306 467,-663 473.105,-652.458 483.717,-644.817 494.396,-639.417"/>
<polygon fill="black" stroke="black" points="496.006,-642.531 503.685,-635.232 493.13,-636.148 496.006,-642.531"/>
<text text-anchor="middle" x="477.5" y="-666.8" font-family="Times,serif" font-size="14.00">300</text>
</g>
<!-- f4_s&#45;&gt;f4_w -->
<g id="edge30" class="edge"><title>f4_s&#45;&gt;f4_w</title>
<path fill="none" stroke="black" d="M544.451,-641.746C550.379,-647.645 556.472,-655.018 560,-663 575.697,-698.515 566.22,-711.211 568,-750 570.084,-795.425 578.383,-810.409 560,-852 557.85,-856.864 554.748,-861.502 551.311,-865.718"/>
<polygon fill="black" stroke="black" points="548.594,-863.503 544.451,-873.254 553.77,-868.215 548.594,-863.503"/>
<text text-anchor="middle" x="579.5" y="-753.8" font-family="Times,serif" font-size="14.00">300</text>
</g>
<!-- f4_s&#45;&gt;f4_e -->
<g id="edge34" class="edge"><title>f4_s&#45;&gt;f4_e</title>
<path fill="none" stroke="black" d="M518.638,-643.916C511.316,-656.363 501.005,-673.892 492.601,-688.178"/>
<polygon fill="black" stroke="black" points="489.458,-686.618 487.405,-697.012 495.492,-690.167 489.458,-686.618"/>
<text text-anchor="middle" x="516.5" y="-666.8" font-family="Times,serif" font-size="14.00">300</text>
</g>
<!-- f5_n -->
<g id="node18" class="node"><title>f5_n</title>
<ellipse fill="none" stroke="black" cx="321" cy="-627" rx="27" ry="18"/>
<text text-anchor="middle" x="321" y="-623.3" font-family="Times,serif" font-size="14.00">f5_n</text>
</g>
<!-- f5_e&#45;&gt;f5_n -->
<g id="edge44" class="edge"><title>f5_e&#45;&gt;f5_n</title>
<path fill="none" stroke="black" d="M331.062,-695.809C331.394,-686.133 331.373,-673.851 330,-663 329.657,-660.292 329.171,-657.494 328.601,-654.715"/>
<polygon fill="black" stroke="black" points="331.99,-653.839 326.266,-644.923 325.181,-655.462 331.99,-653.839"/>
<text text-anchor="middle" x="342.5" y="-666.8" font-family="Times,serif" font-size="14.00">300</text>
</g>
<!-- f5_s -->
<g id="node19" class="node"><title>f5_s</title>
<ellipse fill="none" stroke="black" cx="330" cy="-453" rx="27" ry="18"/>
<text text-anchor="middle" x="330" y="-449.3" font-family="Times,serif" font-size="14.00">f5_s</text>
</g>
<!-- f5_e&#45;&gt;f5_s -->
<g id="edge38" class="edge"><title>f5_e&#45;&gt;f5_s</title>
<path fill="none" stroke="black" d="M344.102,-698.467C349.007,-692.569 354.021,-685.405 357,-678 382.967,-613.454 382.978,-590.353 370,-522 367.059,-506.513 364.78,-502.71 357,-489 354.723,-484.987 352.026,-480.928 349.232,-477.067"/>
<polygon fill="black" stroke="black" points="351.938,-474.844 343.086,-469.023 346.376,-479.094 351.938,-474.844"/>
<text text-anchor="middle" x="389.5" y="-579.8" font-family="Times,serif" font-size="14.00">300</text>
</g>
<!-- f5_n&#45;&gt;f5_e -->
<g id="edge37" class="edge"><title>f5_n&#45;&gt;f5_e</title>
<path fill="none" stroke="black" d="M312.889,-644.286C309.045,-654.097 305.902,-666.816 309,-678 310.005,-681.628 311.497,-685.257 313.231,-688.732"/>
<polygon fill="black" stroke="black" points="310.217,-690.511 318.217,-697.457 316.294,-687.038 310.217,-690.511"/>
<text text-anchor="middle" x="319.5" y="-666.8" font-family="Times,serif" font-size="14.00">300</text>
</g>
<!-- f5_w -->
<g id="node20" class="node"><title>f5_w</title>
<ellipse fill="none" stroke="black" cx="332" cy="-540" rx="28.6953" ry="18"/>
<text text-anchor="middle" x="332" y="-536.3" font-family="Times,serif" font-size="14.00">f5_w</text>
</g>
<!-- f5_n&#45;&gt;f5_w -->
<g id="edge41" class="edge"><title>f5_n&#45;&gt;f5_w</title>
<path fill="none" stroke="black" d="M311.565,-609.696C307.09,-599.879 303.424,-587.16 307,-576 308.307,-571.92 310.285,-567.911 312.566,-564.146"/>
<polygon fill="black" stroke="black" points="315.468,-566.103 318.267,-555.884 309.707,-562.126 315.468,-566.103"/>
<text text-anchor="middle" x="317.5" y="-579.8" font-family="Times,serif" font-size="14.00">300</text>
</g>
<!-- f0_s -->
<g id="node21" class="node"><title>f0_s</title>
<ellipse fill="none" stroke="black" cx="197" cy="-540" rx="27" ry="18"/>
<text text-anchor="middle" x="197" y="-536.3" font-family="Times,serif" font-size="14.00">f0_s</text>
</g>
<!-- f5_n&#45;&gt;f0_s -->
<g id="edge45" class="edge"><title>f5_n&#45;&gt;f0_s</title>
<path fill="none" stroke="black" d="M295.095,-621.266C274.759,-616.473 246.687,-607.362 227,-591 219.224,-584.538 212.95,-575.507 208.188,-566.897"/>
<polygon fill="black" stroke="black" points="211.253,-565.202 203.616,-557.859 205.007,-568.362 211.253,-565.202"/>
<text text-anchor="middle" x="235.5" y="-579.8" font-family="Times,serif" font-size="14.00">0.0</text>
</g>
<!-- f5_s&#45;&gt;f5_e -->
<g id="edge43" class="edge"><title>f5_s&#45;&gt;f5_e</title>
<path fill="none" stroke="black" d="M317.132,-468.928C312.496,-474.874 307.541,-481.969 304,-489 286.009,-524.72 285.713,-536.284 281,-576 277.38,-606.504 275.976,-615.637 285,-645 289.972,-661.177 294.716,-663.85 304,-678 306.429,-681.702 309.106,-685.54 311.79,-689.259"/>
<polygon fill="black" stroke="black" points="309.195,-691.636 317.954,-697.597 314.824,-687.475 309.195,-691.636"/>
<text text-anchor="middle" x="291.5" y="-579.8" font-family="Times,serif" font-size="14.00">300</text>
</g>
<!-- f5_s&#45;&gt;f5_w -->
<g id="edge39" class="edge"><title>f5_s&#45;&gt;f5_w</title>
<path fill="none" stroke="black" d="M317.485,-469.448C311.133,-479.172 305.438,-492.093 309,-504 310.107,-507.701 311.745,-511.373 313.646,-514.868"/>
<polygon fill="black" stroke="black" points="310.841,-516.984 319.108,-523.61 316.777,-513.274 310.841,-516.984"/>
<text text-anchor="middle" x="319.5" y="-492.8" font-family="Times,serif" font-size="14.00">300</text>
</g>
<!-- f5_w&#45;&gt;f5_n -->
<g id="edge40" class="edge"><title>f5_w&#45;&gt;f5_n</title>
<path fill="none" stroke="black" d="M333.283,-558.222C333.685,-567.908 333.659,-580.189 332,-591 331.58,-593.739 330.985,-596.557 330.286,-599.349"/>
<polygon fill="black" stroke="black" points="326.866,-598.577 327.433,-609.157 333.587,-600.533 326.866,-598.577"/>
<text text-anchor="middle" x="344.5" y="-579.8" font-family="Times,serif" font-size="14.00">300</text>
</g>
<!-- f5_w&#45;&gt;f5_s -->
<g id="edge42" class="edge"><title>f5_w&#45;&gt;f5_s</title>
<path fill="none" stroke="black" d="M331.595,-521.799C331.321,-510.163 330.954,-494.548 330.641,-481.237"/>
<polygon fill="black" stroke="black" points="334.138,-481.09 330.404,-471.175 327.14,-481.255 334.138,-481.09"/>
<text text-anchor="middle" x="342.5" y="-492.8" font-family="Times,serif" font-size="14.00">300</text>
</g>
<!-- f0_e -->
<g id="node23" class="node"><title>f0_e</title>
<ellipse fill="none" stroke="black" cx="129" cy="-453" rx="27" ry="18"/>
<text text-anchor="middle" x="129" y="-449.3" font-family="Times,serif" font-size="14.00">f0_e</text>
</g>
<!-- f0_s&#45;&gt;f0_e -->
<g id="edge52" class="edge"><title>f0_s&#45;&gt;f0_e</title>
<path fill="none" stroke="black" d="M181.664,-524.979C175.278,-518.816 167.976,-511.324 162,-504 155.626,-496.188 149.348,-487.123 144.006,-478.874"/>
<polygon fill="black" stroke="black" points="146.916,-476.928 138.618,-470.341 140.998,-480.665 146.916,-476.928"/>
<text text-anchor="middle" x="172.5" y="-492.8" font-family="Times,serif" font-size="14.00">150</text>
</g>
<!-- f0_w -->
<g id="node24" class="node"><title>f0_w</title>
<ellipse fill="none" stroke="black" cx="179" cy="-279" rx="28.6953" ry="18"/>
<text text-anchor="middle" x="179" y="-275.3" font-family="Times,serif" font-size="14.00">f0_w</text>
</g>
<!-- f0_s&#45;&gt;f0_w -->
<g id="edge48" class="edge"><title>f0_s&#45;&gt;f0_w</title>
<path fill="none" stroke="black" d="M195.819,-522.006C192.768,-478.102 184.602,-360.6 180.887,-307.147"/>
<polygon fill="black" stroke="black" points="184.37,-306.79 180.185,-297.056 177.387,-307.275 184.37,-306.79"/>
<text text-anchor="middle" x="199.5" y="-405.8" font-family="Times,serif" font-size="14.00">150</text>
</g>
<!-- f0_n -->
<g id="node22" class="node"><title>f0_n</title>
<ellipse fill="none" stroke="black" cx="117" cy="-366" rx="27" ry="18"/>
<text text-anchor="middle" x="117" y="-362.3" font-family="Times,serif" font-size="14.00">f0_n</text>
</g>
<!-- f0_n&#45;&gt;f0_e -->
<g id="edge46" class="edge"><title>f0_n&#45;&gt;f0_e</title>
<path fill="none" stroke="black" d="M119.425,-384.175C121.067,-395.806 123.271,-411.419 125.151,-424.734"/>
<polygon fill="black" stroke="black" points="121.708,-425.386 126.572,-434.799 128.639,-424.408 121.708,-425.386"/>
<text text-anchor="middle" x="134.5" y="-405.8" font-family="Times,serif" font-size="14.00">150</text>
</g>
<!-- f0_n&#45;&gt;f0_w -->
<g id="edge50" class="edge"><title>f0_n&#45;&gt;f0_w</title>
<path fill="none" stroke="black" d="M114.223,-348.069C113.412,-337.787 114.023,-324.8 120,-315 125.827,-305.445 135.326,-298.189 145.016,-292.832"/>
<polygon fill="black" stroke="black" points="146.839,-295.834 154.251,-288.264 143.736,-289.56 146.839,-295.834"/>
<text text-anchor="middle" x="130.5" y="-318.8" font-family="Times,serif" font-size="14.00">150</text>
</g>
<!-- f1_s -->
<g id="node25" class="node"><title>f1_s</title>
<ellipse fill="none" stroke="black" cx="77" cy="-279" rx="27" ry="18"/>
<text text-anchor="middle" x="77" y="-275.3" font-family="Times,serif" font-size="14.00">f1_s</text>
</g>
<!-- f0_n&#45;&gt;f1_s -->
<g id="edge54" class="edge"><title>f0_n&#45;&gt;f1_s</title>
<path fill="none" stroke="black" d="M97.8921,-353.028C90.2403,-347.12 82.2448,-339.263 78,-330 74.7673,-322.946 73.6699,-314.723 73.6109,-307.007"/>
<polygon fill="black" stroke="black" points="77.1099,-307.107 74.071,-296.957 70.1172,-306.786 77.1099,-307.107"/>
<text text-anchor="middle" x="86.5" y="-318.8" font-family="Times,serif" font-size="14.00">0.0</text>
</g>
<!-- f0_e&#45;&gt;f0_s -->
<g id="edge47" class="edge"><title>f0_e&#45;&gt;f0_s</title>
<path fill="none" stroke="black" d="M119.669,-469.981C114.924,-480.39 111.407,-493.868 118,-504 127.621,-518.786 145.073,-527.373 161.13,-532.336"/>
<polygon fill="black" stroke="black" points="160.298,-535.737 170.866,-534.981 162.134,-528.982 160.298,-535.737"/>
<text text-anchor="middle" x="128.5" y="-492.8" font-family="Times,serif" font-size="14.00">150</text>
</g>
<!-- f0_e&#45;&gt;f0_n -->
<g id="edge53" class="edge"><title>f0_e&#45;&gt;f0_n</title>
<path fill="none" stroke="black" d="M112.685,-438.319C106.89,-432.429 101.051,-425.045 98,-417 94.829,-408.637 96.7333,-399.49 100.343,-391.332"/>
<polygon fill="black" stroke="black" points="103.535,-392.785 105.162,-382.316 97.361,-389.486 103.535,-392.785"/>
<text text-anchor="middle" x="108.5" y="-405.8" font-family="Times,serif" font-size="14.00">150</text>
</g>
<!-- f0_w&#45;&gt;f0_s -->
<g id="edge51" class="edge"><title>f0_w&#45;&gt;f0_s</title>
<path fill="none" stroke="black" d="M187.996,-296.378C190.876,-302.135 193.867,-308.733 196,-315 208.724,-352.379 209.979,-362.72 214,-402 218.622,-447.152 217.744,-459.462 209,-504 208.432,-506.896 207.681,-509.879 206.831,-512.825"/>
<polygon fill="black" stroke="black" points="203.443,-511.927 203.685,-522.519 210.101,-514.088 203.443,-511.927"/>
<text text-anchor="middle" x="226.5" y="-405.8" font-family="Times,serif" font-size="14.00">150</text>
</g>
<!-- f0_w&#45;&gt;f0_n -->
<g id="edge49" class="edge"><title>f0_w&#45;&gt;f0_n</title>
<path fill="none" stroke="black" d="M167.49,-295.779C158.245,-308.454 145.109,-326.463 134.553,-340.935"/>
<polygon fill="black" stroke="black" points="131.437,-339.268 128.372,-349.41 137.093,-343.393 131.437,-339.268"/>
<text text-anchor="middle" x="162.5" y="-318.8" font-family="Times,serif" font-size="14.00">150</text>
</g>
<!-- f1_e -->
<g id="node27" class="node"><title>f1_e</title>
<ellipse fill="none" stroke="black" cx="27" cy="-192" rx="27" ry="18"/>
<text text-anchor="middle" x="27" y="-188.3" font-family="Times,serif" font-size="14.00">f1_e</text>
</g>
<!-- f1_s&#45;&gt;f1_e -->
<g id="edge61" class="edge"><title>f1_s&#45;&gt;f1_e</title>
<path fill="none" stroke="black" d="M54.3011,-268.903C43.3409,-263.217 31.2386,-254.719 25,-243 21.3514,-236.146 20.4942,-227.984 20.924,-220.262"/>
<polygon fill="black" stroke="black" points="24.4184,-220.522 22.1666,-210.169 17.4708,-219.666 24.4184,-220.522"/>
<text text-anchor="middle" x="35.5" y="-231.8" font-family="Times,serif" font-size="14.00">150</text>
</g>
<!-- f1_w -->
<g id="node28" class="node"><title>f1_w</title>
<ellipse fill="none" stroke="black" cx="77" cy="-18" rx="28.6953" ry="18"/>
<text text-anchor="middle" x="77" y="-14.3" font-family="Times,serif" font-size="14.00">f1_w</text>
</g>
<!-- f1_s&#45;&gt;f1_w -->
<g id="edge57" class="edge"><title>f1_s&#45;&gt;f1_w</title>
<path fill="none" stroke="black" d="M78.7575,-260.929C79.2653,-255.234 79.7498,-248.849 80,-243 83.5901,-159.077 83.5901,-137.923 80,-54 79.8905,-51.4409 79.7362,-48.7794 79.5547,-46.1181"/>
<polygon fill="black" stroke="black" points="83.0377,-45.7628 78.7575,-36.071 76.0596,-46.3166 83.0377,-45.7628"/>
<text text-anchor="middle" x="93.5" y="-144.8" font-family="Times,serif" font-size="14.00">150</text>
</g>
<!-- f1_n -->
<g id="node26" class="node"><title>f1_n</title>
<ellipse fill="none" stroke="black" cx="27" cy="-105" rx="27" ry="18"/>
<text text-anchor="middle" x="27" y="-101.3" font-family="Times,serif" font-size="14.00">f1_n</text>
</g>
<!-- f1_n&#45;&gt;f1_e -->
<g id="edge55" class="edge"><title>f1_n&#45;&gt;f1_e</title>
<path fill="none" stroke="black" d="M27,-123.175C27,-134.806 27,-150.419 27,-163.734"/>
<polygon fill="black" stroke="black" points="23.5001,-163.799 27,-173.799 30.5001,-163.799 23.5001,-163.799"/>
<text text-anchor="middle" x="37.5" y="-144.8" font-family="Times,serif" font-size="14.00">150</text>
</g>
<!-- f1_n&#45;&gt;f1_w -->
<g id="edge59" class="edge"><title>f1_n&#45;&gt;f1_w</title>
<path fill="none" stroke="black" d="M22.1666,-86.8309C20.2917,-76.7071 19.693,-63.9692 25,-54 29.4688,-45.6053 36.9464,-38.8633 44.8576,-33.624"/>
<polygon fill="black" stroke="black" points="46.6628,-36.6227 53.4906,-28.5214 43.101,-30.5966 46.6628,-36.6227"/>
<text text-anchor="middle" x="35.5" y="-57.8" font-family="Times,serif" font-size="14.00">150</text>
</g>
<!-- f1_e&#45;&gt;f1_s -->
<g id="edge56" class="edge"><title>f1_e&#45;&gt;f1_s</title>
<path fill="none" stroke="black" d="M36.3624,-208.916C43.6839,-221.363 53.9953,-238.892 62.399,-253.178"/>
<polygon fill="black" stroke="black" points="59.5084,-255.167 67.5954,-262.012 65.5419,-251.618 59.5084,-255.167"/>
<text text-anchor="middle" x="65.5" y="-231.8" font-family="Times,serif" font-size="14.00">150</text>
</g>
<!-- f1_e&#45;&gt;f1_n -->
<g id="edge62" class="edge"><title>f1_e&#45;&gt;f1_n</title>
<path fill="none" stroke="black" d="M12.6742,-176.195C5.0669,-166.503 -1.9688,-153.385 2,-141 3.30749,-136.92 5.28466,-132.911 7.56567,-129.146"/>
<polygon fill="black" stroke="black" points="10.4677,-131.103 13.2673,-120.884 4.70651,-127.126 10.4677,-131.103"/>
<text text-anchor="middle" x="12.5" y="-144.8" font-family="Times,serif" font-size="14.00">150</text>
</g>
<!-- f1_w&#45;&gt;f1_s -->
<g id="edge60" class="edge"><title>f1_w&#45;&gt;f1_s</title>
<path fill="none" stroke="black" d="M86.7596,-35.2562C89.8275,-41.0035 92.9466,-47.6264 95,-54 109.014,-97.4984 111.386,-110.426 108,-156 105.103,-194.988 106.989,-205.788 95,-243 93.9196,-246.353 92.5442,-249.776 91.0365,-253.104"/>
<polygon fill="black" stroke="black" points="87.8846,-251.581 86.5718,-262.095 94.1542,-254.695 87.8846,-251.581"/>
<text text-anchor="middle" x="119.5" y="-144.8" font-family="Times,serif" font-size="14.00">150</text>
</g>
<!-- f1_w&#45;&gt;f1_n -->
<g id="edge58" class="edge"><title>f1_w&#45;&gt;f1_n</title>
<path fill="none" stroke="black" d="M67.4676,-35.2052C60.1468,-47.6504 49.9113,-65.0508 41.566,-79.2378"/>
<polygon fill="black" stroke="black" points="38.4581,-77.6182 36.4046,-88.0122 44.4916,-81.1674 38.4581,-77.6182"/>
<text text-anchor="middle" x="65.5" y="-57.8" font-family="Times,serif" font-size="14.00">150</text>
</g>
</g>
</svg>
