<?xml version="1.0" standalone="no"?>
<!DOCTYPE svg PUBLIC "-//W3C//DTD SVG 1.1//EN"
  "http://www.w3.org/Graphics/SVG/1.1/DTD/svg11.dtd">
<svg width="597.3333333333333" height="640.0" version="1.1"
  xmlns="http://www.w3.org/2000/svg">
<g style="stroke:black;"><rect x="0.0" y="426.66666666666663" width="213.33333333333331" height="213.33333333333331" rx="0" ry="0" style="stroke-width:1;fill:lightgray;"/><rect x="201.38666666666666" y="533.3333333333333" width="11.946666666666667" height="11.946666666666667" rx="0" ry="0" style="stroke-width:1;fill:gray;"/><text x="106.66666666666666" y="533.3333333333333" font-size="12"><tspan x="106.66666666666666" dy="0em">f3</tspan></text><rect x="213.33333333333331" y="426.66666666666663" width="384.0" height="213.33333333333331" rx="0" ry="0" style="stroke-width:1;fill:lightgray;"/><rect x="213.33333333333331" y="533.3333333333333" width="11.946666666666667" height="11.946666666666667" rx="0" ry="0" style="stroke-width:1;fill:gray;"/><text x="405.3333333333333" y="533.3333333333333" font-size="12"><tspan x="405.3333333333333" dy="0em">f1</tspan></text><rect x="0.0" y="320.0" width="192.0" height="106.66666666666666" rx="0" ry="0" style="stroke-width:1;fill:lightgray;"/><rect x="180.0533333333333" y="362.66666666666663" width="11.946666666666667" height="11.946666666666667" rx="0" ry="0" style="stroke-width:1;fill:gray;"/><text x="85.33333333333333" y="362.6666666666667" font-size="12"><tspan x="85.33333333333333" dy="0em">f2</tspan></text><rect x="0.0" y="0.0" width="426.66666666666663" height="320.0" rx="0" ry="0" style="stroke-width:1;fill:lightgray;"/><rect x="213.33333333333331" y="308.0533333333333" width="11.946666666666667" height="11.946666666666667" rx="0" ry="0" style="stroke-width:1;fill:gray;"/><text x="213.33333333333331" y="149.33333333333331" font-size="12"><tspan x="213.33333333333331" dy="0em">f4</tspan></text></g></svg>