<?xml version="1.0" standalone="no"?>
<!DOCTYPE svg PUBLIC "-//W3C//DTD SVG 1.1//EN"
  "http://www.w3.org/Graphics/SVG/1.1/DTD/svg11.dtd">
<svg width="413.16455696202536" height="640.0" version="1.1"
  xmlns="http://www.w3.org/2000/svg">
<g style="stroke:black;"><rect x="0.0" y="234.9367088607595" width="202.53164556962025" height="145.8227848101266" rx="0" ry="0" style="stroke-width:1;fill:lightgray;"/><rect x="194.26835443037976" y="307.84810126582283" width="8.263291139240508" height="8.263291139240508" rx="0" ry="0" style="stroke-width:1;fill:gray;"/><text x="97.21518987341773" y="307.8481012658228" font-size="12"><tspan x="97.21518987341773" dy="0em">f6</tspan></text><rect x="202.53164556962025" y="364.55696202531647" width="89.11392405063292" height="89.11392405063292" rx="0" ry="0" style="stroke-width:1;fill:lightgray;"/><rect x="243.03797468354432" y="445.40759493670885" width="8.263291139240508" height="8.263291139240508" rx="0" ry="0" style="stroke-width:1;fill:gray;"/><text x="243.0379746835443" y="405.0632911392405" font-size="12"><tspan x="243.0379746835443" dy="0em">f9</tspan></text><rect x="291.6455696202532" y="575.1898734177215" width="97.21518987341773" height="64.81012658227849" rx="0" ry="0" style="stroke-width:1;fill:lightgray;"/><rect x="340.253164556962" y="575.1898734177215" width="8.263291139240508" height="8.263291139240508" rx="0" ry="0" style="stroke-width:1;fill:gray;"/><text x="340.253164556962" y="607.5949367088608" font-size="12"><tspan x="340.253164556962" dy="0em">f2</tspan></text><rect x="291.6455696202532" y="502.2784810126583" width="72.9113924050633" height="72.9113924050633" rx="0" ry="0" style="stroke-width:1;fill:lightgray;"/><rect x="324.0506329113924" y="502.2784810126583" width="8.263291139240508" height="8.263291139240508" rx="0" ry="0" style="stroke-width:1;fill:gray;"/><text x="324.0506329113924" y="534.6835443037976" font-size="12"><tspan x="324.0506329113924" dy="0em">f4</tspan></text><rect x="291.6455696202532" y="405.0632911392405" width="121.51898734177216" height="97.21518987341773" rx="0" ry="0" style="stroke-width:1;fill:lightgray;"/><rect x="291.6455696202532" y="453.6708860759494" width="8.263291139240508" height="8.263291139240508" rx="0" ry="0" style="stroke-width:1;fill:gray;"/><text x="348.3544303797469" y="453.6708860759494" font-size="12"><tspan x="348.3544303797469" dy="0em">f3</tspan></text><rect x="291.6455696202532" y="364.55696202531647" width="64.81012658227849" height="40.50632911392405" rx="0" ry="0" style="stroke-width:1;fill:lightgray;"/><rect x="291.6455696202532" y="380.7594936708861" width="8.263291139240508" height="8.263291139240508" rx="0" ry="0" style="stroke-width:1;fill:gray;"/><text x="324.0506329113924" y="380.75949367088606" font-size="12"><tspan x="324.0506329113924" dy="0em">f8</tspan></text><rect x="202.53164556962025" y="283.5443037974684" width="121.51898734177216" height="81.0126582278481" rx="0" ry="0" style="stroke-width:1;fill:lightgray;"/><rect x="202.53164556962025" y="324.0506329113924" width="8.263291139240508" height="8.263291139240508" rx="0" ry="0" style="stroke-width:1;fill:gray;"/><text x="259.24050632911394" y="324.0506329113924" font-size="12"><tspan x="259.24050632911394" dy="0em">f1</tspan></text><rect x="202.53164556962025" y="234.9367088607595" width="72.9113924050633" height="48.607594936708864" rx="0" ry="0" style="stroke-width:1;fill:lightgray;"/><rect x="234.9367088607595" y="275.28101265822784" width="8.263291139240508" height="8.263291139240508" rx="0" ry="0" style="stroke-width:1;fill:gray;"/><text x="234.9367088607595" y="259.24050632911394" font-size="12"><tspan x="234.9367088607595" dy="0em">f5</tspan></text><rect x="0.0" y="129.62025316455697" width="153.92405063291142" height="105.31645569620254" rx="0" ry="0" style="stroke-width:1;fill:lightgray;"/><rect x="72.9113924050633" y="129.62025316455697" width="8.263291139240508" height="8.263291139240508" rx="0" ry="0" style="stroke-width:1;fill:gray;"/><text x="72.9113924050633" y="178.22784810126583" font-size="12"><tspan x="72.9113924050633" dy="0em">f10</tspan></text><rect x="0.0" y="0.0" width="162.0253164556962" height="129.62025316455697" rx="0" ry="0" style="stroke-width:1;fill:lightgray;"/><rect x="81.0126582278481" y="121.35696202531646" width="8.263291139240508" height="8.263291139240508" rx="0" ry="0" style="stroke-width:1;fill:gray;"/><text x="81.0126582278481" y="64.81012658227849" font-size="12"><tspan x="81.0126582278481" dy="0em">f7</tspan></text></g></svg>