<?xml version="1.0" standalone="no"?>
<!DOCTYPE svg PUBLIC "-//W3C//DTD SVG 1.1//EN"
  "http://www.w3.org/Graphics/SVG/1.1/DTD/svg11.dtd">
<svg width="463.1578947368421" height="640.0" version="1.1"
  xmlns="http://www.w3.org/2000/svg">
<g style="stroke:black;"><rect x="0.0" y="328.4210526315789" width="126.3157894736842" height="101.05263157894737" rx="0" ry="0" style="stroke-width:1;fill:lightgray;"/><rect x="117.05263157894737" y="378.9473684210526" width="9.263157894736842" height="9.263157894736842" rx="0" ry="0" style="stroke-width:1;fill:gray;"/><text x="58.94736842105263" y="378.9473684210526" font-size="12"><tspan x="58.94736842105263" dy="0em">f3</tspan></text><rect x="126.3157894736842" y="404.2105263157895" width="92.63157894736841" height="92.63157894736841" rx="0" ry="0" style="stroke-width:1;fill:lightgray;"/><rect x="126.3157894736842" y="446.31578947368416" width="9.263157894736842" height="9.263157894736842" rx="0" ry="0" style="stroke-width:1;fill:gray;"/><text x="168.42105263157893" y="446.3157894736842" font-size="12"><tspan x="168.42105263157893" dy="0em">f9</tspan></text><rect x="126.3157894736842" y="328.4210526315789" width="75.78947368421052" height="75.78947368421052" rx="0" ry="0" style="stroke-width:1;fill:lightgray;"/><rect x="126.3157894736842" y="362.10526315789474" width="9.263157894736842" height="9.263157894736842" rx="0" ry="0" style="stroke-width:1;fill:gray;"/><text x="160.0" y="362.1052631578947" font-size="12"><tspan x="160.0" dy="0em">f4</tspan></text><rect x="294.7368421052631" y="505.2631578947368" width="168.42105263157893" height="134.73684210526315" rx="0" ry="0" style="stroke-width:1;fill:lightgray;"/><rect x="378.9473684210526" y="505.2631578947368" width="9.263157894736842" height="9.263157894736842" rx="0" ry="0" style="stroke-width:1;fill:gray;"/><text x="378.9473684210526" y="572.6315789473684" font-size="12"><tspan x="378.9473684210526" dy="0em">f7</tspan></text><rect x="294.7368421052631" y="395.7894736842105" width="160.0" height="109.47368421052632" rx="0" ry="0" style="stroke-width:1;fill:lightgray;"/><rect x="370.52631578947364" y="495.99999999999994" width="9.263157894736842" height="9.263157894736842" rx="0" ry="0" style="stroke-width:1;fill:gray;"/><text x="370.52631578947364" y="446.3157894736842" font-size="12"><tspan x="370.52631578947364" dy="0em">f10</tspan></text><rect x="294.7368421052631" y="328.4210526315789" width="101.05263157894737" height="67.36842105263158" rx="0" ry="0" style="stroke-width:1;fill:lightgray;"/><rect x="294.7368421052631" y="362.10526315789474" width="9.263157894736842" height="9.263157894736842" rx="0" ry="0" style="stroke-width:1;fill:gray;"/><text x="345.2631578947368" y="362.1052631578947" font-size="12"><tspan x="345.2631578947368" dy="0em">f2</tspan></text><rect x="0.0" y="202.10526315789474" width="126.3157894736842" height="84.21052631578947" rx="0" ry="0" style="stroke-width:1;fill:lightgray;"/><rect x="117.05263157894737" y="244.21052631578945" width="9.263157894736842" height="9.263157894736842" rx="0" ry="0" style="stroke-width:1;fill:gray;"/><text x="58.94736842105263" y="244.21052631578948" font-size="12"><tspan x="58.94736842105263" dy="0em">f1</tspan></text><rect x="126.3157894736842" y="202.10526315789474" width="67.36842105263158" height="42.10526315789473" rx="0" ry="0" style="stroke-width:1;fill:lightgray;"/><rect x="126.3157894736842" y="218.94736842105263" width="9.263157894736842" height="9.263157894736842" rx="0" ry="0" style="stroke-width:1;fill:gray;"/><text x="160.0" y="218.94736842105263" font-size="12"><tspan x="160.0" dy="0em">f8</tspan></text><rect x="0.0" y="151.57894736842104" width="75.78947368421052" height="50.526315789473685" rx="0" ry="0" style="stroke-width:1;fill:lightgray;"/><rect x="66.52631578947368" y="176.8421052631579" width="9.263157894736842" height="9.263157894736842" rx="0" ry="0" style="stroke-width:1;fill:gray;"/><text x="33.68421052631579" y="176.8421052631579" font-size="12"><tspan x="33.68421052631579" dy="0em">f5</tspan></text><rect x="0.0" y="0.0" width="210.52631578947367" height="151.57894736842104" rx="0" ry="0" style="stroke-width:1;fill:lightgray;"/><rect x="101.05263157894737" y="142.3157894736842" width="9.263157894736842" height="9.263157894736842" rx="0" ry="0" style="stroke-width:1;fill:gray;"/><text x="101.05263157894737" y="75.78947368421052" font-size="12"><tspan x="101.05263157894737" dy="0em">f6</tspan></text></g></svg>