<?xml version="1.0" standalone="no"?>
<!DOCTYPE svg PUBLIC "-//W3C//DTD SVG 1.1//EN"
  "http://www.w3.org/Graphics/SVG/1.1/DTD/svg11.dtd">
<svg width="480.0" height="408.51063829787233" version="1.1"
  xmlns="http://www.w3.org/2000/svg">
<g style="stroke:black;"><rect x="0.0" y="306.3829787234043" width="102.12765957446808" height="102.12765957446808" rx="0" ry="0" style="stroke-width:1;fill:lightgray;"/><rect x="51.06382978723404" y="306.3829787234043" width="9.6" height="9.6" rx="0" ry="0" style="stroke-width:1;fill:gray;"/><text x="51.06382978723404" y="357.44680851063833" font-size="12"><tspan x="51.06382978723404" dy="0em">f3</tspan></text><rect x="0.0" y="0.0" width="204.25531914893617" height="153.19148936170214" rx="0" ry="0" style="stroke-width:1;fill:lightgray;"/><rect x="194.65531914893617" y="71.48936170212767" width="9.6" height="9.6" rx="0" ry="0" style="stroke-width:1;fill:gray;"/><text x="102.12765957446808" y="71.48936170212767" font-size="12"><tspan x="102.12765957446808" dy="0em">f4</tspan></text><rect x="204.25531914893617" y="0.0" width="183.82978723404256" height="102.12765957446808" rx="0" ry="0" style="stroke-width:1;fill:lightgray;"/><rect x="296.17021276595744" y="92.52765957446809" width="9.6" height="9.6" rx="0" ry="0" style="stroke-width:1;fill:gray;"/><text x="296.17021276595744" y="51.06382978723404" font-size="12"><tspan x="296.17021276595744" dy="0em">f1</tspan></text><rect x="388.0851063829787" y="0.0" width="91.91489361702128" height="51.06382978723404" rx="0" ry="0" style="stroke-width:1;fill:lightgray;"/><rect x="428.936170212766" y="0.0" width="9.6" height="9.6" rx="0" ry="0" style="stroke-width:1;fill:gray;"/><text x="428.93617021276594" y="20.425531914893618" font-size="12"><tspan x="428.93617021276594" dy="0em">f2</tspan></text></g></svg>