<?xml version="1.0" standalone="no"?>
<!DOCTYPE svg PUBLIC "-//W3C//DTD SVG 1.1//EN"
  "http://www.w3.org/Graphics/SVG/1.1/DTD/svg11.dtd">
<svg width="372.3636363636364" height="640.0" version="1.1"
  xmlns="http://www.w3.org/2000/svg">
<g style="stroke:black;"><rect x="0.0" y="546.9090909090909" width="116.36363636363637" height="93.0909090909091" rx="0" ry="0" style="stroke-width:1;fill:lightgray;"/><rect x="108.91636363636363" y="593.4545454545455" width="7.447272727272727" height="7.447272727272727" rx="0" ry="0" style="stroke-width:1;fill:gray;"/><text x="58.18181818181819" y="593.4545454545454" font-size="12"><tspan x="58.18181818181819" dy="0em">f1</tspan></text><rect x="0.0" y="477.0909090909091" width="104.72727272727273" height="69.81818181818181" rx="0" ry="0" style="stroke-width:1;fill:lightgray;"/><rect x="0.0" y="512.0" width="7.447272727272727" height="7.447272727272727" rx="0" ry="0" style="stroke-width:1;fill:gray;"/><text x="46.54545454545455" y="512.0" font-size="12"><tspan x="46.54545454545455" dy="0em">f6</tspan></text><rect x="0.0" y="384.0" width="139.63636363636363" height="93.0909090909091" rx="0" ry="0" style="stroke-width:1;fill:lightgray;"/><rect x="69.81818181818181" y="384.0" width="7.447272727272727" height="7.447272727272727" rx="0" ry="0" style="stroke-width:1;fill:gray;"/><text x="69.81818181818181" y="430.54545454545456" font-size="12"><tspan x="69.81818181818181" dy="0em">f4</tspan></text><rect x="0.0" y="0.0" width="139.63636363636363" height="116.36363636363637" rx="0" ry="0" style="stroke-width:1;fill:lightgray;"/><rect x="69.81818181818181" y="108.91636363636363" width="7.447272727272727" height="7.447272727272727" rx="0" ry="0" style="stroke-width:1;fill:gray;"/><text x="69.81818181818181" y="58.18181818181819" font-size="12"><tspan x="69.81818181818181" dy="0em">f3</tspan></text><rect x="139.63636363636363" y="174.54545454545456" width="93.0909090909091" height="93.0909090909091" rx="0" ry="0" style="stroke-width:1;fill:lightgray;"/><rect x="186.1818181818182" y="260.1890909090909" width="7.447272727272727" height="7.447272727272727" rx="0" ry="0" style="stroke-width:1;fill:gray;"/><text x="186.1818181818182" y="221.09090909090912" font-size="12"><tspan x="186.1818181818182" dy="0em">f5</tspan></text><rect x="139.63636363636363" y="0.0" width="232.72727272727275" height="174.54545454545456" rx="0" ry="0" style="stroke-width:1;fill:lightgray;"/><rect x="256.0" y="167.0981818181818" width="7.447272727272727" height="7.447272727272727" rx="0" ry="0" style="stroke-width:1;fill:gray;"/><text x="256.0" y="81.45454545454545" font-size="12"><tspan x="256.0" dy="0em">f2</tspan></text></g></svg>