<?xml version="1.0" standalone="no"?>
<!DOCTYPE svg PUBLIC "-//W3C//DTD SVG 1.1//EN"
  "http://www.w3.org/Graphics/SVG/1.1/DTD/svg11.dtd">
<svg width="480.0" height="369.2307692307692" version="1.1"
  xmlns="http://www.w3.org/2000/svg">
<g style="stroke:black;"><rect x="0.0" y="288.0" width="110.76923076923077" height="81.23076923076924" rx="0" ry="0" style="stroke-width:1;fill:lightgray;"/><rect x="51.69230769230769" y="288.0" width="9.600000000000001" height="9.600000000000001" rx="0" ry="0" style="stroke-width:1;fill:gray;"/><text x="51.69230769230769" y="324.9230769230769" font-size="12"><tspan x="51.69230769230769" dy="0em">f8</tspan></text><rect x="0.0" y="228.92307692307693" width="59.07692307692308" height="59.07692307692308" rx="0" ry="0" style="stroke-width:1;fill:lightgray;"/><rect x="29.53846153846154" y="228.92307692307693" width="9.600000000000001" height="9.600000000000001" rx="0" ry="0" style="stroke-width:1;fill:gray;"/><text x="29.53846153846154" y="258.46153846153845" font-size="12"><tspan x="29.53846153846154" dy="0em">f6</tspan></text><rect x="169.84615384615387" y="302.7692307692308" width="73.84615384615385" height="51.69230769230769" rx="0" ry="0" style="stroke-width:1;fill:lightgray;"/><rect x="206.76923076923077" y="302.7692307692308" width="9.600000000000001" height="9.600000000000001" rx="0" ry="0" style="stroke-width:1;fill:gray;"/><text x="206.7692307692308" y="324.9230769230769" font-size="12"><tspan x="206.7692307692308" dy="0em">f2</tspan></text><rect x="169.84615384615387" y="228.92307692307693" width="103.38461538461539" height="73.84615384615385" rx="0" ry="0" style="stroke-width:1;fill:lightgray;"/><rect x="221.53846153846155" y="293.1692307692308" width="9.600000000000001" height="9.600000000000001" rx="0" ry="0" style="stroke-width:1;fill:gray;"/><text x="221.53846153846155" y="265.84615384615387" font-size="12"><tspan x="221.53846153846155" dy="0em">f1</tspan></text><rect x="347.0769230769231" y="228.92307692307693" width="132.92307692307693" height="96.0" rx="0" ry="0" style="stroke-width:1;fill:lightgray;"/><rect x="347.0769230769231" y="273.2307692307692" width="9.600000000000001" height="9.600000000000001" rx="0" ry="0" style="stroke-width:1;fill:gray;"/><text x="413.53846153846155" y="273.2307692307692" font-size="12"><tspan x="413.53846153846155" dy="0em">f5</tspan></text><rect x="0.0" y="73.84615384615385" width="66.46153846153847" height="44.30769230769231" rx="0" ry="0" style="stroke-width:1;fill:lightgray;"/><rect x="29.53846153846154" y="108.55384615384615" width="9.600000000000001" height="9.600000000000001" rx="0" ry="0" style="stroke-width:1;fill:gray;"/><text x="29.53846153846154" y="96.0" font-size="12"><tspan x="29.53846153846154" dy="0em">f7</tspan></text><rect x="0.0" y="0.0" width="73.84615384615385" height="73.84615384615385" rx="0" ry="0" style="stroke-width:1;fill:lightgray;"/><rect x="0.0" y="36.92307692307693" width="9.600000000000001" height="9.600000000000001" rx="0" ry="0" style="stroke-width:1;fill:gray;"/><text x="36.92307692307693" y="36.92307692307693" font-size="12"><tspan x="36.92307692307693" dy="0em">f3</tspan></text><rect x="140.30769230769232" y="0.0" width="147.6923076923077" height="110.76923076923077" rx="0" ry="0" style="stroke-width:1;fill:lightgray;"/><rect x="140.30769230769232" y="51.69230769230769" width="9.600000000000001" height="9.600000000000001" rx="0" ry="0" style="stroke-width:1;fill:gray;"/><text x="214.1538461538462" y="51.69230769230769" font-size="12"><tspan x="214.1538461538462" dy="0em">f4</tspan></text></g></svg>