<?xml version="1.0" standalone="no"?>
<!DOCTYPE svg PUBLIC "-//W3C//DTD SVG 1.1//EN"
  "http://www.w3.org/Graphics/SVG/1.1/DTD/svg11.dtd">
<svg width="320.0" height="640.0" version="1.1"
  xmlns="http://www.w3.org/2000/svg">
<g style="stroke:black;"><rect x="0.0" y="400.0" width="320.0" height="240.0" rx="0" ry="0" style="stroke-width:1;fill:lightgray;"/><rect x="160.0" y="400.0" width="6.4" height="6.4" rx="0" ry="0" style="stroke-width:1;fill:gray;"/><text x="160.0" y="512.0" font-size="12"><tspan x="160.0" dy="0em">f4</tspan></text><rect x="0.0" y="320.0" width="144.0" height="80.0" rx="0" ry="0" style="stroke-width:1;fill:lightgray;"/><rect x="137.6" y="352.0" width="6.4" height="6.4" rx="0" ry="0" style="stroke-width:1;fill:gray;"/><text x="64.0" y="352.0" font-size="12"><tspan x="64.0" dy="0em">f2</tspan></text><rect x="0.0" y="160.0" width="160.0" height="160.0" rx="0" ry="0" style="stroke-width:1;fill:lightgray;"/><rect x="80.0" y="160.0" width="6.4" height="6.4" rx="0" ry="0" style="stroke-width:1;fill:gray;"/><text x="80.0" y="240.0" font-size="12"><tspan x="80.0" dy="0em">f3</tspan></text><rect x="0.0" y="0.0" width="288.0" height="160.0" rx="0" ry="0" style="stroke-width:1;fill:lightgray;"/><rect x="144.0" y="153.6" width="6.4" height="6.4" rx="0" ry="0" style="stroke-width:1;fill:gray;"/><text x="144.0" y="80.0" font-size="12"><tspan x="144.0" dy="0em">f1</tspan></text></g></svg>