<?xml version="1.0" standalone="no"?>
<!DOCTYPE svg PUBLIC "-//W3C//DTD SVG 1.1//EN"
  "http://www.w3.org/Graphics/SVG/1.1/DTD/svg11.dtd">
<svg width="418.7654320987654" height="640.0" version="1.1"
  xmlns="http://www.w3.org/2000/svg">
<g style="stroke:black;"><rect x="0.0" y="244.93827160493825" width="118.5185185185185" height="94.81481481481481" rx="0" ry="0" style="stroke-width:1;fill:lightgray;"/><rect x="110.1432098765432" y="292.34567901234567" width="8.375308641975309" height="8.375308641975309" rx="0" ry="0" style="stroke-width:1;fill:gray;"/><text x="55.30864197530864" y="292.34567901234567" font-size="12"><tspan x="55.30864197530864" dy="0em">f3</tspan></text><rect x="118.5185185185185" y="292.34567901234567" width="71.11111111111111" height="71.11111111111111" rx="0" ry="0" style="stroke-width:1;fill:lightgray;"/><rect x="181.25432098765432" y="323.9506172839506" width="8.375308641975309" height="8.375308641975309" rx="0" ry="0" style="stroke-width:1;fill:gray;"/><text x="150.12345679012344" y="323.9506172839506" font-size="12"><tspan x="150.12345679012344" dy="0em">f4</tspan></text><rect x="118.5185185185185" y="244.93827160493825" width="71.11111111111111" height="47.407407407407405" rx="0" ry="0" style="stroke-width:1;fill:lightgray;"/><rect x="150.12345679012344" y="244.93827160493825" width="8.375308641975309" height="8.375308641975309" rx="0" ry="0" style="stroke-width:1;fill:gray;"/><text x="150.12345679012344" y="268.641975308642" font-size="12"><tspan x="150.12345679012344" dy="0em">f5</tspan></text><rect x="260.7407407407407" y="513.5802469135803" width="158.02469135802468" height="126.41975308641975" rx="0" ry="0" style="stroke-width:1;fill:lightgray;"/><rect x="339.75308641975306" y="513.5802469135803" width="8.375308641975309" height="8.375308641975309" rx="0" ry="0" style="stroke-width:1;fill:gray;"/><text x="339.75308641975306" y="576.7901234567901" font-size="12"><tspan x="339.75308641975306" dy="0em">f7</tspan></text><rect x="260.7407407407407" y="410.8641975308642" width="150.12345679012344" height="102.71604938271605" rx="0" ry="0" style="stroke-width:1;fill:lightgray;"/><rect x="331.85185185185185" y="505.2049382716049" width="8.375308641975309" height="8.375308641975309" rx="0" ry="0" style="stroke-width:1;fill:gray;"/><text x="331.85185185185185" y="458.2716049382716" font-size="12"><tspan x="331.85185185185185" dy="0em">f10</tspan></text><rect x="260.7407407407407" y="323.9506172839506" width="86.91358024691357" height="86.91358024691357" rx="0" ry="0" style="stroke-width:1;fill:lightgray;"/><rect x="260.7407407407407" y="363.45679012345676" width="8.375308641975309" height="8.375308641975309" rx="0" ry="0" style="stroke-width:1;fill:gray;"/><text x="300.2469135802469" y="363.45679012345676" font-size="12"><tspan x="300.2469135802469" dy="0em">f9</tspan></text><rect x="260.7407407407407" y="244.93827160493825" width="118.5185185185185" height="79.01234567901234" rx="0" ry="0" style="stroke-width:1;fill:lightgray;"/><rect x="260.7407407407407" y="284.44444444444446" width="8.375308641975309" height="8.375308641975309" rx="0" ry="0" style="stroke-width:1;fill:gray;"/><text x="316.04938271604937" y="284.4444444444444" font-size="12"><tspan x="316.04938271604937" dy="0em">f1</tspan></text><rect x="0.0" y="142.22222222222223" width="94.81481481481481" height="63.20987654320987" rx="0" ry="0" style="stroke-width:1;fill:lightgray;"/><rect x="86.4395061728395" y="173.82716049382714" width="8.375308641975309" height="8.375308641975309" rx="0" ry="0" style="stroke-width:1;fill:gray;"/><text x="47.407407407407405" y="173.82716049382717" font-size="12"><tspan x="47.407407407407405" dy="0em">f2</tspan></text><rect x="94.81481481481481" y="142.22222222222223" width="63.20987654320987" height="39.50617283950617" rx="0" ry="0" style="stroke-width:1;fill:lightgray;"/><rect x="94.81481481481481" y="158.02469135802468" width="8.375308641975309" height="8.375308641975309" rx="0" ry="0" style="stroke-width:1;fill:gray;"/><text x="126.41975308641975" y="158.0246913580247" font-size="12"><tspan x="126.41975308641975" dy="0em">f8</tspan></text><rect x="0.0" y="0.0" width="197.53086419753086" height="142.22222222222223" rx="0" ry="0" style="stroke-width:1;fill:lightgray;"/><rect x="94.81481481481481" y="133.8469135802469" width="8.375308641975309" height="8.375308641975309" rx="0" ry="0" style="stroke-width:1;fill:gray;"/><text x="94.81481481481481" y="71.11111111111111" font-size="12"><tspan x="94.81481481481481" dy="0em">f6</tspan></text></g></svg>