<?xml version="1.0" standalone="no"?>
<!DOCTYPE svg PUBLIC "-//W3C//DTD SVG 1.1//EN"
  "http://www.w3.org/Graphics/SVG/1.1/DTD/svg11.dtd">
<svg width="339.3939393939394" height="640.0" version="1.1"
  xmlns="http://www.w3.org/2000/svg">
<g style="stroke:black;"><rect x="0.0" y="223.03030303030303" width="87.27272727272728" height="58.18181818181819" rx="0" ry="0" style="stroke-width:1;fill:lightgray;"/><rect x="80.4848484848485" y="252.12121212121212" width="6.787878787878788" height="6.787878787878788" rx="0" ry="0" style="stroke-width:1;fill:gray;"/><text x="38.78787878787879" y="252.12121212121212" font-size="12"><tspan x="38.78787878787879" dy="0em">f7</tspan></text><rect x="0.0" y="145.45454545454547" width="77.57575757575758" height="77.57575757575758" rx="0" ry="0" style="stroke-width:1;fill:lightgray;"/><rect x="70.78787878787878" y="184.24242424242425" width="6.787878787878788" height="6.787878787878788" rx="0" ry="0" style="stroke-width:1;fill:gray;"/><text x="38.78787878787879" y="184.24242424242425" font-size="12"><tspan x="38.78787878787879" dy="0em">f6</tspan></text><rect x="164.84848484848484" y="543.030303030303" width="135.75757575757575" height="96.96969696969697" rx="0" ry="0" style="stroke-width:1;fill:lightgray;"/><rect x="232.72727272727275" y="543.030303030303" width="6.787878787878788" height="6.787878787878788" rx="0" ry="0" style="stroke-width:1;fill:gray;"/><text x="232.72727272727272" y="591.5151515151515" font-size="12"><tspan x="232.72727272727272" dy="0em">f1</tspan></text><rect x="164.84848484848484" y="475.1515151515152" width="96.96969696969697" height="67.87878787878788" rx="0" ry="0" style="stroke-width:1;fill:lightgray;"/><rect x="213.33333333333334" y="536.2424242424242" width="6.787878787878788" height="6.787878787878788" rx="0" ry="0" style="stroke-width:1;fill:gray;"/><text x="213.33333333333331" y="504.24242424242425" font-size="12"><tspan x="213.33333333333331" dy="0em">f2</tspan></text><rect x="164.84848484848484" y="349.0909090909091" width="174.54545454545456" height="126.06060606060606" rx="0" ry="0" style="stroke-width:1;fill:lightgray;"/><rect x="164.84848484848484" y="407.2727272727273" width="6.787878787878788" height="6.787878787878788" rx="0" ry="0" style="stroke-width:1;fill:gray;"/><text x="252.12121212121212" y="407.2727272727273" font-size="12"><tspan x="252.12121212121212" dy="0em">f5</tspan></text><rect x="164.84848484848484" y="242.42424242424244" width="145.45454545454547" height="106.66666666666667" rx="0" ry="0" style="stroke-width:1;fill:lightgray;"/><rect x="164.84848484848484" y="290.90909090909093" width="6.787878787878788" height="6.787878787878788" rx="0" ry="0" style="stroke-width:1;fill:gray;"/><text x="232.72727272727272" y="290.90909090909093" font-size="12"><tspan x="232.72727272727272" dy="0em">f8</tspan></text><rect x="164.84848484848484" y="145.45454545454547" width="96.96969696969697" height="96.96969696969697" rx="0" ry="0" style="stroke-width:1;fill:lightgray;"/><rect x="164.84848484848484" y="193.93939393939394" width="6.787878787878788" height="6.787878787878788" rx="0" ry="0" style="stroke-width:1;fill:gray;"/><text x="213.33333333333331" y="193.93939393939394" font-size="12"><tspan x="213.33333333333331" dy="0em">f3</tspan></text><rect x="0.0" y="0.0" width="193.93939393939394" height="145.45454545454547" rx="0" ry="0" style="stroke-width:1;fill:lightgray;"/><rect x="96.96969696969697" y="138.66666666666669" width="6.787878787878788" height="6.787878787878788" rx="0" ry="0" style="stroke-width:1;fill:gray;"/><text x="96.96969696969697" y="67.87878787878788" font-size="12"><tspan x="96.96969696969697" dy="0em">f4</tspan></text></g></svg>