<?xml version="1.0" standalone="no"?>
<!DOCTYPE svg PUBLIC "-//W3C//DTD SVG 1.1//EN"
  "http://www.w3.org/Graphics/SVG/1.1/DTD/svg11.dtd">
<svg width="480.0" height="441.4285714285714" version="1.1"
  xmlns="http://www.w3.org/2000/svg">
<g style="stroke:black;"><rect x="0.0" y="398.57142857142856" width="51.42857142857143" height="42.857142857142854" rx="0" ry="0" style="stroke-width:1;fill:lightgray;"/><rect x="25.714285714285715" y="398.57142857142856" width="9.600000000000001" height="9.600000000000001" rx="0" ry="0" style="stroke-width:1;fill:gray;"/><text x="25.714285714285715" y="420.0" font-size="12"><tspan x="25.714285714285715" dy="0em">f3</tspan></text><rect x="51.42857142857143" y="398.57142857142856" width="38.57142857142857" height="30.0" rx="0" ry="0" style="stroke-width:1;fill:lightgray;"/><rect x="68.57142857142857" y="398.57142857142856" width="9.600000000000001" height="9.600000000000001" rx="0" ry="0" style="stroke-width:1;fill:gray;"/><text x="68.57142857142857" y="411.4285714285714" font-size="12"><tspan x="68.57142857142857" dy="0em">f1</tspan></text><rect x="90.0" y="398.57142857142856" width="51.42857142857143" height="34.285714285714285" rx="0" ry="0" style="stroke-width:1;fill:lightgray;"/><rect x="115.71428571428571" y="398.57142857142856" width="9.600000000000001" height="9.600000000000001" rx="0" ry="0" style="stroke-width:1;fill:gray;"/><text x="115.71428571428572" y="415.7142857142857" font-size="12"><tspan x="115.71428571428572" dy="0em">f12</tspan></text><rect x="0.0" y="42.857142857142854" width="47.14285714285714" height="47.14285714285714" rx="0" ry="0" style="stroke-width:1;fill:lightgray;"/><rect x="37.54285714285714" y="64.28571428571428" width="9.600000000000001" height="9.600000000000001" rx="0" ry="0" style="stroke-width:1;fill:gray;"/><text x="21.428571428571427" y="64.28571428571428" font-size="12"><tspan x="21.428571428571427" dy="0em">f11</tspan></text><rect x="47.14285714285714" y="42.857142857142854" width="34.285714285714285" height="34.285714285714285" rx="0" ry="0" style="stroke-width:1;fill:lightgray;"/><rect x="64.28571428571428" y="67.54285714285714" width="9.600000000000001" height="9.600000000000001" rx="0" ry="0" style="stroke-width:1;fill:gray;"/><text x="64.28571428571428" y="60.0" font-size="12"><tspan x="64.28571428571428" dy="0em">f4</tspan></text><rect x="0.0" y="0.0" width="42.857142857142854" height="42.857142857142854" rx="0" ry="0" style="stroke-width:1;fill:lightgray;"/><rect x="33.25714285714285" y="21.428571428571427" width="9.600000000000001" height="9.600000000000001" rx="0" ry="0" style="stroke-width:1;fill:gray;"/><text x="21.428571428571427" y="21.428571428571427" font-size="12"><tspan x="21.428571428571427" dy="0em">f10</tspan></text><rect x="124.28571428571428" y="0.0" width="51.42857142857143" height="51.42857142857143" rx="0" ry="0" style="stroke-width:1;fill:lightgray;"/><rect x="150.0" y="41.82857142857143" width="9.600000000000001" height="9.600000000000001" rx="0" ry="0" style="stroke-width:1;fill:gray;"/><text x="150.0" y="25.714285714285715" font-size="12"><tspan x="150.0" dy="0em">f5</tspan></text><rect x="175.71428571428572" y="124.28571428571428" width="85.71428571428571" height="60.0" rx="0" ry="0" style="stroke-width:1;fill:lightgray;"/><rect x="218.57142857142856" y="174.68571428571428" width="9.600000000000001" height="9.600000000000001" rx="0" ry="0" style="stroke-width:1;fill:gray;"/><text x="218.57142857142858" y="154.28571428571428" font-size="12"><tspan x="218.57142857142858" dy="0em">f7</tspan></text><rect x="175.71428571428572" y="81.42857142857143" width="60.0" height="42.857142857142854" rx="0" ry="0" style="stroke-width:1;fill:lightgray;"/><rect x="175.71428571428572" y="102.85714285714286" width="9.600000000000001" height="9.600000000000001" rx="0" ry="0" style="stroke-width:1;fill:gray;"/><text x="205.71428571428572" y="102.85714285714286" font-size="12"><tspan x="205.71428571428572" dy="0em">f2</tspan></text><rect x="175.71428571428572" y="47.14285714285714" width="42.857142857142854" height="34.285714285714285" rx="0" ry="0" style="stroke-width:1;fill:lightgray;"/><rect x="175.71428571428572" y="64.28571428571428" width="9.600000000000001" height="9.600000000000001" rx="0" ry="0" style="stroke-width:1;fill:gray;"/><text x="197.14285714285714" y="64.28571428571428" font-size="12"><tspan x="197.14285714285714" dy="0em">f6</tspan></text><rect x="175.71428571428572" y="0.0" width="64.28571428571428" height="47.14285714285714" rx="0" ry="0" style="stroke-width:1;fill:lightgray;"/><rect x="175.71428571428572" y="21.428571428571427" width="9.600000000000001" height="9.600000000000001" rx="0" ry="0" style="stroke-width:1;fill:gray;"/><text x="205.71428571428572" y="21.428571428571427" font-size="12"><tspan x="205.71428571428572" dy="0em">f8</tspan></text><rect x="428.57142857142856" y="0.0" width="51.42857142857143" height="38.57142857142857" rx="0" ry="0" style="stroke-width:1;fill:lightgray;"/><rect x="428.57142857142856" y="17.142857142857142" width="9.600000000000001" height="9.600000000000001" rx="0" ry="0" style="stroke-width:1;fill:gray;"/><text x="454.2857142857143" y="17.142857142857142" font-size="12"><tspan x="454.2857142857143" dy="0em">f9</tspan></text></g></svg>