<?xml version="1.0" standalone="no"?>
<!DOCTYPE svg PUBLIC "-//W3C//DTD SVG 1.1//EN"
  "http://www.w3.org/Graphics/SVG/1.1/DTD/svg11.dtd">
<svg width="480.0" height="468.0" version="1.1"
  xmlns="http://www.w3.org/2000/svg">
<g style="stroke:black;"><rect x="0.0" y="168.0" width="144.0" height="96.0" rx="0" ry="0" style="stroke-width:1;fill:lightgray;"/><rect x="134.39999999999998" y="216.0" width="9.600000000000001" height="9.600000000000001" rx="0" ry="0" style="stroke-width:1;fill:gray;"/><text x="72.0" y="216.0" font-size="12"><tspan x="72.0" dy="0em">f4</tspan></text><rect x="144.0" y="168.0" width="96.0" height="96.0" rx="0" ry="0" style="stroke-width:1;fill:lightgray;"/><rect x="192.0" y="168.0" width="9.600000000000001" height="9.600000000000001" rx="0" ry="0" style="stroke-width:1;fill:gray;"/><text x="192.0" y="216.0" font-size="12"><tspan x="192.0" dy="0em">f5</tspan></text><rect x="240.0" y="288.0" width="240.0" height="180.0" rx="0" ry="0" style="stroke-width:1;fill:lightgray;"/><rect x="240.0" y="372.0" width="9.600000000000001" height="9.600000000000001" rx="0" ry="0" style="stroke-width:1;fill:gray;"/><text x="360.0" y="372.0" font-size="12"><tspan x="360.0" dy="0em">f2</tspan></text><rect x="240.0" y="168.0" width="144.0" height="120.0" rx="0" ry="0" style="stroke-width:1;fill:lightgray;"/><rect x="240.0" y="228.0" width="9.600000000000001" height="9.600000000000001" rx="0" ry="0" style="stroke-width:1;fill:gray;"/><text x="312.0" y="228.0" font-size="12"><tspan x="312.0" dy="0em">f3</tspan></text><rect x="0.0" y="96.0" width="108.0" height="72.0" rx="0" ry="0" style="stroke-width:1;fill:lightgray;"/><rect x="48.0" y="158.39999999999998" width="9.600000000000001" height="9.600000000000001" rx="0" ry="0" style="stroke-width:1;fill:gray;"/><text x="48.0" y="132.0" font-size="12"><tspan x="48.0" dy="0em">f6</tspan></text><rect x="0.0" y="0.0" width="120.0" height="96.0" rx="0" ry="0" style="stroke-width:1;fill:lightgray;"/><rect x="110.39999999999999" y="48.0" width="9.600000000000001" height="9.600000000000001" rx="0" ry="0" style="stroke-width:1;fill:gray;"/><text x="60.0" y="48.0" font-size="12"><tspan x="60.0" dy="0em">f1</tspan></text></g></svg>