<?xml version="1.0" standalone="no"?>
<!DOCTYPE svg PUBLIC "-//W3C//DTD SVG 1.1//EN"
  "http://www.w3.org/Graphics/SVG/1.1/DTD/svg11.dtd">
<svg width="480.0" height="218.1818181818182" version="1.1"
  xmlns="http://www.w3.org/2000/svg">
<g style="stroke:black;"><rect x="0.0" y="126.94214876033058" width="59.50413223140496" height="43.63636363636364" rx="0" ry="0" style="stroke-width:1;fill:lightgray;"/><rect x="49.90413223140496" y="146.77685950413223" width="9.6" height="9.6" rx="0" ry="0" style="stroke-width:1;fill:gray;"/><text x="27.768595041322314" y="146.77685950413223" font-size="12"><tspan x="27.768595041322314" dy="0em">f8</tspan></text><rect x="59.50413223140496" y="126.94214876033058" width="47.603305785123965" height="47.603305785123965" rx="0" ry="0" style="stroke-width:1;fill:lightgray;"/><rect x="97.50743801652892" y="150.74380165289256" width="9.6" height="9.6" rx="0" ry="0" style="stroke-width:1;fill:gray;"/><text x="83.30578512396694" y="150.74380165289256" font-size="12"><tspan x="83.30578512396694" dy="0em">f5</tspan></text><rect x="0.0" y="67.43801652892562" width="35.70247933884298" height="27.768595041322314" rx="0" ry="0" style="stroke-width:1;fill:lightgray;"/><rect x="15.867768595041323" y="67.43801652892562" width="9.6" height="9.6" rx="0" ry="0" style="stroke-width:1;fill:gray;"/><text x="15.867768595041323" y="79.3388429752066" font-size="12"><tspan x="15.867768595041323" dy="0em">f1</tspan></text><rect x="0.0" y="31.735537190082646" width="47.603305785123965" height="35.70247933884298" rx="0" ry="0" style="stroke-width:1;fill:lightgray;"/><rect x="38.00330578512397" y="47.603305785123965" width="9.6" height="9.6" rx="0" ry="0" style="stroke-width:1;fill:gray;"/><text x="23.801652892561982" y="47.603305785123965" font-size="12"><tspan x="23.801652892561982" dy="0em">f9</tspan></text><rect x="0.0" y="0.0" width="47.603305785123965" height="31.735537190082646" rx="0" ry="0" style="stroke-width:1;fill:lightgray;"/><rect x="38.00330578512397" y="15.867768595041323" width="9.6" height="9.6" rx="0" ry="0" style="stroke-width:1;fill:gray;"/><text x="23.801652892561982" y="15.867768595041323" font-size="12"><tspan x="23.801652892561982" dy="0em">f12</tspan></text><rect x="130.9090909090909" y="0.0" width="39.66942148760331" height="31.735537190082646" rx="0" ry="0" style="stroke-width:1;fill:lightgray;"/><rect x="160.9785123966942" y="15.867768595041323" width="9.6" height="9.6" rx="0" ry="0" style="stroke-width:1;fill:gray;"/><text x="150.74380165289256" y="15.867768595041323" font-size="12"><tspan x="150.74380165289256" dy="0em">f6</tspan></text><rect x="277.68595041322317" y="0.0" width="31.735537190082646" height="31.735537190082646" rx="0" ry="0" style="stroke-width:1;fill:lightgray;"/><rect x="299.8214876033058" y="15.867768595041323" width="9.6" height="9.6" rx="0" ry="0" style="stroke-width:1;fill:gray;"/><text x="293.55371900826447" y="15.867768595041323" font-size="12"><tspan x="293.55371900826447" dy="0em">f4</tspan></text><rect x="309.4214876033058" y="178.51239669421489" width="55.53719008264463" height="39.66942148760331" rx="0" ry="0" style="stroke-width:1;fill:lightgray;"/><rect x="337.1900826446281" y="178.51239669421489" width="9.6" height="9.6" rx="0" ry="0" style="stroke-width:1;fill:gray;"/><text x="337.19008264462815" y="198.34710743801654" font-size="12"><tspan x="337.19008264462815" dy="0em">f2</tspan></text><rect x="309.4214876033058" y="0.0" width="47.603305785123965" height="39.66942148760331" rx="0" ry="0" style="stroke-width:1;fill:lightgray;"/><rect x="333.22314049586777" y="30.069421487603307" width="9.6" height="9.6" rx="0" ry="0" style="stroke-width:1;fill:gray;"/><text x="333.2231404958678" y="19.834710743801654" font-size="12"><tspan x="333.2231404958678" dy="0em">f3</tspan></text><rect x="357.02479338842977" y="0.0" width="43.63636363636364" height="43.63636363636364" rx="0" ry="0" style="stroke-width:1;fill:lightgray;"/><rect x="376.8595041322314" y="34.03636363636364" width="9.6" height="9.6" rx="0" ry="0" style="stroke-width:1;fill:gray;"/><text x="376.85950413223145" y="19.834710743801654" font-size="12"><tspan x="376.85950413223145" dy="0em">f11</tspan></text><rect x="400.6611570247934" y="39.66942148760331" width="79.33884297520662" height="55.53719008264463" rx="0" ry="0" style="stroke-width:1;fill:lightgray;"/><rect x="400.6611570247934" y="67.43801652892562" width="9.6" height="9.6" rx="0" ry="0" style="stroke-width:1;fill:gray;"/><text x="440.3305785123967" y="67.43801652892563" font-size="12"><tspan x="440.3305785123967" dy="0em">f7</tspan></text><rect x="400.6611570247934" y="0.0" width="39.66942148760331" height="39.66942148760331" rx="0" ry="0" style="stroke-width:1;fill:lightgray;"/><rect x="400.6611570247934" y="19.834710743801654" width="9.6" height="9.6" rx="0" ry="0" style="stroke-width:1;fill:gray;"/><text x="420.4958677685951" y="19.834710743801654" font-size="12"><tspan x="420.4958677685951" dy="0em">f10</tspan></text></g></svg>