<?xml version="1.0" standalone="no"?>
<!DOCTYPE svg PUBLIC "-//W3C//DTD SVG 1.1//EN"
  "http://www.w3.org/Graphics/SVG/1.1/DTD/svg11.dtd">
<svg width="379.25925925925924" height="640.0" version="1.1"
  xmlns="http://www.w3.org/2000/svg">
<g style="stroke:black;"><rect x="0.0" y="545.1851851851851" width="118.5185185185185" height="94.81481481481481" rx="0" ry="0" style="stroke-width:1;fill:lightgray;"/><rect x="59.25925925925925" y="545.1851851851851" width="7.585185185185185" height="7.585185185185185" rx="0" ry="0" style="stroke-width:1;fill:gray;"/><text x="59.25925925925925" y="592.5925925925925" font-size="12"><tspan x="59.25925925925925" dy="0em">f7</tspan></text><rect x="0.0" y="242.96296296296296" width="148.14814814814815" height="106.66666666666666" rx="0" ry="0" style="stroke-width:1;fill:lightgray;"/><rect x="71.11111111111111" y="242.96296296296296" width="7.585185185185185" height="7.585185185185185" rx="0" ry="0" style="stroke-width:1;fill:gray;"/><text x="71.11111111111111" y="296.2962962962963" font-size="12"><tspan x="71.11111111111111" dy="0em">f6</tspan></text><rect x="148.14814814814815" y="242.96296296296296" width="53.33333333333333" height="53.33333333333333" rx="0" ry="0" style="stroke-width:1;fill:lightgray;"/><rect x="171.85185185185185" y="242.96296296296296" width="7.585185185185185" height="7.585185185185185" rx="0" ry="0" style="stroke-width:1;fill:gray;"/><text x="171.85185185185185" y="266.6666666666667" font-size="12"><tspan x="171.85185185185185" dy="0em">f4</tspan></text><rect x="201.48148148148147" y="242.96296296296296" width="112.59259259259258" height="77.03703703703704" rx="0" ry="0" style="stroke-width:1;fill:lightgray;"/><rect x="254.8148148148148" y="312.4148148148148" width="7.585185185185185" height="7.585185185185185" rx="0" ry="0" style="stroke-width:1;fill:gray;"/><text x="254.81481481481478" y="278.51851851851853" font-size="12"><tspan x="254.81481481481478" dy="0em">f10</tspan></text><rect x="314.0740740740741" y="242.96296296296296" width="65.18518518518518" height="65.18518518518518" rx="0" ry="0" style="stroke-width:1;fill:lightgray;"/><rect x="343.7037037037037" y="242.96296296296296" width="7.585185185185185" height="7.585185185185185" rx="0" ry="0" style="stroke-width:1;fill:gray;"/><text x="343.7037037037037" y="272.5925925925926" font-size="12"><tspan x="343.7037037037037" dy="0em">f9</tspan></text><rect x="0.0" y="0.0" width="71.11111111111111" height="47.407407407407405" rx="0" ry="0" style="stroke-width:1;fill:lightgray;"/><rect x="63.525925925925925" y="23.703703703703702" width="7.585185185185185" height="7.585185185185185" rx="0" ry="0" style="stroke-width:1;fill:gray;"/><text x="35.55555555555556" y="23.703703703703702" font-size="12"><tspan x="35.55555555555556" dy="0em">f2</tspan></text><rect x="71.11111111111111" y="0.0" width="53.33333333333333" height="35.55555555555556" rx="0" ry="0" style="stroke-width:1;fill:lightgray;"/><rect x="94.81481481481481" y="27.970370370370368" width="7.585185185185185" height="7.585185185185185" rx="0" ry="0" style="stroke-width:1;fill:gray;"/><text x="94.81481481481481" y="17.77777777777778" font-size="12"><tspan x="94.81481481481481" dy="0em">f5</tspan></text><rect x="124.44444444444444" y="88.88888888888889" width="88.88888888888889" height="71.11111111111111" rx="0" ry="0" style="stroke-width:1;fill:lightgray;"/><rect x="205.74814814814812" y="124.44444444444444" width="7.585185185185185" height="7.585185185185185" rx="0" ry="0" style="stroke-width:1;fill:gray;"/><text x="165.92592592592592" y="124.44444444444444" font-size="12"><tspan x="165.92592592592592" dy="0em">f3</tspan></text><rect x="124.44444444444444" y="29.629629629629626" width="88.88888888888889" height="59.25925925925925" rx="0" ry="0" style="stroke-width:1;fill:lightgray;"/><rect x="124.44444444444444" y="59.25925925925925" width="7.585185185185185" height="7.585185185185185" rx="0" ry="0" style="stroke-width:1;fill:gray;"/><text x="165.92592592592592" y="59.25925925925925" font-size="12"><tspan x="165.92592592592592" dy="0em">f1</tspan></text><rect x="124.44444444444444" y="0.0" width="47.407407407407405" height="29.629629629629626" rx="0" ry="0" style="stroke-width:1;fill:lightgray;"/><rect x="124.44444444444444" y="11.851851851851851" width="7.585185185185185" height="7.585185185185185" rx="0" ry="0" style="stroke-width:1;fill:gray;"/><text x="148.14814814814815" y="11.851851851851851" font-size="12"><tspan x="148.14814814814815" dy="0em">f8</tspan></text></g></svg>