<?xml version="1.0" standalone="no"?>
<!DOCTYPE svg PUBLIC "-//W3C//DTD SVG 1.1//EN"
  "http://www.w3.org/Graphics/SVG/1.1/DTD/svg11.dtd">
<svg width="168.135593220339" height="640.0" version="1.1"
  xmlns="http://www.w3.org/2000/svg">
<g style="stroke:black;"><rect x="0.0" y="585.7627118644068" width="54.23728813559322" height="54.23728813559322" rx="0" ry="0" style="stroke-width:1;fill:lightgray;"/><rect x="27.11864406779661" y="585.7627118644068" width="3.3627118644067795" height="3.3627118644067795" rx="0" ry="0" style="stroke-width:1;fill:gray;"/><text x="27.11864406779661" y="612.8813559322034" font-size="12"><tspan x="27.11864406779661" dy="0em">f10</tspan></text><rect x="0.0" y="536.9491525423729" width="65.08474576271186" height="48.813559322033896" rx="0" ry="0" style="stroke-width:1;fill:lightgray;"/><rect x="32.54237288135593" y="536.9491525423729" width="3.3627118644067795" height="3.3627118644067795" rx="0" ry="0" style="stroke-width:1;fill:gray;"/><text x="32.54237288135593" y="558.6440677966102" font-size="12"><tspan x="32.54237288135593" dy="0em">f9</tspan></text><rect x="0.0" y="493.5593220338983" width="65.08474576271186" height="43.389830508474574" rx="0" ry="0" style="stroke-width:1;fill:lightgray;"/><rect x="32.54237288135593" y="493.5593220338983" width="3.3627118644067795" height="3.3627118644067795" rx="0" ry="0" style="stroke-width:1;fill:gray;"/><text x="32.54237288135593" y="515.2542372881355" font-size="12"><tspan x="32.54237288135593" dy="0em">f12</tspan></text><rect x="0.0" y="374.2372881355932" width="75.9322033898305" height="54.23728813559322" rx="0" ry="0" style="stroke-width:1;fill:lightgray;"/><rect x="37.96610169491525" y="374.2372881355932" width="3.3627118644067795" height="3.3627118644067795" rx="0" ry="0" style="stroke-width:1;fill:gray;"/><text x="37.96610169491525" y="401.3559322033898" font-size="12"><tspan x="37.96610169491525" dy="0em">f2</tspan></text><rect x="75.9322033898305" y="374.2372881355932" width="65.08474576271186" height="65.08474576271186" rx="0" ry="0" style="stroke-width:1;fill:lightgray;"/><rect x="108.47457627118644" y="374.2372881355932" width="3.3627118644067795" height="3.3627118644067795" rx="0" ry="0" style="stroke-width:1;fill:gray;"/><text x="108.47457627118644" y="406.77966101694915" font-size="12"><tspan x="108.47457627118644" dy="0em">f5</tspan></text><rect x="0.0" y="330.8474576271186" width="43.389830508474574" height="43.389830508474574" rx="0" ry="0" style="stroke-width:1;fill:lightgray;"/><rect x="21.694915254237287" y="330.8474576271186" width="3.3627118644067795" height="3.3627118644067795" rx="0" ry="0" style="stroke-width:1;fill:gray;"/><text x="21.694915254237287" y="352.5423728813559" font-size="12"><tspan x="21.694915254237287" dy="0em">f4</tspan></text><rect x="0.0" y="195.25423728813558" width="59.66101694915254" height="59.66101694915254" rx="0" ry="0" style="stroke-width:1;fill:lightgray;"/><rect x="27.11864406779661" y="251.55254237288136" width="3.3627118644067795" height="3.3627118644067795" rx="0" ry="0" style="stroke-width:1;fill:gray;"/><text x="27.11864406779661" y="222.37288135593218" font-size="12"><tspan x="27.11864406779661" dy="0em">f11</tspan></text><rect x="59.66101694915254" y="195.25423728813558" width="108.47457627118644" height="75.9322033898305" rx="0" ry="0" style="stroke-width:1;fill:lightgray;"/><rect x="113.89830508474576" y="267.82372881355934" width="3.3627118644067795" height="3.3627118644067795" rx="0" ry="0" style="stroke-width:1;fill:gray;"/><text x="113.89830508474576" y="233.22033898305085" font-size="12"><tspan x="113.89830508474576" dy="0em">f7</tspan></text><rect x="0.0" y="81.35593220338983" width="65.08474576271186" height="54.23728813559322" rx="0" ry="0" style="stroke-width:1;fill:lightgray;"/><rect x="32.54237288135593" y="132.23050847457625" width="3.3627118644067795" height="3.3627118644067795" rx="0" ry="0" style="stroke-width:1;fill:gray;"/><text x="32.54237288135593" y="108.47457627118644" font-size="12"><tspan x="32.54237288135593" dy="0em">f3</tspan></text><rect x="65.08474576271186" y="81.35593220338983" width="81.35593220338983" height="59.66101694915254" rx="0" ry="0" style="stroke-width:1;fill:lightgray;"/><rect x="103.05084745762711" y="137.6542372881356" width="3.3627118644067795" height="3.3627118644067795" rx="0" ry="0" style="stroke-width:1;fill:gray;"/><text x="103.05084745762711" y="108.47457627118644" font-size="12"><tspan x="103.05084745762711" dy="0em">f8</tspan></text><rect x="0.0" y="0.0" width="48.813559322033896" height="37.96610169491525" rx="0" ry="0" style="stroke-width:1;fill:lightgray;"/><rect x="21.694915254237287" y="34.60338983050847" width="3.3627118644067795" height="3.3627118644067795" rx="0" ry="0" style="stroke-width:1;fill:gray;"/><text x="21.694915254237287" y="16.271186440677965" font-size="12"><tspan x="21.694915254237287" dy="0em">f1</tspan></text><rect x="48.813559322033896" y="0.0" width="54.23728813559322" height="43.389830508474574" rx="0" ry="0" style="stroke-width:1;fill:lightgray;"/><rect x="75.9322033898305" y="40.02711864406779" width="3.3627118644067795" height="3.3627118644067795" rx="0" ry="0" style="stroke-width:1;fill:gray;"/><text x="75.9322033898305" y="21.694915254237287" font-size="12"><tspan x="75.9322033898305" dy="0em">f6</tspan></text></g></svg>