<?xml version="1.0" standalone="no"?>
<!DOCTYPE svg PUBLIC "-//W3C//DTD SVG 1.1//EN"
  "http://www.w3.org/Graphics/SVG/1.1/DTD/svg11.dtd">
<svg width="480.0" height="200.0" version="1.1"
  xmlns="http://www.w3.org/2000/svg">
<g style="stroke:black;"><rect x="0.0" y="0.0" width="100.0" height="100.0" rx="0" ry="0" style="stroke-width:1;fill:lightgray;"/><rect x="90.39999999999999" y="50.0" width="9.6" height="9.6" rx="0" ry="0" style="stroke-width:1;fill:gray;"/><text x="50.0" y="50.0" font-size="12"><tspan x="50.0" dy="0em">f3</tspan></text><rect x="100.0" y="0.0" width="180.0" height="100.0" rx="0" ry="0" style="stroke-width:1;fill:lightgray;"/><rect x="100.0" y="50.0" width="9.6" height="9.6" rx="0" ry="0" style="stroke-width:1;fill:gray;"/><text x="190.0" y="50.0" font-size="12"><tspan x="190.0" dy="0em">f1</tspan></text><rect x="280.0" y="50.0" width="200.0" height="150.0" rx="0" ry="0" style="stroke-width:1;fill:lightgray;"/><rect x="380.0" y="50.0" width="9.6" height="9.6" rx="0" ry="0" style="stroke-width:1;fill:gray;"/><text x="380.0" y="120.0" font-size="12"><tspan x="380.0" dy="0em">f4</tspan></text><rect x="280.0" y="0.0" width="90.0" height="50.0" rx="0" ry="0" style="stroke-width:1;fill:lightgray;"/><rect x="360.4" y="20.0" width="9.6" height="9.6" rx="0" ry="0" style="stroke-width:1;fill:gray;"/><text x="320.0" y="20.0" font-size="12"><tspan x="320.0" dy="0em">f2</tspan></text></g></svg>