<?xml version="1.0" standalone="no"?>
<!DOCTYPE svg PUBLIC "-//W3C//DTD SVG 1.1//EN"
  "http://www.w3.org/Graphics/SVG/1.1/DTD/svg11.dtd">
<svg width="480.0" height="435.6302521008403" version="1.1"
  xmlns="http://www.w3.org/2000/svg">
<g style="stroke:black;"><rect x="0.0" y="387.2268907563025" width="60.50420168067227" height="48.403361344537814" rx="0" ry="0" style="stroke-width:1;fill:lightgray;"/><rect x="28.235294117647058" y="387.2268907563025" width="9.6" height="9.6" rx="0" ry="0" style="stroke-width:1;fill:gray;"/><text x="28.235294117647058" y="411.42857142857144" font-size="12"><tspan x="28.235294117647058" dy="0em">f3</tspan></text><rect x="0.0" y="177.47899159663865" width="100.84033613445378" height="72.60504201680672" rx="0" ry="0" style="stroke-width:1;fill:lightgray;"/><rect x="91.24033613445378" y="213.781512605042" width="9.6" height="9.6" rx="0" ry="0" style="stroke-width:1;fill:gray;"/><text x="48.403361344537814" y="213.781512605042" font-size="12"><tspan x="48.403361344537814" dy="0em">f6</tspan></text><rect x="0.0" y="112.94117647058823" width="80.67226890756302" height="64.53781512605042" rx="0" ry="0" style="stroke-width:1;fill:lightgray;"/><rect x="40.33613445378151" y="112.94117647058823" width="9.6" height="9.6" rx="0" ry="0" style="stroke-width:1;fill:gray;"/><text x="40.33613445378151" y="145.21008403361344" font-size="12"><tspan x="40.33613445378151" dy="0em">f7</tspan></text><rect x="181.5126050420168" y="112.94117647058823" width="44.36974789915966" height="44.36974789915966" rx="0" ry="0" style="stroke-width:1;fill:lightgray;"/><rect x="201.68067226890756" y="147.7109243697479" width="9.6" height="9.6" rx="0" ry="0" style="stroke-width:1;fill:gray;"/><text x="201.68067226890753" y="133.10924369747897" font-size="12"><tspan x="201.68067226890753" dy="0em">f9</tspan></text><rect x="0.0" y="0.0" width="60.50420168067227" height="40.33613445378151" rx="0" ry="0" style="stroke-width:1;fill:lightgray;"/><rect x="50.90420168067227" y="20.168067226890756" width="9.6" height="9.6" rx="0" ry="0" style="stroke-width:1;fill:gray;"/><text x="28.235294117647058" y="20.168067226890756" font-size="12"><tspan x="28.235294117647058" dy="0em">f1</tspan></text><rect x="60.50420168067227" y="0.0" width="32.26890756302521" height="20.168067226890756" rx="0" ry="0" style="stroke-width:1;fill:lightgray;"/><rect x="83.17310924369748" y="8.067226890756302" width="9.6" height="9.6" rx="0" ry="0" style="stroke-width:1;fill:gray;"/><text x="76.63865546218487" y="8.067226890756302" font-size="12"><tspan x="76.63865546218487" dy="0em">f8</tspan></text><rect x="92.77310924369748" y="0.0" width="76.63865546218487" height="52.436974789915965" rx="0" ry="0" style="stroke-width:1;fill:lightgray;"/><rect x="92.77310924369748" y="24.201680672268907" width="9.6" height="9.6" rx="0" ry="0" style="stroke-width:1;fill:gray;"/><text x="129.07563025210084" y="24.201680672268907" font-size="12"><tspan x="129.07563025210084" dy="0em">f10</tspan></text><rect x="395.2941176470588" y="56.470588235294116" width="36.30252100840336" height="36.30252100840336" rx="0" ry="0" style="stroke-width:1;fill:lightgray;"/><rect x="395.2941176470588" y="72.60504201680672" width="9.6" height="9.6" rx="0" ry="0" style="stroke-width:1;fill:gray;"/><text x="411.4285714285714" y="72.60504201680672" font-size="12"><tspan x="411.4285714285714" dy="0em">f4</tspan></text><rect x="395.2941176470588" y="0.0" width="48.403361344537814" height="32.26890756302521" rx="0" ry="0" style="stroke-width:1;fill:lightgray;"/><rect x="395.2941176470588" y="16.134453781512605" width="9.6" height="9.6" rx="0" ry="0" style="stroke-width:1;fill:gray;"/><text x="419.4957983193277" y="16.134453781512605" font-size="12"><tspan x="419.4957983193277" dy="0em">f2</tspan></text><rect x="443.69747899159665" y="0.0" width="36.30252100840336" height="24.201680672268907" rx="0" ry="0" style="stroke-width:1;fill:lightgray;"/><rect x="459.8319327731092" y="14.601680672268907" width="9.6" height="9.6" rx="0" ry="0" style="stroke-width:1;fill:gray;"/><text x="459.83193277310926" y="12.100840336134453" font-size="12"><tspan x="459.83193277310926" dy="0em">f5</tspan></text></g></svg>