<?xml version="1.0" standalone="no"?>
<!DOCTYPE svg PUBLIC "-//W3C//DTD SVG 1.1//EN"
  "http://www.w3.org/Graphics/SVG/1.1/DTD/svg11.dtd">
<svg width="480.0" height="375.65217391304344" version="1.1"
  xmlns="http://www.w3.org/2000/svg">
<g style="stroke:black;"><rect x="0.0" y="285.2173913043478" width="125.21739130434783" height="90.43478260869566" rx="0" ry="0" style="stroke-width:1;fill:lightgray;"/><rect x="115.61739130434783" y="326.95652173913044" width="9.6" height="9.6" rx="0" ry="0" style="stroke-width:1;fill:gray;"/><text x="62.608695652173914" y="326.95652173913044" font-size="12"><tspan x="62.608695652173914" dy="0em">f5</tspan></text><rect x="0.0" y="215.65217391304347" width="97.39130434782608" height="69.56521739130434" rx="0" ry="0" style="stroke-width:1;fill:lightgray;"/><rect x="48.69565217391304" y="215.65217391304347" width="9.6" height="9.6" rx="0" ry="0" style="stroke-width:1;fill:gray;"/><text x="48.69565217391304" y="250.43478260869563" font-size="12"><tspan x="48.69565217391304" dy="0em">f1</tspan></text><rect x="0.0" y="160.0" width="55.65217391304348" height="55.65217391304348" rx="0" ry="0" style="stroke-width:1;fill:lightgray;"/><rect x="27.82608695652174" y="160.0" width="9.6" height="9.6" rx="0" ry="0" style="stroke-width:1;fill:gray;"/><text x="27.82608695652174" y="187.82608695652175" font-size="12"><tspan x="27.82608695652174" dy="0em">f6</tspan></text><rect x="0.0" y="118.26086956521739" width="62.608695652173914" height="41.73913043478261" rx="0" ry="0" style="stroke-width:1;fill:lightgray;"/><rect x="53.00869565217391" y="139.1304347826087" width="9.6" height="9.6" rx="0" ry="0" style="stroke-width:1;fill:gray;"/><text x="27.82608695652174" y="139.1304347826087" font-size="12"><tspan x="27.82608695652174" dy="0em">f7</tspan></text><rect x="340.8695652173913" y="222.6086956521739" width="104.34782608695652" height="76.52173913043478" rx="0" ry="0" style="stroke-width:1;fill:lightgray;"/><rect x="340.8695652173913" y="257.39130434782606" width="9.6" height="9.6" rx="0" ry="0" style="stroke-width:1;fill:gray;"/><text x="389.5652173913044" y="257.39130434782606" font-size="12"><tspan x="389.5652173913044" dy="0em">f8</tspan></text><rect x="340.8695652173913" y="118.26086956521739" width="139.1304347826087" height="104.34782608695652" rx="0" ry="0" style="stroke-width:1;fill:lightgray;"/><rect x="340.8695652173913" y="166.95652173913044" width="9.6" height="9.6" rx="0" ry="0" style="stroke-width:1;fill:gray;"/><text x="410.4347826086956" y="166.95652173913044" font-size="12"><tspan x="410.4347826086956" dy="0em">f4</tspan></text><rect x="0.0" y="69.56521739130434" width="69.56521739130434" height="48.69565217391304" rx="0" ry="0" style="stroke-width:1;fill:lightgray;"/><rect x="59.96521739130435" y="90.43478260869566" width="9.6" height="9.6" rx="0" ry="0" style="stroke-width:1;fill:gray;"/><text x="34.78260869565217" y="90.43478260869566" font-size="12"><tspan x="34.78260869565217" dy="0em">f2</tspan></text><rect x="0.0" y="0.0" width="69.56521739130434" height="69.56521739130434" rx="0" ry="0" style="stroke-width:1;fill:lightgray;"/><rect x="0.0" y="34.78260869565217" width="9.6" height="9.6" rx="0" ry="0" style="stroke-width:1;fill:gray;"/><text x="34.78260869565217" y="34.78260869565217" font-size="12"><tspan x="34.78260869565217" dy="0em">f3</tspan></text></g></svg>