<?xml version="1.0" standalone="no"?>
<!DOCTYPE svg PUBLIC "-//W3C//DTD SVG 1.1//EN"
  "http://www.w3.org/Graphics/SVG/1.1/DTD/svg11.dtd">
<svg width="304.0" height="640.0" version="1.1"
  xmlns="http://www.w3.org/2000/svg">
<g style="stroke:black;"><rect x="0.0" y="560.0" width="112.0" height="80.0" rx="0" ry="0" style="stroke-width:1;fill:lightgray;"/><rect x="56.0" y="560.0" width="6.08" height="6.08" rx="0" ry="0" style="stroke-width:1;fill:gray;"/><text x="56.0" y="600.0" font-size="12"><tspan x="56.0" dy="0em">f1</tspan></text><rect x="0.0" y="288.0" width="64.0" height="64.0" rx="0" ry="0" style="stroke-width:1;fill:lightgray;"/><rect x="32.0" y="288.0" width="6.08" height="6.08" rx="0" ry="0" style="stroke-width:1;fill:gray;"/><text x="32.0" y="320.0" font-size="12"><tspan x="32.0" dy="0em">f6</tspan></text><rect x="0.0" y="208.0" width="80.0" height="80.0" rx="0" ry="0" style="stroke-width:1;fill:lightgray;"/><rect x="40.0" y="281.92" width="6.08" height="6.08" rx="0" ry="0" style="stroke-width:1;fill:gray;"/><text x="40.0" y="248.0" font-size="12"><tspan x="40.0" dy="0em">f3</tspan></text><rect x="144.0" y="328.0" width="120.0" height="88.0" rx="0" ry="0" style="stroke-width:1;fill:lightgray;"/><rect x="200.0" y="328.0" width="6.08" height="6.08" rx="0" ry="0" style="stroke-width:1;fill:gray;"/><text x="200.0" y="368.0" font-size="12"><tspan x="200.0" dy="0em">f8</tspan></text><rect x="144.0" y="208.0" width="160.0" height="120.0" rx="0" ry="0" style="stroke-width:1;fill:lightgray;"/><rect x="144.0" y="264.0" width="6.08" height="6.08" rx="0" ry="0" style="stroke-width:1;fill:gray;"/><text x="224.0" y="264.0" font-size="12"><tspan x="224.0" dy="0em">f4</tspan></text><rect x="0.0" y="0.0" width="144.0" height="104.0" rx="0" ry="0" style="stroke-width:1;fill:lightgray;"/><rect x="72.0" y="97.92" width="6.08" height="6.08" rx="0" ry="0" style="stroke-width:1;fill:gray;"/><text x="72.0" y="48.0" font-size="12"><tspan x="72.0" dy="0em">f5</tspan></text><rect x="144.0" y="48.0" width="80.0" height="56.0" rx="0" ry="0" style="stroke-width:1;fill:lightgray;"/><rect x="184.0" y="97.92" width="6.08" height="6.08" rx="0" ry="0" style="stroke-width:1;fill:gray;"/><text x="184.0" y="72.0" font-size="12"><tspan x="184.0" dy="0em">f2</tspan></text><rect x="144.0" y="0.0" width="72.0" height="48.0" rx="0" ry="0" style="stroke-width:1;fill:lightgray;"/><rect x="176.0" y="41.92" width="6.08" height="6.08" rx="0" ry="0" style="stroke-width:1;fill:gray;"/><text x="176.0" y="24.0" font-size="12"><tspan x="176.0" dy="0em">f7</tspan></text></g></svg>