<?xml version="1.0" standalone="no"?>
<!DOCTYPE svg PUBLIC "-//W3C//DTD SVG 1.1//EN"
  "http://www.w3.org/Graphics/SVG/1.1/DTD/svg11.dtd">
<svg width="514.2857142857143" height="640.0" version="1.1"
  xmlns="http://www.w3.org/2000/svg">
<g style="stroke:black;"><rect x="0.0" y="171.42857142857144" width="114.28571428571429" height="114.28571428571429" rx="0" ry="0" style="stroke-width:1;fill:lightgray;"/><rect x="104.0" y="228.57142857142858" width="10.285714285714286" height="10.285714285714286" rx="0" ry="0" style="stroke-width:1;fill:gray;"/><text x="57.142857142857146" y="228.57142857142858" font-size="12"><tspan x="57.142857142857146" dy="0em">f3</tspan></text><rect x="114.28571428571429" y="240.0" width="91.42857142857143" height="91.42857142857143" rx="0" ry="0" style="stroke-width:1;fill:lightgray;"/><rect x="160.0" y="240.0" width="10.285714285714286" height="10.285714285714286" rx="0" ry="0" style="stroke-width:1;fill:gray;"/><text x="160.0" y="285.7142857142857" font-size="12"><tspan x="160.0" dy="0em">f6</tspan></text><rect x="114.28571428571429" y="171.42857142857144" width="102.85714285714286" height="68.57142857142857" rx="0" ry="0" style="stroke-width:1;fill:lightgray;"/><rect x="206.8571428571429" y="205.71428571428572" width="10.285714285714286" height="10.285714285714286" rx="0" ry="0" style="stroke-width:1;fill:gray;"/><text x="160.0" y="205.71428571428572" font-size="12"><tspan x="160.0" dy="0em">f7</tspan></text><rect x="308.57142857142856" y="525.7142857142858" width="160.0" height="114.28571428571429" rx="0" ry="0" style="stroke-width:1;fill:lightgray;"/><rect x="388.57142857142856" y="525.7142857142858" width="10.285714285714286" height="10.285714285714286" rx="0" ry="0" style="stroke-width:1;fill:gray;"/><text x="388.57142857142856" y="582.8571428571429" font-size="12"><tspan x="388.57142857142856" dy="0em">f1</tspan></text><rect x="308.57142857142856" y="445.7142857142857" width="114.28571428571429" height="80.0" rx="0" ry="0" style="stroke-width:1;fill:lightgray;"/><rect x="365.7142857142857" y="515.4285714285714" width="10.285714285714286" height="10.285714285714286" rx="0" ry="0" style="stroke-width:1;fill:gray;"/><text x="365.7142857142857" y="480.0" font-size="12"><tspan x="365.7142857142857" dy="0em">f2</tspan></text><rect x="308.57142857142856" y="297.14285714285717" width="205.71428571428572" height="148.57142857142858" rx="0" ry="0" style="stroke-width:1;fill:lightgray;"/><rect x="308.57142857142856" y="365.7142857142857" width="10.285714285714286" height="10.285714285714286" rx="0" ry="0" style="stroke-width:1;fill:gray;"/><text x="411.42857142857144" y="365.7142857142857" font-size="12"><tspan x="411.42857142857144" dy="0em">f5</tspan></text><rect x="308.57142857142856" y="171.42857142857144" width="171.42857142857144" height="125.71428571428572" rx="0" ry="0" style="stroke-width:1;fill:lightgray;"/><rect x="308.57142857142856" y="228.57142857142858" width="10.285714285714286" height="10.285714285714286" rx="0" ry="0" style="stroke-width:1;fill:gray;"/><text x="388.57142857142856" y="228.57142857142858" font-size="12"><tspan x="388.57142857142856" dy="0em">f8</tspan></text><rect x="0.0" y="0.0" width="228.57142857142858" height="171.42857142857144" rx="0" ry="0" style="stroke-width:1;fill:lightgray;"/><rect x="114.28571428571429" y="161.14285714285714" width="10.285714285714286" height="10.285714285714286" rx="0" ry="0" style="stroke-width:1;fill:gray;"/><text x="114.28571428571429" y="80.0" font-size="12"><tspan x="114.28571428571429" dy="0em">f4</tspan></text></g></svg>