<?xml version="1.0" standalone="no"?>
<!DOCTYPE svg PUBLIC "-//W3C//DTD SVG 1.1//EN"
  "http://www.w3.org/Graphics/SVG/1.1/DTD/svg11.dtd">
<svg width="480.0" height="336.0" version="1.1"
  xmlns="http://www.w3.org/2000/svg">
<g style="stroke:black;"><rect x="0.0" y="0.0" width="144.0" height="104.0" rx="0" ry="0" style="stroke-width:1;fill:lightgray;"/><rect x="134.4" y="48.0" width="9.6" height="9.6" rx="0" ry="0" style="stroke-width:1;fill:gray;"/><text x="72.0" y="48.0" font-size="12"><tspan x="72.0" dy="0em">f5</tspan></text><rect x="144.0" y="136.0" width="80.0" height="80.0" rx="0" ry="0" style="stroke-width:1;fill:lightgray;"/><rect x="214.4" y="176.0" width="9.6" height="9.6" rx="0" ry="0" style="stroke-width:1;fill:gray;"/><text x="184.0" y="176.0" font-size="12"><tspan x="184.0" dy="0em">f3</tspan></text><rect x="224.0" y="136.0" width="64.0" height="64.0" rx="0" ry="0" style="stroke-width:1;fill:lightgray;"/><rect x="224.0" y="168.0" width="9.6" height="9.6" rx="0" ry="0" style="stroke-width:1;fill:gray;"/><text x="256.0" y="168.0" font-size="12"><tspan x="256.0" dy="0em">f6</tspan></text><rect x="288.0" y="256.0" width="80.0" height="56.0" rx="0" ry="0" style="stroke-width:1;fill:lightgray;"/><rect x="358.4" y="280.0" width="9.6" height="9.6" rx="0" ry="0" style="stroke-width:1;fill:gray;"/><text x="328.0" y="280.0" font-size="12"><tspan x="328.0" dy="0em">f2</tspan></text><rect x="368.0" y="256.0" width="112.0" height="80.0" rx="0" ry="0" style="stroke-width:1;fill:lightgray;"/><rect x="368.0" y="296.0" width="9.6" height="9.6" rx="0" ry="0" style="stroke-width:1;fill:gray;"/><text x="424.0" y="296.0" font-size="12"><tspan x="424.0" dy="0em">f1</tspan></text><rect x="288.0" y="136.0" width="160.0" height="120.0" rx="0" ry="0" style="stroke-width:1;fill:lightgray;"/><rect x="288.0" y="192.0" width="9.6" height="9.6" rx="0" ry="0" style="stroke-width:1;fill:gray;"/><text x="368.0" y="192.0" font-size="12"><tspan x="368.0" dy="0em">f4</tspan></text><rect x="144.0" y="88.0" width="72.0" height="48.0" rx="0" ry="0" style="stroke-width:1;fill:lightgray;"/><rect x="176.0" y="88.0" width="9.6" height="9.6" rx="0" ry="0" style="stroke-width:1;fill:gray;"/><text x="176.0" y="112.0" font-size="12"><tspan x="176.0" dy="0em">f7</tspan></text><rect x="144.0" y="0.0" width="120.0" height="88.0" rx="0" ry="0" style="stroke-width:1;fill:lightgray;"/><rect x="200.0" y="78.4" width="9.6" height="9.6" rx="0" ry="0" style="stroke-width:1;fill:gray;"/><text x="200.0" y="40.0" font-size="12"><tspan x="200.0" dy="0em">f8</tspan></text></g></svg>