<?xml version="1.0" standalone="no"?>
<!DOCTYPE svg PUBLIC "-//W3C//DTD SVG 1.1//EN"
  "http://www.w3.org/Graphics/SVG/1.1/DTD/svg11.dtd">
<svg width="334.22222222222223" height="640.0" version="1.1"
  xmlns="http://www.w3.org/2000/svg">
<g style="stroke:black;"><rect x="0.0" y="355.55555555555554" width="78.22222222222221" height="78.22222222222221" rx="0" ry="0" style="stroke-width:1;fill:lightgray;"/><rect x="71.53777777777778" y="391.1111111111111" width="6.684444444444444" height="6.684444444444444" rx="0" ry="0" style="stroke-width:1;fill:gray;"/><text x="35.55555555555556" y="391.1111111111111" font-size="12"><tspan x="35.55555555555556" dy="0em">f11</tspan></text><rect x="0.0" y="284.44444444444446" width="85.33333333333333" height="71.11111111111111" rx="0" ry="0" style="stroke-width:1;fill:lightgray;"/><rect x="78.64888888888889" y="320.0" width="6.684444444444444" height="6.684444444444444" rx="0" ry="0" style="stroke-width:1;fill:gray;"/><text x="42.666666666666664" y="320.0" font-size="12"><tspan x="42.666666666666664" dy="0em">f3</tspan></text><rect x="163.55555555555554" y="355.55555555555554" width="64.0" height="49.77777777777777" rx="0" ry="0" style="stroke-width:1;fill:lightgray;"/><rect x="163.55555555555554" y="376.88888888888886" width="6.684444444444444" height="6.684444444444444" rx="0" ry="0" style="stroke-width:1;fill:gray;"/><text x="192.0" y="376.88888888888886" font-size="12"><tspan x="192.0" dy="0em">f1</tspan></text><rect x="227.55555555555554" y="583.1111111111111" width="56.888888888888886" height="56.888888888888886" rx="0" ry="0" style="stroke-width:1;fill:lightgray;"/><rect x="227.55555555555554" y="611.5555555555555" width="6.684444444444444" height="6.684444444444444" rx="0" ry="0" style="stroke-width:1;fill:gray;"/><text x="256.0" y="611.5555555555555" font-size="12"><tspan x="256.0" dy="0em">f4</tspan></text><rect x="227.55555555555554" y="504.88888888888886" width="106.66666666666666" height="78.22222222222221" rx="0" ry="0" style="stroke-width:1;fill:lightgray;"/><rect x="227.55555555555554" y="540.4444444444445" width="6.684444444444444" height="6.684444444444444" rx="0" ry="0" style="stroke-width:1;fill:gray;"/><text x="277.3333333333333" y="540.4444444444445" font-size="12"><tspan x="277.3333333333333" dy="0em">f8</tspan></text><rect x="227.55555555555554" y="440.88888888888886" width="85.33333333333333" height="64.0" rx="0" ry="0" style="stroke-width:1;fill:lightgray;"/><rect x="227.55555555555554" y="469.3333333333333" width="6.684444444444444" height="6.684444444444444" rx="0" ry="0" style="stroke-width:1;fill:gray;"/><text x="270.22222222222223" y="469.3333333333333" font-size="12"><tspan x="270.22222222222223" dy="0em">f9</tspan></text><rect x="227.55555555555554" y="355.55555555555554" width="85.33333333333333" height="85.33333333333333" rx="0" ry="0" style="stroke-width:1;fill:lightgray;"/><rect x="227.55555555555554" y="398.2222222222222" width="6.684444444444444" height="6.684444444444444" rx="0" ry="0" style="stroke-width:1;fill:gray;"/><text x="270.22222222222223" y="398.22222222222223" font-size="12"><tspan x="270.22222222222223" dy="0em">f5</tspan></text><rect x="163.55555555555554" y="284.44444444444446" width="99.55555555555554" height="71.11111111111111" rx="0" ry="0" style="stroke-width:1;fill:lightgray;"/><rect x="163.55555555555554" y="320.0" width="6.684444444444444" height="6.684444444444444" rx="0" ry="0" style="stroke-width:1;fill:gray;"/><text x="213.33333333333331" y="320.0" font-size="12"><tspan x="213.33333333333331" dy="0em">f2</tspan></text><rect x="0.0" y="227.55555555555554" width="85.33333333333333" height="56.888888888888886" rx="0" ry="0" style="stroke-width:1;fill:lightgray;"/><rect x="78.64888888888889" y="256.0" width="6.684444444444444" height="6.684444444444444" rx="0" ry="0" style="stroke-width:1;fill:gray;"/><text x="42.666666666666664" y="256.0" font-size="12"><tspan x="42.666666666666664" dy="0em">f12</tspan></text><rect x="0.0" y="170.66666666666666" width="71.11111111111111" height="56.888888888888886" rx="0" ry="0" style="stroke-width:1;fill:lightgray;"/><rect x="35.55555555555556" y="170.66666666666666" width="6.684444444444444" height="6.684444444444444" rx="0" ry="0" style="stroke-width:1;fill:gray;"/><text x="35.55555555555556" y="199.1111111111111" font-size="12"><tspan x="35.55555555555556" dy="0em">f6</tspan></text><rect x="0.0" y="99.55555555555554" width="71.11111111111111" height="71.11111111111111" rx="0" ry="0" style="stroke-width:1;fill:lightgray;"/><rect x="35.55555555555556" y="163.9822222222222" width="6.684444444444444" height="6.684444444444444" rx="0" ry="0" style="stroke-width:1;fill:gray;"/><text x="35.55555555555556" y="135.1111111111111" font-size="12"><tspan x="35.55555555555556" dy="0em">f10</tspan></text><rect x="0.0" y="0.0" width="142.22222222222223" height="99.55555555555554" rx="0" ry="0" style="stroke-width:1;fill:lightgray;"/><rect x="71.11111111111111" y="92.8711111111111" width="6.684444444444444" height="6.684444444444444" rx="0" ry="0" style="stroke-width:1;fill:gray;"/><text x="71.11111111111111" y="49.77777777777777" font-size="12"><tspan x="71.11111111111111" dy="0em">f7</tspan></text></g></svg>