<?xml version="1.0" standalone="no"?>
<!DOCTYPE svg PUBLIC "-//W3C//DTD SVG 1.1//EN"
  "http://www.w3.org/Graphics/SVG/1.1/DTD/svg11.dtd">
<svg width="594.2857142857142" height="640.0" version="1.1"
  xmlns="http://www.w3.org/2000/svg">
<g style="stroke:black;"><rect x="0.0" y="219.42857142857142" width="73.14285714285714" height="73.14285714285714" rx="0" ry="0" style="stroke-width:1;fill:lightgray;"/><rect x="61.25714285714285" y="256.0" width="11.885714285714286" height="11.885714285714286" rx="0" ry="0" style="stroke-width:1;fill:gray;"/><text x="36.57142857142857" y="256.0" font-size="12"><tspan x="36.57142857142857" dy="0em">f4</tspan></text><rect x="73.14285714285714" y="219.42857142857142" width="82.28571428571428" height="64.0" rx="0" ry="0" style="stroke-width:1;fill:lightgray;"/><rect x="143.54285714285712" y="246.85714285714283" width="11.885714285714286" height="11.885714285714286" rx="0" ry="0" style="stroke-width:1;fill:gray;"/><text x="109.71428571428571" y="246.85714285714283" font-size="12"><tspan x="109.71428571428571" dy="0em">f1</tspan></text><rect x="155.42857142857142" y="384.0" width="109.71428571428571" height="109.71428571428571" rx="0" ry="0" style="stroke-width:1;fill:lightgray;"/><rect x="210.28571428571428" y="384.0" width="11.885714285714286" height="11.885714285714286" rx="0" ry="0" style="stroke-width:1;fill:gray;"/><text x="210.28571428571428" y="438.85714285714283" font-size="12"><tspan x="210.28571428571428" dy="0em">f5</tspan></text><rect x="265.1428571428571" y="384.0" width="100.57142857142857" height="100.57142857142857" rx="0" ry="0" style="stroke-width:1;fill:lightgray;"/><rect x="265.1428571428571" y="429.71428571428567" width="11.885714285714286" height="11.885714285714286" rx="0" ry="0" style="stroke-width:1;fill:gray;"/><text x="310.85714285714283" y="429.7142857142857" font-size="12"><tspan x="310.85714285714283" dy="0em">f11</tspan></text><rect x="365.71428571428567" y="539.4285714285714" width="91.42857142857142" height="91.42857142857142" rx="0" ry="0" style="stroke-width:1;fill:lightgray;"/><rect x="411.4285714285714" y="539.4285714285714" width="11.885714285714286" height="11.885714285714286" rx="0" ry="0" style="stroke-width:1;fill:gray;"/><text x="411.4285714285714" y="585.1428571428571" font-size="12"><tspan x="411.4285714285714" dy="0em">f10</tspan></text><rect x="457.1428571428571" y="539.4285714285714" width="137.14285714285714" height="100.57142857142857" rx="0" ry="0" style="stroke-width:1;fill:lightgray;"/><rect x="457.1428571428571" y="585.1428571428571" width="11.885714285714286" height="11.885714285714286" rx="0" ry="0" style="stroke-width:1;fill:gray;"/><text x="521.1428571428571" y="585.1428571428571" font-size="12"><tspan x="521.1428571428571" dy="0em">f8</tspan></text><rect x="365.71428571428567" y="457.1428571428571" width="109.71428571428571" height="82.28571428571428" rx="0" ry="0" style="stroke-width:1;fill:lightgray;"/><rect x="365.71428571428567" y="493.71428571428567" width="11.885714285714286" height="11.885714285714286" rx="0" ry="0" style="stroke-width:1;fill:gray;"/><text x="420.5714285714285" y="493.71428571428567" font-size="12"><tspan x="420.5714285714285" dy="0em">f9</tspan></text><rect x="365.71428571428567" y="384.0" width="91.42857142857142" height="73.14285714285714" rx="0" ry="0" style="stroke-width:1;fill:lightgray;"/><rect x="411.4285714285714" y="445.25714285714287" width="11.885714285714286" height="11.885714285714286" rx="0" ry="0" style="stroke-width:1;fill:gray;"/><text x="411.4285714285714" y="420.57142857142856" font-size="12"><tspan x="411.4285714285714" dy="0em">f6</tspan></text><rect x="155.42857142857142" y="310.85714285714283" width="109.71428571428571" height="73.14285714285714" rx="0" ry="0" style="stroke-width:1;fill:lightgray;"/><rect x="210.28571428571428" y="310.85714285714283" width="11.885714285714286" height="11.885714285714286" rx="0" ry="0" style="stroke-width:1;fill:gray;"/><text x="210.28571428571428" y="347.4285714285714" font-size="12"><tspan x="210.28571428571428" dy="0em">f12</tspan></text><rect x="155.42857142857142" y="219.42857142857142" width="109.71428571428571" height="91.42857142857142" rx="0" ry="0" style="stroke-width:1;fill:lightgray;"/><rect x="210.28571428571428" y="298.9714285714286" width="11.885714285714286" height="11.885714285714286" rx="0" ry="0" style="stroke-width:1;fill:gray;"/><text x="210.28571428571428" y="265.1428571428571" font-size="12"><tspan x="210.28571428571428" dy="0em">f3</tspan></text><rect x="0.0" y="128.0" width="128.0" height="91.42857142857142" rx="0" ry="0" style="stroke-width:1;fill:lightgray;"/><rect x="116.1142857142857" y="173.7142857142857" width="11.885714285714286" height="11.885714285714286" rx="0" ry="0" style="stroke-width:1;fill:gray;"/><text x="64.0" y="173.71428571428572" font-size="12"><tspan x="64.0" dy="0em">f2</tspan></text><rect x="0.0" y="0.0" width="182.85714285714283" height="128.0" rx="0" ry="0" style="stroke-width:1;fill:lightgray;"/><rect x="91.42857142857142" y="116.1142857142857" width="11.885714285714286" height="11.885714285714286" rx="0" ry="0" style="stroke-width:1;fill:gray;"/><text x="91.42857142857142" y="64.0" font-size="12"><tspan x="91.42857142857142" dy="0em">f7</tspan></text></g></svg>