<?xml version="1.0" standalone="no"?>
<!DOCTYPE svg PUBLIC "-//W3C//DTD SVG 1.1//EN"
  "http://www.w3.org/Graphics/SVG/1.1/DTD/svg11.dtd">
<svg width="465.4545454545454" height="639.9999999999999" version="1.1"
  xmlns="http://www.w3.org/2000/svg">
<g style="stroke:black;"><rect x="0.0" y="407.27272727272725" width="66.49350649350649" height="66.49350649350649" rx="0" ry="0" style="stroke-width:1;fill:lightgray;"/><rect x="33.246753246753244" y="407.27272727272725" width="9.309090909090909" height="9.309090909090909" rx="0" ry="0" style="stroke-width:1;fill:gray;"/><text x="33.246753246753244" y="440.5194805194805" font-size="12"><tspan x="33.246753246753244" dy="0em">f4</tspan></text><rect x="66.49350649350649" y="407.27272727272725" width="99.74025974025973" height="99.74025974025973" rx="0" ry="0" style="stroke-width:1;fill:lightgray;"/><rect x="116.36363636363635" y="407.27272727272725" width="9.309090909090909" height="9.309090909090909" rx="0" ry="0" style="stroke-width:1;fill:gray;"/><text x="116.36363636363635" y="457.1428571428571" font-size="12"><tspan x="116.36363636363635" dy="0em">f5</tspan></text><rect x="166.23376623376623" y="498.70129870129864" width="83.11688311688312" height="83.11688311688312" rx="0" ry="0" style="stroke-width:1;fill:lightgray;"/><rect x="240.0415584415584" y="540.2597402597402" width="9.309090909090909" height="9.309090909090909" rx="0" ry="0" style="stroke-width:1;fill:gray;"/><text x="207.7922077922078" y="540.2597402597402" font-size="12"><tspan x="207.7922077922078" dy="0em">f10</tspan></text><rect x="166.23376623376623" y="407.27272727272725" width="91.42857142857142" height="91.42857142857142" rx="0" ry="0" style="stroke-width:1;fill:lightgray;"/><rect x="207.79220779220776" y="407.27272727272725" width="9.309090909090909" height="9.309090909090909" rx="0" ry="0" style="stroke-width:1;fill:gray;"/><text x="207.7922077922078" y="448.83116883116884" font-size="12"><tspan x="207.7922077922078" dy="0em">f11</tspan></text><rect x="340.77922077922074" y="548.5714285714286" width="124.67532467532466" height="91.42857142857142" rx="0" ry="0" style="stroke-width:1;fill:lightgray;"/><rect x="340.77922077922074" y="590.12987012987" width="9.309090909090909" height="9.309090909090909" rx="0" ry="0" style="stroke-width:1;fill:gray;"/><text x="398.9610389610389" y="590.1298701298701" font-size="12"><tspan x="398.9610389610389" dy="0em">f8</tspan></text><rect x="340.77922077922074" y="482.07792207792204" width="83.11688311688312" height="66.49350649350649" rx="0" ry="0" style="stroke-width:1;fill:lightgray;"/><rect x="340.77922077922074" y="515.3246753246752" width="9.309090909090909" height="9.309090909090909" rx="0" ry="0" style="stroke-width:1;fill:gray;"/><text x="382.3376623376623" y="515.3246753246752" font-size="12"><tspan x="382.3376623376623" dy="0em">f6</tspan></text><rect x="340.77922077922074" y="407.27272727272725" width="99.74025974025973" height="74.8051948051948" rx="0" ry="0" style="stroke-width:1;fill:lightgray;"/><rect x="340.77922077922074" y="440.51948051948045" width="9.309090909090909" height="9.309090909090909" rx="0" ry="0" style="stroke-width:1;fill:gray;"/><text x="390.6493506493506" y="440.5194805194805" font-size="12"><tspan x="390.6493506493506" dy="0em">f9</tspan></text><rect x="0.0" y="324.15584415584414" width="99.74025974025973" height="83.11688311688312" rx="0" ry="0" style="stroke-width:1;fill:lightgray;"/><rect x="90.43116883116882" y="365.71428571428567" width="9.309090909090909" height="9.309090909090909" rx="0" ry="0" style="stroke-width:1;fill:gray;"/><text x="49.870129870129865" y="365.71428571428567" font-size="12"><tspan x="49.870129870129865" dy="0em">f3</tspan></text><rect x="0.0" y="241.03896103896102" width="116.36363636363635" height="83.11688311688312" rx="0" ry="0" style="stroke-width:1;fill:lightgray;"/><rect x="107.05454545454543" y="282.59740259740255" width="9.309090909090909" height="9.309090909090909" rx="0" ry="0" style="stroke-width:1;fill:gray;"/><text x="58.18181818181817" y="282.5974025974026" font-size="12"><tspan x="58.18181818181817" dy="0em">f2</tspan></text><rect x="0.0" y="174.54545454545453" width="99.74025974025973" height="66.49350649350649" rx="0" ry="0" style="stroke-width:1;fill:lightgray;"/><rect x="90.43116883116882" y="207.79220779220776" width="9.309090909090909" height="9.309090909090909" rx="0" ry="0" style="stroke-width:1;fill:gray;"/><text x="49.870129870129865" y="207.79220779220776" font-size="12"><tspan x="49.870129870129865" dy="0em">f12</tspan></text><rect x="0.0" y="116.36363636363635" width="74.8051948051948" height="58.18181818181817" rx="0" ry="0" style="stroke-width:1;fill:lightgray;"/><rect x="33.246753246753244" y="165.23636363636362" width="9.309090909090909" height="9.309090909090909" rx="0" ry="0" style="stroke-width:1;fill:gray;"/><text x="33.246753246753244" y="141.29870129870127" font-size="12"><tspan x="33.246753246753244" dy="0em">f1</tspan></text><rect x="0.0" y="0.0" width="166.23376623376623" height="116.36363636363635" rx="0" ry="0" style="stroke-width:1;fill:lightgray;"/><rect x="83.11688311688312" y="107.05454545454543" width="9.309090909090909" height="9.309090909090909" rx="0" ry="0" style="stroke-width:1;fill:gray;"/><text x="83.11688311688312" y="58.18181818181817" font-size="12"><tspan x="83.11688311688312" dy="0em">f7</tspan></text></g></svg>