<?xml version="1.0" standalone="no"?>
<!DOCTYPE svg PUBLIC "-//W3C//DTD SVG 1.1//EN"
  "http://www.w3.org/Graphics/SVG/1.1/DTD/svg11.dtd">
<svg width="480.0" height="101.40845070422534" version="1.1"
  xmlns="http://www.w3.org/2000/svg">
<g style="stroke:black;"><rect x="0.0" y="0.0" width="60.84507042253521" height="40.563380281690144" rx="0" ry="0" style="stroke-width:1;fill:lightgray;"/><rect x="51.245070422535214" y="20.281690140845072" width="9.6" height="9.6" rx="0" ry="0" style="stroke-width:1;fill:gray;"/><text x="27.04225352112676" y="20.281690140845072" font-size="12"><tspan x="27.04225352112676" dy="0em">f6</tspan></text><rect x="60.84507042253521" y="0.0" width="67.6056338028169" height="54.08450704225352" rx="0" ry="0" style="stroke-width:1;fill:lightgray;"/><rect x="118.8507042253521" y="27.04225352112676" width="9.6" height="9.6" rx="0" ry="0" style="stroke-width:1;fill:gray;"/><text x="94.64788732394365" y="27.04225352112676" font-size="12"><tspan x="94.64788732394365" dy="0em">f1</tspan></text><rect x="128.4507042253521" y="0.0" width="81.12676056338029" height="67.6056338028169" rx="0" ry="0" style="stroke-width:1;fill:lightgray;"/><rect x="199.9774647887324" y="33.80281690140845" width="9.6" height="9.6" rx="0" ry="0" style="stroke-width:1;fill:gray;"/><text x="169.01408450704224" y="33.80281690140845" font-size="12"><tspan x="169.01408450704224" dy="0em">f3</tspan></text><rect x="209.57746478873239" y="0.0" width="81.12676056338029" height="54.08450704225352" rx="0" ry="0" style="stroke-width:1;fill:lightgray;"/><rect x="209.57746478873239" y="27.04225352112676" width="9.6" height="9.6" rx="0" ry="0" style="stroke-width:1;fill:gray;"/><text x="250.14084507042253" y="27.04225352112676" font-size="12"><tspan x="250.14084507042253" dy="0em">f4</tspan></text><rect x="290.70422535211264" y="0.0" width="54.08450704225352" height="54.08450704225352" rx="0" ry="0" style="stroke-width:1;fill:lightgray;"/><rect x="290.70422535211264" y="27.04225352112676" width="9.6" height="9.6" rx="0" ry="0" style="stroke-width:1;fill:gray;"/><text x="317.7464788732394" y="27.04225352112676" font-size="12"><tspan x="317.7464788732394" dy="0em">f5</tspan></text><rect x="344.7887323943662" y="0.0" width="135.2112676056338" height="101.40845070422534" rx="0" ry="0" style="stroke-width:1;fill:lightgray;"/><rect x="344.7887323943662" y="47.32394366197183" width="9.6" height="9.6" rx="0" ry="0" style="stroke-width:1;fill:gray;"/><text x="412.3943661971831" y="47.32394366197183" font-size="12"><tspan x="412.3943661971831" dy="0em">f2</tspan></text></g></svg>