<?xml version="1.0" standalone="no"?>
<!DOCTYPE svg PUBLIC "-//W3C//DTD SVG 1.1//EN"
  "http://www.w3.org/Graphics/SVG/1.1/DTD/svg11.dtd">
<svg width="480.0" height="405.0" version="1.1"
  xmlns="http://www.w3.org/2000/svg">
<g style="stroke:black;"><rect x="0.0" y="367.5" width="56.25" height="37.5" rx="0" ry="0" style="stroke-width:1;fill:lightgray;"/><rect x="26.25" y="367.5" width="9.6" height="9.6" rx="0" ry="0" style="stroke-width:1;fill:gray;"/><text x="26.25" y="386.25" font-size="12"><tspan x="26.25" dy="0em">f1</tspan></text><rect x="0.0" y="67.5" width="33.75" height="22.5" rx="0" ry="0" style="stroke-width:1;fill:lightgray;"/><rect x="24.15" y="78.75" width="9.6" height="9.6" rx="0" ry="0" style="stroke-width:1;fill:gray;"/><text x="15.0" y="78.75" font-size="12"><tspan x="15.0" dy="0em">f5</tspan></text><rect x="0.0" y="0.0" width="93.75" height="67.5" rx="0" ry="0" style="stroke-width:1;fill:lightgray;"/><rect x="45.0" y="57.9" width="9.6" height="9.6" rx="0" ry="0" style="stroke-width:1;fill:gray;"/><text x="45.0" y="33.75" font-size="12"><tspan x="45.0" dy="0em">f6</tspan></text><rect x="127.5" y="93.75" width="41.25" height="41.25" rx="0" ry="0" style="stroke-width:1;fill:lightgray;"/><rect x="146.25" y="93.75" width="9.6" height="9.6" rx="0" ry="0" style="stroke-width:1;fill:gray;"/><text x="146.25" y="112.5" font-size="12"><tspan x="146.25" dy="0em">f9</tspan></text><rect x="127.5" y="45.0" width="71.25" height="48.75" rx="0" ry="0" style="stroke-width:1;fill:lightgray;"/><rect x="189.14999999999998" y="67.5" width="9.6" height="9.6" rx="0" ry="0" style="stroke-width:1;fill:gray;"/><text x="161.25" y="67.5" font-size="12"><tspan x="161.25" dy="0em">f10</tspan></text><rect x="127.5" y="0.0" width="56.25" height="45.0" rx="0" ry="0" style="stroke-width:1;fill:lightgray;"/><rect x="153.75" y="35.4" width="9.6" height="9.6" rx="0" ry="0" style="stroke-width:1;fill:gray;"/><text x="153.75" y="22.5" font-size="12"><tspan x="153.75" dy="0em">f3</tspan></text><rect x="296.25" y="0.0" width="30.0" height="18.75" rx="0" ry="0" style="stroke-width:1;fill:lightgray;"/><rect x="296.25" y="7.5" width="9.6" height="9.6" rx="0" ry="0" style="stroke-width:1;fill:gray;"/><text x="311.25" y="7.5" font-size="12"><tspan x="311.25" dy="0em">f8</tspan></text><rect x="326.25" y="33.75" width="45.0" height="30.0" rx="0" ry="0" style="stroke-width:1;fill:lightgray;"/><rect x="326.25" y="48.75" width="9.6" height="9.6" rx="0" ry="0" style="stroke-width:1;fill:gray;"/><text x="348.75" y="48.75" font-size="12"><tspan x="348.75" dy="0em">f2</tspan></text><rect x="326.25" y="0.0" width="33.75" height="33.75" rx="0" ry="0" style="stroke-width:1;fill:lightgray;"/><rect x="326.25" y="15.0" width="9.6" height="9.6" rx="0" ry="0" style="stroke-width:1;fill:gray;"/><text x="341.25" y="15.0" font-size="12"><tspan x="341.25" dy="0em">f4</tspan></text><rect x="405.0" y="0.0" width="75.0" height="60.0" rx="0" ry="0" style="stroke-width:1;fill:lightgray;"/><rect x="405.0" y="30.0" width="9.6" height="9.6" rx="0" ry="0" style="stroke-width:1;fill:gray;"/><text x="442.5" y="30.0" font-size="12"><tspan x="442.5" dy="0em">f7</tspan></text></g></svg>