<?xml version="1.0" standalone="no"?>
<!DOCTYPE svg PUBLIC "-//W3C//DTD SVG 1.1//EN"
  "http://www.w3.org/Graphics/SVG/1.1/DTD/svg11.dtd">
<svg width="387.5229357798165" height="640.0" version="1.1"
  xmlns="http://www.w3.org/2000/svg">
<g style="stroke:black;"><rect x="0.0" y="569.5412844036698" width="70.45871559633028" height="70.45871559633028" rx="0" ry="0" style="stroke-width:1;fill:lightgray;"/><rect x="35.22935779816514" y="569.5412844036698" width="7.750458715596331" height="7.750458715596331" rx="0" ry="0" style="stroke-width:1;fill:gray;"/><text x="35.22935779816514" y="604.7706422018349" font-size="12"><tspan x="35.22935779816514" dy="0em">f5</tspan></text><rect x="70.45871559633028" y="569.5412844036698" width="70.45871559633028" height="52.84403669724771" rx="0" ry="0" style="stroke-width:1;fill:lightgray;"/><rect x="105.68807339449542" y="569.5412844036698" width="7.750458715596331" height="7.750458715596331" rx="0" ry="0" style="stroke-width:1;fill:gray;"/><text x="105.68807339449542" y="593.0275229357799" font-size="12"><tspan x="105.68807339449542" dy="0em">f9</tspan></text><rect x="0.0" y="0.0" width="117.43119266055047" height="82.20183486238533" rx="0" ry="0" style="stroke-width:1;fill:lightgray;"/><rect x="109.68073394495413" y="41.10091743119266" width="7.750458715596331" height="7.750458715596331" rx="0" ry="0" style="stroke-width:1;fill:gray;"/><text x="58.71559633027523" y="41.10091743119266" font-size="12"><tspan x="58.71559633027523" dy="0em">f7</tspan></text><rect x="117.43119266055047" y="381.651376146789" width="58.71559633027523" height="46.972477064220186" rx="0" ry="0" style="stroke-width:1;fill:lightgray;"/><rect x="146.78899082568807" y="381.651376146789" width="7.750458715596331" height="7.750458715596331" rx="0" ry="0" style="stroke-width:1;fill:gray;"/><text x="146.78899082568807" y="405.1376146788991" font-size="12"><tspan x="146.78899082568807" dy="0em">f6</tspan></text><rect x="176.1467889908257" y="381.651376146789" width="82.20183486238533" height="58.71559633027523" rx="0" ry="0" style="stroke-width:1;fill:lightgray;"/><rect x="217.24770642201835" y="381.651376146789" width="7.750458715596331" height="7.750458715596331" rx="0" ry="0" style="stroke-width:1;fill:gray;"/><text x="217.24770642201838" y="411.00917431192664" font-size="12"><tspan x="217.24770642201838" dy="0em">f2</tspan></text><rect x="117.43119266055047" y="111.55963302752295" width="52.84403669724771" height="41.10091743119266" rx="0" ry="0" style="stroke-width:1;fill:lightgray;"/><rect x="140.91743119266056" y="111.55963302752295" width="7.750458715596331" height="7.750458715596331" rx="0" ry="0" style="stroke-width:1;fill:gray;"/><text x="140.91743119266056" y="129.17431192660553" font-size="12"><tspan x="140.91743119266056" dy="0em">f1</tspan></text><rect x="170.27522935779817" y="111.55963302752295" width="58.71559633027523" height="58.71559633027523" rx="0" ry="0" style="stroke-width:1;fill:lightgray;"/><rect x="199.63302752293578" y="162.52477064220184" width="7.750458715596331" height="7.750458715596331" rx="0" ry="0" style="stroke-width:1;fill:gray;"/><text x="199.63302752293578" y="140.91743119266056" font-size="12"><tspan x="199.63302752293578" dy="0em">f10</tspan></text><rect x="228.99082568807341" y="111.55963302752295" width="70.45871559633028" height="46.972477064220186" rx="0" ry="0" style="stroke-width:1;fill:lightgray;"/><rect x="264.22018348623857" y="111.55963302752295" width="7.750458715596331" height="7.750458715596331" rx="0" ry="0" style="stroke-width:1;fill:gray;"/><text x="264.22018348623857" y="135.04587155963304" font-size="12"><tspan x="264.22018348623857" dy="0em">f12</tspan></text><rect x="299.44954128440367" y="170.27522935779817" width="88.07339449541286" height="64.58715596330276" rx="0" ry="0" style="stroke-width:1;fill:lightgray;"/><rect x="299.44954128440367" y="199.63302752293578" width="7.750458715596331" height="7.750458715596331" rx="0" ry="0" style="stroke-width:1;fill:gray;"/><text x="340.55045871559633" y="199.63302752293578" font-size="12"><tspan x="340.55045871559633" dy="0em">f8</tspan></text><rect x="299.44954128440367" y="111.55963302752295" width="70.45871559633028" height="58.71559633027523" rx="0" ry="0" style="stroke-width:1;fill:lightgray;"/><rect x="299.44954128440367" y="140.91743119266056" width="7.750458715596331" height="7.750458715596331" rx="0" ry="0" style="stroke-width:1;fill:gray;"/><text x="334.6788990825688" y="140.91743119266056" font-size="12"><tspan x="334.6788990825688" dy="0em">f3</tspan></text><rect x="117.43119266055047" y="64.58715596330276" width="46.972477064220186" height="46.972477064220186" rx="0" ry="0" style="stroke-width:1;fill:lightgray;"/><rect x="140.91743119266056" y="103.80917431192661" width="7.750458715596331" height="7.750458715596331" rx="0" ry="0" style="stroke-width:1;fill:gray;"/><text x="140.91743119266056" y="88.07339449541286" font-size="12"><tspan x="140.91743119266056" dy="0em">f4</tspan></text><rect x="117.43119266055047" y="0.0" width="64.58715596330276" height="64.58715596330276" rx="0" ry="0" style="stroke-width:1;fill:lightgray;"/><rect x="146.78899082568807" y="56.836697247706425" width="7.750458715596331" height="7.750458715596331" rx="0" ry="0" style="stroke-width:1;fill:gray;"/><text x="146.78899082568807" y="29.357798165137616" font-size="12"><tspan x="146.78899082568807" dy="0em">f11</tspan></text></g></svg>