<?xml version="1.0" standalone="no"?>
<!DOCTYPE svg PUBLIC "-//W3C//DTD SVG 1.1//EN"
  "http://www.w3.org/Graphics/SVG/1.1/DTD/svg11.dtd">
<svg width="480.0" height="382.7027027027027" version="1.1"
  xmlns="http://www.w3.org/2000/svg">
<g style="stroke:black;"><rect x="0.0" y="0.0" width="123.24324324324326" height="84.32432432432432" rx="0" ry="0" style="stroke-width:1;fill:lightgray;"/><rect x="113.64324324324325" y="38.91891891891892" width="9.6" height="9.6" rx="0" ry="0" style="stroke-width:1;fill:gray;"/><text x="58.37837837837838" y="38.91891891891892" font-size="12"><tspan x="58.37837837837838" dy="0em">f10</tspan></text><rect x="123.24324324324326" y="0.0" width="129.72972972972974" height="103.78378378378379" rx="0" ry="0" style="stroke-width:1;fill:lightgray;"/><rect x="123.24324324324326" y="51.891891891891895" width="9.6" height="9.6" rx="0" ry="0" style="stroke-width:1;fill:gray;"/><text x="188.10810810810813" y="51.891891891891895" font-size="12"><tspan x="188.10810810810813" dy="0em">f7</tspan></text><rect x="252.972972972973" y="214.05405405405406" width="71.35135135135135" height="71.35135135135135" rx="0" ry="0" style="stroke-width:1;fill:lightgray;"/><rect x="314.72432432432436" y="246.4864864864865" width="9.6" height="9.6" rx="0" ry="0" style="stroke-width:1;fill:gray;"/><text x="285.4054054054054" y="246.4864864864865" font-size="12"><tspan x="285.4054054054054" dy="0em">f9</tspan></text><rect x="252.972972972973" y="155.67567567567568" width="58.37837837837838" height="58.37837837837838" rx="0" ry="0" style="stroke-width:1;fill:lightgray;"/><rect x="301.7513513513514" y="181.62162162162164" width="9.6" height="9.6" rx="0" ry="0" style="stroke-width:1;fill:gray;"/><text x="278.91891891891896" y="181.6216216216216" font-size="12"><tspan x="278.91891891891896" dy="0em">f4</tspan></text><rect x="382.7027027027027" y="330.81081081081084" width="77.83783783783784" height="51.891891891891895" rx="0" ry="0" style="stroke-width:1;fill:lightgray;"/><rect x="382.7027027027027" y="356.7567567567568" width="9.6" height="9.6" rx="0" ry="0" style="stroke-width:1;fill:gray;"/><text x="421.6216216216216" y="356.7567567567568" font-size="12"><tspan x="421.6216216216216" dy="0em">f2</tspan></text><rect x="382.7027027027027" y="252.972972972973" width="97.2972972972973" height="77.83783783783784" rx="0" ry="0" style="stroke-width:1;fill:lightgray;"/><rect x="382.7027027027027" y="291.89189189189193" width="9.6" height="9.6" rx="0" ry="0" style="stroke-width:1;fill:gray;"/><text x="428.1081081081081" y="291.89189189189193" font-size="12"><tspan x="428.1081081081081" dy="0em">f3</tspan></text><rect x="382.7027027027027" y="220.54054054054055" width="51.891891891891895" height="32.432432432432435" rx="0" ry="0" style="stroke-width:1;fill:lightgray;"/><rect x="382.7027027027027" y="233.51351351351352" width="9.6" height="9.6" rx="0" ry="0" style="stroke-width:1;fill:gray;"/><text x="408.64864864864865" y="233.51351351351352" font-size="12"><tspan x="408.64864864864865" dy="0em">f8</tspan></text><rect x="382.7027027027027" y="155.67567567567568" width="97.2972972972973" height="64.86486486486487" rx="0" ry="0" style="stroke-width:1;fill:lightgray;"/><rect x="382.7027027027027" y="188.10810810810813" width="9.6" height="9.6" rx="0" ry="0" style="stroke-width:1;fill:gray;"/><text x="428.1081081081081" y="188.10810810810813" font-size="12"><tspan x="428.1081081081081" dy="0em">f1</tspan></text><rect x="252.972972972973" y="116.75675675675676" width="58.37837837837838" height="38.91891891891892" rx="0" ry="0" style="stroke-width:1;fill:lightgray;"/><rect x="301.7513513513514" y="136.21621621621622" width="9.6" height="9.6" rx="0" ry="0" style="stroke-width:1;fill:gray;"/><text x="278.91891891891896" y="136.21621621621622" font-size="12"><tspan x="278.91891891891896" dy="0em">f5</tspan></text><rect x="252.972972972973" y="0.0" width="162.16216216216216" height="116.75675675675676" rx="0" ry="0" style="stroke-width:1;fill:lightgray;"/><rect x="330.81081081081084" y="107.15675675675676" width="9.6" height="9.6" rx="0" ry="0" style="stroke-width:1;fill:gray;"/><text x="330.81081081081084" y="58.37837837837838" font-size="12"><tspan x="330.81081081081084" dy="0em">f6</tspan></text></g></svg>