<?xml version="1.0" standalone="no"?>
<!DOCTYPE svg PUBLIC "-//W3C//DTD SVG 1.1//EN"
  "http://www.w3.org/Graphics/SVG/1.1/DTD/svg11.dtd">
<svg width="232.72727272727275" height="640.0" version="1.1"
  xmlns="http://www.w3.org/2000/svg">
<g style="stroke:black;"><rect x="0.0" y="570.1818181818182" width="104.72727272727273" height="69.81818181818181" rx="0" ry="0" style="stroke-width:1;fill:lightgray;"/><rect x="0.0" y="605.0909090909091" width="4.654545454545455" height="4.654545454545455" rx="0" ry="0" style="stroke-width:1;fill:gray;"/><text x="46.54545454545455" y="605.0909090909091" font-size="12"><tspan x="46.54545454545455" dy="0em">f6</tspan></text><rect x="0.0" y="395.6363636363636" width="232.72727272727275" height="174.54545454545456" rx="0" ry="0" style="stroke-width:1;fill:lightgray;"/><rect x="116.36363636363637" y="395.6363636363636" width="4.654545454545455" height="4.654545454545455" rx="0" ry="0" style="stroke-width:1;fill:gray;"/><text x="116.36363636363637" y="477.09090909090907" font-size="12"><tspan x="116.36363636363637" dy="0em">f2</tspan></text><rect x="0.0" y="302.54545454545456" width="116.36363636363637" height="93.0909090909091" rx="0" ry="0" style="stroke-width:1;fill:lightgray;"/><rect x="111.7090909090909" y="349.0909090909091" width="4.654545454545455" height="4.654545454545455" rx="0" ry="0" style="stroke-width:1;fill:gray;"/><text x="58.18181818181819" y="349.0909090909091" font-size="12"><tspan x="58.18181818181819" dy="0em">f1</tspan></text><rect x="0.0" y="209.45454545454547" width="93.0909090909091" height="93.0909090909091" rx="0" ry="0" style="stroke-width:1;fill:lightgray;"/><rect x="88.43636363636364" y="256.0" width="4.654545454545455" height="4.654545454545455" rx="0" ry="0" style="stroke-width:1;fill:gray;"/><text x="46.54545454545455" y="256.0" font-size="12"><tspan x="46.54545454545455" dy="0em">f5</tspan></text><rect x="0.0" y="93.0909090909091" width="139.63636363636363" height="116.36363636363637" rx="0" ry="0" style="stroke-width:1;fill:lightgray;"/><rect x="69.81818181818181" y="93.0909090909091" width="4.654545454545455" height="4.654545454545455" rx="0" ry="0" style="stroke-width:1;fill:gray;"/><text x="69.81818181818181" y="151.27272727272728" font-size="12"><tspan x="69.81818181818181" dy="0em">f3</tspan></text><rect x="0.0" y="0.0" width="139.63636363636363" height="93.0909090909091" rx="0" ry="0" style="stroke-width:1;fill:lightgray;"/><rect x="69.81818181818181" y="88.43636363636364" width="4.654545454545455" height="4.654545454545455" rx="0" ry="0" style="stroke-width:1;fill:gray;"/><text x="69.81818181818181" y="46.54545454545455" font-size="12"><tspan x="69.81818181818181" dy="0em">f4</tspan></text></g></svg>