<?xml version="1.0" standalone="no"?>
<!DOCTYPE svg PUBLIC "-//W3C//DTD SVG 1.1//EN"
  "http://www.w3.org/Graphics/SVG/1.1/DTD/svg11.dtd">
<svg width="256.0" height="640.0" version="1.1"
  xmlns="http://www.w3.org/2000/svg">
<g style="stroke:black;"><rect x="0.0" y="350.31578947368416" width="80.84210526315789" height="80.84210526315789" rx="0" ry="0" style="stroke-width:1;fill:lightgray;"/><rect x="75.72210526315789" y="390.7368421052631" width="5.12" height="5.12" rx="0" ry="0" style="stroke-width:1;fill:gray;"/><text x="40.421052631578945" y="390.7368421052631" font-size="12"><tspan x="40.421052631578945" dy="0em">f5</tspan></text><rect x="0.0" y="276.2105263157895" width="74.10526315789474" height="74.10526315789474" rx="0" ry="0" style="stroke-width:1;fill:lightgray;"/><rect x="68.98526315789474" y="309.89473684210526" width="5.12" height="5.12" rx="0" ry="0" style="stroke-width:1;fill:gray;"/><text x="33.68421052631579" y="309.89473684210526" font-size="12"><tspan x="33.68421052631579" dy="0em">f11</tspan></text><rect x="154.94736842105263" y="586.1052631578947" width="53.89473684210526" height="53.89473684210526" rx="0" ry="0" style="stroke-width:1;fill:lightgray;"/><rect x="181.89473684210526" y="586.1052631578947" width="5.12" height="5.12" rx="0" ry="0" style="stroke-width:1;fill:gray;"/><text x="181.89473684210526" y="613.0526315789473" font-size="12"><tspan x="181.89473684210526" dy="0em">f4</tspan></text><rect x="154.94736842105263" y="538.9473684210526" width="60.63157894736842" height="47.1578947368421" rx="0" ry="0" style="stroke-width:1;fill:lightgray;"/><rect x="154.94736842105263" y="559.1578947368421" width="5.12" height="5.12" rx="0" ry="0" style="stroke-width:1;fill:gray;"/><text x="181.89473684210526" y="559.1578947368421" font-size="12"><tspan x="181.89473684210526" dy="0em">f1</tspan></text><rect x="154.94736842105263" y="471.57894736842104" width="94.3157894736842" height="67.36842105263158" rx="0" ry="0" style="stroke-width:1;fill:lightgray;"/><rect x="154.94736842105263" y="505.2631578947368" width="5.12" height="5.12" rx="0" ry="0" style="stroke-width:1;fill:gray;"/><text x="202.10526315789474" y="505.2631578947368" font-size="12"><tspan x="202.10526315789474" dy="0em">f2</tspan></text><rect x="154.94736842105263" y="397.4736842105263" width="101.05263157894737" height="74.10526315789474" rx="0" ry="0" style="stroke-width:1;fill:lightgray;"/><rect x="154.94736842105263" y="431.1578947368421" width="5.12" height="5.12" rx="0" ry="0" style="stroke-width:1;fill:gray;"/><text x="202.10526315789474" y="431.1578947368421" font-size="12"><tspan x="202.10526315789474" dy="0em">f8</tspan></text><rect x="154.94736842105263" y="343.57894736842104" width="67.36842105263158" height="53.89473684210526" rx="0" ry="0" style="stroke-width:1;fill:lightgray;"/><rect x="154.94736842105263" y="370.52631578947364" width="5.12" height="5.12" rx="0" ry="0" style="stroke-width:1;fill:gray;"/><text x="188.6315789473684" y="370.52631578947364" font-size="12"><tspan x="188.6315789473684" dy="0em">f6</tspan></text><rect x="154.94736842105263" y="276.2105263157895" width="80.84210526315789" height="67.36842105263158" rx="0" ry="0" style="stroke-width:1;fill:lightgray;"/><rect x="154.94736842105263" y="309.89473684210526" width="5.12" height="5.12" rx="0" ry="0" style="stroke-width:1;fill:gray;"/><text x="195.36842105263156" y="309.89473684210526" font-size="12"><tspan x="195.36842105263156" dy="0em">f3</tspan></text><rect x="0.0" y="215.57894736842104" width="80.84210526315789" height="60.63157894736842" rx="0" ry="0" style="stroke-width:1;fill:lightgray;"/><rect x="75.72210526315789" y="242.52631578947367" width="5.12" height="5.12" rx="0" ry="0" style="stroke-width:1;fill:gray;"/><text x="40.421052631578945" y="242.52631578947367" font-size="12"><tspan x="40.421052631578945" dy="0em">f9</tspan></text><rect x="0.0" y="161.68421052631578" width="80.84210526315789" height="53.89473684210526" rx="0" ry="0" style="stroke-width:1;fill:lightgray;"/><rect x="75.72210526315789" y="188.6315789473684" width="5.12" height="5.12" rx="0" ry="0" style="stroke-width:1;fill:gray;"/><text x="40.421052631578945" y="188.6315789473684" font-size="12"><tspan x="40.421052631578945" dy="0em">f12</tspan></text><rect x="0.0" y="94.3157894736842" width="67.36842105263158" height="67.36842105263158" rx="0" ry="0" style="stroke-width:1;fill:lightgray;"/><rect x="62.24842105263158" y="128.0" width="5.12" height="5.12" rx="0" ry="0" style="stroke-width:1;fill:gray;"/><text x="33.68421052631579" y="128.0" font-size="12"><tspan x="33.68421052631579" dy="0em">f10</tspan></text><rect x="0.0" y="0.0" width="134.73684210526315" height="94.3157894736842" rx="0" ry="0" style="stroke-width:1;fill:lightgray;"/><rect x="67.36842105263158" y="89.1957894736842" width="5.12" height="5.12" rx="0" ry="0" style="stroke-width:1;fill:gray;"/><text x="67.36842105263158" y="47.1578947368421" font-size="12"><tspan x="67.36842105263158" dy="0em">f7</tspan></text></g></svg>