<?xml version="1.0" standalone="no"?>
<!DOCTYPE svg PUBLIC "-//W3C//DTD SVG 1.1//EN"
  "http://www.w3.org/Graphics/SVG/1.1/DTD/svg11.dtd">
<svg width="371.61290322580646" height="640.0" version="1.1"
  xmlns="http://www.w3.org/2000/svg">
<g style="stroke:black;"><rect x="0.0" y="216.7741935483871" width="103.2258064516129" height="103.2258064516129" rx="0" ry="0" style="stroke-width:1;fill:lightgray;"/><rect x="95.79354838709676" y="268.38709677419354" width="7.4322580645161285" height="7.4322580645161285" rx="0" ry="0" style="stroke-width:1;fill:gray;"/><text x="51.61290322580645" y="268.38709677419354" font-size="12"><tspan x="51.61290322580645" dy="0em">f3</tspan></text><rect x="103.2258064516129" y="216.7741935483871" width="82.58064516129032" height="82.58064516129032" rx="0" ry="0" style="stroke-width:1;fill:lightgray;"/><rect x="103.2258064516129" y="258.06451612903226" width="7.4322580645161285" height="7.4322580645161285" rx="0" ry="0" style="stroke-width:1;fill:gray;"/><text x="144.51612903225805" y="258.06451612903226" font-size="12"><tspan x="144.51612903225805" dy="0em">f6</tspan></text><rect x="185.80645161290323" y="536.7741935483871" width="144.51612903225805" height="103.2258064516129" rx="0" ry="0" style="stroke-width:1;fill:lightgray;"/><rect x="258.06451612903226" y="536.7741935483871" width="7.4322580645161285" height="7.4322580645161285" rx="0" ry="0" style="stroke-width:1;fill:gray;"/><text x="258.06451612903226" y="588.3870967741935" font-size="12"><tspan x="258.06451612903226" dy="0em">f1</tspan></text><rect x="185.80645161290323" y="464.51612903225805" width="103.2258064516129" height="72.25806451612902" rx="0" ry="0" style="stroke-width:1;fill:lightgray;"/><rect x="237.41935483870967" y="529.341935483871" width="7.4322580645161285" height="7.4322580645161285" rx="0" ry="0" style="stroke-width:1;fill:gray;"/><text x="237.4193548387097" y="495.48387096774195" font-size="12"><tspan x="237.4193548387097" dy="0em">f2</tspan></text><rect x="185.80645161290323" y="330.3225806451613" width="185.80645161290323" height="134.19354838709677" rx="0" ry="0" style="stroke-width:1;fill:lightgray;"/><rect x="185.80645161290323" y="392.258064516129" width="7.4322580645161285" height="7.4322580645161285" rx="0" ry="0" style="stroke-width:1;fill:gray;"/><text x="278.7096774193549" y="392.258064516129" font-size="12"><tspan x="278.7096774193549" dy="0em">f5</tspan></text><rect x="185.80645161290323" y="216.7741935483871" width="154.83870967741936" height="113.54838709677419" rx="0" ry="0" style="stroke-width:1;fill:lightgray;"/><rect x="185.80645161290323" y="268.38709677419354" width="7.4322580645161285" height="7.4322580645161285" rx="0" ry="0" style="stroke-width:1;fill:gray;"/><text x="258.06451612903226" y="268.38709677419354" font-size="12"><tspan x="258.06451612903226" dy="0em">f8</tspan></text><rect x="0.0" y="154.83870967741936" width="92.90322580645162" height="61.935483870967744" rx="0" ry="0" style="stroke-width:1;fill:lightgray;"/><rect x="85.47096774193548" y="185.80645161290323" width="7.4322580645161285" height="7.4322580645161285" rx="0" ry="0" style="stroke-width:1;fill:gray;"/><text x="41.29032258064516" y="185.80645161290323" font-size="12"><tspan x="41.29032258064516" dy="0em">f7</tspan></text><rect x="0.0" y="0.0" width="206.4516129032258" height="154.83870967741936" rx="0" ry="0" style="stroke-width:1;fill:lightgray;"/><rect x="103.2258064516129" y="147.40645161290323" width="7.4322580645161285" height="7.4322580645161285" rx="0" ry="0" style="stroke-width:1;fill:gray;"/><text x="103.2258064516129" y="72.25806451612902" font-size="12"><tspan x="103.2258064516129" dy="0em">f4</tspan></text></g></svg>