<?xml version="1.0" standalone="no"?>
<!DOCTYPE svg PUBLIC "-//W3C//DTD SVG 1.1//EN"
  "http://www.w3.org/Graphics/SVG/1.1/DTD/svg11.dtd">
<svg width="480.0" height="437.89473684210526" version="1.1"
  xmlns="http://www.w3.org/2000/svg">
<g style="stroke:black;"><rect x="0.0" y="328.4210526315789" width="126.3157894736842" height="92.63157894736841" rx="0" ry="0" style="stroke-width:1;fill:lightgray;"/><rect x="0.0" y="370.52631578947364" width="9.599999999999998" height="9.599999999999998" rx="0" ry="0" style="stroke-width:1;fill:gray;"/><text x="58.94736842105263" y="370.52631578947364" font-size="12"><tspan x="58.94736842105263" dy="0em">f8</tspan></text><rect x="126.3157894736842" y="328.4210526315789" width="151.57894736842104" height="109.47368421052632" rx="0" ry="0" style="stroke-width:1;fill:lightgray;"/><rect x="126.3157894736842" y="378.9473684210526" width="9.599999999999998" height="9.599999999999998" rx="0" ry="0" style="stroke-width:1;fill:gray;"/><text x="202.10526315789474" y="378.9473684210526" font-size="12"><tspan x="202.10526315789474" dy="0em">f5</tspan></text><rect x="0.0" y="244.21052631578945" width="117.89473684210526" height="84.21052631578947" rx="0" ry="0" style="stroke-width:1;fill:lightgray;"/><rect x="108.29473684210525" y="286.3157894736842" width="9.599999999999998" height="9.599999999999998" rx="0" ry="0" style="stroke-width:1;fill:gray;"/><text x="58.94736842105263" y="286.31578947368416" font-size="12"><tspan x="58.94736842105263" dy="0em">f1</tspan></text><rect x="395.7894736842105" y="303.1578947368421" width="84.21052631578947" height="84.21052631578947" rx="0" ry="0" style="stroke-width:1;fill:lightgray;"/><rect x="395.7894736842105" y="345.2631578947368" width="9.599999999999998" height="9.599999999999998" rx="0" ry="0" style="stroke-width:1;fill:gray;"/><text x="437.89473684210526" y="345.2631578947368" font-size="12"><tspan x="437.89473684210526" dy="0em">f3</tspan></text><rect x="395.7894736842105" y="244.21052631578945" width="84.21052631578947" height="58.94736842105263" rx="0" ry="0" style="stroke-width:1;fill:lightgray;"/><rect x="395.7894736842105" y="269.4736842105263" width="9.599999999999998" height="9.599999999999998" rx="0" ry="0" style="stroke-width:1;fill:gray;"/><text x="437.89473684210526" y="269.4736842105263" font-size="12"><tspan x="437.89473684210526" dy="0em">f2</tspan></text><rect x="0.0" y="193.68421052631578" width="75.78947368421052" height="50.526315789473685" rx="0" ry="0" style="stroke-width:1;fill:lightgray;"/><rect x="0.0" y="218.94736842105263" width="9.599999999999998" height="9.599999999999998" rx="0" ry="0" style="stroke-width:1;fill:gray;"/><text x="33.68421052631579" y="218.94736842105263" font-size="12"><tspan x="33.68421052631579" dy="0em">f7</tspan></text><rect x="0.0" y="67.36842105263158" width="168.42105263157893" height="126.3157894736842" rx="0" ry="0" style="stroke-width:1;fill:lightgray;"/><rect x="84.21052631578947" y="67.36842105263158" width="9.599999999999998" height="9.599999999999998" rx="0" ry="0" style="stroke-width:1;fill:gray;"/><text x="84.21052631578947" y="126.3157894736842" font-size="12"><tspan x="84.21052631578947" dy="0em">f4</tspan></text><rect x="0.0" y="0.0" width="67.36842105263158" height="67.36842105263158" rx="0" ry="0" style="stroke-width:1;fill:lightgray;"/><rect x="57.76842105263158" y="33.68421052631579" width="9.599999999999998" height="9.599999999999998" rx="0" ry="0" style="stroke-width:1;fill:gray;"/><text x="33.68421052631579" y="33.68421052631579" font-size="12"><tspan x="33.68421052631579" dy="0em">f6</tspan></text></g></svg>