<?xml version="1.0" standalone="no"?>
<!DOCTYPE svg PUBLIC "-//W3C//DTD SVG 1.1//EN"
  "http://www.w3.org/Graphics/SVG/1.1/DTD/svg11.dtd">
<svg width="480.0" height="187.97202797202797" version="1.1"
  xmlns="http://www.w3.org/2000/svg">
<g style="stroke:black;"><rect x="0.0" y="0.0" width="30.20979020979021" height="20.13986013986014" rx="0" ry="0" style="stroke-width:1;fill:lightgray;"/><rect x="13.426573426573427" y="0.0" width="9.6" height="9.6" rx="0" ry="0" style="stroke-width:1;fill:gray;"/><text x="13.426573426573427" y="10.06993006993007" font-size="12"><tspan x="13.426573426573427" dy="0em">f5</tspan></text><rect x="30.20979020979021" y="134.26573426573427" width="67.13286713286713" height="53.70629370629371" rx="0" ry="0" style="stroke-width:1;fill:lightgray;"/><rect x="87.74265734265734" y="161.11888111888112" width="9.6" height="9.6" rx="0" ry="0" style="stroke-width:1;fill:gray;"/><text x="63.77622377622377" y="161.11888111888112" font-size="12"><tspan x="63.77622377622377" dy="0em">f7</tspan></text><rect x="97.34265734265735" y="134.26573426573427" width="30.20979020979021" height="30.20979020979021" rx="0" ry="0" style="stroke-width:1;fill:lightgray;"/><rect x="117.95244755244755" y="147.69230769230768" width="9.6" height="9.6" rx="0" ry="0" style="stroke-width:1;fill:gray;"/><text x="110.76923076923077" y="147.69230769230768" font-size="12"><tspan x="110.76923076923077" dy="0em">f4</tspan></text><rect x="30.20979020979021" y="0.0" width="50.34965034965035" height="40.27972027972028" rx="0" ry="0" style="stroke-width:1;fill:lightgray;"/><rect x="53.70629370629371" y="0.0" width="9.6" height="9.6" rx="0" ry="0" style="stroke-width:1;fill:gray;"/><text x="53.70629370629371" y="20.13986013986014" font-size="12"><tspan x="53.70629370629371" dy="0em">f3</tspan></text><rect x="80.55944055944056" y="0.0" width="83.91608391608392" height="60.41958041958042" rx="0" ry="0" style="stroke-width:1;fill:lightgray;"/><rect x="80.55944055944056" y="30.20979020979021" width="9.6" height="9.6" rx="0" ry="0" style="stroke-width:1;fill:gray;"/><text x="120.83916083916084" y="30.20979020979021" font-size="12"><tspan x="120.83916083916084" dy="0em">f6</tspan></text><rect x="164.47552447552448" y="0.0" width="50.34965034965035" height="33.56643356643357" rx="0" ry="0" style="stroke-width:1;fill:lightgray;"/><rect x="187.97202797202797" y="0.0" width="9.6" height="9.6" rx="0" ry="0" style="stroke-width:1;fill:gray;"/><text x="187.97202797202797" y="16.783216783216783" font-size="12"><tspan x="187.97202797202797" dy="0em">f1</tspan></text><rect x="312.16783216783216" y="0.0" width="36.92307692307692" height="36.92307692307692" rx="0" ry="0" style="stroke-width:1;fill:lightgray;"/><rect x="312.16783216783216" y="16.783216783216783" width="9.6" height="9.6" rx="0" ry="0" style="stroke-width:1;fill:gray;"/><text x="328.95104895104896" y="16.783216783216783" font-size="12"><tspan x="328.95104895104896" dy="0em">f9</tspan></text><rect x="349.0909090909091" y="0.0" width="40.27972027972028" height="26.853146853146853" rx="0" ry="0" style="stroke-width:1;fill:lightgray;"/><rect x="349.0909090909091" y="13.426573426573427" width="9.6" height="9.6" rx="0" ry="0" style="stroke-width:1;fill:gray;"/><text x="369.2307692307693" y="13.426573426573427" font-size="12"><tspan x="369.2307692307693" dy="0em">f2</tspan></text><rect x="389.3706293706294" y="0.0" width="26.853146853146853" height="16.783216783216783" rx="0" ry="0" style="stroke-width:1;fill:lightgray;"/><rect x="402.7972027972028" y="0.0" width="9.6" height="9.6" rx="0" ry="0" style="stroke-width:1;fill:gray;"/><text x="402.79720279720283" y="6.713286713286713" font-size="12"><tspan x="402.79720279720283" dy="0em">f8</tspan></text><rect x="416.2237762237762" y="0.0" width="63.77622377622377" height="43.63636363636364" rx="0" ry="0" style="stroke-width:1;fill:lightgray;"/><rect x="416.2237762237762" y="20.13986013986014" width="9.6" height="9.6" rx="0" ry="0" style="stroke-width:1;fill:gray;"/><text x="446.4335664335664" y="20.13986013986014" font-size="12"><tspan x="446.4335664335664" dy="0em">f10</tspan></text></g></svg>