<?xml version="1.0" standalone="no"?>
<!DOCTYPE svg PUBLIC "-//W3C//DTD SVG 1.1//EN"
  "http://www.w3.org/Graphics/SVG/1.1/DTD/svg11.dtd">
<svg width="298.3050847457627" height="640.0" version="1.1"
  xmlns="http://www.w3.org/2000/svg">
<g style="stroke:black;"><rect x="0.0" y="574.9152542372881" width="65.08474576271186" height="65.08474576271186" rx="0" ry="0" style="stroke-width:1;fill:red;"/><rect x="32.54237288135593" y="574.9152542372881" width="5.966101694915254" height="5.966101694915254" rx="0" ry="0" style="stroke-width:1;fill:gray;"/><text x="32.54237288135593" y="607.457627118644" font-size="12"><tspan x="32.54237288135593" dy="0em">f5</tspan></text><rect x="0.0" y="439.32203389830505" width="48.813559322033896" height="37.96610169491525" rx="0" ry="0" style="stroke-width:1;fill:green;"/><rect x="21.694915254237287" y="439.32203389830505" width="5.966101694915254" height="5.966101694915254" rx="0" ry="0" style="stroke-width:1;fill:gray;"/><text x="21.694915254237287" y="455.59322033898303" font-size="12"><tspan x="21.694915254237287" dy="0em">f1</tspan></text><rect x="48.813559322033896" y="439.32203389830505" width="65.08474576271186" height="54.23728813559322" rx="0" ry="0" style="stroke-width:1;fill:blue;"/><rect x="81.35593220338983" y="487.5932203389831" width="5.966101694915254" height="5.966101694915254" rx="0" ry="0" style="stroke-width:1;fill:gray;"/><text x="81.35593220338983" y="466.44067796610165" font-size="12"><tspan x="81.35593220338983" dy="0em">f3</tspan></text><rect x="113.89830508474576" y="439.32203389830505" width="54.23728813559322" height="43.389830508474574" rx="0" ry="0" style="stroke-width:1;fill:yellow;"/><rect x="141.01694915254237" y="439.32203389830505" width="5.966101694915254" height="5.966101694915254" rx="0" ry="0" style="stroke-width:1;fill:gray;"/><text x="141.01694915254237" y="461.01694915254234" font-size="12"><tspan x="141.01694915254237" dy="0em">f6</tspan></text><rect x="0.0" y="260.33898305084745" width="108.47457627118644" height="75.9322033898305" rx="0" ry="0" style="stroke-width:1;fill:brown;"/><rect x="102.50847457627117" y="298.3050847457627" width="5.966101694915254" height="5.966101694915254" rx="0" ry="0" style="stroke-width:1;fill:gray;"/><text x="54.23728813559322" y="298.3050847457627" font-size="12"><tspan x="54.23728813559322" dy="0em">f7</tspan></text><rect x="108.47457627118644" y="260.33898305084745" width="81.35593220338983" height="59.66101694915254" rx="0" ry="0" style="stroke-width:1;fill:pink;"/><rect x="146.4406779661017" y="314.03389830508473" width="5.966101694915254" height="5.966101694915254" rx="0" ry="0" style="stroke-width:1;fill:gray;"/><text x="146.4406779661017" y="287.45762711864404" font-size="12"><tspan x="146.4406779661017" dy="0em">f8</tspan></text><rect x="189.83050847457628" y="260.33898305084745" width="65.08474576271186" height="43.389830508474574" rx="0" ry="0" style="stroke-width:1;fill:cyan;"/><rect x="189.83050847457628" y="282.03389830508473" width="5.966101694915254" height="5.966101694915254" rx="0" ry="0" style="stroke-width:1;fill:gray;"/><text x="222.3728813559322" y="282.03389830508473" font-size="12"><tspan x="222.3728813559322" dy="0em">f12</tspan></text><rect x="0.0" y="0.0" width="54.23728813559322" height="54.23728813559322" rx="0" ry="0" style="stroke-width:1;fill:cornsilk;"/><rect x="48.271186440677965" y="27.11864406779661" width="5.966101694915254" height="5.966101694915254" rx="0" ry="0" style="stroke-width:1;fill:gray;"/><text x="27.11864406779661" y="27.11864406779661" font-size="12"><tspan x="27.11864406779661" dy="0em">f10</tspan></text><rect x="54.23728813559322" y="0.0" width="65.08474576271186" height="48.813559322033896" rx="0" ry="0" style="stroke-width:1;fill:darkgreen;"/><rect x="86.77966101694915" y="42.847457627118644" width="5.966101694915254" height="5.966101694915254" rx="0" ry="0" style="stroke-width:1;fill:gray;"/><text x="86.77966101694915" y="21.694915254237287" font-size="12"><tspan x="86.77966101694915" dy="0em">f9</tspan></text><rect x="119.32203389830508" y="59.66101694915254" width="75.9322033898305" height="54.23728813559322" rx="0" ry="0" style="stroke-width:1;fill:bisque;"/><rect x="119.32203389830508" y="86.77966101694915" width="5.966101694915254" height="5.966101694915254" rx="0" ry="0" style="stroke-width:1;fill:gray;"/><text x="157.28813559322032" y="86.77966101694915" font-size="12"><tspan x="157.28813559322032" dy="0em">f2</tspan></text><rect x="119.32203389830508" y="0.0" width="59.66101694915254" height="59.66101694915254" rx="0" ry="0" style="stroke-width:1;fill:aqua;"/><rect x="119.32203389830508" y="27.11864406779661" width="5.966101694915254" height="5.966101694915254" rx="0" ry="0" style="stroke-width:1;fill:gray;"/><text x="146.4406779661017" y="27.11864406779661" font-size="12"><tspan x="146.4406779661017" dy="0em">f11</tspan></text><rect x="254.91525423728814" y="0.0" width="43.389830508474574" height="43.389830508474574" rx="0" ry="0" style="stroke-width:1;fill:darkred;"/><rect x="254.91525423728814" y="21.694915254237287" width="5.966101694915254" height="5.966101694915254" rx="0" ry="0" style="stroke-width:1;fill:gray;"/><text x="276.6101694915254" y="21.694915254237287" font-size="12"><tspan x="276.6101694915254" dy="0em">f4</tspan></text></g></svg>