<?xml version="1.0" standalone="no"?>
<!DOCTYPE svg PUBLIC "-//W3C//DTD SVG 1.1//EN"
  "http://www.w3.org/Graphics/SVG/1.1/DTD/svg11.dtd">
<svg width="480.0" height="126.3157894736842" version="1.1"
  xmlns="http://www.w3.org/2000/svg">
<g style="stroke:black;"><rect x="0.0" y="0.0" width="75.78947368421052" height="42.10526315789473" rx="0" ry="0" style="stroke-width:1;fill:red;"/><rect x="66.18947368421053" y="16.842105263157894" width="9.599999999999998" height="9.599999999999998" rx="0" ry="0" style="stroke-width:1;fill:gray;"/><text x="33.68421052631579" y="16.842105263157894" font-size="12"><tspan x="33.68421052631579" dy="0em">f2</tspan></text><rect x="75.78947368421052" y="0.0" width="168.42105263157893" height="126.3157894736842" rx="0" ry="0" style="stroke-width:1;fill:green;"/><rect x="75.78947368421052" y="58.94736842105263" width="9.599999999999998" height="9.599999999999998" rx="0" ry="0" style="stroke-width:1;fill:gray;"/><text x="160.0" y="58.94736842105263" font-size="12"><tspan x="160.0" dy="0em">f4</tspan></text><rect x="244.21052631578945" y="0.0" width="84.21052631578947" height="84.21052631578947" rx="0" ry="0" style="stroke-width:1;fill:blue;"/><rect x="318.82105263157894" y="42.10526315789473" width="9.599999999999998" height="9.599999999999998" rx="0" ry="0" style="stroke-width:1;fill:gray;"/><text x="286.31578947368416" y="42.10526315789473" font-size="12"><tspan x="286.31578947368416" dy="0em">f3</tspan></text><rect x="328.4210526315789" y="0.0" width="151.57894736842104" height="84.21052631578947" rx="0" ry="0" style="stroke-width:1;fill:yellow;"/><rect x="328.4210526315789" y="42.10526315789473" width="9.599999999999998" height="9.599999999999998" rx="0" ry="0" style="stroke-width:1;fill:gray;"/><text x="404.2105263157894" y="42.10526315789473" font-size="12"><tspan x="404.2105263157894" dy="0em">f1</tspan></text></g></svg>