<?xml version="1.0" standalone="no"?>
<!DOCTYPE svg PUBLIC "-//W3C//DTD SVG 1.1//EN"
  "http://www.w3.org/Graphics/SVG/1.1/DTD/svg11.dtd">
<svg width="276.6101694915254" height="640.0" version="1.1"
  xmlns="http://www.w3.org/2000/svg">
<g style="stroke:black;"><rect x="0.0" y="585.7627118644068" width="75.9322033898305" height="54.23728813559322" rx="0" ry="0" style="stroke-width:1;fill:lightgray;"/><rect x="37.96610169491525" y="585.7627118644068" width="5.532203389830508" height="5.532203389830508" rx="0" ry="0" style="stroke-width:1;fill:gray;"/><text x="37.96610169491525" y="612.8813559322034" font-size="12"><tspan x="37.96610169491525" dy="0em">f2</tspan></text><rect x="0.0" y="504.4067796610169" width="48.813559322033896" height="37.96610169491525" rx="0" ry="0" style="stroke-width:1;fill:lightgray;"/><rect x="21.694915254237287" y="504.4067796610169" width="5.532203389830508" height="5.532203389830508" rx="0" ry="0" style="stroke-width:1;fill:gray;"/><text x="21.694915254237287" y="520.6779661016949" font-size="12"><tspan x="21.694915254237287" dy="0em">f1</tspan></text><rect x="0.0" y="352.5423728813559" width="65.08474576271186" height="43.389830508474574" rx="0" ry="0" style="stroke-width:1;fill:lightgray;"/><rect x="32.54237288135593" y="352.5423728813559" width="5.532203389830508" height="5.532203389830508" rx="0" ry="0" style="stroke-width:1;fill:gray;"/><text x="32.54237288135593" y="374.2372881355932" font-size="12"><tspan x="32.54237288135593" dy="0em">f12</tspan></text><rect x="65.08474576271186" y="352.5423728813559" width="65.08474576271186" height="54.23728813559322" rx="0" ry="0" style="stroke-width:1;fill:lightgray;"/><rect x="97.62711864406779" y="352.5423728813559" width="5.532203389830508" height="5.532203389830508" rx="0" ry="0" style="stroke-width:1;fill:gray;"/><text x="97.62711864406779" y="379.6610169491525" font-size="12"><tspan x="97.62711864406779" dy="0em">f3</tspan></text><rect x="130.16949152542372" y="352.5423728813559" width="54.23728813559322" height="54.23728813559322" rx="0" ry="0" style="stroke-width:1;fill:lightgray;"/><rect x="157.28813559322032" y="352.5423728813559" width="5.532203389830508" height="5.532203389830508" rx="0" ry="0" style="stroke-width:1;fill:gray;"/><text x="157.28813559322032" y="379.6610169491525" font-size="12"><tspan x="157.28813559322032" dy="0em">f10</tspan></text><rect x="233.22033898305085" y="352.5423728813559" width="43.389830508474574" height="43.389830508474574" rx="0" ry="0" style="stroke-width:1;fill:lightgray;"/><rect x="233.22033898305085" y="374.2372881355932" width="5.532203389830508" height="5.532203389830508" rx="0" ry="0" style="stroke-width:1;fill:gray;"/><text x="254.91525423728814" y="374.2372881355932" font-size="12"><tspan x="254.91525423728814" dy="0em">f4</tspan></text><rect x="0.0" y="276.6101694915254" width="108.47457627118644" height="75.9322033898305" rx="0" ry="0" style="stroke-width:1;fill:lightgray;"/><rect x="54.23728813559322" y="347.0101694915254" width="5.532203389830508" height="5.532203389830508" rx="0" ry="0" style="stroke-width:1;fill:gray;"/><text x="54.23728813559322" y="314.5762711864407" font-size="12"><tspan x="54.23728813559322" dy="0em">f7</tspan></text><rect x="0.0" y="227.79661016949152" width="65.08474576271186" height="48.813559322033896" rx="0" ry="0" style="stroke-width:1;fill:lightgray;"/><rect x="32.54237288135593" y="227.79661016949152" width="5.532203389830508" height="5.532203389830508" rx="0" ry="0" style="stroke-width:1;fill:gray;"/><text x="32.54237288135593" y="249.4915254237288" font-size="12"><tspan x="32.54237288135593" dy="0em">f9</tspan></text><rect x="0.0" y="168.135593220339" width="59.66101694915254" height="59.66101694915254" rx="0" ry="0" style="stroke-width:1;fill:lightgray;"/><rect x="27.11864406779661" y="168.135593220339" width="5.532203389830508" height="5.532203389830508" rx="0" ry="0" style="stroke-width:1;fill:gray;"/><text x="27.11864406779661" y="195.25423728813558" font-size="12"><tspan x="27.11864406779661" dy="0em">f11</tspan></text><rect x="0.0" y="43.389830508474574" width="65.08474576271186" height="65.08474576271186" rx="0" ry="0" style="stroke-width:1;fill:lightgray;"/><rect x="32.54237288135593" y="102.94237288135594" width="5.532203389830508" height="5.532203389830508" rx="0" ry="0" style="stroke-width:1;fill:gray;"/><text x="32.54237288135593" y="75.9322033898305" font-size="12"><tspan x="32.54237288135593" dy="0em">f5</tspan></text><rect x="65.08474576271186" y="43.389830508474574" width="81.35593220338983" height="59.66101694915254" rx="0" ry="0" style="stroke-width:1;fill:lightgray;"/><rect x="65.08474576271186" y="70.50847457627118" width="5.532203389830508" height="5.532203389830508" rx="0" ry="0" style="stroke-width:1;fill:gray;"/><text x="103.05084745762711" y="70.50847457627118" font-size="12"><tspan x="103.05084745762711" dy="0em">f8</tspan></text><rect x="0.0" y="0.0" width="54.23728813559322" height="43.389830508474574" rx="0" ry="0" style="stroke-width:1;fill:lightgray;"/><rect x="27.11864406779661" y="37.85762711864407" width="5.532203389830508" height="5.532203389830508" rx="0" ry="0" style="stroke-width:1;fill:gray;"/><text x="27.11864406779661" y="21.694915254237287" font-size="12"><tspan x="27.11864406779661" dy="0em">f6</tspan></text></g></svg>