<?xml version="1.0" standalone="no"?>
<!DOCTYPE svg PUBLIC "-//W3C//DTD SVG 1.1//EN"
  "http://www.w3.org/Graphics/SVG/1.1/DTD/svg11.dtd">
<svg width="463.1578947368421" height="640.0" version="1.1"
  xmlns="http://www.w3.org/2000/svg">
<g style="stroke:black;"><rect x="0.0" y="269.4736842105263" width="126.3157894736842" height="101.05263157894737" rx="0" ry="0" style="stroke-width:1;fill:lightgray;"/><rect x="117.05263157894737" y="320.0" width="9.263157894736842" height="9.263157894736842" rx="0" ry="0" style="stroke-width:1;fill:gray;"/><text x="58.94736842105263" y="320.0" font-size="12"><tspan x="58.94736842105263" dy="0em">f3</tspan></text><rect x="126.3157894736842" y="395.7894736842105" width="75.78947368421052" height="75.78947368421052" rx="0" ry="0" style="stroke-width:1;fill:lightgray;"/><rect x="160.0" y="395.7894736842105" width="9.263157894736842" height="9.263157894736842" rx="0" ry="0" style="stroke-width:1;fill:gray;"/><text x="160.0" y="429.4736842105263" font-size="12"><tspan x="160.0" dy="0em">f4</tspan></text><rect x="202.10526315789474" y="395.7894736842105" width="92.63157894736841" height="92.63157894736841" rx="0" ry="0" style="stroke-width:1;fill:lightgray;"/><rect x="244.21052631578945" y="395.7894736842105" width="9.263157894736842" height="9.263157894736842" rx="0" ry="0" style="stroke-width:1;fill:gray;"/><text x="244.21052631578948" y="437.89473684210526" font-size="12"><tspan x="244.21052631578948" dy="0em">f9</tspan></text><rect x="294.7368421052631" y="505.2631578947368" width="168.42105263157893" height="134.73684210526315" rx="0" ry="0" style="stroke-width:1;fill:lightgray;"/><rect x="378.9473684210526" y="505.2631578947368" width="9.263157894736842" height="9.263157894736842" rx="0" ry="0" style="stroke-width:1;fill:gray;"/><text x="378.9473684210526" y="572.6315789473684" font-size="12"><tspan x="378.9473684210526" dy="0em">f7</tspan></text><rect x="294.7368421052631" y="395.7894736842105" width="160.0" height="109.47368421052632" rx="0" ry="0" style="stroke-width:1;fill:lightgray;"/><rect x="370.52631578947364" y="495.99999999999994" width="9.263157894736842" height="9.263157894736842" rx="0" ry="0" style="stroke-width:1;fill:gray;"/><text x="370.52631578947364" y="446.3157894736842" font-size="12"><tspan x="370.52631578947364" dy="0em">f10</tspan></text><rect x="126.3157894736842" y="269.4736842105263" width="67.36842105263158" height="42.10526315789473" rx="0" ry="0" style="stroke-width:1;fill:lightgray;"/><rect x="160.0" y="269.4736842105263" width="9.263157894736842" height="9.263157894736842" rx="0" ry="0" style="stroke-width:1;fill:gray;"/><text x="160.0" y="286.3157894736842" font-size="12"><tspan x="160.0" dy="0em">f8</tspan></text><rect x="193.68421052631578" y="269.4736842105263" width="126.3157894736842" height="84.21052631578947" rx="0" ry="0" style="stroke-width:1;fill:lightgray;"/><rect x="193.68421052631578" y="311.57894736842104" width="9.263157894736842" height="9.263157894736842" rx="0" ry="0" style="stroke-width:1;fill:gray;"/><text x="252.6315789473684" y="311.57894736842104" font-size="12"><tspan x="252.6315789473684" dy="0em">f1</tspan></text><rect x="0.0" y="151.57894736842104" width="101.05263157894737" height="67.36842105263158" rx="0" ry="0" style="stroke-width:1;fill:lightgray;"/><rect x="91.78947368421052" y="185.26315789473682" width="9.263157894736842" height="9.263157894736842" rx="0" ry="0" style="stroke-width:1;fill:gray;"/><text x="50.526315789473685" y="185.26315789473682" font-size="12"><tspan x="50.526315789473685" dy="0em">f2</tspan></text><rect x="101.05263157894737" y="151.57894736842104" width="75.78947368421052" height="50.526315789473685" rx="0" ry="0" style="stroke-width:1;fill:lightgray;"/><rect x="101.05263157894737" y="176.8421052631579" width="9.263157894736842" height="9.263157894736842" rx="0" ry="0" style="stroke-width:1;fill:gray;"/><text x="134.73684210526315" y="176.8421052631579" font-size="12"><tspan x="134.73684210526315" dy="0em">f5</tspan></text><rect x="0.0" y="0.0" width="210.52631578947367" height="151.57894736842104" rx="0" ry="0" style="stroke-width:1;fill:lightgray;"/><rect x="101.05263157894737" y="142.3157894736842" width="9.263157894736842" height="9.263157894736842" rx="0" ry="0" style="stroke-width:1;fill:gray;"/><text x="101.05263157894737" y="75.78947368421052" font-size="12"><tspan x="101.05263157894737" dy="0em">f6</tspan></text></g></svg>