<?xml version="1.0" standalone="no"?>
<!DOCTYPE svg PUBLIC "-//W3C//DTD SVG 1.1//EN"
  "http://www.w3.org/Graphics/SVG/1.1/DTD/svg11.dtd">
<svg width="480.0" height="420.0" version="1.1"
  xmlns="http://www.w3.org/2000/svg">
<g style="stroke:black;"><rect x="0.0" y="0.0" width="154.28571428571428" height="111.42857142857143" rx="0" ry="0" style="stroke-width:1;fill:lightgray;"/><rect x="144.68571428571428" y="51.42857142857143" width="9.600000000000001" height="9.600000000000001" rx="0" ry="0" style="stroke-width:1;fill:gray;"/><text x="77.14285714285714" y="51.42857142857143" font-size="12"><tspan x="77.14285714285714" dy="0em">f5</tspan></text><rect x="154.28571428571428" y="145.71428571428572" width="85.71428571428571" height="85.71428571428571" rx="0" ry="0" style="stroke-width:1;fill:lightgray;"/><rect x="230.39999999999998" y="188.57142857142856" width="9.600000000000001" height="9.600000000000001" rx="0" ry="0" style="stroke-width:1;fill:gray;"/><text x="197.14285714285714" y="188.57142857142858" font-size="12"><tspan x="197.14285714285714" dy="0em">f3</tspan></text><rect x="240.0" y="145.71428571428572" width="68.57142857142857" height="68.57142857142857" rx="0" ry="0" style="stroke-width:1;fill:lightgray;"/><rect x="240.0" y="180.0" width="9.600000000000001" height="9.600000000000001" rx="0" ry="0" style="stroke-width:1;fill:gray;"/><text x="274.2857142857143" y="180.0" font-size="12"><tspan x="274.2857142857143" dy="0em">f6</tspan></text><rect x="308.57142857142856" y="334.2857142857143" width="120.0" height="85.71428571428571" rx="0" ry="0" style="stroke-width:1;fill:lightgray;"/><rect x="368.57142857142856" y="334.2857142857143" width="9.600000000000001" height="9.600000000000001" rx="0" ry="0" style="stroke-width:1;fill:gray;"/><text x="368.57142857142856" y="377.1428571428571" font-size="12"><tspan x="368.57142857142856" dy="0em">f1</tspan></text><rect x="308.57142857142856" y="274.2857142857143" width="85.71428571428571" height="60.0" rx="0" ry="0" style="stroke-width:1;fill:lightgray;"/><rect x="351.42857142857144" y="324.6857142857143" width="9.600000000000001" height="9.600000000000001" rx="0" ry="0" style="stroke-width:1;fill:gray;"/><text x="351.4285714285714" y="300.0" font-size="12"><tspan x="351.4285714285714" dy="0em">f2</tspan></text><rect x="308.57142857142856" y="145.71428571428572" width="171.42857142857142" height="128.57142857142856" rx="0" ry="0" style="stroke-width:1;fill:lightgray;"/><rect x="308.57142857142856" y="205.71428571428572" width="9.600000000000001" height="9.600000000000001" rx="0" ry="0" style="stroke-width:1;fill:gray;"/><text x="394.2857142857143" y="205.71428571428572" font-size="12"><tspan x="394.2857142857143" dy="0em">f4</tspan></text><rect x="154.28571428571428" y="94.28571428571428" width="77.14285714285714" height="51.42857142857143" rx="0" ry="0" style="stroke-width:1;fill:lightgray;"/><rect x="188.57142857142856" y="94.28571428571428" width="9.600000000000001" height="9.600000000000001" rx="0" ry="0" style="stroke-width:1;fill:gray;"/><text x="188.57142857142856" y="120.0" font-size="12"><tspan x="188.57142857142856" dy="0em">f7</tspan></text><rect x="154.28571428571428" y="0.0" width="128.57142857142856" height="94.28571428571428" rx="0" ry="0" style="stroke-width:1;fill:lightgray;"/><rect x="214.28571428571428" y="84.68571428571427" width="9.600000000000001" height="9.600000000000001" rx="0" ry="0" style="stroke-width:1;fill:gray;"/><text x="214.28571428571428" y="42.857142857142854" font-size="12"><tspan x="214.28571428571428" dy="0em">f8</tspan></text></g></svg>