<?xml version="1.0" standalone="no"?>
<!DOCTYPE svg PUBLIC "-//W3C//DTD SVG 1.1//EN"
  "http://www.w3.org/Graphics/SVG/1.1/DTD/svg11.dtd">
<svg width="465.4545454545454" height="639.9999999999999" version="1.1"
  xmlns="http://www.w3.org/2000/svg">
<g style="stroke:black;"><rect x="0.0" y="199.48051948051946" width="66.49350649350649" height="66.49350649350649" rx="0" ry="0" style="stroke-width:1;fill:red;"/><rect x="57.184415584415575" y="232.7272727272727" width="9.309090909090909" height="9.309090909090909" rx="0" ry="0" style="stroke-width:1;fill:gray;"/><text x="33.246753246753244" y="232.7272727272727" font-size="12"><tspan x="33.246753246753244" dy="0em">f4</tspan></text><rect x="66.49350649350649" y="407.27272727272725" width="83.11688311688312" height="83.11688311688312" rx="0" ry="0" style="stroke-width:1;fill:green;"/><rect x="140.3012987012987" y="448.8311688311688" width="9.309090909090909" height="9.309090909090909" rx="0" ry="0" style="stroke-width:1;fill:gray;"/><text x="108.05194805194805" y="448.83116883116884" font-size="12"><tspan x="108.05194805194805" dy="0em">f10</tspan></text><rect x="149.6103896103896" y="407.27272727272725" width="99.74025974025973" height="99.74025974025973" rx="0" ry="0" style="stroke-width:1;fill:blue;"/><rect x="199.48051948051946" y="407.27272727272725" width="9.309090909090909" height="9.309090909090909" rx="0" ry="0" style="stroke-width:1;fill:gray;"/><text x="199.48051948051946" y="457.1428571428571" font-size="12"><tspan x="199.48051948051946" dy="0em">f5</tspan></text><rect x="249.35064935064932" y="548.5714285714286" width="91.42857142857142" height="91.42857142857142" rx="0" ry="0" style="stroke-width:1;fill:yellow;"/><rect x="290.9090909090909" y="548.5714285714286" width="9.309090909090909" height="9.309090909090909" rx="0" ry="0" style="stroke-width:1;fill:gray;"/><text x="290.9090909090909" y="590.1298701298701" font-size="12"><tspan x="290.9090909090909" dy="0em">f11</tspan></text><rect x="340.77922077922074" y="548.5714285714286" width="124.67532467532466" height="91.42857142857142" rx="0" ry="0" style="stroke-width:1;fill:brown;"/><rect x="340.77922077922074" y="590.12987012987" width="9.309090909090909" height="9.309090909090909" rx="0" ry="0" style="stroke-width:1;fill:gray;"/><text x="398.9610389610389" y="590.1298701298701" font-size="12"><tspan x="398.9610389610389" dy="0em">f8</tspan></text><rect x="249.35064935064932" y="473.7662337662337" width="99.74025974025973" height="74.8051948051948" rx="0" ry="0" style="stroke-width:1;fill:pink;"/><rect x="249.35064935064932" y="507.01298701298697" width="9.309090909090909" height="9.309090909090909" rx="0" ry="0" style="stroke-width:1;fill:gray;"/><text x="299.2207792207792" y="507.01298701298697" font-size="12"><tspan x="299.2207792207792" dy="0em">f9</tspan></text><rect x="249.35064935064932" y="407.27272727272725" width="83.11688311688312" height="66.49350649350649" rx="0" ry="0" style="stroke-width:1;fill:cyan;"/><rect x="249.35064935064932" y="440.51948051948045" width="9.309090909090909" height="9.309090909090909" rx="0" ry="0" style="stroke-width:1;fill:gray;"/><text x="290.9090909090909" y="440.5194805194805" font-size="12"><tspan x="290.9090909090909" dy="0em">f6</tspan></text><rect x="66.49350649350649" y="349.09090909090907" width="74.8051948051948" height="58.18181818181817" rx="0" ry="0" style="stroke-width:1;fill:cornsilk;"/><rect x="99.74025974025973" y="349.09090909090907" width="9.309090909090909" height="9.309090909090909" rx="0" ry="0" style="stroke-width:1;fill:gray;"/><text x="99.74025974025973" y="374.025974025974" font-size="12"><tspan x="99.74025974025973" dy="0em">f1</tspan></text><rect x="66.49350649350649" y="282.59740259740255" width="99.74025974025973" height="66.49350649350649" rx="0" ry="0" style="stroke-width:1;fill:darkgreen;"/><rect x="116.36363636363635" y="282.59740259740255" width="9.309090909090909" height="9.309090909090909" rx="0" ry="0" style="stroke-width:1;fill:gray;"/><text x="116.36363636363635" y="315.8441558441558" font-size="12"><tspan x="116.36363636363635" dy="0em">f12</tspan></text><rect x="66.49350649350649" y="199.48051948051946" width="99.74025974025973" height="83.11688311688312" rx="0" ry="0" style="stroke-width:1;fill:bisque;"/><rect x="116.36363636363635" y="273.2883116883117" width="9.309090909090909" height="9.309090909090909" rx="0" ry="0" style="stroke-width:1;fill:gray;"/><text x="116.36363636363635" y="241.03896103896102" font-size="12"><tspan x="116.36363636363635" dy="0em">f3</tspan></text><rect x="0.0" y="116.36363636363635" width="116.36363636363635" height="83.11688311688312" rx="0" ry="0" style="stroke-width:1;fill:aqua;"/><rect x="58.18181818181817" y="190.17142857142855" width="9.309090909090909" height="9.309090909090909" rx="0" ry="0" style="stroke-width:1;fill:gray;"/><text x="58.18181818181817" y="157.9220779220779" font-size="12"><tspan x="58.18181818181817" dy="0em">f2</tspan></text><rect x="0.0" y="0.0" width="166.23376623376623" height="116.36363636363635" rx="0" ry="0" style="stroke-width:1;fill:darkred;"/><rect x="83.11688311688312" y="107.05454545454543" width="9.309090909090909" height="9.309090909090909" rx="0" ry="0" style="stroke-width:1;fill:gray;"/><text x="83.11688311688312" y="58.18181818181817" font-size="12"><tspan x="83.11688311688312" dy="0em">f7</tspan></text></g></svg>