<?xml version="1.0" standalone="no"?>
<!DOCTYPE svg PUBLIC "-//W3C//DTD SVG 1.1//EN"
  "http://www.w3.org/Graphics/SVG/1.1/DTD/svg11.dtd">
<svg width="496.7164179104477" height="640.0" version="1.1"
  xmlns="http://www.w3.org/2000/svg">
<g style="stroke:black;"><rect x="0.0" y="496.7164179104477" width="191.04477611940297" height="143.28358208955223" rx="0" ry="0" style="stroke-width:1;fill:red;"/><rect x="95.52238805970148" y="496.7164179104477" width="9.934328358208955" height="9.934328358208955" rx="0" ry="0" style="stroke-width:1;fill:gray;"/><text x="95.52238805970148" y="563.5820895522388" font-size="12"><tspan x="95.52238805970148" dy="0em">f4</tspan></text><rect x="0.0" y="401.19402985074623" width="133.73134328358208" height="95.52238805970148" rx="0" ry="0" style="stroke-width:1;fill:green;"/><rect x="123.79701492537313" y="448.955223880597" width="9.934328358208955" height="9.934328358208955" rx="0" ry="0" style="stroke-width:1;fill:gray;"/><text x="66.86567164179104" y="448.955223880597" font-size="12"><tspan x="66.86567164179104" dy="0em">f1</tspan></text><rect x="324.77611940298505" y="401.19402985074623" width="171.94029850746267" height="124.17910447761193" rx="0" ry="0" style="stroke-width:1;fill:blue;"/><rect x="324.77611940298505" y="458.5074626865671" width="9.934328358208955" height="9.934328358208955" rx="0" ry="0" style="stroke-width:1;fill:gray;"/><text x="410.7462686567164" y="458.5074626865671" font-size="12"><tspan x="410.7462686567164" dy="0em">f5</tspan></text><rect x="0.0" y="162.38805970149252" width="95.52238805970148" height="95.52238805970148" rx="0" ry="0" style="stroke-width:1;fill:yellow;"/><rect x="85.58805970149254" y="210.14925373134326" width="9.934328358208955" height="9.934328358208955" rx="0" ry="0" style="stroke-width:1;fill:gray;"/><text x="47.76119402985074" y="210.14925373134326" font-size="12"><tspan x="47.76119402985074" dy="0em">f3</tspan></text><rect x="95.52238805970148" y="162.38805970149252" width="76.41791044776119" height="76.41791044776119" rx="0" ry="0" style="stroke-width:1;fill:brown;"/><rect x="95.52238805970148" y="200.59701492537312" width="9.934328358208955" height="9.934328358208955" rx="0" ry="0" style="stroke-width:1;fill:gray;"/><text x="133.73134328358208" y="200.59701492537312" font-size="12"><tspan x="133.73134328358208" dy="0em">f6</tspan></text><rect x="0.0" y="105.07462686567163" width="85.97014925373134" height="57.31343283582089" rx="0" ry="0" style="stroke-width:1;fill:pink;"/><rect x="38.208955223880594" y="105.07462686567163" width="9.934328358208955" height="9.934328358208955" rx="0" ry="0" style="stroke-width:1;fill:gray;"/><text x="38.208955223880594" y="133.73134328358208" font-size="12"><tspan x="38.208955223880594" dy="0em">f7</tspan></text><rect x="0.0" y="0.0" width="143.28358208955223" height="105.07462686567163" rx="0" ry="0" style="stroke-width:1;fill:cyan;"/><rect x="66.86567164179104" y="95.14029850746269" width="9.934328358208955" height="9.934328358208955" rx="0" ry="0" style="stroke-width:1;fill:gray;"/><text x="66.86567164179104" y="47.76119402985074" font-size="12"><tspan x="66.86567164179104" dy="0em">f8</tspan></text><rect x="401.19402985074623" y="0.0" width="95.52238805970148" height="66.86567164179104" rx="0" ry="0" style="stroke-width:1;fill:cornsilk;"/><rect x="448.955223880597" y="56.93134328358209" width="9.934328358208955" height="9.934328358208955" rx="0" ry="0" style="stroke-width:1;fill:gray;"/><text x="448.955223880597" y="28.656716417910445" font-size="12"><tspan x="448.955223880597" dy="0em">f2</tspan></text></g></svg>