<?xml version="1.0" standalone="no"?>
<!DOCTYPE svg PUBLIC "-//W3C//DTD SVG 1.1//EN"
  "http://www.w3.org/Graphics/SVG/1.1/DTD/svg11.dtd">
<svg width="365.71428571428567" height="640.0" version="1.1"
  xmlns="http://www.w3.org/2000/svg">
<g style="stroke:black;"><rect x="0.0" y="457.1428571428571" width="164.57142857142856" height="91.42857142857142" rx="0" ry="0" style="stroke-width:1;fill:red;"/><rect x="157.25714285714284" y="493.71428571428567" width="7.314285714285714" height="7.314285714285714" rx="0" ry="0" style="stroke-width:1;fill:gray;"/><text x="73.14285714285714" y="493.71428571428567" font-size="12"><tspan x="73.14285714285714" dy="0em">f2</tspan></text><rect x="164.57142857142856" y="457.1428571428571" width="182.85714285714283" height="182.85714285714283" rx="0" ry="0" style="stroke-width:1;fill:green;"/><rect x="256.0" y="457.1428571428571" width="7.314285714285714" height="7.314285714285714" rx="0" ry="0" style="stroke-width:1;fill:gray;"/><text x="255.99999999999997" y="548.5714285714286" font-size="12"><tspan x="255.99999999999997" dy="0em">f3</tspan></text><rect x="0.0" y="182.85714285714283" width="365.71428571428567" height="274.2857142857143" rx="0" ry="0" style="stroke-width:1;fill:blue;"/><rect x="182.85714285714283" y="449.8285714285714" width="7.314285714285714" height="7.314285714285714" rx="0" ry="0" style="stroke-width:1;fill:gray;"/><text x="182.85714285714283" y="310.85714285714283" font-size="12"><tspan x="182.85714285714283" dy="0em">f4</tspan></text><rect x="0.0" y="0.0" width="329.1428571428571" height="182.85714285714283" rx="0" ry="0" style="stroke-width:1;fill:yellow;"/><rect x="164.57142857142856" y="175.54285714285712" width="7.314285714285714" height="7.314285714285714" rx="0" ry="0" style="stroke-width:1;fill:gray;"/><text x="164.57142857142856" y="91.42857142857142" font-size="12"><tspan x="164.57142857142856" dy="0em">f1</tspan></text></g></svg>