<?xml version="1.0" standalone="no"?>
<!DOCTYPE svg PUBLIC "-//W3C//DTD SVG 1.1//EN"
  "http://www.w3.org/Graphics/SVG/1.1/DTD/svg11.dtd">
<svg width="480.00000000000006" height="350.11764705882354" version="1.1"
  xmlns="http://www.w3.org/2000/svg">
<g style="stroke:black;"><rect x="0.0" y="186.3529411764706" width="107.29411764705883" height="73.41176470588236" rx="0" ry="0" style="stroke-width:1;fill:lightgray;"/><rect x="97.69411764705883" y="220.23529411764707" width="9.6" height="9.6" rx="0" ry="0" style="stroke-width:1;fill:gray;"/><text x="50.82352941176471" y="220.23529411764707" font-size="12"><tspan x="50.82352941176471" dy="0em">f10</tspan></text><rect x="107.29411764705883" y="186.3529411764706" width="50.82352941176471" height="50.82352941176471" rx="0" ry="0" style="stroke-width:1;fill:lightgray;"/><rect x="148.51764705882354" y="208.94117647058826" width="9.6" height="9.6" rx="0" ry="0" style="stroke-width:1;fill:gray;"/><text x="129.88235294117646" y="208.94117647058826" font-size="12"><tspan x="129.88235294117646" dy="0em">f4</tspan></text><rect x="158.11764705882354" y="186.3529411764706" width="112.94117647058825" height="90.3529411764706" rx="0" ry="0" style="stroke-width:1;fill:lightgray;"/><rect x="158.11764705882354" y="231.52941176470588" width="9.6" height="9.6" rx="0" ry="0" style="stroke-width:1;fill:gray;"/><text x="214.58823529411765" y="231.5294117647059" font-size="12"><tspan x="214.58823529411765" dy="0em">f7</tspan></text><rect x="271.05882352941177" y="248.47058823529414" width="67.76470588235294" height="45.1764705882353" rx="0" ry="0" style="stroke-width:1;fill:lightgray;"/><rect x="304.94117647058823" y="248.47058823529414" width="9.6" height="9.6" rx="0" ry="0" style="stroke-width:1;fill:gray;"/><text x="304.94117647058823" y="271.05882352941177" font-size="12"><tspan x="304.94117647058823" dy="0em">f2</tspan></text><rect x="338.82352941176475" y="248.47058823529414" width="141.1764705882353" height="101.64705882352942" rx="0" ry="0" style="stroke-width:1;fill:lightgray;"/><rect x="406.5882352941177" y="248.47058823529414" width="9.6" height="9.6" rx="0" ry="0" style="stroke-width:1;fill:gray;"/><text x="406.5882352941177" y="299.29411764705884" font-size="12"><tspan x="406.5882352941177" dy="0em">f6</tspan></text><rect x="271.05882352941177" y="186.3529411764706" width="62.117647058823536" height="62.117647058823536" rx="0" ry="0" style="stroke-width:1;fill:lightgray;"/><rect x="271.05882352941177" y="214.58823529411765" width="9.6" height="9.6" rx="0" ry="0" style="stroke-width:1;fill:gray;"/><text x="299.29411764705884" y="214.58823529411768" font-size="12"><tspan x="299.29411764705884" dy="0em">f9</tspan></text><rect x="0.0" y="118.58823529411765" width="84.70588235294119" height="67.76470588235294" rx="0" ry="0" style="stroke-width:1;fill:lightgray;"/><rect x="75.10588235294118" y="152.47058823529412" width="9.6" height="9.6" rx="0" ry="0" style="stroke-width:1;fill:gray;"/><text x="39.529411764705884" y="152.47058823529412" font-size="12"><tspan x="39.529411764705884" dy="0em">f3</tspan></text><rect x="0.0" y="0.0" width="45.1764705882353" height="28.23529411764706" rx="0" ry="0" style="stroke-width:1;fill:lightgray;"/><rect x="35.576470588235296" y="11.294117647058824" width="9.6" height="9.6" rx="0" ry="0" style="stroke-width:1;fill:gray;"/><text x="22.58823529411765" y="11.294117647058824" font-size="12"><tspan x="22.58823529411765" dy="0em">f8</tspan></text><rect x="45.1764705882353" y="0.0" width="84.70588235294119" height="56.47058823529412" rx="0" ry="0" style="stroke-width:1;fill:lightgray;"/><rect x="120.28235294117648" y="28.23529411764706" width="9.6" height="9.6" rx="0" ry="0" style="stroke-width:1;fill:gray;"/><text x="84.70588235294119" y="28.23529411764706" font-size="12"><tspan x="84.70588235294119" dy="0em">f1</tspan></text><rect x="129.8823529411765" y="0.0" width="50.82352941176471" height="33.88235294117647" rx="0" ry="0" style="stroke-width:1;fill:lightgray;"/><rect x="171.1058823529412" y="16.941176470588236" width="9.6" height="9.6" rx="0" ry="0" style="stroke-width:1;fill:gray;"/><text x="152.47058823529414" y="16.941176470588236" font-size="12"><tspan x="152.47058823529414" dy="0em">f5</tspan></text></g></svg>