<?xml version="1.0" standalone="no"?>
<!DOCTYPE svg PUBLIC "-//W3C//DTD SVG 1.1//EN"
  "http://www.w3.org/Graphics/SVG/1.1/DTD/svg11.dtd">
<svg width="504.0" height="640.0" version="1.1"
  xmlns="http://www.w3.org/2000/svg">
<g style="stroke:black;"><rect x="0.0" y="584.0" width="80.0" height="56.0" rx="0" ry="0" style="stroke-width:1;fill:red;"/><rect x="40.0" y="584.0" width="10.08" height="10.08" rx="0" ry="0" style="stroke-width:1;fill:gray;"/><text x="40.0" y="608.0" font-size="12"><tspan x="40.0" dy="0em">f2</tspan></text><rect x="0.0" y="200.0" width="144.0" height="104.0" rx="0" ry="0" style="stroke-width:1;fill:green;"/><rect x="133.92" y="248.0" width="10.08" height="10.08" rx="0" ry="0" style="stroke-width:1;fill:gray;"/><text x="72.0" y="248.0" font-size="12"><tspan x="72.0" dy="0em">f5</tspan></text><rect x="0.0" y="120.0" width="80.0" height="80.0" rx="0" ry="0" style="stroke-width:1;fill:blue;"/><rect x="69.92" y="160.0" width="10.08" height="10.08" rx="0" ry="0" style="stroke-width:1;fill:gray;"/><text x="40.0" y="160.0" font-size="12"><tspan x="40.0" dy="0em">f3</tspan></text><rect x="0.0" y="0.0" width="160.0" height="120.0" rx="0" ry="0" style="stroke-width:1;fill:yellow;"/><rect x="149.92" y="56.0" width="10.08" height="10.08" rx="0" ry="0" style="stroke-width:1;fill:gray;"/><text x="80.0" y="56.0" font-size="12"><tspan x="80.0" dy="0em">f4</tspan></text><rect x="384.0" y="216.0" width="64.0" height="64.0" rx="0" ry="0" style="stroke-width:1;fill:brown;"/><rect x="384.0" y="248.0" width="10.08" height="10.08" rx="0" ry="0" style="stroke-width:1;fill:gray;"/><text x="416.0" y="248.0" font-size="12"><tspan x="416.0" dy="0em">f6</tspan></text><rect x="384.0" y="168.0" width="72.0" height="48.0" rx="0" ry="0" style="stroke-width:1;fill:pink;"/><rect x="416.0" y="168.0" width="10.08" height="10.08" rx="0" ry="0" style="stroke-width:1;fill:gray;"/><text x="416.0" y="192.0" font-size="12"><tspan x="416.0" dy="0em">f7</tspan></text><rect x="384.0" y="80.0" width="120.0" height="88.0" rx="0" ry="0" style="stroke-width:1;fill:cyan;"/><rect x="440.0" y="157.92" width="10.08" height="10.08" rx="0" ry="0" style="stroke-width:1;fill:gray;"/><text x="440.0" y="120.0" font-size="12"><tspan x="440.0" dy="0em">f8</tspan></text><rect x="384.0" y="0.0" width="112.0" height="80.0" rx="0" ry="0" style="stroke-width:1;fill:cornsilk;"/><rect x="384.0" y="40.0" width="10.08" height="10.08" rx="0" ry="0" style="stroke-width:1;fill:gray;"/><text x="440.0" y="40.0" font-size="12"><tspan x="440.0" dy="0em">f1</tspan></text></g></svg>