<?xml version="1.0" standalone="no"?>
<!DOCTYPE svg PUBLIC "-//W3C//DTD SVG 1.1//EN"
  "http://www.w3.org/Graphics/SVG/1.1/DTD/svg11.dtd">
<svg width="341.3333333333333" height="640.0" version="1.1"
  xmlns="http://www.w3.org/2000/svg">
<g style="stroke:black;"><rect x="0.0" y="327.1111111111111" width="170.66666666666666" height="142.22222222222223" rx="0" ry="0" style="stroke-width:1;fill:red;"/><rect x="163.83999999999997" y="398.2222222222222" width="6.826666666666666" height="6.826666666666666" rx="0" ry="0" style="stroke-width:1;fill:gray;"/><text x="85.33333333333333" y="398.2222222222222" font-size="12"><tspan x="85.33333333333333" dy="0em">f3</tspan></text><rect x="170.66666666666666" y="526.2222222222222" width="113.77777777777777" height="113.77777777777777" rx="0" ry="0" style="stroke-width:1;fill:green;"/><rect x="227.55555555555554" y="526.2222222222222" width="6.826666666666666" height="6.826666666666666" rx="0" ry="0" style="stroke-width:1;fill:gray;"/><text x="227.55555555555554" y="583.1111111111111" font-size="12"><tspan x="227.55555555555554" dy="0em">f5</tspan></text><rect x="170.66666666666666" y="440.88888888888886" width="128.0" height="85.33333333333333" rx="0" ry="0" style="stroke-width:1;fill:blue;"/><rect x="170.66666666666666" y="483.55555555555554" width="6.826666666666666" height="6.826666666666666" rx="0" ry="0" style="stroke-width:1;fill:gray;"/><text x="227.55555555555554" y="483.55555555555554" font-size="12"><tspan x="227.55555555555554" dy="0em">f6</tspan></text><rect x="170.66666666666666" y="327.1111111111111" width="170.66666666666666" height="113.77777777777777" rx="0" ry="0" style="stroke-width:1;fill:yellow;"/><rect x="170.66666666666666" y="384.0" width="6.826666666666666" height="6.826666666666666" rx="0" ry="0" style="stroke-width:1;fill:gray;"/><text x="256.0" y="384.0" font-size="12"><tspan x="256.0" dy="0em">f4</tspan></text><rect x="0.0" y="213.33333333333331" width="142.22222222222223" height="113.77777777777777" rx="0" ry="0" style="stroke-width:1;fill:brown;"/><rect x="135.39555555555555" y="270.22222222222223" width="6.826666666666666" height="6.826666666666666" rx="0" ry="0" style="stroke-width:1;fill:gray;"/><text x="71.11111111111111" y="270.2222222222222" font-size="12"><tspan x="71.11111111111111" dy="0em">f1</tspan></text><rect x="0.0" y="0.0" width="284.44444444444446" height="213.33333333333331" rx="0" ry="0" style="stroke-width:1;fill:pink;"/><rect x="142.22222222222223" y="206.50666666666666" width="6.826666666666666" height="6.826666666666666" rx="0" ry="0" style="stroke-width:1;fill:gray;"/><text x="142.22222222222223" y="99.55555555555554" font-size="12"><tspan x="142.22222222222223" dy="0em">f2</tspan></text></g></svg>