<?xml version="1.0" standalone="no"?>
<!DOCTYPE svg PUBLIC "-//W3C//DTD SVG 1.1//EN"
  "http://www.w3.org/Graphics/SVG/1.1/DTD/svg11.dtd">
<svg width="517.8181818181819" height="640.0" version="1.1"
  xmlns="http://www.w3.org/2000/svg">
<g style="stroke:black;"><rect x="0.0" y="576.0" width="69.81818181818181" height="46.54545454545455" rx="0" ry="0" style="stroke-width:1;fill:red;"/><rect x="34.90909090909091" y="576.0" width="10.356363636363637" height="10.356363636363637" rx="0" ry="0" style="stroke-width:1;fill:gray;"/><text x="34.90909090909091" y="599.2727272727273" font-size="12"><tspan x="34.90909090909091" dy="0em">f12</tspan></text><rect x="69.81818181818181" y="576.0" width="87.27272727272728" height="64.0" rx="0" ry="0" style="stroke-width:1;fill:green;"/><rect x="110.54545454545455" y="576.0" width="10.356363636363637" height="10.356363636363637" rx="0" ry="0" style="stroke-width:1;fill:gray;"/><text x="110.54545454545453" y="605.0909090909091" font-size="12"><tspan x="110.54545454545453" dy="0em">f8</tspan></text><rect x="0.0" y="203.63636363636365" width="64.0" height="64.0" rx="0" ry="0" style="stroke-width:1;fill:blue;"/><rect x="53.64363636363637" y="232.72727272727275" width="10.356363636363637" height="10.356363636363637" rx="0" ry="0" style="stroke-width:1;fill:gray;"/><text x="29.090909090909093" y="232.72727272727275" font-size="12"><tspan x="29.090909090909093" dy="0em">f11</tspan></text><rect x="0.0" y="0.0" width="58.18181818181819" height="46.54545454545455" rx="0" ry="0" style="stroke-width:1;fill:yellow;"/><rect x="29.090909090909093" y="36.18909090909091" width="10.356363636363637" height="10.356363636363637" rx="0" ry="0" style="stroke-width:1;fill:gray;"/><text x="29.090909090909093" y="23.272727272727273" font-size="12"><tspan x="29.090909090909093" dy="0em">f6</tspan></text><rect x="58.18181818181819" y="58.18181818181819" width="69.81818181818181" height="52.36363636363637" rx="0" ry="0" style="stroke-width:1;fill:brown;"/><rect x="117.64363636363636" y="81.45454545454545" width="10.356363636363637" height="10.356363636363637" rx="0" ry="0" style="stroke-width:1;fill:gray;"/><text x="93.0909090909091" y="81.45454545454547" font-size="12"><tspan x="93.0909090909091" dy="0em">f9</tspan></text><rect x="128.0" y="58.18181818181819" width="46.54545454545455" height="46.54545454545455" rx="0" ry="0" style="stroke-width:1;fill:pink;"/><rect x="164.1890909090909" y="81.45454545454545" width="10.356363636363637" height="10.356363636363637" rx="0" ry="0" style="stroke-width:1;fill:gray;"/><text x="151.27272727272728" y="81.45454545454547" font-size="12"><tspan x="151.27272727272728" dy="0em">f4</tspan></text><rect x="58.18181818181819" y="0.0" width="81.45454545454545" height="58.18181818181819" rx="0" ry="0" style="stroke-width:1;fill:cyan;"/><rect x="129.28" y="29.090909090909093" width="10.356363636363637" height="10.356363636363637" rx="0" ry="0" style="stroke-width:1;fill:gray;"/><text x="98.9090909090909" y="29.090909090909093" font-size="12"><tspan x="98.9090909090909" dy="0em">f2</tspan></text><rect x="320.0" y="0.0" width="69.81818181818181" height="69.81818181818181" rx="0" ry="0" style="stroke-width:1;fill:cornsilk;"/><rect x="354.90909090909093" y="59.46181818181819" width="10.356363636363637" height="10.356363636363637" rx="0" ry="0" style="stroke-width:1;fill:gray;"/><text x="354.9090909090909" y="34.90909090909091" font-size="12"><tspan x="354.9090909090909" dy="0em">f5</tspan></text><rect x="389.8181818181818" y="157.0909090909091" width="116.36363636363637" height="81.45454545454545" rx="0" ry="0" style="stroke-width:1;fill:darkgreen;"/><rect x="389.8181818181818" y="197.8181818181818" width="10.356363636363637" height="10.356363636363637" rx="0" ry="0" style="stroke-width:1;fill:gray;"/><text x="448.0" y="197.8181818181818" font-size="12"><tspan x="448.0" dy="0em">f7</tspan></text><rect x="389.8181818181818" y="40.72727272727273" width="69.81818181818181" height="58.18181818181819" rx="0" ry="0" style="stroke-width:1;fill:bisque;"/><rect x="389.8181818181818" y="69.81818181818181" width="10.356363636363637" height="10.356363636363637" rx="0" ry="0" style="stroke-width:1;fill:gray;"/><text x="424.72727272727275" y="69.81818181818181" font-size="12"><tspan x="424.72727272727275" dy="0em">f3</tspan></text><rect x="459.6363636363636" y="40.72727272727273" width="58.18181818181819" height="58.18181818181819" rx="0" ry="0" style="stroke-width:1;fill:aqua;"/><rect x="459.6363636363636" y="69.81818181818181" width="10.356363636363637" height="10.356363636363637" rx="0" ry="0" style="stroke-width:1;fill:gray;"/><text x="488.72727272727275" y="69.81818181818181" font-size="12"><tspan x="488.72727272727275" dy="0em">f10</tspan></text><rect x="389.8181818181818" y="0.0" width="52.36363636363637" height="40.72727272727273" rx="0" ry="0" style="stroke-width:1;fill:darkred;"/><rect x="389.8181818181818" y="17.454545454545453" width="10.356363636363637" height="10.356363636363637" rx="0" ry="0" style="stroke-width:1;fill:gray;"/><text x="413.09090909090907" y="17.454545454545453" font-size="12"><tspan x="413.09090909090907" dy="0em">f1</tspan></text></g></svg>