<?xml version="1.0" standalone="no"?>
<!DOCTYPE svg PUBLIC "-//W3C//DTD SVG 1.1//EN"
  "http://www.w3.org/Graphics/SVG/1.1/DTD/svg11.dtd">
<svg width="536.2162162162163" height="640.0" version="1.1"
  xmlns="http://www.w3.org/2000/svg">
<g style="stroke:black;"><rect x="0.0" y="259.4594594594595" width="172.97297297297297" height="138.3783783783784" rx="0" ry="0" style="stroke-width:1;fill:red;"/><rect x="162.24864864864867" y="328.64864864864865" width="10.724324324324325" height="10.724324324324325" rx="0" ry="0" style="stroke-width:1;fill:gray;"/><text x="86.48648648648648" y="328.64864864864865" font-size="12"><tspan x="86.48648648648648" dy="0em">f1</tspan></text><rect x="172.97297297297297" y="397.83783783783787" width="207.56756756756758" height="172.97297297297297" rx="0" ry="0" style="stroke-width:1;fill:green;"/><rect x="276.7567567567568" y="397.83783783783787" width="10.724324324324325" height="10.724324324324325" rx="0" ry="0" style="stroke-width:1;fill:gray;"/><text x="276.7567567567568" y="484.3243243243244" font-size="12"><tspan x="276.7567567567568" dy="0em">f3</tspan></text><rect x="380.5405405405406" y="501.62162162162167" width="138.3783783783784" height="138.3783783783784" rx="0" ry="0" style="stroke-width:1;fill:blue;"/><rect x="380.5405405405406" y="570.8108108108108" width="10.724324324324325" height="10.724324324324325" rx="0" ry="0" style="stroke-width:1;fill:gray;"/><text x="449.7297297297298" y="570.8108108108108" font-size="12"><tspan x="449.7297297297298" dy="0em">f5</tspan></text><rect x="380.5405405405406" y="397.83783783783787" width="155.67567567567568" height="103.78378378378379" rx="0" ry="0" style="stroke-width:1;fill:yellow;"/><rect x="380.5405405405406" y="449.72972972972974" width="10.724324324324325" height="10.724324324324325" rx="0" ry="0" style="stroke-width:1;fill:gray;"/><text x="449.7297297297298" y="449.72972972972974" font-size="12"><tspan x="449.7297297297298" dy="0em">f6</tspan></text><rect x="172.97297297297297" y="259.4594594594595" width="207.56756756756758" height="138.3783783783784" rx="0" ry="0" style="stroke-width:1;fill:brown;"/><rect x="276.7567567567568" y="387.1135135135135" width="10.724324324324325" height="10.724324324324325" rx="0" ry="0" style="stroke-width:1;fill:gray;"/><text x="276.7567567567568" y="328.64864864864865" font-size="12"><tspan x="276.7567567567568" dy="0em">f4</tspan></text><rect x="0.0" y="0.0" width="345.94594594594594" height="259.4594594594595" rx="0" ry="0" style="stroke-width:1;fill:pink;"/><rect x="172.97297297297297" y="248.73513513513515" width="10.724324324324325" height="10.724324324324325" rx="0" ry="0" style="stroke-width:1;fill:gray;"/><text x="172.97297297297297" y="121.0810810810811" font-size="12"><tspan x="172.97297297297297" dy="0em">f2</tspan></text></g></svg>