<?xml version="1.0" standalone="no"?>
<!DOCTYPE svg PUBLIC "-//W3C//DTD SVG 1.1//EN"
  "http://www.w3.org/Graphics/SVG/1.1/DTD/svg11.dtd">
<svg width="479.99999999999994" height="221.53846153846152" version="1.1"
  xmlns="http://www.w3.org/2000/svg">
<g style="stroke:black;"><rect x="0.0" y="170.76923076923075" width="46.153846153846146" height="32.30769230769231" rx="0" ry="0" style="stroke-width:1;fill:lightgray;"/><rect x="23.076923076923073" y="170.76923076923075" width="9.6" height="9.6" rx="0" ry="0" style="stroke-width:1;fill:gray;"/><text x="23.076923076923073" y="184.61538461538458" font-size="12"><tspan x="23.076923076923073" dy="0em">f2</tspan></text><rect x="46.153846153846146" y="170.76923076923075" width="46.153846153846146" height="46.153846153846146" rx="0" ry="0" style="stroke-width:1;fill:lightgray;"/><rect x="69.23076923076923" y="170.76923076923075" width="9.6" height="9.6" rx="0" ry="0" style="stroke-width:1;fill:gray;"/><text x="69.23076923076923" y="193.8461538461538" font-size="12"><tspan x="69.23076923076923" dy="0em">f3</tspan></text><rect x="92.30769230769229" y="170.76923076923075" width="69.23076923076923" height="50.76923076923077" rx="0" ry="0" style="stroke-width:1;fill:lightgray;"/><rect x="124.6153846153846" y="170.76923076923075" width="9.6" height="9.6" rx="0" ry="0" style="stroke-width:1;fill:gray;"/><text x="124.6153846153846" y="193.8461538461538" font-size="12"><tspan x="124.6153846153846" dy="0em">f8</tspan></text><rect x="0.0" y="124.6153846153846" width="64.61538461538461" height="46.153846153846146" rx="0" ry="0" style="stroke-width:1;fill:lightgray;"/><rect x="32.30769230769231" y="161.16923076923075" width="9.6" height="9.6" rx="0" ry="0" style="stroke-width:1;fill:gray;"/><text x="32.30769230769231" y="147.69230769230768" font-size="12"><tspan x="32.30769230769231" dy="0em">f1</tspan></text><rect x="0.0" y="64.61538461538461" width="83.07692307692307" height="59.99999999999999" rx="0" ry="0" style="stroke-width:1;fill:lightgray;"/><rect x="73.47692307692307" y="92.30769230769229" width="9.6" height="9.6" rx="0" ry="0" style="stroke-width:1;fill:gray;"/><text x="41.53846153846153" y="92.3076923076923" font-size="12"><tspan x="41.53846153846153" dy="0em">f5</tspan></text><rect x="0.0" y="0.0" width="36.92307692307692" height="36.92307692307692" rx="0" ry="0" style="stroke-width:1;fill:lightgray;"/><rect x="18.46153846153846" y="27.323076923076922" width="9.6" height="9.6" rx="0" ry="0" style="stroke-width:1;fill:gray;"/><text x="18.46153846153846" y="18.46153846153846" font-size="12"><tspan x="18.46153846153846" dy="0em">f6</tspan></text><rect x="36.92307692307692" y="0.0" width="41.53846153846153" height="27.69230769230769" rx="0" ry="0" style="stroke-width:1;fill:lightgray;"/><rect x="55.38461538461538" y="18.092307692307692" width="9.6" height="9.6" rx="0" ry="0" style="stroke-width:1;fill:gray;"/><text x="55.38461538461538" y="13.846153846153845" font-size="12"><tspan x="55.38461538461538" dy="0em">f7</tspan></text><rect x="387.6923076923077" y="0.0" width="92.30769230769229" height="69.23076923076923" rx="0" ry="0" style="stroke-width:1;fill:lightgray;"/><rect x="387.6923076923077" y="32.30769230769231" width="9.6" height="9.6" rx="0" ry="0" style="stroke-width:1;fill:gray;"/><text x="433.8461538461538" y="32.30769230769231" font-size="12"><tspan x="433.8461538461538" dy="0em">f4</tspan></text></g></svg>