<?xml version="1.0" standalone="no"?>
<!DOCTYPE svg PUBLIC "-//W3C//DTD SVG 1.1//EN"
  "http://www.w3.org/Graphics/SVG/1.1/DTD/svg11.dtd">
<svg width="341.8181818181818" height="640.0" version="1.1"
  xmlns="http://www.w3.org/2000/svg">
<g style="stroke:black;"><rect x="0.0" y="290.9090909090909" width="80.0" height="80.0" rx="0" ry="0" style="stroke-width:1;fill:red;"/><rect x="73.16363636363637" y="327.27272727272725" width="6.836363636363636" height="6.836363636363636" rx="0" ry="0" style="stroke-width:1;fill:gray;"/><text x="36.36363636363636" y="327.27272727272725" font-size="12"><tspan x="36.36363636363636" dy="0em">f11</tspan></text><rect x="80.0" y="341.8181818181818" width="87.27272727272727" height="87.27272727272727" rx="0" ry="0" style="stroke-width:1;fill:green;"/><rect x="123.63636363636363" y="341.8181818181818" width="6.836363636363636" height="6.836363636363636" rx="0" ry="0" style="stroke-width:1;fill:gray;"/><text x="123.63636363636363" y="385.45454545454544" font-size="12"><tspan x="123.63636363636363" dy="0em">f5</tspan></text><rect x="80.0" y="290.9090909090909" width="65.45454545454545" height="50.90909090909091" rx="0" ry="0" style="stroke-width:1;fill:blue;"/><rect x="109.0909090909091" y="290.9090909090909" width="6.836363636363636" height="6.836363636363636" rx="0" ry="0" style="stroke-width:1;fill:gray;"/><text x="109.0909090909091" y="312.7272727272727" font-size="12"><tspan x="109.0909090909091" dy="0em">f1</tspan></text><rect x="232.72727272727272" y="560.0" width="109.0909090909091" height="80.0" rx="0" ry="0" style="stroke-width:1;fill:yellow;"/><rect x="232.72727272727272" y="596.3636363636364" width="6.836363636363636" height="6.836363636363636" rx="0" ry="0" style="stroke-width:1;fill:gray;"/><text x="283.6363636363636" y="596.3636363636364" font-size="12"><tspan x="283.6363636363636" dy="0em">f8</tspan></text><rect x="232.72727272727272" y="487.27272727272725" width="72.72727272727272" height="72.72727272727272" rx="0" ry="0" style="stroke-width:1;fill:brown;"/><rect x="232.72727272727272" y="523.6363636363636" width="6.836363636363636" height="6.836363636363636" rx="0" ry="0" style="stroke-width:1;fill:gray;"/><text x="269.09090909090907" y="523.6363636363636" font-size="12"><tspan x="269.09090909090907" dy="0em">f10</tspan></text><rect x="232.72727272727272" y="421.8181818181818" width="87.27272727272727" height="65.45454545454545" rx="0" ry="0" style="stroke-width:1;fill:pink;"/><rect x="232.72727272727272" y="450.9090909090909" width="6.836363636363636" height="6.836363636363636" rx="0" ry="0" style="stroke-width:1;fill:gray;"/><text x="276.3636363636364" y="450.9090909090909" font-size="12"><tspan x="276.3636363636364" dy="0em">f9</tspan></text><rect x="232.72727272727272" y="363.6363636363636" width="72.72727272727272" height="58.18181818181818" rx="0" ry="0" style="stroke-width:1;fill:cyan;"/><rect x="232.72727272727272" y="392.7272727272727" width="6.836363636363636" height="6.836363636363636" rx="0" ry="0" style="stroke-width:1;fill:gray;"/><text x="269.09090909090907" y="392.7272727272727" font-size="12"><tspan x="269.09090909090907" dy="0em">f6</tspan></text><rect x="232.72727272727272" y="290.9090909090909" width="101.81818181818181" height="72.72727272727272" rx="0" ry="0" style="stroke-width:1;fill:cornsilk;"/><rect x="232.72727272727272" y="327.27272727272725" width="6.836363636363636" height="6.836363636363636" rx="0" ry="0" style="stroke-width:1;fill:gray;"/><text x="283.6363636363636" y="327.27272727272725" font-size="12"><tspan x="283.6363636363636" dy="0em">f2</tspan></text><rect x="0.0" y="232.72727272727272" width="87.27272727272727" height="58.18181818181818" rx="0" ry="0" style="stroke-width:1;fill:darkgreen;"/><rect x="80.43636363636364" y="261.8181818181818" width="6.836363636363636" height="6.836363636363636" rx="0" ry="0" style="stroke-width:1;fill:gray;"/><text x="43.63636363636363" y="261.8181818181818" font-size="12"><tspan x="43.63636363636363" dy="0em">f12</tspan></text><rect x="0.0" y="160.0" width="87.27272727272727" height="72.72727272727272" rx="0" ry="0" style="stroke-width:1;fill:bisque;"/><rect x="80.43636363636364" y="196.36363636363635" width="6.836363636363636" height="6.836363636363636" rx="0" ry="0" style="stroke-width:1;fill:gray;"/><text x="43.63636363636363" y="196.36363636363637" font-size="12"><tspan x="43.63636363636363" dy="0em">f3</tspan></text><rect x="0.0" y="101.81818181818181" width="58.18181818181818" height="58.18181818181818" rx="0" ry="0" style="stroke-width:1;fill:aqua;"/><rect x="29.09090909090909" y="153.16363636363636" width="6.836363636363636" height="6.836363636363636" rx="0" ry="0" style="stroke-width:1;fill:gray;"/><text x="29.09090909090909" y="130.9090909090909" font-size="12"><tspan x="29.09090909090909" dy="0em">f4</tspan></text><rect x="0.0" y="0.0" width="145.45454545454544" height="101.81818181818181" rx="0" ry="0" style="stroke-width:1;fill:darkred;"/><rect x="72.72727272727272" y="94.98181818181818" width="6.836363636363636" height="6.836363636363636" rx="0" ry="0" style="stroke-width:1;fill:gray;"/><text x="72.72727272727272" y="50.90909090909091" font-size="12"><tspan x="72.72727272727272" dy="0em">f7</tspan></text></g></svg>