<?xml version="1.0" standalone="no"?>
<!DOCTYPE svg PUBLIC "-//W3C//DTD SVG 1.1//EN"
  "http://www.w3.org/Graphics/SVG/1.1/DTD/svg11.dtd">
<svg width="480.0" height="386.3414634146341" version="1.1"
  xmlns="http://www.w3.org/2000/svg">
<g style="stroke:black;"><rect x="0.0" y="269.2682926829268" width="140.4878048780488" height="93.65853658536585" rx="0" ry="0" style="stroke-width:1;fill:lightgray;"/><rect x="130.88780487804877" y="316.0975609756097" width="9.6" height="9.6" rx="0" ry="0" style="stroke-width:1;fill:gray;"/><text x="70.2439024390244" y="316.0975609756097" font-size="12"><tspan x="70.2439024390244" dy="0em">f4</tspan></text><rect x="140.4878048780488" y="269.2682926829268" width="140.4878048780488" height="117.07317073170731" rx="0" ry="0" style="stroke-width:1;fill:lightgray;"/><rect x="140.4878048780488" y="327.8048780487805" width="9.6" height="9.6" rx="0" ry="0" style="stroke-width:1;fill:gray;"/><text x="210.7317073170732" y="327.80487804878044" font-size="12"><tspan x="210.7317073170732" dy="0em">f3</tspan></text><rect x="280.9756097560976" y="269.2682926829268" width="93.65853658536585" height="93.65853658536585" rx="0" ry="0" style="stroke-width:1;fill:lightgray;"/><rect x="327.8048780487805" y="269.2682926829268" width="9.6" height="9.6" rx="0" ry="0" style="stroke-width:1;fill:gray;"/><text x="327.8048780487805" y="316.0975609756097" font-size="12"><tspan x="327.8048780487805" dy="0em">f5</tspan></text><rect x="374.6341463414634" y="269.2682926829268" width="105.36585365853658" height="70.2439024390244" rx="0" ry="0" style="stroke-width:1;fill:lightgray;"/><rect x="421.4634146341463" y="269.2682926829268" width="9.6" height="9.6" rx="0" ry="0" style="stroke-width:1;fill:gray;"/><text x="421.4634146341463" y="304.390243902439" font-size="12"><tspan x="421.4634146341463" dy="0em">f6</tspan></text><rect x="0.0" y="93.65853658536585" width="234.14634146341461" height="175.60975609756096" rx="0" ry="0" style="stroke-width:1;fill:lightgray;"/><rect x="117.07317073170731" y="93.65853658536585" width="9.6" height="9.6" rx="0" ry="0" style="stroke-width:1;fill:gray;"/><text x="117.07317073170731" y="175.609756097561" font-size="12"><tspan x="117.07317073170731" dy="0em">f2</tspan></text><rect x="0.0" y="0.0" width="117.07317073170731" height="93.65853658536585" rx="0" ry="0" style="stroke-width:1;fill:lightgray;"/><rect x="107.47317073170731" y="46.829268292682926" width="9.6" height="9.6" rx="0" ry="0" style="stroke-width:1;fill:gray;"/><text x="58.536585365853654" y="46.829268292682926" font-size="12"><tspan x="58.536585365853654" dy="0em">f1</tspan></text></g></svg>