<?xml version="1.0" standalone="no"?>
<!DOCTYPE svg PUBLIC "-//W3C//DTD SVG 1.1//EN"
  "http://www.w3.org/Graphics/SVG/1.1/DTD/svg11.dtd">
<svg width="395.6363636363636" height="640.0" version="1.1"
  xmlns="http://www.w3.org/2000/svg">
<g style="stroke:black;"><rect x="0.0" y="570.1818181818182" width="104.72727272727273" height="69.81818181818181" rx="0" ry="0" style="stroke-width:1;fill:lightgray;"/><rect x="96.81454545454547" y="605.0909090909091" width="7.912727272727274" height="7.912727272727274" rx="0" ry="0" style="stroke-width:1;fill:gray;"/><text x="46.54545454545455" y="605.0909090909091" font-size="12"><tspan x="46.54545454545455" dy="0em">f6</tspan></text><rect x="0.0" y="395.6363636363636" width="232.72727272727275" height="174.54545454545456" rx="0" ry="0" style="stroke-width:1;fill:lightgray;"/><rect x="116.36363636363637" y="395.6363636363636" width="7.912727272727274" height="7.912727272727274" rx="0" ry="0" style="stroke-width:1;fill:gray;"/><text x="116.36363636363637" y="477.09090909090907" font-size="12"><tspan x="116.36363636363637" dy="0em">f2</tspan></text><rect x="0.0" y="93.0909090909091" width="116.36363636363637" height="93.0909090909091" rx="0" ry="0" style="stroke-width:1;fill:lightgray;"/><rect x="58.18181818181819" y="178.26909090909092" width="7.912727272727274" height="7.912727272727274" rx="0" ry="0" style="stroke-width:1;fill:gray;"/><text x="58.18181818181819" y="139.63636363636363" font-size="12"><tspan x="58.18181818181819" dy="0em">f1</tspan></text><rect x="116.36363636363637" y="93.0909090909091" width="139.63636363636363" height="93.0909090909091" rx="0" ry="0" style="stroke-width:1;fill:lightgray;"/><rect x="248.08727272727273" y="139.63636363636363" width="7.912727272727274" height="7.912727272727274" rx="0" ry="0" style="stroke-width:1;fill:gray;"/><text x="186.1818181818182" y="139.63636363636363" font-size="12"><tspan x="186.1818181818182" dy="0em">f4</tspan></text><rect x="256.0" y="93.0909090909091" width="139.63636363636363" height="116.36363636363637" rx="0" ry="0" style="stroke-width:1;fill:lightgray;"/><rect x="256.0" y="151.27272727272728" width="7.912727272727274" height="7.912727272727274" rx="0" ry="0" style="stroke-width:1;fill:gray;"/><text x="325.8181818181818" y="151.27272727272728" font-size="12"><tspan x="325.8181818181818" dy="0em">f3</tspan></text><rect x="0.0" y="0.0" width="93.0909090909091" height="93.0909090909091" rx="0" ry="0" style="stroke-width:1;fill:lightgray;"/><rect x="0.0" y="46.54545454545455" width="7.912727272727274" height="7.912727272727274" rx="0" ry="0" style="stroke-width:1;fill:gray;"/><text x="46.54545454545455" y="46.54545454545455" font-size="12"><tspan x="46.54545454545455" dy="0em">f5</tspan></text></g></svg>