<?xml version="1.0" standalone="no"?>
<!DOCTYPE svg PUBLIC "-//W3C//DTD SVG 1.1//EN"
  "http://www.w3.org/Graphics/SVG/1.1/DTD/svg11.dtd">
<svg width="480.0" height="268.53146853146853" version="1.1"
  xmlns="http://www.w3.org/2000/svg">
<g style="stroke:black;"><rect x="0.0" y="224.8951048951049" width="63.77622377622377" height="43.63636363636364" rx="0" ry="0" style="stroke-width:1;fill:red;"/><rect x="30.20979020979021" y="224.8951048951049" width="9.6" height="9.6" rx="0" ry="0" style="stroke-width:1;fill:gray;"/><text x="30.20979020979021" y="245.03496503496504" font-size="12"><tspan x="30.20979020979021" dy="0em">f10</tspan></text><rect x="0.0" y="93.98601398601399" width="50.34965034965035" height="33.56643356643357" rx="0" ry="0" style="stroke-width:1;fill:green;"/><rect x="40.74965034965035" y="110.76923076923077" width="9.6" height="9.6" rx="0" ry="0" style="stroke-width:1;fill:gray;"/><text x="23.496503496503497" y="110.76923076923077" font-size="12"><tspan x="23.496503496503497" dy="0em">f1</tspan></text><rect x="50.34965034965035" y="93.98601398601399" width="30.20979020979021" height="20.13986013986014" rx="0" ry="0" style="stroke-width:1;fill:blue;"/><rect x="63.77622377622377" y="104.52587412587413" width="9.6" height="9.6" rx="0" ry="0" style="stroke-width:1;fill:gray;"/><text x="63.77622377622377" y="104.05594405594405" font-size="12"><tspan x="63.77622377622377" dy="0em">f5</tspan></text><rect x="80.55944055944056" y="110.76923076923077" width="83.91608391608392" height="60.41958041958042" rx="0" ry="0" style="stroke-width:1;fill:yellow;"/><rect x="80.55944055944056" y="140.979020979021" width="9.6" height="9.6" rx="0" ry="0" style="stroke-width:1;fill:gray;"/><text x="120.83916083916084" y="140.979020979021" font-size="12"><tspan x="120.83916083916084" dy="0em">f6</tspan></text><rect x="80.55944055944056" y="93.98601398601399" width="26.853146853146853" height="16.783216783216783" rx="0" ry="0" style="stroke-width:1;fill:brown;"/><rect x="80.55944055944056" y="100.6993006993007" width="9.6" height="9.6" rx="0" ry="0" style="stroke-width:1;fill:gray;"/><text x="93.98601398601399" y="100.6993006993007" font-size="12"><tspan x="93.98601398601399" dy="0em">f8</tspan></text><rect x="255.1048951048951" y="120.83916083916084" width="36.92307692307692" height="36.92307692307692" rx="0" ry="0" style="stroke-width:1;fill:pink;"/><rect x="255.1048951048951" y="137.62237762237763" width="9.6" height="9.6" rx="0" ry="0" style="stroke-width:1;fill:gray;"/><text x="271.8881118881119" y="137.62237762237763" font-size="12"><tspan x="271.8881118881119" dy="0em">f9</tspan></text><rect x="255.1048951048951" y="93.98601398601399" width="40.27972027972028" height="26.853146853146853" rx="0" ry="0" style="stroke-width:1;fill:cyan;"/><rect x="255.1048951048951" y="107.41258741258741" width="9.6" height="9.6" rx="0" ry="0" style="stroke-width:1;fill:gray;"/><text x="275.24475524475525" y="107.41258741258741" font-size="12"><tspan x="275.24475524475525" dy="0em">f2</tspan></text><rect x="0.0" y="53.70629370629371" width="50.34965034965035" height="40.27972027972028" rx="0" ry="0" style="stroke-width:1;fill:cornsilk;"/><rect x="40.74965034965035" y="73.84615384615384" width="9.6" height="9.6" rx="0" ry="0" style="stroke-width:1;fill:gray;"/><text x="23.496503496503497" y="73.84615384615384" font-size="12"><tspan x="23.496503496503497" dy="0em">f3</tspan></text><rect x="0.0" y="0.0" width="67.13286713286713" height="53.70629370629371" rx="0" ry="0" style="stroke-width:1;fill:darkgreen;"/><rect x="33.56643356643357" y="44.106293706293705" width="9.6" height="9.6" rx="0" ry="0" style="stroke-width:1;fill:gray;"/><text x="33.56643356643357" y="26.853146853146853" font-size="12"><tspan x="33.56643356643357" dy="0em">f7</tspan></text><rect x="449.7902097902098" y="0.0" width="30.20979020979021" height="30.20979020979021" rx="0" ry="0" style="stroke-width:1;fill:bisque;"/><rect x="449.7902097902098" y="13.426573426573427" width="9.6" height="9.6" rx="0" ry="0" style="stroke-width:1;fill:gray;"/><text x="463.21678321678326" y="13.426573426573427" font-size="12"><tspan x="463.21678321678326" dy="0em">f4</tspan></text></g></svg>