<?xml version="1.0" standalone="no"?>
<!DOCTYPE svg PUBLIC "-//W3C//DTD SVG 1.1//EN"
  "http://www.w3.org/Graphics/SVG/1.1/DTD/svg11.dtd">
<svg width="429.2682926829268" height="640.0" version="1.1"
  xmlns="http://www.w3.org/2000/svg">
<g style="stroke:black;"><rect x="0.0" y="327.8048780487805" width="93.65853658536585" height="78.04878048780488" rx="0" ry="0" style="stroke-width:1;fill:lightgray;"/><rect x="85.07317073170732" y="366.8292682926829" width="8.585365853658537" height="8.585365853658537" rx="0" ry="0" style="stroke-width:1;fill:gray;"/><text x="46.829268292682926" y="366.8292682926829" font-size="12"><tspan x="46.829268292682926" dy="0em">f3</tspan></text><rect x="93.65853658536585" y="382.4390243902439" width="62.4390243902439" height="62.4390243902439" rx="0" ry="0" style="stroke-width:1;fill:lightgray;"/><rect x="93.65853658536585" y="413.6585365853658" width="8.585365853658537" height="8.585365853658537" rx="0" ry="0" style="stroke-width:1;fill:gray;"/><text x="124.8780487804878" y="413.6585365853658" font-size="12"><tspan x="124.8780487804878" dy="0em">f4</tspan></text><rect x="93.65853658536585" y="327.8048780487805" width="70.2439024390244" height="54.63414634146341" rx="0" ry="0" style="stroke-width:1;fill:lightgray;"/><rect x="124.8780487804878" y="327.8048780487805" width="8.585365853658537" height="8.585365853658537" rx="0" ry="0" style="stroke-width:1;fill:gray;"/><text x="124.8780487804878" y="351.219512195122" font-size="12"><tspan x="124.8780487804878" dy="0em">f1</tspan></text><rect x="226.34146341463415" y="327.8048780487805" width="85.85365853658536" height="85.85365853658536" rx="0" ry="0" style="stroke-width:1;fill:lightgray;"/><rect x="303.60975609756093" y="366.8292682926829" width="8.585365853658537" height="8.585365853658537" rx="0" ry="0" style="stroke-width:1;fill:gray;"/><text x="265.3658536585366" y="366.8292682926829" font-size="12"><tspan x="265.3658536585366" dy="0em">f11</tspan></text><rect x="312.1951219512195" y="569.7560975609756" width="93.65853658536585" height="70.2439024390244" rx="0" ry="0" style="stroke-width:1;fill:lightgray;"/><rect x="312.1951219512195" y="600.9756097560976" width="8.585365853658537" height="8.585365853658537" rx="0" ry="0" style="stroke-width:1;fill:gray;"/><text x="359.0243902439024" y="600.9756097560976" font-size="12"><tspan x="359.0243902439024" dy="0em">f9</tspan></text><rect x="312.1951219512195" y="483.9024390243902" width="117.07317073170731" height="85.85365853658536" rx="0" ry="0" style="stroke-width:1;fill:lightgray;"/><rect x="312.1951219512195" y="522.9268292682926" width="8.585365853658537" height="8.585365853658537" rx="0" ry="0" style="stroke-width:1;fill:gray;"/><text x="366.8292682926829" y="522.9268292682926" font-size="12"><tspan x="366.8292682926829" dy="0em">f8</tspan></text><rect x="312.1951219512195" y="421.4634146341463" width="78.04878048780488" height="62.4390243902439" rx="0" ry="0" style="stroke-width:1;fill:lightgray;"/><rect x="312.1951219512195" y="452.6829268292683" width="8.585365853658537" height="8.585365853658537" rx="0" ry="0" style="stroke-width:1;fill:gray;"/><text x="351.2195121951219" y="452.68292682926824" font-size="12"><tspan x="351.2195121951219" dy="0em">f6</tspan></text><rect x="312.1951219512195" y="327.8048780487805" width="93.65853658536585" height="93.65853658536585" rx="0" ry="0" style="stroke-width:1;fill:lightgray;"/><rect x="312.1951219512195" y="374.6341463414634" width="8.585365853658537" height="8.585365853658537" rx="0" ry="0" style="stroke-width:1;fill:gray;"/><text x="359.0243902439024" y="374.6341463414634" font-size="12"><tspan x="359.0243902439024" dy="0em">f5</tspan></text><rect x="0.0" y="249.7560975609756" width="109.26829268292683" height="78.04878048780488" rx="0" ry="0" style="stroke-width:1;fill:lightgray;"/><rect x="100.6829268292683" y="288.780487804878" width="8.585365853658537" height="8.585365853658537" rx="0" ry="0" style="stroke-width:1;fill:gray;"/><text x="54.63414634146341" y="288.780487804878" font-size="12"><tspan x="54.63414634146341" dy="0em">f2</tspan></text><rect x="0.0" y="187.3170731707317" width="93.65853658536585" height="62.4390243902439" rx="0" ry="0" style="stroke-width:1;fill:lightgray;"/><rect x="85.07317073170732" y="218.53658536585365" width="8.585365853658537" height="8.585365853658537" rx="0" ry="0" style="stroke-width:1;fill:gray;"/><text x="46.829268292682926" y="218.53658536585365" font-size="12"><tspan x="46.829268292682926" dy="0em">f12</tspan></text><rect x="0.0" y="109.26829268292683" width="78.04878048780488" height="78.04878048780488" rx="0" ry="0" style="stroke-width:1;fill:lightgray;"/><rect x="69.46341463414635" y="148.29268292682926" width="8.585365853658537" height="8.585365853658537" rx="0" ry="0" style="stroke-width:1;fill:gray;"/><text x="39.02439024390244" y="148.29268292682926" font-size="12"><tspan x="39.02439024390244" dy="0em">f10</tspan></text><rect x="0.0" y="0.0" width="156.09756097560975" height="109.26829268292683" rx="0" ry="0" style="stroke-width:1;fill:lightgray;"/><rect x="78.04878048780488" y="100.6829268292683" width="8.585365853658537" height="8.585365853658537" rx="0" ry="0" style="stroke-width:1;fill:gray;"/><text x="78.04878048780488" y="54.63414634146341" font-size="12"><tspan x="78.04878048780488" dy="0em">f7</tspan></text></g></svg>