<?xml version="1.0" standalone="no"?>
<!DOCTYPE svg PUBLIC "-//W3C//DTD SVG 1.1//EN"
  "http://www.w3.org/Graphics/SVG/1.1/DTD/svg11.dtd">
<svg width="426.66666666666663" height="640.0" version="1.1"
  xmlns="http://www.w3.org/2000/svg">
<g style="stroke:black;"><rect x="0.0" y="574.8148148148148" width="65.18518518518518" height="65.18518518518518" rx="0" ry="0" style="stroke-width:1;fill:red;"/><rect x="56.65185185185185" y="604.4444444444445" width="8.533333333333333" height="8.533333333333333" rx="0" ry="0" style="stroke-width:1;fill:gray;"/><text x="29.629629629629626" y="604.4444444444445" font-size="12"><tspan x="29.629629629629626" dy="0em">f9</tspan></text><rect x="0.0" y="195.55555555555554" width="88.88888888888889" height="59.25925925925925" rx="0" ry="0" style="stroke-width:1;fill:green;"/><rect x="41.48148148148148" y="246.28148148148148" width="8.533333333333333" height="8.533333333333333" rx="0" ry="0" style="stroke-width:1;fill:gray;"/><text x="41.48148148148148" y="225.18518518518516" font-size="12"><tspan x="41.48148148148148" dy="0em">f1</tspan></text><rect x="88.88888888888889" y="195.55555555555554" width="71.11111111111111" height="47.407407407407405" rx="0" ry="0" style="stroke-width:1;fill:blue;"/><rect x="124.44444444444444" y="234.42962962962963" width="8.533333333333333" height="8.533333333333333" rx="0" ry="0" style="stroke-width:1;fill:gray;"/><text x="124.44444444444444" y="219.25925925925924" font-size="12"><tspan x="124.44444444444444" dy="0em">f2</tspan></text><rect x="160.0" y="195.55555555555554" width="118.5185185185185" height="94.81481481481481" rx="0" ry="0" style="stroke-width:1;fill:yellow;"/><rect x="219.25925925925924" y="195.55555555555554" width="8.533333333333333" height="8.533333333333333" rx="0" ry="0" style="stroke-width:1;fill:gray;"/><text x="219.25925925925924" y="242.96296296296293" font-size="12"><tspan x="219.25925925925924" dy="0em">f7</tspan></text><rect x="278.5185185185185" y="266.66666666666663" width="148.14814814814815" height="106.66666666666666" rx="0" ry="0" style="stroke-width:1;fill:brown;"/><rect x="278.5185185185185" y="320.0" width="8.533333333333333" height="8.533333333333333" rx="0" ry="0" style="stroke-width:1;fill:gray;"/><text x="349.62962962962956" y="319.99999999999994" font-size="12"><tspan x="349.62962962962956" dy="0em">f6</tspan></text><rect x="278.5185185185185" y="195.55555555555554" width="88.88888888888889" height="71.11111111111111" rx="0" ry="0" style="stroke-width:1;fill:pink;"/><rect x="278.5185185185185" y="231.1111111111111" width="8.533333333333333" height="8.533333333333333" rx="0" ry="0" style="stroke-width:1;fill:gray;"/><text x="319.99999999999994" y="231.1111111111111" font-size="12"><tspan x="319.99999999999994" dy="0em">f3</tspan></text><rect x="0.0" y="118.5185185185185" width="112.59259259259258" height="77.03703703703704" rx="0" ry="0" style="stroke-width:1;fill:cyan;"/><rect x="104.05925925925925" y="154.07407407407408" width="8.533333333333333" height="8.533333333333333" rx="0" ry="0" style="stroke-width:1;fill:gray;"/><text x="53.33333333333333" y="154.07407407407408" font-size="12"><tspan x="53.33333333333333" dy="0em">f10</tspan></text><rect x="0.0" y="53.33333333333333" width="47.407407407407405" height="29.629629629629626" rx="0" ry="0" style="stroke-width:1;fill:cornsilk;"/><rect x="38.87407407407407" y="65.18518518518518" width="8.533333333333333" height="8.533333333333333" rx="0" ry="0" style="stroke-width:1;fill:gray;"/><text x="23.703703703703702" y="65.18518518518518" font-size="12"><tspan x="23.703703703703702" dy="0em">f8</tspan></text><rect x="47.407407407407405" y="53.33333333333333" width="53.33333333333333" height="35.55555555555556" rx="0" ry="0" style="stroke-width:1;fill:darkgreen;"/><rect x="92.2074074074074" y="71.11111111111111" width="8.533333333333333" height="8.533333333333333" rx="0" ry="0" style="stroke-width:1;fill:gray;"/><text x="71.11111111111111" y="71.11111111111111" font-size="12"><tspan x="71.11111111111111" dy="0em">f5</tspan></text><rect x="0.0" y="0.0" width="53.33333333333333" height="53.33333333333333" rx="0" ry="0" style="stroke-width:1;fill:bisque;"/><rect x="23.703703703703702" y="44.8" width="8.533333333333333" height="8.533333333333333" rx="0" ry="0" style="stroke-width:1;fill:gray;"/><text x="23.703703703703702" y="23.703703703703702" font-size="12"><tspan x="23.703703703703702" dy="0em">f4</tspan></text></g></svg>