<?xml version="1.0" standalone="no"?>
<!DOCTYPE svg PUBLIC "-//W3C//DTD SVG 1.1//EN"
  "http://www.w3.org/Graphics/SVG/1.1/DTD/svg11.dtd">
<svg width="290.9090909090909" height="640.0" version="1.1"
  xmlns="http://www.w3.org/2000/svg">
<g style="stroke:black;"><rect x="0.0" y="276.3636363636364" width="80.0" height="80.0" rx="0" ry="0" style="stroke-width:1;fill:lightgray;"/><rect x="74.18181818181817" y="312.7272727272727" width="5.818181818181818" height="5.818181818181818" rx="0" ry="0" style="stroke-width:1;fill:gray;"/><text x="36.36363636363636" y="312.72727272727275" font-size="12"><tspan x="36.36363636363636" dy="0em">f9</tspan></text><rect x="0.0" y="210.9090909090909" width="65.45454545454545" height="65.45454545454545" rx="0" ry="0" style="stroke-width:1;fill:lightgray;"/><rect x="59.636363636363626" y="240.0" width="5.818181818181818" height="5.818181818181818" rx="0" ry="0" style="stroke-width:1;fill:gray;"/><text x="29.09090909090909" y="240.0" font-size="12"><tspan x="29.09090909090909" dy="0em">f4</tspan></text><rect x="145.45454545454544" y="523.6363636363636" width="145.45454545454544" height="116.36363636363636" rx="0" ry="0" style="stroke-width:1;fill:lightgray;"/><rect x="145.45454545454544" y="581.8181818181818" width="5.818181818181818" height="5.818181818181818" rx="0" ry="0" style="stroke-width:1;fill:gray;"/><text x="218.18181818181816" y="581.8181818181818" font-size="12"><tspan x="218.18181818181816" dy="0em">f7</tspan></text><rect x="145.45454545454544" y="465.45454545454544" width="87.27272727272727" height="58.18181818181818" rx="0" ry="0" style="stroke-width:1;fill:lightgray;"/><rect x="145.45454545454544" y="494.5454545454545" width="5.818181818181818" height="5.818181818181818" rx="0" ry="0" style="stroke-width:1;fill:gray;"/><text x="189.09090909090907" y="494.5454545454545" font-size="12"><tspan x="189.09090909090907" dy="0em">f2</tspan></text><rect x="145.45454545454544" y="370.9090909090909" width="138.1818181818182" height="94.54545454545455" rx="0" ry="0" style="stroke-width:1;fill:lightgray;"/><rect x="145.45454545454544" y="414.5454545454545" width="5.818181818181818" height="5.818181818181818" rx="0" ry="0" style="stroke-width:1;fill:gray;"/><text x="210.90909090909088" y="414.5454545454545" font-size="12"><tspan x="210.90909090909088" dy="0em">f10</tspan></text><rect x="145.45454545454544" y="283.6363636363636" width="109.0909090909091" height="87.27272727272727" rx="0" ry="0" style="stroke-width:1;fill:lightgray;"/><rect x="145.45454545454544" y="327.27272727272725" width="5.818181818181818" height="5.818181818181818" rx="0" ry="0" style="stroke-width:1;fill:gray;"/><text x="196.36363636363635" y="327.27272727272725" font-size="12"><tspan x="196.36363636363635" dy="0em">f3</tspan></text><rect x="145.45454545454544" y="210.9090909090909" width="109.0909090909091" height="72.72727272727272" rx="0" ry="0" style="stroke-width:1;fill:lightgray;"/><rect x="145.45454545454544" y="247.27272727272725" width="5.818181818181818" height="5.818181818181818" rx="0" ry="0" style="stroke-width:1;fill:gray;"/><text x="196.36363636363635" y="247.27272727272725" font-size="12"><tspan x="196.36363636363635" dy="0em">f1</tspan></text><rect x="0.0" y="167.27272727272728" width="65.45454545454545" height="43.63636363636363" rx="0" ry="0" style="stroke-width:1;fill:lightgray;"/><rect x="59.636363636363626" y="189.0909090909091" width="5.818181818181818" height="5.818181818181818" rx="0" ry="0" style="stroke-width:1;fill:gray;"/><text x="29.09090909090909" y="189.0909090909091" font-size="12"><tspan x="29.09090909090909" dy="0em">f5</tspan></text><rect x="0.0" y="130.9090909090909" width="58.18181818181818" height="36.36363636363636" rx="0" ry="0" style="stroke-width:1;fill:lightgray;"/><rect x="52.36363636363636" y="145.45454545454544" width="5.818181818181818" height="5.818181818181818" rx="0" ry="0" style="stroke-width:1;fill:gray;"/><text x="29.09090909090909" y="145.45454545454544" font-size="12"><tspan x="29.09090909090909" dy="0em">f8</tspan></text><rect x="0.0" y="0.0" width="181.8181818181818" height="130.9090909090909" rx="0" ry="0" style="stroke-width:1;fill:lightgray;"/><rect x="87.27272727272727" y="125.09090909090908" width="5.818181818181818" height="5.818181818181818" rx="0" ry="0" style="stroke-width:1;fill:gray;"/><text x="87.27272727272727" y="65.45454545454545" font-size="12"><tspan x="87.27272727272727" dy="0em">f6</tspan></text></g></svg>