<?xml version="1.0" standalone="no"?>
<!DOCTYPE svg PUBLIC "-//W3C//DTD SVG 1.1//EN"
  "http://www.w3.org/Graphics/SVG/1.1/DTD/svg11.dtd">
<svg width="480.0" height="126.3157894736842" version="1.1"
  xmlns="http://www.w3.org/2000/svg">
<g style="stroke:black;"><rect x="0.0" y="0.0" width="151.57894736842104" height="84.21052631578947" rx="0" ry="0" style="stroke-width:1;fill:red;"/><rect x="141.97894736842105" y="42.10526315789473" width="9.599999999999998" height="9.599999999999998" rx="0" ry="0" style="stroke-width:1;fill:gray;"/><text x="75.78947368421052" y="42.10526315789473" font-size="12"><tspan x="75.78947368421052" dy="0em">f1</tspan></text><rect x="151.57894736842104" y="0.0" width="84.21052631578947" height="84.21052631578947" rx="0" ry="0" style="stroke-width:1;fill:green;"/><rect x="151.57894736842104" y="42.10526315789473" width="9.599999999999998" height="9.599999999999998" rx="0" ry="0" style="stroke-width:1;fill:gray;"/><text x="193.68421052631578" y="42.10526315789473" font-size="12"><tspan x="193.68421052631578" dy="0em">f3</tspan></text><rect x="235.78947368421052" y="0.0" width="75.78947368421052" height="42.10526315789473" rx="0" ry="0" style="stroke-width:1;fill:blue;"/><rect x="301.978947368421" y="16.842105263157894" width="9.599999999999998" height="9.599999999999998" rx="0" ry="0" style="stroke-width:1;fill:gray;"/><text x="269.4736842105263" y="16.842105263157894" font-size="12"><tspan x="269.4736842105263" dy="0em">f2</tspan></text><rect x="311.57894736842104" y="0.0" width="168.42105263157893" height="126.3157894736842" rx="0" ry="0" style="stroke-width:1;fill:yellow;"/><rect x="311.57894736842104" y="58.94736842105263" width="9.599999999999998" height="9.599999999999998" rx="0" ry="0" style="stroke-width:1;fill:gray;"/><text x="395.7894736842105" y="58.94736842105263" font-size="12"><tspan x="395.7894736842105" dy="0em">f4</tspan></text></g></svg>