<?xml version="1.0" standalone="no"?>
<!DOCTYPE svg PUBLIC "-//W3C//DTD SVG 1.1//EN"
  "http://www.w3.org/Graphics/SVG/1.1/DTD/svg11.dtd">
<svg width="522.4489795918367" height="640.0" version="1.1"
  xmlns="http://www.w3.org/2000/svg">
<g style="stroke:black;"><rect x="0.0" y="535.5102040816327" width="156.73469387755102" height="104.48979591836735" rx="0" ry="0" style="stroke-width:1;fill:red;"/><rect x="146.28571428571428" y="587.7551020408164" width="10.448979591836736" height="10.448979591836736" rx="0" ry="0" style="stroke-width:1;fill:gray;"/><text x="78.36734693877551" y="587.7551020408164" font-size="12"><tspan x="78.36734693877551" dy="0em">f4</tspan></text><rect x="0.0" y="431.0204081632653" width="130.6122448979592" height="104.48979591836735" rx="0" ry="0" style="stroke-width:1;fill:green;"/><rect x="65.3061224489796" y="431.0204081632653" width="10.448979591836736" height="10.448979591836736" rx="0" ry="0" style="stroke-width:1;fill:gray;"/><text x="65.3061224489796" y="483.265306122449" font-size="12"><tspan x="65.3061224489796" dy="0em">f1</tspan></text><rect x="287.34693877551024" y="431.0204081632653" width="117.55102040816327" height="78.36734693877551" rx="0" ry="0" style="stroke-width:1;fill:blue;"/><rect x="287.34693877551024" y="470.2040816326531" width="10.448979591836736" height="10.448979591836736" rx="0" ry="0" style="stroke-width:1;fill:gray;"/><text x="339.5918367346939" y="470.2040816326531" font-size="12"><tspan x="339.5918367346939" dy="0em">f6</tspan></text><rect x="0.0" y="0.0" width="261.2244897959184" height="195.9183673469388" rx="0" ry="0" style="stroke-width:1;fill:yellow;"/><rect x="130.6122448979592" y="185.46938775510205" width="10.448979591836736" height="10.448979591836736" rx="0" ry="0" style="stroke-width:1;fill:gray;"/><text x="130.6122448979592" y="91.42857142857143" font-size="12"><tspan x="130.6122448979592" dy="0em">f2</tspan></text><rect x="261.2244897959184" y="0.0" width="104.48979591836735" height="104.48979591836735" rx="0" ry="0" style="stroke-width:1;fill:brown;"/><rect x="313.46938775510205" y="94.04081632653062" width="10.448979591836736" height="10.448979591836736" rx="0" ry="0" style="stroke-width:1;fill:gray;"/><text x="313.46938775510205" y="52.244897959183675" font-size="12"><tspan x="313.46938775510205" dy="0em">f5</tspan></text><rect x="365.7142857142857" y="0.0" width="156.73469387755102" height="130.6122448979592" rx="0" ry="0" style="stroke-width:1;fill:pink;"/><rect x="444.0816326530612" y="120.16326530612244" width="10.448979591836736" height="10.448979591836736" rx="0" ry="0" style="stroke-width:1;fill:gray;"/><text x="444.0816326530612" y="65.3061224489796" font-size="12"><tspan x="444.0816326530612" dy="0em">f3</tspan></text></g></svg>