<?xml version="1.0" standalone="no"?>
<!DOCTYPE svg PUBLIC "-//W3C//DTD SVG 1.1//EN"
  "http://www.w3.org/Graphics/SVG/1.1/DTD/svg11.dtd">
<svg width="480.0" height="461.1764705882353" version="1.1"
  xmlns="http://www.w3.org/2000/svg">
<g style="stroke:black;"><rect x="0.0" y="141.1764705882353" width="94.11764705882354" height="94.11764705882354" rx="0" ry="0" style="stroke-width:1;fill:red;"/><rect x="84.51764705882354" y="188.23529411764707" width="9.6" height="9.6" rx="0" ry="0" style="stroke-width:1;fill:gray;"/><text x="47.05882352941177" y="188.23529411764707" font-size="12"><tspan x="47.05882352941177" dy="0em">f3</tspan></text><rect x="94.11764705882354" y="197.64705882352942" width="75.29411764705883" height="75.29411764705883" rx="0" ry="0" style="stroke-width:1;fill:green;"/><rect x="131.76470588235296" y="197.64705882352942" width="9.6" height="9.6" rx="0" ry="0" style="stroke-width:1;fill:gray;"/><text x="131.76470588235296" y="235.29411764705884" font-size="12"><tspan x="131.76470588235296" dy="0em">f6</tspan></text><rect x="94.11764705882354" y="141.1764705882353" width="84.70588235294117" height="56.470588235294116" rx="0" ry="0" style="stroke-width:1;fill:blue;"/><rect x="169.2235294117647" y="169.41176470588235" width="9.6" height="9.6" rx="0" ry="0" style="stroke-width:1;fill:gray;"/><text x="131.76470588235296" y="169.41176470588238" font-size="12"><tspan x="131.76470588235296" dy="0em">f7</tspan></text><rect x="254.11764705882354" y="367.05882352941177" width="94.11764705882354" height="65.88235294117648" rx="0" ry="0" style="stroke-width:1;fill:yellow;"/><rect x="338.63529411764705" y="395.29411764705884" width="9.6" height="9.6" rx="0" ry="0" style="stroke-width:1;fill:gray;"/><text x="301.1764705882353" y="395.29411764705884" font-size="12"><tspan x="301.1764705882353" dy="0em">f2</tspan></text><rect x="348.2352941176471" y="367.05882352941177" width="131.76470588235296" height="94.11764705882354" rx="0" ry="0" style="stroke-width:1;fill:brown;"/><rect x="348.2352941176471" y="414.11764705882354" width="9.6" height="9.6" rx="0" ry="0" style="stroke-width:1;fill:gray;"/><text x="414.11764705882354" y="414.11764705882354" font-size="12"><tspan x="414.11764705882354" dy="0em">f1</tspan></text><rect x="254.11764705882354" y="244.7058823529412" width="169.41176470588235" height="122.3529411764706" rx="0" ry="0" style="stroke-width:1;fill:pink;"/><rect x="254.11764705882354" y="301.1764705882353" width="9.6" height="9.6" rx="0" ry="0" style="stroke-width:1;fill:gray;"/><text x="338.8235294117647" y="301.1764705882353" font-size="12"><tspan x="338.8235294117647" dy="0em">f5</tspan></text><rect x="254.11764705882354" y="141.1764705882353" width="141.1764705882353" height="103.52941176470588" rx="0" ry="0" style="stroke-width:1;fill:cyan;"/><rect x="254.11764705882354" y="188.23529411764707" width="9.6" height="9.6" rx="0" ry="0" style="stroke-width:1;fill:gray;"/><text x="320.0" y="188.23529411764707" font-size="12"><tspan x="320.0" dy="0em">f8</tspan></text><rect x="0.0" y="0.0" width="188.23529411764707" height="141.1764705882353" rx="0" ry="0" style="stroke-width:1;fill:cornsilk;"/><rect x="94.11764705882354" y="131.5764705882353" width="9.6" height="9.6" rx="0" ry="0" style="stroke-width:1;fill:gray;"/><text x="94.11764705882354" y="65.88235294117648" font-size="12"><tspan x="94.11764705882354" dy="0em">f4</tspan></text></g></svg>