<?xml version="1.0" standalone="no"?>
<!DOCTYPE svg PUBLIC "-//W3C//DTD SVG 1.1//EN"
  "http://www.w3.org/Graphics/SVG/1.1/DTD/svg11.dtd">
<svg width="800.0" height="1185.1851851851852" version="1.1"
  xmlns="http://www.w3.org/2000/svg">
<g style="stroke:black;"><rect x="0.0" y="740.7407407407408" width="592.5925925925926" height="444.44444444444446" rx="0" ry="0" style="stroke-width:1;fill:red;"/><rect x="296.2962962962963" y="740.7407407407408" width="16.0" height="16.0" rx="0" ry="0" style="stroke-width:1;fill:gray;"/><text x="296.2962962962963" y="948.1481481481482" font-size="12"><tspan x="296.2962962962963" dy="0em">f4</tspan></text><rect x="0.0" y="0.0" width="266.6666666666667" height="148.14814814814815" rx="0" ry="0" style="stroke-width:1;fill:green;"/><rect x="118.51851851851852" y="132.14814814814815" width="16.0" height="16.0" rx="0" ry="0" style="stroke-width:1;fill:gray;"/><text x="118.51851851851852" y="59.25925925925926" font-size="12"><tspan x="118.51851851851852" dy="0em">f2</tspan></text><rect x="266.6666666666667" y="296.2962962962963" width="533.3333333333334" height="296.2962962962963" rx="0" ry="0" style="stroke-width:1;fill:blue;"/><rect x="533.3333333333334" y="296.2962962962963" width="16.0" height="16.0" rx="0" ry="0" style="stroke-width:1;fill:gray;"/><text x="533.3333333333334" y="444.44444444444446" font-size="12"><tspan x="533.3333333333334" dy="0em">f1</tspan></text><rect x="266.6666666666667" y="0.0" width="296.2962962962963" height="296.2962962962963" rx="0" ry="0" style="stroke-width:1;fill:yellow;"/><rect x="414.81481481481484" y="280.2962962962963" width="16.0" height="16.0" rx="0" ry="0" style="stroke-width:1;fill:gray;"/><text x="414.81481481481484" y="148.14814814814815" font-size="12"><tspan x="414.81481481481484" dy="0em">f3</tspan></text></g></svg>