<?xml version="1.0" standalone="no"?>
<!DOCTYPE svg PUBLIC "-//W3C//DTD SVG 1.1//EN"
  "http://www.w3.org/Graphics/SVG/1.1/DTD/svg11.dtd">
<svg width="800.0" height="857.1428571428572" version="1.1"
  xmlns="http://www.w3.org/2000/svg">
<g style="stroke:black;"><rect x="0.0" y="571.4285714285714" width="285.7142857142857" height="285.7142857142857" rx="0" ry="0" style="stroke-width:1;fill:red;"/><rect x="269.7142857142857" y="714.2857142857143" width="16.000000000000004" height="16.000000000000004" rx="0" ry="0" style="stroke-width:1;fill:gray;"/><text x="142.85714285714286" y="714.2857142857143" font-size="12"><tspan x="142.85714285714286" dy="0em">f3</tspan></text><rect x="285.7142857142857" y="571.4285714285714" width="514.2857142857143" height="285.7142857142857" rx="0" ry="0" style="stroke-width:1;fill:green;"/><rect x="285.7142857142857" y="714.2857142857143" width="16.000000000000004" height="16.000000000000004" rx="0" ry="0" style="stroke-width:1;fill:gray;"/><text x="542.8571428571429" y="714.2857142857143" font-size="12"><tspan x="542.8571428571429" dy="0em">f1</tspan></text><rect x="0.0" y="428.5714285714286" width="257.14285714285717" height="142.85714285714286" rx="0" ry="0" style="stroke-width:1;fill:blue;"/><rect x="241.14285714285714" y="485.7142857142857" width="16.000000000000004" height="16.000000000000004" rx="0" ry="0" style="stroke-width:1;fill:gray;"/><text x="114.28571428571429" y="485.7142857142858" font-size="12"><tspan x="114.28571428571429" dy="0em">f2</tspan></text><rect x="0.0" y="0.0" width="571.4285714285714" height="428.5714285714286" rx="0" ry="0" style="stroke-width:1;fill:yellow;"/><rect x="285.7142857142857" y="412.57142857142856" width="16.000000000000004" height="16.000000000000004" rx="0" ry="0" style="stroke-width:1;fill:gray;"/><text x="285.7142857142857" y="200.0" font-size="12"><tspan x="285.7142857142857" dy="0em">f4</tspan></text></g></svg>