<?xml version="1.0" standalone="no"?>
<!DOCTYPE svg PUBLIC "-//W3C//DTD SVG 1.1//EN"
  "http://www.w3.org/Graphics/SVG/1.1/DTD/svg11.dtd">
<svg width="430.8496732026144" height="640.0" version="1.1"
  xmlns="http://www.w3.org/2000/svg">
<g style="stroke:black;"><rect x="0.0" y="0.0" width="46.01307189542484" height="46.01307189542484" rx="0" ry="0" style="stroke-width:1;fill:lightgray;"/><rect x="20.915032679738562" y="37.39607843137255" width="8.616993464052289" height="8.616993464052289" rx="0" ry="0" style="stroke-width:1;fill:gray;"/><text x="20.915032679738562" y="20.915032679738562" font-size="12"><tspan x="20.915032679738562" dy="0em">f9</tspan></text><rect x="46.01307189542484" y="0.0" width="83.66013071895425" height="66.9281045751634" rx="0" ry="0" style="stroke-width:1;fill:lightgray;"/><rect x="121.05620915032681" y="33.4640522875817" width="8.616993464052289" height="8.616993464052289" rx="0" ry="0" style="stroke-width:1;fill:gray;"/><text x="87.84313725490196" y="33.4640522875817" font-size="12"><tspan x="87.84313725490196" dy="0em">f7</tspan></text><rect x="129.67320261437908" y="54.37908496732027" width="37.64705882352941" height="25.098039215686278" rx="0" ry="0" style="stroke-width:1;fill:lightgray;"/><rect x="158.7032679738562" y="66.9281045751634" width="8.616993464052289" height="8.616993464052289" rx="0" ry="0" style="stroke-width:1;fill:gray;"/><text x="146.40522875816993" y="66.9281045751634" font-size="12"><tspan x="146.40522875816993" dy="0em">f5</tspan></text><rect x="129.67320261437908" y="0.0" width="79.47712418300654" height="54.37908496732027" rx="0" ry="0" style="stroke-width:1;fill:lightgray;"/><rect x="129.67320261437908" y="25.098039215686278" width="8.616993464052289" height="8.616993464052289" rx="0" ry="0" style="stroke-width:1;fill:gray;"/><text x="167.3202614379085" y="25.098039215686278" font-size="12"><tspan x="167.3202614379085" dy="0em">f10</tspan></text><rect x="246.79738562091504" y="418.3006535947713" width="50.196078431372555" height="33.4640522875817" rx="0" ry="0" style="stroke-width:1;fill:lightgray;"/><rect x="246.79738562091504" y="435.03267973856214" width="8.616993464052289" height="8.616993464052289" rx="0" ry="0" style="stroke-width:1;fill:gray;"/><text x="271.8954248366013" y="435.03267973856214" font-size="12"><tspan x="271.8954248366013" dy="0em">f12</tspan></text><rect x="296.9934640522876" y="598.1699346405229" width="37.64705882352941" height="37.64705882352941" rx="0" ry="0" style="stroke-width:1;fill:lightgray;"/><rect x="313.72549019607845" y="598.1699346405229" width="8.616993464052289" height="8.616993464052289" rx="0" ry="0" style="stroke-width:1;fill:gray;"/><text x="313.72549019607845" y="614.9019607843138" font-size="12"><tspan x="313.72549019607845" dy="0em">f4</tspan></text><rect x="334.640522875817" y="598.1699346405229" width="62.74509803921569" height="41.830065359477125" rx="0" ry="0" style="stroke-width:1;fill:lightgray;"/><rect x="334.640522875817" y="619.0849673202615" width="8.616993464052289" height="8.616993464052289" rx="0" ry="0" style="stroke-width:1;fill:gray;"/><text x="363.921568627451" y="619.0849673202615" font-size="12"><tspan x="363.921568627451" dy="0em">f1</tspan></text><rect x="296.9934640522876" y="418.3006535947713" width="62.74509803921569" height="50.196078431372555" rx="0" ry="0" style="stroke-width:1;fill:lightgray;"/><rect x="326.2745098039216" y="418.3006535947713" width="8.616993464052289" height="8.616993464052289" rx="0" ry="0" style="stroke-width:1;fill:gray;"/><text x="326.2745098039216" y="443.3986928104576" font-size="12"><tspan x="326.2745098039216" dy="0em">f13</tspan></text><rect x="359.7385620915033" y="501.9607843137255" width="33.4640522875817" height="20.915032679738562" rx="0" ry="0" style="stroke-width:1;fill:lightgray;"/><rect x="359.7385620915033" y="510.3267973856209" width="8.616993464052289" height="8.616993464052289" rx="0" ry="0" style="stroke-width:1;fill:gray;"/><text x="376.47058823529414" y="510.326797385621" font-size="12"><tspan x="376.47058823529414" dy="0em">f18</tspan></text><rect x="393.202614379085" y="501.9607843137255" width="37.64705882352941" height="25.098039215686278" rx="0" ry="0" style="stroke-width:1;fill:lightgray;"/><rect x="422.2326797385621" y="514.5098039215686" width="8.616993464052289" height="8.616993464052289" rx="0" ry="0" style="stroke-width:1;fill:gray;"/><text x="409.93464052287584" y="514.5098039215686" font-size="12"><tspan x="409.93464052287584" dy="0em">f15</tspan></text><rect x="359.7385620915033" y="451.764705882353" width="62.74509803921569" height="50.196078431372555" rx="0" ry="0" style="stroke-width:1;fill:lightgray;"/><rect x="359.7385620915033" y="476.8627450980392" width="8.616993464052289" height="8.616993464052289" rx="0" ry="0" style="stroke-width:1;fill:gray;"/><text x="389.0196078431373" y="476.8627450980393" font-size="12"><tspan x="389.0196078431373" dy="0em">f3</tspan></text><rect x="359.7385620915033" y="418.3006535947713" width="50.196078431372555" height="33.4640522875817" rx="0" ry="0" style="stroke-width:1;fill:lightgray;"/><rect x="384.83660130718954" y="418.3006535947713" width="8.616993464052289" height="8.616993464052289" rx="0" ry="0" style="stroke-width:1;fill:gray;"/><text x="384.8366013071896" y="435.03267973856214" font-size="12"><tspan x="384.8366013071896" dy="0em">f2</tspan></text><rect x="246.79738562091504" y="351.37254901960785" width="83.66013071895425" height="66.9281045751634" rx="0" ry="0" style="stroke-width:1;fill:lightgray;"/><rect x="288.62745098039215" y="351.37254901960785" width="8.616993464052289" height="8.616993464052289" rx="0" ry="0" style="stroke-width:1;fill:gray;"/><text x="288.62745098039215" y="384.83660130718954" font-size="12"><tspan x="288.62745098039215" dy="0em">f17</tspan></text><rect x="246.79738562091504" y="296.9934640522876" width="79.47712418300654" height="54.37908496732027" rx="0" ry="0" style="stroke-width:1;fill:lightgray;"/><rect x="284.44444444444446" y="342.7555555555556" width="8.616993464052289" height="8.616993464052289" rx="0" ry="0" style="stroke-width:1;fill:gray;"/><text x="284.44444444444446" y="322.0915032679739" font-size="12"><tspan x="284.44444444444446" dy="0em">f20</tspan></text><rect x="246.79738562091504" y="276.07843137254906" width="33.4640522875817" height="20.915032679738562" rx="0" ry="0" style="stroke-width:1;fill:lightgray;"/><rect x="246.79738562091504" y="284.44444444444446" width="8.616993464052289" height="8.616993464052289" rx="0" ry="0" style="stroke-width:1;fill:gray;"/><text x="263.5294117647059" y="284.4444444444445" font-size="12"><tspan x="263.5294117647059" dy="0em">f8</tspan></text><rect x="246.79738562091504" y="234.24836601307192" width="62.74509803921569" height="41.830065359477125" rx="0" ry="0" style="stroke-width:1;fill:lightgray;"/><rect x="276.07843137254906" y="234.24836601307192" width="8.616993464052289" height="8.616993464052289" rx="0" ry="0" style="stroke-width:1;fill:gray;"/><text x="276.078431372549" y="255.1633986928105" font-size="12"><tspan x="276.078431372549" dy="0em">f11</tspan></text><rect x="246.79738562091504" y="158.95424836601308" width="104.57516339869282" height="75.29411764705883" rx="0" ry="0" style="stroke-width:1;fill:lightgray;"/><rect x="246.79738562091504" y="196.6013071895425" width="8.616993464052289" height="8.616993464052289" rx="0" ry="0" style="stroke-width:1;fill:gray;"/><text x="296.9934640522876" y="196.6013071895425" font-size="12"><tspan x="296.9934640522876" dy="0em">f6</tspan></text><rect x="246.79738562091504" y="83.66013071895425" width="104.57516339869282" height="75.29411764705883" rx="0" ry="0" style="stroke-width:1;fill:lightgray;"/><rect x="342.7555555555556" y="121.30718954248367" width="8.616993464052289" height="8.616993464052289" rx="0" ry="0" style="stroke-width:1;fill:gray;"/><text x="296.9934640522876" y="121.30718954248366" font-size="12"><tspan x="296.9934640522876" dy="0em">f16</tspan></text><rect x="246.79738562091504" y="46.01307189542484" width="37.64705882352941" height="37.64705882352941" rx="0" ry="0" style="stroke-width:1;fill:lightgray;"/><rect x="263.5294117647059" y="46.01307189542484" width="8.616993464052289" height="8.616993464052289" rx="0" ry="0" style="stroke-width:1;fill:gray;"/><text x="263.5294117647059" y="62.74509803921569" font-size="12"><tspan x="263.5294117647059" dy="0em">f14</tspan></text><rect x="246.79738562091504" y="0.0" width="46.01307189542484" height="46.01307189542484" rx="0" ry="0" style="stroke-width:1;fill:lightgray;"/><rect x="267.7124183006536" y="37.39607843137255" width="8.616993464052289" height="8.616993464052289" rx="0" ry="0" style="stroke-width:1;fill:gray;"/><text x="267.7124183006536" y="20.915032679738562" font-size="12"><tspan x="267.7124183006536" dy="0em">f19</tspan></text></g></svg>