<?xml version="1.0" standalone="no"?>
<!DOCTYPE svg PUBLIC "-//W3C//DTD SVG 1.1//EN"
  "http://www.w3.org/Graphics/SVG/1.1/DTD/svg11.dtd">
<svg width="480.0" height="158.29787234042553" version="1.1"
  xmlns="http://www.w3.org/2000/svg">
<g style="stroke:black;"><rect x="0.0" y="107.2340425531915" width="45.95744680851064" height="30.638297872340427" rx="0" ry="0" style="stroke-width:1;fill:lightgray;"/><rect x="20.425531914893618" y="107.2340425531915" width="9.6" height="9.6" rx="0" ry="0" style="stroke-width:1;fill:gray;"/><text x="20.425531914893618" y="122.55319148936171" font-size="12"><tspan x="20.425531914893618" dy="0em">f7</tspan></text><rect x="45.95744680851064" y="107.2340425531915" width="71.48936170212767" height="51.06382978723404" rx="0" ry="0" style="stroke-width:1;fill:lightgray;"/><rect x="107.84680851063831" y="132.76595744680853" width="9.6" height="9.6" rx="0" ry="0" style="stroke-width:1;fill:gray;"/><text x="81.70212765957447" y="132.76595744680853" font-size="12"><tspan x="81.70212765957447" dy="0em">f1</tspan></text><rect x="117.4468085106383" y="107.2340425531915" width="40.851063829787236" height="40.851063829787236" rx="0" ry="0" style="stroke-width:1;fill:lightgray;"/><rect x="137.87234042553192" y="107.2340425531915" width="9.6" height="9.6" rx="0" ry="0" style="stroke-width:1;fill:gray;"/><text x="137.87234042553192" y="127.65957446808511" font-size="12"><tspan x="137.87234042553192" dy="0em">f6</tspan></text><rect x="0.0" y="51.06382978723404" width="76.59574468085107" height="56.17021276595745" rx="0" ry="0" style="stroke-width:1;fill:lightgray;"/><rect x="35.74468085106383" y="97.6340425531915" width="9.6" height="9.6" rx="0" ry="0" style="stroke-width:1;fill:gray;"/><text x="35.74468085106383" y="76.59574468085106" font-size="12"><tspan x="35.74468085106383" dy="0em">f8</tspan></text><rect x="234.8936170212766" y="51.06382978723404" width="102.12765957446808" height="76.59574468085107" rx="0" ry="0" style="stroke-width:1;fill:lightgray;"/><rect x="234.8936170212766" y="86.80851063829788" width="9.6" height="9.6" rx="0" ry="0" style="stroke-width:1;fill:gray;"/><text x="285.95744680851067" y="86.80851063829788" font-size="12"><tspan x="285.95744680851067" dy="0em">f4</tspan></text><rect x="337.0212765957447" y="51.06382978723404" width="91.91489361702128" height="66.38297872340426" rx="0" ry="0" style="stroke-width:1;fill:lightgray;"/><rect x="337.0212765957447" y="81.70212765957447" width="9.6" height="9.6" rx="0" ry="0" style="stroke-width:1;fill:gray;"/><text x="382.97872340425533" y="81.70212765957447" font-size="12"><tspan x="382.97872340425533" dy="0em">f5</tspan></text><rect x="428.936170212766" y="51.06382978723404" width="51.06382978723404" height="35.74468085106383" rx="0" ry="0" style="stroke-width:1;fill:lightgray;"/><rect x="428.936170212766" y="66.38297872340426" width="9.6" height="9.6" rx="0" ry="0" style="stroke-width:1;fill:gray;"/><text x="454.468085106383" y="66.38297872340425" font-size="12"><tspan x="454.468085106383" dy="0em">f2</tspan></text><rect x="0.0" y="0.0" width="51.06382978723404" height="51.06382978723404" rx="0" ry="0" style="stroke-width:1;fill:lightgray;"/><rect x="41.46382978723405" y="25.53191489361702" width="9.6" height="9.6" rx="0" ry="0" style="stroke-width:1;fill:gray;"/><text x="25.53191489361702" y="25.53191489361702" font-size="12"><tspan x="25.53191489361702" dy="0em">f3</tspan></text></g></svg>