<?xml version="1.0" standalone="no"?>
<!DOCTYPE svg PUBLIC "-//W3C//DTD SVG 1.1//EN"
  "http://www.w3.org/Graphics/SVG/1.1/DTD/svg11.dtd">
<svg width="415.1351351351351" height="640.0" version="1.1"
  xmlns="http://www.w3.org/2000/svg">
<g style="stroke:black;"><rect x="0.0" y="0.0" width="51.89189189189189" height="40.36036036036036" rx="0" ry="0" style="stroke-width:1;fill:lightgray;"/><rect x="43.58918918918919" y="17.2972972972973" width="8.302702702702701" height="8.302702702702701" rx="0" ry="0" style="stroke-width:1;fill:gray;"/><text x="23.063063063063062" y="17.2972972972973" font-size="12"><tspan x="23.063063063063062" dy="0em">f1</tspan></text><rect x="51.89189189189189" y="576.5765765765766" width="86.48648648648648" height="63.42342342342342" rx="0" ry="0" style="stroke-width:1;fill:lightgray;"/><rect x="92.25225225225225" y="576.5765765765766" width="8.302702702702701" height="8.302702702702701" rx="0" ry="0" style="stroke-width:1;fill:gray;"/><text x="92.25225225225225" y="605.4054054054054" font-size="12"><tspan x="92.25225225225225" dy="0em">f8</tspan></text><rect x="51.89189189189189" y="305.5855855855856" width="69.1891891891892" height="57.65765765765765" rx="0" ry="0" style="stroke-width:1;fill:lightgray;"/><rect x="86.48648648648648" y="305.5855855855856" width="8.302702702702701" height="8.302702702702701" rx="0" ry="0" style="stroke-width:1;fill:gray;"/><text x="86.48648648648648" y="334.4144144144144" font-size="12"><tspan x="86.48648648648648" dy="0em">f3</tspan></text><rect x="121.08108108108108" y="363.2432432432432" width="57.65765765765765" height="46.126126126126124" rx="0" ry="0" style="stroke-width:1;fill:lightgray;"/><rect x="149.9099099099099" y="363.2432432432432" width="8.302702702702701" height="8.302702702702701" rx="0" ry="0" style="stroke-width:1;fill:gray;"/><text x="149.9099099099099" y="386.3063063063063" font-size="12"><tspan x="149.9099099099099" dy="0em">f6</tspan></text><rect x="121.08108108108108" y="305.5855855855856" width="57.65765765765765" height="57.65765765765765" rx="0" ry="0" style="stroke-width:1;fill:lightgray;"/><rect x="149.9099099099099" y="354.94054054054055" width="8.302702702702701" height="8.302702702702701" rx="0" ry="0" style="stroke-width:1;fill:gray;"/><text x="149.9099099099099" y="334.4144144144144" font-size="12"><tspan x="149.9099099099099" dy="0em">f10</tspan></text><rect x="236.3963963963964" y="305.5855855855856" width="46.126126126126124" height="46.126126126126124" rx="0" ry="0" style="stroke-width:1;fill:lightgray;"/><rect x="236.3963963963964" y="328.64864864864865" width="8.302702702702701" height="8.302702702702701" rx="0" ry="0" style="stroke-width:1;fill:gray;"/><text x="259.4594594594595" y="328.64864864864865" font-size="12"><tspan x="259.4594594594595" dy="0em">f4</tspan></text><rect x="51.89189189189189" y="253.6936936936937" width="69.1891891891892" height="51.89189189189189" rx="0" ry="0" style="stroke-width:1;fill:lightgray;"/><rect x="86.48648648648648" y="253.6936936936937" width="8.302702702702701" height="8.302702702702701" rx="0" ry="0" style="stroke-width:1;fill:gray;"/><text x="86.48648648648648" y="276.7567567567568" font-size="12"><tspan x="86.48648648648648" dy="0em">f9</tspan></text><rect x="351.7117117117117" y="253.6936936936937" width="63.42342342342342" height="63.42342342342342" rx="0" ry="0" style="stroke-width:1;fill:lightgray;"/><rect x="351.7117117117117" y="282.52252252252254" width="8.302702702702701" height="8.302702702702701" rx="0" ry="0" style="stroke-width:1;fill:gray;"/><text x="380.5405405405405" y="282.52252252252254" font-size="12"><tspan x="380.5405405405405" dy="0em">f11</tspan></text><rect x="51.89189189189189" y="57.65765765765765" width="69.1891891891892" height="69.1891891891892" rx="0" ry="0" style="stroke-width:1;fill:lightgray;"/><rect x="86.48648648648648" y="118.54414414414413" width="8.302702702702701" height="8.302702702702701" rx="0" ry="0" style="stroke-width:1;fill:gray;"/><text x="86.48648648648648" y="92.25225225225225" font-size="12"><tspan x="86.48648648648648" dy="0em">f5</tspan></text><rect x="51.89189189189189" y="0.0" width="80.72072072072072" height="57.65765765765765" rx="0" ry="0" style="stroke-width:1;fill:lightgray;"/><rect x="92.25225225225225" y="49.354954954954955" width="8.302702702702701" height="8.302702702702701" rx="0" ry="0" style="stroke-width:1;fill:gray;"/><text x="92.25225225225225" y="28.828828828828826" font-size="12"><tspan x="92.25225225225225" dy="0em">f2</tspan></text><rect x="201.8018018018018" y="0.0" width="115.3153153153153" height="80.72072072072072" rx="0" ry="0" style="stroke-width:1;fill:lightgray;"/><rect x="308.8144144144144" y="40.36036036036036" width="8.302702702702701" height="8.302702702702701" rx="0" ry="0" style="stroke-width:1;fill:gray;"/><text x="259.4594594594594" y="40.36036036036036" font-size="12"><tspan x="259.4594594594594" dy="0em">f7</tspan></text><rect x="317.1171171171171" y="0.0" width="69.1891891891892" height="46.126126126126124" rx="0" ry="0" style="stroke-width:1;fill:lightgray;"/><rect x="317.1171171171171" y="23.063063063063062" width="8.302702702702701" height="8.302702702702701" rx="0" ry="0" style="stroke-width:1;fill:gray;"/><text x="351.7117117117117" y="23.063063063063062" font-size="12"><tspan x="351.7117117117117" dy="0em">f12</tspan></text></g></svg>