<?xml version="1.0" standalone="no"?>
<!DOCTYPE svg PUBLIC "-//W3C//DTD SVG 1.1//EN"
  "http://www.w3.org/Graphics/SVG/1.1/DTD/svg11.dtd">
<svg width="480.0" height="472.94117647058823" version="1.1"
  xmlns="http://www.w3.org/2000/svg">
<g style="stroke:black;"><rect x="0.0" y="169.41176470588235" width="56.470588235294116" height="56.470588235294116" rx="0" ry="0" style="stroke-width:1;fill:lightgray;"/><rect x="46.870588235294115" y="197.6470588235294" width="9.6" height="9.6" rx="0" ry="0" style="stroke-width:1;fill:gray;"/><text x="28.235294117647058" y="197.6470588235294" font-size="12"><tspan x="28.235294117647058" dy="0em">f4</tspan></text><rect x="56.470588235294116" y="169.41176470588235" width="84.70588235294117" height="70.58823529411765" rx="0" ry="0" style="stroke-width:1;fill:lightgray;"/><rect x="131.57647058823528" y="204.70588235294116" width="9.6" height="9.6" rx="0" ry="0" style="stroke-width:1;fill:gray;"/><text x="98.8235294117647" y="204.70588235294116" font-size="12"><tspan x="98.8235294117647" dy="0em">f3</tspan></text><rect x="141.1764705882353" y="331.7647058823529" width="70.58823529411765" height="70.58823529411765" rx="0" ry="0" style="stroke-width:1;fill:lightgray;"/><rect x="176.47058823529412" y="331.7647058823529" width="9.6" height="9.6" rx="0" ry="0" style="stroke-width:1;fill:gray;"/><text x="176.47058823529414" y="367.05882352941177" font-size="12"><tspan x="176.47058823529414" dy="0em">f10</tspan></text><rect x="211.76470588235293" y="331.7647058823529" width="84.70588235294117" height="84.70588235294117" rx="0" ry="0" style="stroke-width:1;fill:lightgray;"/><rect x="254.11764705882354" y="331.7647058823529" width="9.6" height="9.6" rx="0" ry="0" style="stroke-width:1;fill:gray;"/><text x="254.1176470588235" y="374.11764705882354" font-size="12"><tspan x="254.1176470588235" dy="0em">f5</tspan></text><rect x="296.4705882352941" y="395.2941176470588" width="77.6470588235294" height="77.6470588235294" rx="0" ry="0" style="stroke-width:1;fill:lightgray;"/><rect x="331.7647058823529" y="395.2941176470588" width="9.6" height="9.6" rx="0" ry="0" style="stroke-width:1;fill:gray;"/><text x="331.7647058823529" y="430.5882352941176" font-size="12"><tspan x="331.7647058823529" dy="0em">f11</tspan></text><rect x="374.11764705882354" y="395.2941176470588" width="105.88235294117646" height="77.6470588235294" rx="0" ry="0" style="stroke-width:1;fill:lightgray;"/><rect x="374.11764705882354" y="430.5882352941176" width="9.6" height="9.6" rx="0" ry="0" style="stroke-width:1;fill:gray;"/><text x="423.52941176470586" y="430.5882352941176" font-size="12"><tspan x="423.52941176470586" dy="0em">f8</tspan></text><rect x="296.4705882352941" y="331.7647058823529" width="84.70588235294117" height="63.529411764705884" rx="0" ry="0" style="stroke-width:1;fill:lightgray;"/><rect x="296.4705882352941" y="360.0" width="9.6" height="9.6" rx="0" ry="0" style="stroke-width:1;fill:gray;"/><text x="338.8235294117647" y="360.0" font-size="12"><tspan x="338.8235294117647" dy="0em">f9</tspan></text><rect x="141.1764705882353" y="275.29411764705884" width="70.58823529411765" height="56.470588235294116" rx="0" ry="0" style="stroke-width:1;fill:lightgray;"/><rect x="176.47058823529412" y="322.16470588235296" width="9.6" height="9.6" rx="0" ry="0" style="stroke-width:1;fill:gray;"/><text x="176.47058823529414" y="303.5294117647059" font-size="12"><tspan x="176.47058823529414" dy="0em">f6</tspan></text><rect x="141.1764705882353" y="225.88235294117646" width="63.529411764705884" height="49.41176470588235" rx="0" ry="0" style="stroke-width:1;fill:lightgray;"/><rect x="169.41176470588235" y="225.88235294117646" width="9.6" height="9.6" rx="0" ry="0" style="stroke-width:1;fill:gray;"/><text x="169.41176470588238" y="247.05882352941177" font-size="12"><tspan x="169.41176470588238" dy="0em">f1</tspan></text><rect x="141.1764705882353" y="169.41176470588235" width="84.70588235294117" height="56.470588235294116" rx="0" ry="0" style="stroke-width:1;fill:lightgray;"/><rect x="141.1764705882353" y="197.6470588235294" width="9.6" height="9.6" rx="0" ry="0" style="stroke-width:1;fill:gray;"/><text x="183.52941176470588" y="197.6470588235294" font-size="12"><tspan x="183.52941176470588" dy="0em">f12</tspan></text><rect x="0.0" y="98.8235294117647" width="98.8235294117647" height="70.58823529411765" rx="0" ry="0" style="stroke-width:1;fill:lightgray;"/><rect x="89.2235294117647" y="134.11764705882354" width="9.6" height="9.6" rx="0" ry="0" style="stroke-width:1;fill:gray;"/><text x="49.41176470588235" y="134.11764705882354" font-size="12"><tspan x="49.41176470588235" dy="0em">f2</tspan></text><rect x="0.0" y="0.0" width="141.1764705882353" height="98.8235294117647" rx="0" ry="0" style="stroke-width:1;fill:lightgray;"/><rect x="70.58823529411765" y="89.2235294117647" width="9.6" height="9.6" rx="0" ry="0" style="stroke-width:1;fill:gray;"/><text x="70.58823529411765" y="49.41176470588235" font-size="12"><tspan x="70.58823529411765" dy="0em">f7</tspan></text></g></svg>