<?xml version="1.0" standalone="no"?>
<!DOCTYPE svg PUBLIC "-//W3C//DTD SVG 1.1//EN"
  "http://www.w3.org/Graphics/SVG/1.1/DTD/svg11.dtd">
<svg width="480.0" height="87.27272727272728" version="1.1"
  xmlns="http://www.w3.org/2000/svg">
<g style="stroke:black;"><rect x="0.0" y="0.0" width="36.92307692307692" height="36.92307692307692" rx="0" ry="0" style="stroke-width:1;fill:lightgray;"/><rect x="27.323076923076925" y="16.783216783216783" width="9.6" height="9.6" rx="0" ry="0" style="stroke-width:1;fill:gray;"/><text x="16.783216783216783" y="16.783216783216783" font-size="12"><tspan x="16.783216783216783" dy="0em">f9</tspan></text><rect x="36.92307692307692" y="0.0" width="83.91608391608392" height="60.41958041958042" rx="0" ry="0" style="stroke-width:1;fill:lightgray;"/><rect x="111.23916083916085" y="30.20979020979021" width="9.6" height="9.6" rx="0" ry="0" style="stroke-width:1;fill:gray;"/><text x="77.2027972027972" y="30.20979020979021" font-size="12"><tspan x="77.2027972027972" dy="0em">f6</tspan></text><rect x="120.83916083916084" y="53.70629370629371" width="50.34965034965035" height="33.56643356643357" rx="0" ry="0" style="stroke-width:1;fill:lightgray;"/><rect x="144.33566433566435" y="53.70629370629371" width="9.6" height="9.6" rx="0" ry="0" style="stroke-width:1;fill:gray;"/><text x="144.33566433566435" y="70.4895104895105" font-size="12"><tspan x="144.33566433566435" dy="0em">f1</tspan></text><rect x="171.1888111888112" y="53.70629370629371" width="30.20979020979021" height="30.20979020979021" rx="0" ry="0" style="stroke-width:1;fill:lightgray;"/><rect x="171.1888111888112" y="67.13286713286713" width="9.6" height="9.6" rx="0" ry="0" style="stroke-width:1;fill:gray;"/><text x="184.61538461538464" y="67.13286713286713" font-size="12"><tspan x="184.61538461538464" dy="0em">f4</tspan></text><rect x="120.83916083916084" y="0.0" width="67.13286713286713" height="53.70629370629371" rx="0" ry="0" style="stroke-width:1;fill:lightgray;"/><rect x="178.37202797202798" y="26.853146853146853" width="9.6" height="9.6" rx="0" ry="0" style="stroke-width:1;fill:gray;"/><text x="154.4055944055944" y="26.853146853146853" font-size="12"><tspan x="154.4055944055944" dy="0em">f7</tspan></text><rect x="268.53146853146853" y="0.0" width="30.20979020979021" height="20.13986013986014" rx="0" ry="0" style="stroke-width:1;fill:lightgray;"/><rect x="268.53146853146853" y="10.06993006993007" width="9.6" height="9.6" rx="0" ry="0" style="stroke-width:1;fill:gray;"/><text x="281.958041958042" y="10.06993006993007" font-size="12"><tspan x="281.958041958042" dy="0em">f5</tspan></text><rect x="298.7412587412587" y="0.0" width="26.853146853146853" height="16.783216783216783" rx="0" ry="0" style="stroke-width:1;fill:lightgray;"/><rect x="298.7412587412587" y="6.713286713286713" width="9.6" height="9.6" rx="0" ry="0" style="stroke-width:1;fill:gray;"/><text x="312.16783216783216" y="6.713286713286713" font-size="12"><tspan x="312.16783216783216" dy="0em">f8</tspan></text><rect x="325.5944055944056" y="40.27972027972028" width="63.77622377622377" height="43.63636363636364" rx="0" ry="0" style="stroke-width:1;fill:lightgray;"/><rect x="325.5944055944056" y="60.41958041958042" width="9.6" height="9.6" rx="0" ry="0" style="stroke-width:1;fill:gray;"/><text x="355.8041958041958" y="60.41958041958042" font-size="12"><tspan x="355.8041958041958" dy="0em">f10</tspan></text><rect x="325.5944055944056" y="0.0" width="50.34965034965035" height="40.27972027972028" rx="0" ry="0" style="stroke-width:1;fill:lightgray;"/><rect x="325.5944055944056" y="20.13986013986014" width="9.6" height="9.6" rx="0" ry="0" style="stroke-width:1;fill:gray;"/><text x="349.0909090909091" y="20.13986013986014" font-size="12"><tspan x="349.0909090909091" dy="0em">f3</tspan></text><rect x="439.72027972027973" y="0.0" width="40.27972027972028" height="26.853146853146853" rx="0" ry="0" style="stroke-width:1;fill:lightgray;"/><rect x="439.72027972027973" y="13.426573426573427" width="9.6" height="9.6" rx="0" ry="0" style="stroke-width:1;fill:gray;"/><text x="459.8601398601399" y="13.426573426573427" font-size="12"><tspan x="459.8601398601399" dy="0em">f2</tspan></text></g></svg>