<?xml version="1.0" standalone="no"?>
<!DOCTYPE svg PUBLIC "-//W3C//DTD SVG 1.1//EN"
  "http://www.w3.org/Graphics/SVG/1.1/DTD/svg11.dtd">
<svg width="509.8305084745763" height="640.0" version="1.1"
  xmlns="http://www.w3.org/2000/svg">
<g style="stroke:black;"><rect x="0.0" y="390.50847457627117" width="216.94915254237287" height="162.71186440677965" rx="0" ry="0" style="stroke-width:1;fill:lightgray;"/><rect x="108.47457627118644" y="390.50847457627117" width="10.196610169491525" height="10.196610169491525" rx="0" ry="0" style="stroke-width:1;fill:gray;"/><text x="108.47457627118644" y="466.4406779661017" font-size="12"><tspan x="108.47457627118644" dy="0em">f4</tspan></text><rect x="216.94915254237287" y="390.50847457627117" width="97.62711864406779" height="65.08474576271186" rx="0" ry="0" style="stroke-width:1;fill:lightgray;"/><rect x="216.94915254237287" y="423.0508474576271" width="10.196610169491525" height="10.196610169491525" rx="0" ry="0" style="stroke-width:1;fill:gray;"/><text x="260.33898305084745" y="423.0508474576271" font-size="12"><tspan x="260.33898305084745" dy="0em">f7</tspan></text><rect x="314.57627118644064" y="498.9830508474576" width="195.25423728813558" height="141.01694915254237" rx="0" ry="0" style="stroke-width:1;fill:lightgray;"/><rect x="314.57627118644064" y="564.0677966101695" width="10.196610169491525" height="10.196610169491525" rx="0" ry="0" style="stroke-width:1;fill:gray;"/><text x="412.2033898305084" y="564.0677966101695" font-size="12"><tspan x="412.2033898305084" dy="0em">f5</tspan></text><rect x="314.57627118644064" y="390.50847457627117" width="108.47457627118644" height="108.47457627118644" rx="0" ry="0" style="stroke-width:1;fill:lightgray;"/><rect x="368.8135593220339" y="390.50847457627117" width="10.196610169491525" height="10.196610169491525" rx="0" ry="0" style="stroke-width:1;fill:gray;"/><text x="368.8135593220338" y="444.74576271186436" font-size="12"><tspan x="368.8135593220338" dy="0em">f3</tspan></text><rect x="0.0" y="75.9322033898305" width="162.71186440677965" height="119.32203389830508" rx="0" ry="0" style="stroke-width:1;fill:lightgray;"/><rect x="75.9322033898305" y="185.05762711864404" width="10.196610169491525" height="10.196610169491525" rx="0" ry="0" style="stroke-width:1;fill:gray;"/><text x="75.9322033898305" y="130.16949152542372" font-size="12"><tspan x="75.9322033898305" dy="0em">f8</tspan></text><rect x="0.0" y="0.0" width="108.47457627118644" height="75.9322033898305" rx="0" ry="0" style="stroke-width:1;fill:lightgray;"/><rect x="98.27796610169491" y="32.54237288135593" width="10.196610169491525" height="10.196610169491525" rx="0" ry="0" style="stroke-width:1;fill:gray;"/><text x="54.23728813559322" y="32.54237288135593" font-size="12"><tspan x="54.23728813559322" dy="0em">f2</tspan></text><rect x="271.18644067796606" y="86.77966101694915" width="151.864406779661" height="108.47457627118644" rx="0" ry="0" style="stroke-width:1;fill:lightgray;"/><rect x="271.18644067796606" y="141.01694915254237" width="10.196610169491525" height="10.196610169491525" rx="0" ry="0" style="stroke-width:1;fill:gray;"/><text x="347.1186440677966" y="141.01694915254237" font-size="12"><tspan x="347.1186440677966" dy="0em">f1</tspan></text><rect x="271.18644067796606" y="0.0" width="86.77966101694915" height="86.77966101694915" rx="0" ry="0" style="stroke-width:1;fill:lightgray;"/><rect x="314.57627118644064" y="76.58305084745763" width="10.196610169491525" height="10.196610169491525" rx="0" ry="0" style="stroke-width:1;fill:gray;"/><text x="314.57627118644064" y="43.389830508474574" font-size="12"><tspan x="314.57627118644064" dy="0em">f6</tspan></text></g></svg>