<?xml version="1.0" standalone="no"?>
<!DOCTYPE svg PUBLIC "-//W3C//DTD SVG 1.1//EN"
  "http://www.w3.org/Graphics/SVG/1.1/DTD/svg11.dtd">
<svg width="163.33333333333334" height="640.0" version="1.1"
  xmlns="http://www.w3.org/2000/svg">
<g style="stroke:black;"><rect x="0.0" y="550.0" width="83.33333333333334" height="60.0" rx="0" ry="0" style="stroke-width:1;fill:lightgray;"/><rect x="80.06666666666666" y="580.0" width="3.2666666666666666" height="3.2666666666666666" rx="0" ry="0" style="stroke-width:1;fill:gray;"/><text x="40.0" y="580.0" font-size="12"><tspan x="40.0" dy="0em">f6</tspan></text><rect x="83.33333333333334" y="550.0" width="30.0" height="20.0" rx="0" ry="0" style="stroke-width:1;fill:lightgray;"/><rect x="96.66666666666667" y="566.7333333333333" width="3.2666666666666666" height="3.2666666666666666" rx="0" ry="0" style="stroke-width:1;fill:gray;"/><text x="96.66666666666667" y="560.0" font-size="12"><tspan x="96.66666666666667" dy="0em">f5</tspan></text><rect x="113.33333333333334" y="600.0" width="50.0" height="40.0" rx="0" ry="0" style="stroke-width:1;fill:lightgray;"/><rect x="113.33333333333334" y="620.0" width="3.2666666666666666" height="3.2666666666666666" rx="0" ry="0" style="stroke-width:1;fill:gray;"/><text x="136.66666666666669" y="620.0" font-size="12"><tspan x="136.66666666666669" dy="0em">f3</tspan></text><rect x="113.33333333333334" y="583.3333333333334" width="26.666666666666668" height="16.666666666666668" rx="0" ry="0" style="stroke-width:1;fill:lightgray;"/><rect x="113.33333333333334" y="590.0" width="3.2666666666666666" height="3.2666666666666666" rx="0" ry="0" style="stroke-width:1;fill:gray;"/><text x="126.66666666666667" y="590.0" font-size="12"><tspan x="126.66666666666667" dy="0em">f8</tspan></text><rect x="113.33333333333334" y="550.0" width="50.0" height="33.333333333333336" rx="0" ry="0" style="stroke-width:1;fill:lightgray;"/><rect x="113.33333333333334" y="566.6666666666667" width="3.2666666666666666" height="3.2666666666666666" rx="0" ry="0" style="stroke-width:1;fill:gray;"/><text x="136.66666666666669" y="566.6666666666666" font-size="12"><tspan x="136.66666666666669" dy="0em">f1</tspan></text><rect x="0.0" y="520.0" width="30.0" height="30.0" rx="0" ry="0" style="stroke-width:1;fill:lightgray;"/><rect x="26.733333333333334" y="533.3333333333334" width="3.2666666666666666" height="3.2666666666666666" rx="0" ry="0" style="stroke-width:1;fill:gray;"/><text x="13.333333333333334" y="533.3333333333334" font-size="12"><tspan x="13.333333333333334" dy="0em">f4</tspan></text><rect x="0.0" y="456.6666666666667" width="40.0" height="26.666666666666668" rx="0" ry="0" style="stroke-width:1;fill:lightgray;"/><rect x="36.733333333333334" y="470.0" width="3.2666666666666666" height="3.2666666666666666" rx="0" ry="0" style="stroke-width:1;fill:gray;"/><text x="20.0" y="470.0" font-size="12"><tspan x="20.0" dy="0em">f2</tspan></text><rect x="40.0" y="456.6666666666667" width="36.66666666666667" height="36.66666666666667" rx="0" ry="0" style="stroke-width:1;fill:lightgray;"/><rect x="56.66666666666667" y="490.0666666666667" width="3.2666666666666666" height="3.2666666666666666" rx="0" ry="0" style="stroke-width:1;fill:gray;"/><text x="56.66666666666667" y="473.33333333333337" font-size="12"><tspan x="56.66666666666667" dy="0em">f9</tspan></text><rect x="0.0" y="413.33333333333337" width="63.333333333333336" height="43.333333333333336" rx="0" ry="0" style="stroke-width:1;fill:lightgray;"/><rect x="60.06666666666667" y="433.33333333333337" width="3.2666666666666666" height="3.2666666666666666" rx="0" ry="0" style="stroke-width:1;fill:gray;"/><text x="30.0" y="433.33333333333337" font-size="12"><tspan x="30.0" dy="0em">f10</tspan></text><rect x="0.0" y="263.33333333333337" width="63.333333333333336" height="43.333333333333336" rx="0" ry="0" style="stroke-width:1;fill:lightgray;"/><rect x="60.06666666666667" y="283.33333333333337" width="3.2666666666666666" height="3.2666666666666666" rx="0" ry="0" style="stroke-width:1;fill:gray;"/><text x="30.0" y="283.33333333333337" font-size="12"><tspan x="30.0" dy="0em">f20</tspan></text><rect x="63.333333333333336" y="316.6666666666667" width="66.66666666666667" height="53.333333333333336" rx="0" ry="0" style="stroke-width:1;fill:lightgray;"/><rect x="96.66666666666667" y="366.73333333333335" width="3.2666666666666666" height="3.2666666666666666" rx="0" ry="0" style="stroke-width:1;fill:gray;"/><text x="96.66666666666667" y="343.33333333333337" font-size="12"><tspan x="96.66666666666667" dy="0em">f7</tspan></text><rect x="63.333333333333336" y="263.33333333333337" width="66.66666666666667" height="53.333333333333336" rx="0" ry="0" style="stroke-width:1;fill:lightgray;"/><rect x="63.333333333333336" y="290.0" width="3.2666666666666666" height="3.2666666666666666" rx="0" ry="0" style="stroke-width:1;fill:gray;"/><text x="96.66666666666667" y="290.00000000000006" font-size="12"><tspan x="96.66666666666667" dy="0em">f17</tspan></text><rect x="0.0" y="153.33333333333334" width="50.0" height="40.0" rx="0" ry="0" style="stroke-width:1;fill:lightgray;"/><rect x="46.733333333333334" y="173.33333333333334" width="3.2666666666666666" height="3.2666666666666666" rx="0" ry="0" style="stroke-width:1;fill:gray;"/><text x="23.333333333333336" y="173.33333333333334" font-size="12"><tspan x="23.333333333333336" dy="0em">f13</tspan></text><rect x="50.0" y="153.33333333333334" width="36.66666666666667" height="36.66666666666667" rx="0" ry="0" style="stroke-width:1;fill:lightgray;"/><rect x="50.0" y="170.0" width="3.2666666666666666" height="3.2666666666666666" rx="0" ry="0" style="stroke-width:1;fill:gray;"/><text x="66.66666666666667" y="170.0" font-size="12"><tspan x="66.66666666666667" dy="0em">f19</tspan></text><rect x="86.66666666666667" y="153.33333333333334" width="50.0" height="33.333333333333336" rx="0" ry="0" style="stroke-width:1;fill:lightgray;"/><rect x="110.0" y="153.33333333333334" width="3.2666666666666666" height="3.2666666666666666" rx="0" ry="0" style="stroke-width:1;fill:gray;"/><text x="110.0" y="170.0" font-size="12"><tspan x="110.0" dy="0em">f11</tspan></text><rect x="0.0" y="86.66666666666667" width="30.0" height="30.0" rx="0" ry="0" style="stroke-width:1;fill:lightgray;"/><rect x="26.733333333333334" y="100.0" width="3.2666666666666666" height="3.2666666666666666" rx="0" ry="0" style="stroke-width:1;fill:gray;"/><text x="13.333333333333334" y="100.0" font-size="12"><tspan x="13.333333333333334" dy="0em">f14</tspan></text><rect x="30.0" y="86.66666666666667" width="26.666666666666668" height="16.666666666666668" rx="0" ry="0" style="stroke-width:1;fill:lightgray;"/><rect x="43.333333333333336" y="86.66666666666667" width="3.2666666666666666" height="3.2666666666666666" rx="0" ry="0" style="stroke-width:1;fill:gray;"/><text x="43.333333333333336" y="93.33333333333334" font-size="12"><tspan x="43.333333333333336" dy="0em">f18</tspan></text><rect x="56.66666666666667" y="86.66666666666667" width="30.0" height="20.0" rx="0" ry="0" style="stroke-width:1;fill:lightgray;"/><rect x="70.0" y="86.66666666666667" width="3.2666666666666666" height="3.2666666666666666" rx="0" ry="0" style="stroke-width:1;fill:gray;"/><text x="70.0" y="96.66666666666667" font-size="12"><tspan x="70.0" dy="0em">f15</tspan></text><rect x="0.0" y="60.0" width="40.0" height="26.666666666666668" rx="0" ry="0" style="stroke-width:1;fill:lightgray;"/><rect x="36.733333333333334" y="73.33333333333334" width="3.2666666666666666" height="3.2666666666666666" rx="0" ry="0" style="stroke-width:1;fill:gray;"/><text x="20.0" y="73.33333333333333" font-size="12"><tspan x="20.0" dy="0em">f12</tspan></text><rect x="0.0" y="0.0" width="83.33333333333334" height="60.0" rx="0" ry="0" style="stroke-width:1;fill:lightgray;"/><rect x="40.0" y="56.733333333333334" width="3.2666666666666666" height="3.2666666666666666" rx="0" ry="0" style="stroke-width:1;fill:gray;"/><text x="40.0" y="30.0" font-size="12"><tspan x="40.0" dy="0em">f16</tspan></text></g></svg>