<?xml version="1.0" standalone="no"?>
<!DOCTYPE svg PUBLIC "-//W3C//DTD SVG 1.1//EN"
  "http://www.w3.org/Graphics/SVG/1.1/DTD/svg11.dtd">
<svg width="480.0" height="464.1758241758242" version="1.1"
  xmlns="http://www.w3.org/2000/svg">
<g style="stroke:black;"><rect x="0.0" y="374.5054945054945" width="63.2967032967033" height="52.747252747252745" rx="0" ry="0" style="stroke-width:1;fill:lightgray;"/><rect x="31.64835164835165" y="374.5054945054945" width="9.6" height="9.6" rx="0" ry="0" style="stroke-width:1;fill:gray;"/><text x="31.64835164835165" y="400.8791208791209" font-size="12"><tspan x="31.64835164835165" dy="0em">f3</tspan></text><rect x="63.2967032967033" y="374.5054945054945" width="58.02197802197802" height="58.02197802197802" rx="0" ry="0" style="stroke-width:1;fill:lightgray;"/><rect x="89.67032967032966" y="374.5054945054945" width="9.6" height="9.6" rx="0" ry="0" style="stroke-width:1;fill:gray;"/><text x="89.67032967032966" y="400.8791208791209" font-size="12"><tspan x="89.67032967032966" dy="0em">f11</tspan></text><rect x="121.31868131868131" y="374.5054945054945" width="63.2967032967033" height="47.472527472527474" rx="0" ry="0" style="stroke-width:1;fill:lightgray;"/><rect x="152.96703296703296" y="374.5054945054945" width="9.6" height="9.6" rx="0" ry="0" style="stroke-width:1;fill:gray;"/><text x="152.96703296703296" y="395.60439560439556" font-size="12"><tspan x="152.96703296703296" dy="0em">f9</tspan></text><rect x="184.6153846153846" y="427.25274725274727" width="47.472527472527474" height="36.92307692307692" rx="0" ry="0" style="stroke-width:1;fill:lightgray;"/><rect x="184.6153846153846" y="443.0769230769231" width="9.6" height="9.6" rx="0" ry="0" style="stroke-width:1;fill:gray;"/><text x="205.71428571428572" y="443.0769230769231" font-size="12"><tspan x="205.71428571428572" dy="0em">f1</tspan></text><rect x="184.6153846153846" y="374.5054945054945" width="52.747252747252745" height="52.747252747252745" rx="0" ry="0" style="stroke-width:1;fill:lightgray;"/><rect x="210.98901098901098" y="374.5054945054945" width="9.6" height="9.6" rx="0" ry="0" style="stroke-width:1;fill:gray;"/><text x="210.98901098901098" y="400.8791208791209" font-size="12"><tspan x="210.98901098901098" dy="0em">f10</tspan></text><rect x="0.0" y="42.1978021978022" width="52.747252747252745" height="42.1978021978022" rx="0" ry="0" style="stroke-width:1;fill:lightgray;"/><rect x="26.373626373626372" y="74.7956043956044" width="9.6" height="9.6" rx="0" ry="0" style="stroke-width:1;fill:gray;"/><text x="26.373626373626372" y="63.2967032967033" font-size="12"><tspan x="26.373626373626372" dy="0em">f6</tspan></text><rect x="0.0" y="0.0" width="63.2967032967033" height="42.1978021978022" rx="0" ry="0" style="stroke-width:1;fill:lightgray;"/><rect x="53.6967032967033" y="21.0989010989011" width="9.6" height="9.6" rx="0" ry="0" style="stroke-width:1;fill:gray;"/><text x="31.64835164835165" y="21.0989010989011" font-size="12"><tspan x="31.64835164835165" dy="0em">f12</tspan></text><rect x="116.04395604395604" y="0.0" width="63.2967032967033" height="63.2967032967033" rx="0" ry="0" style="stroke-width:1;fill:lightgray;"/><rect x="147.69230769230768" y="53.6967032967033" width="9.6" height="9.6" rx="0" ry="0" style="stroke-width:1;fill:gray;"/><text x="147.69230769230768" y="31.64835164835165" font-size="12"><tspan x="147.69230769230768" dy="0em">f5</tspan></text><rect x="179.34065934065933" y="42.1978021978022" width="79.12087912087912" height="58.02197802197802" rx="0" ry="0" style="stroke-width:1;fill:lightgray;"/><rect x="179.34065934065933" y="68.57142857142857" width="9.6" height="9.6" rx="0" ry="0" style="stroke-width:1;fill:gray;"/><text x="216.26373626373623" y="68.57142857142857" font-size="12"><tspan x="216.26373626373623" dy="0em">f8</tspan></text><rect x="258.46153846153845" y="42.1978021978022" width="105.49450549450549" height="73.84615384615384" rx="0" ry="0" style="stroke-width:1;fill:lightgray;"/><rect x="258.46153846153845" y="79.12087912087912" width="9.6" height="9.6" rx="0" ry="0" style="stroke-width:1;fill:gray;"/><text x="311.2087912087912" y="79.12087912087912" font-size="12"><tspan x="311.2087912087912" dy="0em">f7</tspan></text><rect x="179.34065934065933" y="0.0" width="42.1978021978022" height="42.1978021978022" rx="0" ry="0" style="stroke-width:1;fill:lightgray;"/><rect x="179.34065934065933" y="21.0989010989011" width="9.6" height="9.6" rx="0" ry="0" style="stroke-width:1;fill:gray;"/><text x="200.43956043956044" y="21.0989010989011" font-size="12"><tspan x="200.43956043956044" dy="0em">f4</tspan></text><rect x="406.15384615384613" y="0.0" width="73.84615384615384" height="52.747252747252745" rx="0" ry="0" style="stroke-width:1;fill:lightgray;"/><rect x="443.0769230769231" y="43.14725274725274" width="9.6" height="9.6" rx="0" ry="0" style="stroke-width:1;fill:gray;"/><text x="443.07692307692304" y="26.373626373626372" font-size="12"><tspan x="443.07692307692304" dy="0em">f2</tspan></text></g></svg>