<?xml version="1.0" standalone="no"?>
<!DOCTYPE svg PUBLIC "-//W3C//DTD SVG 1.1//EN"
  "http://www.w3.org/Graphics/SVG/1.1/DTD/svg11.dtd">
<svg width="426.66666666666663" height="640.0" version="1.1"
  xmlns="http://www.w3.org/2000/svg">
<g style="stroke:black;"><rect x="0.0" y="450.3703703703703" width="63.20987654320987" height="63.20987654320987" rx="0" ry="0" style="stroke-width:1;fill:lightgray;"/><rect x="54.67654320987654" y="481.9753086419753" width="8.533333333333333" height="8.533333333333333" rx="0" ry="0" style="stroke-width:1;fill:gray;"/><text x="31.604938271604937" y="481.9753086419753" font-size="12"><tspan x="31.604938271604937" dy="0em">f4</tspan></text><rect x="63.20987654320987" y="450.3703703703703" width="79.01234567901234" height="79.01234567901234" rx="0" ry="0" style="stroke-width:1;fill:lightgray;"/><rect x="102.71604938271605" y="450.3703703703703" width="8.533333333333333" height="8.533333333333333" rx="0" ry="0" style="stroke-width:1;fill:gray;"/><text x="102.71604938271605" y="489.8765432098765" font-size="12"><tspan x="102.71604938271605" dy="0em">f10</tspan></text><rect x="0.0" y="387.16049382716045" width="79.01234567901234" height="63.20987654320987" rx="0" ry="0" style="stroke-width:1;fill:lightgray;"/><rect x="70.47901234567901" y="418.7654320987654" width="8.533333333333333" height="8.533333333333333" rx="0" ry="0" style="stroke-width:1;fill:gray;"/><text x="39.50617283950617" y="418.76543209876536" font-size="12"><tspan x="39.50617283950617" dy="0em">f6</tspan></text><rect x="221.23456790123456" y="553.0864197530864" width="86.91358024691357" height="86.91358024691357" rx="0" ry="0" style="stroke-width:1;fill:lightgray;"/><rect x="221.23456790123456" y="592.5925925925926" width="8.533333333333333" height="8.533333333333333" rx="0" ry="0" style="stroke-width:1;fill:gray;"/><text x="260.7407407407407" y="592.5925925925925" font-size="12"><tspan x="260.7407407407407" dy="0em">f11</tspan></text><rect x="308.14814814814815" y="553.0864197530864" width="118.5185185185185" height="86.91358024691357" rx="0" ry="0" style="stroke-width:1;fill:lightgray;"/><rect x="363.45679012345676" y="553.0864197530864" width="8.533333333333333" height="8.533333333333333" rx="0" ry="0" style="stroke-width:1;fill:gray;"/><text x="363.4567901234568" y="592.5925925925925" font-size="12"><tspan x="363.4567901234568" dy="0em">f8</tspan></text><rect x="221.23456790123456" y="481.9753086419753" width="94.81481481481481" height="71.11111111111111" rx="0" ry="0" style="stroke-width:1;fill:lightgray;"/><rect x="221.23456790123456" y="513.5802469135803" width="8.533333333333333" height="8.533333333333333" rx="0" ry="0" style="stroke-width:1;fill:gray;"/><text x="268.641975308642" y="513.5802469135803" font-size="12"><tspan x="268.641975308642" dy="0em">f9</tspan></text><rect x="221.23456790123456" y="387.16049382716045" width="94.81481481481481" height="94.81481481481481" rx="0" ry="0" style="stroke-width:1;fill:lightgray;"/><rect x="221.23456790123456" y="434.5679012345679" width="8.533333333333333" height="8.533333333333333" rx="0" ry="0" style="stroke-width:1;fill:gray;"/><text x="268.641975308642" y="434.56790123456784" font-size="12"><tspan x="268.641975308642" dy="0em">f5</tspan></text><rect x="0.0" y="308.14814814814815" width="94.81481481481481" height="79.01234567901234" rx="0" ry="0" style="stroke-width:1;fill:lightgray;"/><rect x="86.28148148148148" y="347.6543209876543" width="8.533333333333333" height="8.533333333333333" rx="0" ry="0" style="stroke-width:1;fill:gray;"/><text x="47.407407407407405" y="347.65432098765433" font-size="12"><tspan x="47.407407407407405" dy="0em">f3</tspan></text><rect x="0.0" y="229.1358024691358" width="110.61728395061728" height="79.01234567901234" rx="0" ry="0" style="stroke-width:1;fill:lightgray;"/><rect x="102.08395061728395" y="268.641975308642" width="8.533333333333333" height="8.533333333333333" rx="0" ry="0" style="stroke-width:1;fill:gray;"/><text x="55.30864197530864" y="268.641975308642" font-size="12"><tspan x="55.30864197530864" dy="0em">f2</tspan></text><rect x="0.0" y="165.92592592592592" width="94.81481481481481" height="63.20987654320987" rx="0" ry="0" style="stroke-width:1;fill:lightgray;"/><rect x="86.28148148148148" y="197.53086419753086" width="8.533333333333333" height="8.533333333333333" rx="0" ry="0" style="stroke-width:1;fill:gray;"/><text x="47.407407407407405" y="197.53086419753086" font-size="12"><tspan x="47.407407407407405" dy="0em">f12</tspan></text><rect x="0.0" y="110.61728395061728" width="71.11111111111111" height="55.30864197530864" rx="0" ry="0" style="stroke-width:1;fill:lightgray;"/><rect x="31.604938271604937" y="157.3925925925926" width="8.533333333333333" height="8.533333333333333" rx="0" ry="0" style="stroke-width:1;fill:gray;"/><text x="31.604938271604937" y="134.320987654321" font-size="12"><tspan x="31.604938271604937" dy="0em">f1</tspan></text><rect x="0.0" y="0.0" width="158.02469135802468" height="110.61728395061728" rx="0" ry="0" style="stroke-width:1;fill:lightgray;"/><rect x="79.01234567901234" y="102.08395061728395" width="8.533333333333333" height="8.533333333333333" rx="0" ry="0" style="stroke-width:1;fill:gray;"/><text x="79.01234567901234" y="55.30864197530864" font-size="12"><tspan x="79.01234567901234" dy="0em">f7</tspan></text></g></svg>