<?xml version="1.0" standalone="no"?>
<!DOCTYPE svg PUBLIC "-//W3C//DTD SVG 1.1//EN"
  "http://www.w3.org/Graphics/SVG/1.1/DTD/svg11.dtd">
<svg width="480.0" height="298.9473684210526" version="1.1"
  xmlns="http://www.w3.org/2000/svg">
<g style="stroke:black;"><rect x="0.0" y="240.0" width="84.21052631578947" height="58.94736842105263" rx="0" ry="0" style="stroke-width:1;fill:lightgray;"/><rect x="74.61052631578947" y="269.4736842105263" width="9.599999999999998" height="9.599999999999998" rx="0" ry="0" style="stroke-width:1;fill:gray;"/><text x="42.10526315789473" y="269.4736842105263" font-size="12"><tspan x="42.10526315789473" dy="0em">f7</tspan></text><rect x="0.0" y="193.68421052631578" width="63.1578947368421" height="46.315789473684205" rx="0" ry="0" style="stroke-width:1;fill:lightgray;"/><rect x="29.473684210526315" y="193.68421052631578" width="9.599999999999998" height="9.599999999999998" rx="0" ry="0" style="stroke-width:1;fill:gray;"/><text x="29.473684210526315" y="214.73684210526315" font-size="12"><tspan x="29.473684210526315" dy="0em">f8</tspan></text><rect x="0.0" y="151.57894736842104" width="58.94736842105263" height="42.10526315789473" rx="0" ry="0" style="stroke-width:1;fill:lightgray;"/><rect x="49.34736842105263" y="172.6315789473684" width="9.599999999999998" height="9.599999999999998" rx="0" ry="0" style="stroke-width:1;fill:gray;"/><text x="29.473684210526315" y="172.6315789473684" font-size="12"><tspan x="29.473684210526315" dy="0em">f2</tspan></text><rect x="0.0" y="113.68421052631578" width="50.526315789473685" height="37.89473684210526" rx="0" ry="0" style="stroke-width:1;fill:lightgray;"/><rect x="25.263157894736842" y="113.68421052631578" width="9.599999999999998" height="9.599999999999998" rx="0" ry="0" style="stroke-width:1;fill:gray;"/><text x="25.263157894736842" y="130.52631578947367" font-size="12"><tspan x="25.263157894736842" dy="0em">f9</tspan></text><rect x="256.84210526315786" y="231.57894736842104" width="33.68421052631579" height="33.68421052631579" rx="0" ry="0" style="stroke-width:1;fill:lightgray;"/><rect x="273.6842105263158" y="231.57894736842104" width="9.599999999999998" height="9.599999999999998" rx="0" ry="0" style="stroke-width:1;fill:gray;"/><text x="273.6842105263158" y="248.42105263157893" font-size="12"><tspan x="273.6842105263158" dy="0em">f4</tspan></text><rect x="256.84210526315786" y="189.4736842105263" width="50.526315789473685" height="42.10526315789473" rx="0" ry="0" style="stroke-width:1;fill:lightgray;"/><rect x="256.84210526315786" y="210.52631578947367" width="9.599999999999998" height="9.599999999999998" rx="0" ry="0" style="stroke-width:1;fill:gray;"/><text x="282.1052631578947" y="210.52631578947367" font-size="12"><tspan x="282.1052631578947" dy="0em">f3</tspan></text><rect x="256.84210526315786" y="113.68421052631578" width="50.526315789473685" height="33.68421052631579" rx="0" ry="0" style="stroke-width:1;fill:lightgray;"/><rect x="256.84210526315786" y="130.52631578947367" width="9.599999999999998" height="9.599999999999998" rx="0" ry="0" style="stroke-width:1;fill:gray;"/><text x="282.1052631578947" y="130.52631578947367" font-size="12"><tspan x="282.1052631578947" dy="0em">f12</tspan></text><rect x="307.36842105263156" y="113.68421052631578" width="42.10526315789473" height="42.10526315789473" rx="0" ry="0" style="stroke-width:1;fill:lightgray;"/><rect x="307.36842105263156" y="134.73684210526315" width="9.599999999999998" height="9.599999999999998" rx="0" ry="0" style="stroke-width:1;fill:gray;"/><text x="328.4210526315789" y="134.73684210526315" font-size="12"><tspan x="328.4210526315789" dy="0em">f10</tspan></text><rect x="433.6842105263158" y="113.68421052631578" width="46.315789473684205" height="46.315789473684205" rx="0" ry="0" style="stroke-width:1;fill:lightgray;"/><rect x="433.6842105263158" y="134.73684210526315" width="9.599999999999998" height="9.599999999999998" rx="0" ry="0" style="stroke-width:1;fill:gray;"/><text x="454.7368421052631" y="134.73684210526315" font-size="12"><tspan x="454.7368421052631" dy="0em">f11</tspan></text><rect x="0.0" y="84.21052631578947" width="37.89473684210526" height="29.473684210526315" rx="0" ry="0" style="stroke-width:1;fill:lightgray;"/><rect x="28.294736842105266" y="96.84210526315789" width="9.599999999999998" height="9.599999999999998" rx="0" ry="0" style="stroke-width:1;fill:gray;"/><text x="16.842105263157894" y="96.84210526315789" font-size="12"><tspan x="16.842105263157894" dy="0em">f1</tspan></text><rect x="0.0" y="50.526315789473685" width="42.10526315789473" height="33.68421052631579" rx="0" ry="0" style="stroke-width:1;fill:lightgray;"/><rect x="32.50526315789474" y="67.36842105263158" width="9.599999999999998" height="9.599999999999998" rx="0" ry="0" style="stroke-width:1;fill:gray;"/><text x="21.052631578947366" y="67.36842105263158" font-size="12"><tspan x="21.052631578947366" dy="0em">f6</tspan></text><rect x="0.0" y="0.0" width="50.526315789473685" height="50.526315789473685" rx="0" ry="0" style="stroke-width:1;fill:lightgray;"/><rect x="40.92631578947368" y="25.263157894736842" width="9.599999999999998" height="9.599999999999998" rx="0" ry="0" style="stroke-width:1;fill:gray;"/><text x="25.263157894736842" y="25.263157894736842" font-size="12"><tspan x="25.263157894736842" dy="0em">f5</tspan></text></g></svg>