<?xml version="1.0" standalone="no"?>
<!DOCTYPE svg PUBLIC "-//W3C//DTD SVG 1.1//EN"
  "http://www.w3.org/Graphics/SVG/1.1/DTD/svg11.dtd">
<svg width="387.16049382716045" height="640.0" version="1.1"
  xmlns="http://www.w3.org/2000/svg">
<g style="stroke:black;"><rect x="0.0" y="229.1358024691358" width="197.53086419753086" height="142.22222222222223" rx="0" ry="0" style="stroke-width:1;fill:lightgray;"/><rect x="189.78765432098763" y="300.2469135802469" width="7.743209876543209" height="7.743209876543209" rx="0" ry="0" style="stroke-width:1;fill:gray;"/><text x="94.81481481481481" y="300.2469135802469" font-size="12"><tspan x="94.81481481481481" dy="0em">f6</tspan></text><rect x="197.53086419753086" y="229.1358024691358" width="71.11111111111111" height="71.11111111111111" rx="0" ry="0" style="stroke-width:1;fill:lightgray;"/><rect x="229.1358024691358" y="292.5037037037037" width="7.743209876543209" height="7.743209876543209" rx="0" ry="0" style="stroke-width:1;fill:gray;"/><text x="229.1358024691358" y="260.74074074074076" font-size="12"><tspan x="229.1358024691358" dy="0em">f4</tspan></text><rect x="268.641975308642" y="576.7901234567901" width="94.81481481481481" height="63.20987654320987" rx="0" ry="0" style="stroke-width:1;fill:lightgray;"/><rect x="268.641975308642" y="608.395061728395" width="7.743209876543209" height="7.743209876543209" rx="0" ry="0" style="stroke-width:1;fill:gray;"/><text x="316.04938271604937" y="608.395061728395" font-size="12"><tspan x="316.04938271604937" dy="0em">f2</tspan></text><rect x="268.641975308642" y="489.8765432098765" width="86.91358024691357" height="86.91358024691357" rx="0" ry="0" style="stroke-width:1;fill:lightgray;"/><rect x="268.641975308642" y="529.3827160493827" width="7.743209876543209" height="7.743209876543209" rx="0" ry="0" style="stroke-width:1;fill:gray;"/><text x="308.14814814814815" y="529.3827160493827" font-size="12"><tspan x="308.14814814814815" dy="0em">f9</tspan></text><rect x="268.641975308642" y="410.8641975308642" width="118.5185185185185" height="79.01234567901234" rx="0" ry="0" style="stroke-width:1;fill:lightgray;"/><rect x="268.641975308642" y="450.3703703703703" width="7.743209876543209" height="7.743209876543209" rx="0" ry="0" style="stroke-width:1;fill:gray;"/><text x="323.95061728395063" y="450.3703703703704" font-size="12"><tspan x="323.95061728395063" dy="0em">f1</tspan></text><rect x="268.641975308642" y="316.04938271604937" width="118.5185185185185" height="94.81481481481481" rx="0" ry="0" style="stroke-width:1;fill:lightgray;"/><rect x="268.641975308642" y="363.45679012345676" width="7.743209876543209" height="7.743209876543209" rx="0" ry="0" style="stroke-width:1;fill:gray;"/><text x="323.95061728395063" y="363.45679012345676" font-size="12"><tspan x="323.95061728395063" dy="0em">f3</tspan></text><rect x="268.641975308642" y="276.5432098765432" width="63.20987654320987" height="39.50617283950617" rx="0" ry="0" style="stroke-width:1;fill:lightgray;"/><rect x="268.641975308642" y="292.34567901234567" width="7.743209876543209" height="7.743209876543209" rx="0" ry="0" style="stroke-width:1;fill:gray;"/><text x="300.2469135802469" y="292.34567901234567" font-size="12"><tspan x="300.2469135802469" dy="0em">f8</tspan></text><rect x="268.641975308642" y="229.1358024691358" width="71.11111111111111" height="47.407407407407405" rx="0" ry="0" style="stroke-width:1;fill:lightgray;"/><rect x="268.641975308642" y="252.8395061728395" width="7.743209876543209" height="7.743209876543209" rx="0" ry="0" style="stroke-width:1;fill:gray;"/><text x="300.2469135802469" y="252.8395061728395" font-size="12"><tspan x="300.2469135802469" dy="0em">f5</tspan></text><rect x="0.0" y="0.0" width="158.02469135802468" height="126.41975308641975" rx="0" ry="0" style="stroke-width:1;fill:lightgray;"/><rect x="150.28148148148148" y="63.20987654320987" width="7.743209876543209" height="7.743209876543209" rx="0" ry="0" style="stroke-width:1;fill:gray;"/><text x="79.01234567901234" y="63.20987654320987" font-size="12"><tspan x="79.01234567901234" dy="0em">f7</tspan></text><rect x="158.02469135802468" y="0.0" width="150.12345679012344" height="102.71604938271605" rx="0" ry="0" style="stroke-width:1;fill:lightgray;"/><rect x="158.02469135802468" y="47.407407407407405" width="7.743209876543209" height="7.743209876543209" rx="0" ry="0" style="stroke-width:1;fill:gray;"/><text x="229.1358024691358" y="47.407407407407405" font-size="12"><tspan x="229.1358024691358" dy="0em">f10</tspan></text></g></svg>