<?xml version="1.0" standalone="no"?>
<!DOCTYPE svg PUBLIC "-//W3C//DTD SVG 1.1//EN"
  "http://www.w3.org/Graphics/SVG/1.1/DTD/svg11.dtd">
<svg width="488.72727272727275" height="640.0" version="1.1"
  xmlns="http://www.w3.org/2000/svg">
<g style="stroke:black;"><rect x="0.0" y="244.36363636363637" width="116.36363636363637" height="116.36363636363637" rx="0" ry="0" style="stroke-width:1;fill:lightgray;"/><rect x="106.58909090909091" y="302.54545454545456" width="9.774545454545455" height="9.774545454545455" rx="0" ry="0" style="stroke-width:1;fill:gray;"/><text x="58.18181818181819" y="302.54545454545456" font-size="12"><tspan x="58.18181818181819" dy="0em">f3</tspan></text><rect x="116.36363636363637" y="244.36363636363637" width="93.0909090909091" height="93.0909090909091" rx="0" ry="0" style="stroke-width:1;fill:lightgray;"/><rect x="116.36363636363637" y="290.90909090909093" width="9.774545454545455" height="9.774545454545455" rx="0" ry="0" style="stroke-width:1;fill:gray;"/><text x="162.90909090909093" y="290.90909090909093" font-size="12"><tspan x="162.90909090909093" dy="0em">f6</tspan></text><rect x="209.45454545454547" y="523.6363636363636" width="116.36363636363637" height="81.45454545454545" rx="0" ry="0" style="stroke-width:1;fill:lightgray;"/><rect x="316.0436363636364" y="558.5454545454545" width="9.774545454545455" height="9.774545454545455" rx="0" ry="0" style="stroke-width:1;fill:gray;"/><text x="267.6363636363636" y="558.5454545454545" font-size="12"><tspan x="267.6363636363636" dy="0em">f2</tspan></text><rect x="325.8181818181818" y="523.6363636363636" width="162.9090909090909" height="116.36363636363637" rx="0" ry="0" style="stroke-width:1;fill:lightgray;"/><rect x="325.8181818181818" y="581.8181818181819" width="9.774545454545455" height="9.774545454545455" rx="0" ry="0" style="stroke-width:1;fill:gray;"/><text x="407.27272727272725" y="581.8181818181818" font-size="12"><tspan x="407.27272727272725" dy="0em">f1</tspan></text><rect x="209.45454545454547" y="372.3636363636364" width="209.45454545454547" height="151.27272727272728" rx="0" ry="0" style="stroke-width:1;fill:lightgray;"/><rect x="209.45454545454547" y="442.1818181818182" width="9.774545454545455" height="9.774545454545455" rx="0" ry="0" style="stroke-width:1;fill:gray;"/><text x="314.1818181818182" y="442.1818181818182" font-size="12"><tspan x="314.1818181818182" dy="0em">f5</tspan></text><rect x="209.45454545454547" y="244.36363636363637" width="174.54545454545456" height="128.0" rx="0" ry="0" style="stroke-width:1;fill:lightgray;"/><rect x="209.45454545454547" y="302.54545454545456" width="9.774545454545455" height="9.774545454545455" rx="0" ry="0" style="stroke-width:1;fill:gray;"/><text x="290.90909090909093" y="302.54545454545456" font-size="12"><tspan x="290.90909090909093" dy="0em">f8</tspan></text><rect x="0.0" y="174.54545454545456" width="104.72727272727273" height="69.81818181818181" rx="0" ry="0" style="stroke-width:1;fill:lightgray;"/><rect x="94.95272727272727" y="209.45454545454547" width="9.774545454545455" height="9.774545454545455" rx="0" ry="0" style="stroke-width:1;fill:gray;"/><text x="46.54545454545455" y="209.45454545454547" font-size="12"><tspan x="46.54545454545455" dy="0em">f7</tspan></text><rect x="0.0" y="0.0" width="232.72727272727275" height="174.54545454545456" rx="0" ry="0" style="stroke-width:1;fill:lightgray;"/><rect x="116.36363636363637" y="164.7709090909091" width="9.774545454545455" height="9.774545454545455" rx="0" ry="0" style="stroke-width:1;fill:gray;"/><text x="116.36363636363637" y="81.45454545454545" font-size="12"><tspan x="116.36363636363637" dy="0em">f4</tspan></text></g></svg>