<?xml version="1.0" standalone="no"?>
<!DOCTYPE svg PUBLIC "-//W3C//DTD SVG 1.1//EN"
  "http://www.w3.org/Graphics/SVG/1.1/DTD/svg11.dtd">
<svg width="479.99999999999994" height="96.92307692307692" version="1.1"
  xmlns="http://www.w3.org/2000/svg">
<g style="stroke:black;"><rect x="0.0" y="46.153846153846146" width="36.92307692307692" height="36.92307692307692" rx="0" ry="0" style="stroke-width:1;fill:lightgray;"/><rect x="27.323076923076922" y="64.61538461538461" width="9.6" height="9.6" rx="0" ry="0" style="stroke-width:1;fill:gray;"/><text x="18.46153846153846" y="64.61538461538461" font-size="12"><tspan x="18.46153846153846" dy="0em">f6</tspan></text><rect x="0.0" y="0.0" width="64.61538461538461" height="46.153846153846146" rx="0" ry="0" style="stroke-width:1;fill:lightgray;"/><rect x="55.01538461538461" y="23.076923076923073" width="9.6" height="9.6" rx="0" ry="0" style="stroke-width:1;fill:gray;"/><text x="32.30769230769231" y="23.076923076923073" font-size="12"><tspan x="32.30769230769231" dy="0em">f1</tspan></text><rect x="101.53846153846153" y="0.0" width="41.53846153846153" height="27.69230769230769" rx="0" ry="0" style="stroke-width:1;fill:lightgray;"/><rect x="119.99999999999999" y="0.0" width="9.6" height="9.6" rx="0" ry="0" style="stroke-width:1;fill:gray;"/><text x="120.0" y="13.846153846153845" font-size="12"><tspan x="120.0" dy="0em">f7</tspan></text><rect x="143.07692307692307" y="0.0" width="92.30769230769229" height="69.23076923076923" rx="0" ry="0" style="stroke-width:1;fill:lightgray;"/><rect x="143.07692307692307" y="32.30769230769231" width="9.6" height="9.6" rx="0" ry="0" style="stroke-width:1;fill:gray;"/><text x="189.23076923076923" y="32.30769230769231" font-size="12"><tspan x="189.23076923076923" dy="0em">f4</tspan></text><rect x="235.38461538461536" y="0.0" width="83.07692307692307" height="59.99999999999999" rx="0" ry="0" style="stroke-width:1;fill:lightgray;"/><rect x="308.86153846153843" y="27.69230769230769" width="9.6" height="9.6" rx="0" ry="0" style="stroke-width:1;fill:gray;"/><text x="276.9230769230769" y="27.69230769230769" font-size="12"><tspan x="276.9230769230769" dy="0em">f5</tspan></text><rect x="318.46153846153845" y="50.76923076923077" width="46.153846153846146" height="46.153846153846146" rx="0" ry="0" style="stroke-width:1;fill:lightgray;"/><rect x="318.46153846153845" y="73.84615384615384" width="9.6" height="9.6" rx="0" ry="0" style="stroke-width:1;fill:gray;"/><text x="341.53846153846155" y="73.84615384615384" font-size="12"><tspan x="341.53846153846155" dy="0em">f3</tspan></text><rect x="318.46153846153845" y="0.0" width="69.23076923076923" height="50.76923076923077" rx="0" ry="0" style="stroke-width:1;fill:lightgray;"/><rect x="350.7692307692307" y="0.0" width="9.6" height="9.6" rx="0" ry="0" style="stroke-width:1;fill:gray;"/><text x="350.7692307692308" y="23.076923076923073" font-size="12"><tspan x="350.7692307692308" dy="0em">f8</tspan></text><rect x="433.8461538461538" y="0.0" width="46.153846153846146" height="32.30769230769231" rx="0" ry="0" style="stroke-width:1;fill:lightgray;"/><rect x="433.8461538461538" y="13.846153846153845" width="9.6" height="9.6" rx="0" ry="0" style="stroke-width:1;fill:gray;"/><text x="456.9230769230769" y="13.846153846153845" font-size="12"><tspan x="456.9230769230769" dy="0em">f2</tspan></text></g></svg>