<?xml version="1.0" standalone="no"?>
<!DOCTYPE svg PUBLIC "-//W3C//DTD SVG 1.1//EN"
  "http://www.w3.org/Graphics/SVG/1.1/DTD/svg11.dtd">
<svg width="544.8648648648649" height="640.0" version="1.1"
  xmlns="http://www.w3.org/2000/svg">
<g style="stroke:black;"><rect x="0.0" y="198.91891891891893" width="129.72972972972974" height="103.78378378378379" rx="0" ry="0" style="stroke-width:1;fill:lightgray;"/><rect x="118.83243243243244" y="250.81081081081084" width="10.897297297297298" height="10.897297297297298" rx="0" ry="0" style="stroke-width:1;fill:gray;"/><text x="60.54054054054055" y="250.81081081081084" font-size="12"><tspan x="60.54054054054055" dy="0em">f3</tspan></text><rect x="129.72972972972974" y="320.0" width="77.83783783783784" height="77.83783783783784" rx="0" ry="0" style="stroke-width:1;fill:lightgray;"/><rect x="196.67027027027027" y="354.59459459459464" width="10.897297297297298" height="10.897297297297298" rx="0" ry="0" style="stroke-width:1;fill:gray;"/><text x="164.32432432432432" y="354.5945945945946" font-size="12"><tspan x="164.32432432432432" dy="0em">f4</tspan></text><rect x="207.56756756756758" y="501.62162162162167" width="164.32432432432432" height="112.43243243243244" rx="0" ry="0" style="stroke-width:1;fill:lightgray;"/><rect x="360.9945945945946" y="553.5135135135135" width="10.897297297297298" height="10.897297297297298" rx="0" ry="0" style="stroke-width:1;fill:gray;"/><text x="285.4054054054054" y="553.5135135135135" font-size="12"><tspan x="285.4054054054054" dy="0em">f10</tspan></text><rect x="371.89189189189193" y="501.62162162162167" width="172.97297297297297" height="138.3783783783784" rx="0" ry="0" style="stroke-width:1;fill:lightgray;"/><rect x="371.89189189189193" y="570.8108108108108" width="10.897297297297298" height="10.897297297297298" rx="0" ry="0" style="stroke-width:1;fill:gray;"/><text x="458.37837837837844" y="570.8108108108108" font-size="12"><tspan x="458.37837837837844" dy="0em">f7</tspan></text><rect x="207.56756756756758" y="406.4864864864865" width="95.13513513513514" height="95.13513513513514" rx="0" ry="0" style="stroke-width:1;fill:lightgray;"/><rect x="250.81081081081084" y="406.4864864864865" width="10.897297297297298" height="10.897297297297298" rx="0" ry="0" style="stroke-width:1;fill:gray;"/><text x="250.81081081081084" y="449.72972972972974" font-size="12"><tspan x="250.81081081081084" dy="0em">f9</tspan></text><rect x="207.56756756756758" y="320.0" width="129.72972972972974" height="86.48648648648648" rx="0" ry="0" style="stroke-width:1;fill:lightgray;"/><rect x="207.56756756756758" y="363.2432432432433" width="10.897297297297298" height="10.897297297297298" rx="0" ry="0" style="stroke-width:1;fill:gray;"/><text x="268.1081081081081" y="363.2432432432432" font-size="12"><tspan x="268.1081081081081" dy="0em">f1</tspan></text><rect x="129.72972972972974" y="250.81081081081084" width="103.78378378378379" height="69.1891891891892" rx="0" ry="0" style="stroke-width:1;fill:lightgray;"/><rect x="181.62162162162164" y="309.10270270270274" width="10.897297297297298" height="10.897297297297298" rx="0" ry="0" style="stroke-width:1;fill:gray;"/><text x="181.62162162162164" y="285.4054054054054" font-size="12"><tspan x="181.62162162162164" dy="0em">f2</tspan></text><rect x="129.72972972972974" y="198.91891891891893" width="77.83783783783784" height="51.891891891891895" rx="0" ry="0" style="stroke-width:1;fill:lightgray;"/><rect x="129.72972972972974" y="224.86486486486487" width="10.897297297297298" height="10.897297297297298" rx="0" ry="0" style="stroke-width:1;fill:gray;"/><text x="164.32432432432432" y="224.86486486486487" font-size="12"><tspan x="164.32432432432432" dy="0em">f5</tspan></text><rect x="0.0" y="155.67567567567568" width="69.1891891891892" height="43.24324324324324" rx="0" ry="0" style="stroke-width:1;fill:lightgray;"/><rect x="58.2918918918919" y="172.97297297297297" width="10.897297297297298" height="10.897297297297298" rx="0" ry="0" style="stroke-width:1;fill:gray;"/><text x="34.5945945945946" y="172.97297297297297" font-size="12"><tspan x="34.5945945945946" dy="0em">f8</tspan></text><rect x="0.0" y="0.0" width="216.21621621621622" height="155.67567567567568" rx="0" ry="0" style="stroke-width:1;fill:lightgray;"/><rect x="103.78378378378379" y="144.77837837837836" width="10.897297297297298" height="10.897297297297298" rx="0" ry="0" style="stroke-width:1;fill:gray;"/><text x="103.78378378378379" y="77.83783783783784" font-size="12"><tspan x="103.78378378378379" dy="0em">f6</tspan></text></g></svg>