<?xml version="1.0" standalone="no"?>
<!DOCTYPE svg PUBLIC "-//W3C//DTD SVG 1.1//EN"
  "http://www.w3.org/Graphics/SVG/1.1/DTD/svg11.dtd">
<svg width="477.97468354430384" height="640.0" version="1.1"
  xmlns="http://www.w3.org/2000/svg">
<g style="stroke:black;"><rect x="0.0" y="396.9620253164557" width="97.21518987341773" height="64.81012658227849" rx="0" ry="0" style="stroke-width:1;fill:lightgray;"/><rect x="0.0" y="429.36708860759495" width="9.559493670886075" height="9.559493670886075" rx="0" ry="0" style="stroke-width:1;fill:gray;"/><text x="48.607594936708864" y="429.36708860759495" font-size="12"><tspan x="48.607594936708864" dy="0em">f2</tspan></text><rect x="97.21518987341773" y="542.7848101265823" width="121.51898734177216" height="81.0126582278481" rx="0" ry="0" style="stroke-width:1;fill:lightgray;"/><rect x="153.92405063291142" y="542.7848101265823" width="9.559493670886075" height="9.559493670886075" rx="0" ry="0" style="stroke-width:1;fill:gray;"/><text x="153.92405063291142" y="583.2911392405064" font-size="12"><tspan x="153.92405063291142" dy="0em">f1</tspan></text><rect x="218.7341772151899" y="542.7848101265823" width="64.81012658227849" height="40.50632911392405" rx="0" ry="0" style="stroke-width:1;fill:lightgray;"/><rect x="251.13924050632914" y="542.7848101265823" width="9.559493670886075" height="9.559493670886075" rx="0" ry="0" style="stroke-width:1;fill:gray;"/><text x="251.13924050632914" y="558.9873417721519" font-size="12"><tspan x="251.13924050632914" dy="0em">f8</tspan></text><rect x="283.5443037974684" y="542.7848101265823" width="121.51898734177216" height="97.21518987341773" rx="0" ry="0" style="stroke-width:1;fill:lightgray;"/><rect x="340.253164556962" y="542.7848101265823" width="9.559493670886075" height="9.559493670886075" rx="0" ry="0" style="stroke-width:1;fill:gray;"/><text x="340.2531645569621" y="591.3924050632912" font-size="12"><tspan x="340.2531645569621" dy="0em">f3</tspan></text><rect x="405.0632911392405" y="542.7848101265823" width="72.9113924050633" height="48.607594936708864" rx="0" ry="0" style="stroke-width:1;fill:lightgray;"/><rect x="437.4683544303798" y="542.7848101265823" width="9.559493670886075" height="9.559493670886075" rx="0" ry="0" style="stroke-width:1;fill:gray;"/><text x="437.46835443037975" y="567.0886075949368" font-size="12"><tspan x="437.46835443037975" dy="0em">f5</tspan></text><rect x="97.21518987341773" y="396.9620253164557" width="202.53164556962025" height="145.8227848101266" rx="0" ry="0" style="stroke-width:1;fill:lightgray;"/><rect x="290.1873417721519" y="469.873417721519" width="9.559493670886075" height="9.559493670886075" rx="0" ry="0" style="stroke-width:1;fill:gray;"/><text x="194.43037974683546" y="469.873417721519" font-size="12"><tspan x="194.43037974683546" dy="0em">f6</tspan></text><rect x="0.0" y="291.6455696202532" width="153.92405063291142" height="105.31645569620254" rx="0" ry="0" style="stroke-width:1;fill:lightgray;"/><rect x="72.9113924050633" y="291.6455696202532" width="9.559493670886075" height="9.559493670886075" rx="0" ry="0" style="stroke-width:1;fill:gray;"/><text x="72.9113924050633" y="340.253164556962" font-size="12"><tspan x="72.9113924050633" dy="0em">f10</tspan></text><rect x="0.0" y="162.0253164556962" width="162.0253164556962" height="129.62025316455697" rx="0" ry="0" style="stroke-width:1;fill:lightgray;"/><rect x="81.0126582278481" y="282.0860759493671" width="9.559493670886075" height="9.559493670886075" rx="0" ry="0" style="stroke-width:1;fill:gray;"/><text x="81.0126582278481" y="226.8354430379747" font-size="12"><tspan x="81.0126582278481" dy="0em">f7</tspan></text><rect x="0.0" y="89.11392405063292" width="72.9113924050633" height="72.9113924050633" rx="0" ry="0" style="stroke-width:1;fill:lightgray;"/><rect x="32.40506329113924" y="89.11392405063292" width="9.559493670886075" height="9.559493670886075" rx="0" ry="0" style="stroke-width:1;fill:gray;"/><text x="32.40506329113924" y="121.51898734177216" font-size="12"><tspan x="32.40506329113924" dy="0em">f4</tspan></text><rect x="0.0" y="0.0" width="89.11392405063292" height="89.11392405063292" rx="0" ry="0" style="stroke-width:1;fill:lightgray;"/><rect x="40.50632911392405" y="79.55443037974685" width="9.559493670886075" height="9.559493670886075" rx="0" ry="0" style="stroke-width:1;fill:gray;"/><text x="40.50632911392405" y="40.50632911392405" font-size="12"><tspan x="40.50632911392405" dy="0em">f9</tspan></text></g></svg>