<?xml version="1.0" standalone="no"?>
<!DOCTYPE svg PUBLIC "-//W3C//DTD SVG 1.1//EN"
  "http://www.w3.org/Graphics/SVG/1.1/DTD/svg11.dtd">
<svg width="533.3333333333333" height="640.0" version="1.1"
  xmlns="http://www.w3.org/2000/svg">
<g style="stroke:black;"><rect x="0.0" y="388.57142857142856" width="144.76190476190476" height="99.04761904761904" rx="0" ry="0" style="stroke-width:1;fill:lightgray;"/><rect x="68.57142857142857" y="388.57142857142856" width="10.666666666666666" height="10.666666666666666" rx="0" ry="0" style="stroke-width:1;fill:gray;"/><text x="68.57142857142857" y="434.2857142857143" font-size="12"><tspan x="68.57142857142857" dy="0em">f10</tspan></text><rect x="144.76190476190476" y="502.85714285714283" width="83.80952380952381" height="83.80952380952381" rx="0" ry="0" style="stroke-width:1;fill:lightgray;"/><rect x="182.85714285714283" y="502.85714285714283" width="10.666666666666666" height="10.666666666666666" rx="0" ry="0" style="stroke-width:1;fill:gray;"/><text x="182.85714285714286" y="540.952380952381" font-size="12"><tspan x="182.85714285714286" dy="0em">f9</tspan></text><rect x="228.57142857142856" y="502.85714285714283" width="190.47619047619045" height="137.14285714285714" rx="0" ry="0" style="stroke-width:1;fill:lightgray;"/><rect x="228.57142857142856" y="571.4285714285714" width="10.666666666666666" height="10.666666666666666" rx="0" ry="0" style="stroke-width:1;fill:gray;"/><text x="320.0" y="571.4285714285714" font-size="12"><tspan x="320.0" dy="0em">f6</tspan></text><rect x="144.76190476190476" y="457.1428571428571" width="68.57142857142857" height="45.71428571428571" rx="0" ry="0" style="stroke-width:1;fill:lightgray;"/><rect x="175.23809523809524" y="492.19047619047615" width="10.666666666666666" height="10.666666666666666" rx="0" ry="0" style="stroke-width:1;fill:gray;"/><text x="175.23809523809524" y="479.99999999999994" font-size="12"><tspan x="175.23809523809524" dy="0em">f5</tspan></text><rect x="144.76190476190476" y="388.57142857142856" width="68.57142857142857" height="68.57142857142857" rx="0" ry="0" style="stroke-width:1;fill:lightgray;"/><rect x="175.23809523809524" y="446.4761904761905" width="10.666666666666666" height="10.666666666666666" rx="0" ry="0" style="stroke-width:1;fill:gray;"/><text x="175.23809523809524" y="419.04761904761904" font-size="12"><tspan x="175.23809523809524" dy="0em">f4</tspan></text><rect x="0.0" y="0.0" width="152.38095238095238" height="121.9047619047619" rx="0" ry="0" style="stroke-width:1;fill:lightgray;"/><rect x="76.19047619047619" y="111.23809523809523" width="10.666666666666666" height="10.666666666666666" rx="0" ry="0" style="stroke-width:1;fill:gray;"/><text x="76.19047619047619" y="60.95238095238095" font-size="12"><tspan x="76.19047619047619" dy="0em">f7</tspan></text><rect x="152.38095238095238" y="76.19047619047619" width="60.95238095238095" height="38.095238095238095" rx="0" ry="0" style="stroke-width:1;fill:lightgray;"/><rect x="182.85714285714283" y="103.6190476190476" width="10.666666666666666" height="10.666666666666666" rx="0" ry="0" style="stroke-width:1;fill:gray;"/><text x="182.85714285714286" y="91.42857142857143" font-size="12"><tspan x="182.85714285714286" dy="0em">f8</tspan></text><rect x="152.38095238095238" y="0.0" width="114.28571428571428" height="76.19047619047619" rx="0" ry="0" style="stroke-width:1;fill:lightgray;"/><rect x="205.7142857142857" y="65.52380952380952" width="10.666666666666666" height="10.666666666666666" rx="0" ry="0" style="stroke-width:1;fill:gray;"/><text x="205.71428571428572" y="38.095238095238095" font-size="12"><tspan x="205.71428571428572" dy="0em">f1</tspan></text><rect x="327.6190476190476" y="0.0" width="114.28571428571428" height="91.42857142857142" rx="0" ry="0" style="stroke-width:1;fill:lightgray;"/><rect x="380.9523809523809" y="80.76190476190476" width="10.666666666666666" height="10.666666666666666" rx="0" ry="0" style="stroke-width:1;fill:gray;"/><text x="380.9523809523809" y="45.71428571428571" font-size="12"><tspan x="380.9523809523809" dy="0em">f3</tspan></text><rect x="441.90476190476187" y="0.0" width="91.42857142857142" height="60.95238095238095" rx="0" ry="0" style="stroke-width:1;fill:lightgray;"/><rect x="487.6190476190476" y="50.28571428571428" width="10.666666666666666" height="10.666666666666666" rx="0" ry="0" style="stroke-width:1;fill:gray;"/><text x="487.6190476190476" y="30.476190476190474" font-size="12"><tspan x="487.6190476190476" dy="0em">f2</tspan></text></g></svg>