<?xml version="1.0" standalone="no"?>
<!DOCTYPE svg PUBLIC "-//W3C//DTD SVG 1.1//EN"
  "http://www.w3.org/Graphics/SVG/1.1/DTD/svg11.dtd">
<svg width="480.0" height="97.77777777777777" version="1.1"
  xmlns="http://www.w3.org/2000/svg">
<g style="stroke:black;"><rect x="0.0" y="21.333333333333332" width="35.55555555555556" height="28.444444444444443" rx="0" ry="0" style="stroke-width:1;fill:lightgray;"/><rect x="25.955555555555552" y="35.55555555555556" width="9.6" height="9.6" rx="0" ry="0" style="stroke-width:1;fill:gray;"/><text x="17.77777777777778" y="35.55555555555556" font-size="12"><tspan x="17.77777777777778" dy="0em">f17</tspan></text><rect x="0.0" y="0.0" width="26.666666666666664" height="21.333333333333332" rx="0" ry="0" style="stroke-width:1;fill:lightgray;"/><rect x="17.066666666666666" y="10.666666666666666" width="9.6" height="9.6" rx="0" ry="0" style="stroke-width:1;fill:gray;"/><text x="12.444444444444443" y="10.666666666666666" font-size="12"><tspan x="12.444444444444443" dy="0em">f3</tspan></text><rect x="62.22222222222222" y="0.0" width="33.77777777777778" height="23.11111111111111" rx="0" ry="0" style="stroke-width:1;fill:lightgray;"/><rect x="62.22222222222222" y="10.666666666666666" width="9.6" height="9.6" rx="0" ry="0" style="stroke-width:1;fill:gray;"/><text x="78.22222222222223" y="10.666666666666666" font-size="12"><tspan x="78.22222222222223" dy="0em">f20</tspan></text><rect x="96.0" y="0.0" width="19.555555555555554" height="19.555555555555554" rx="0" ry="0" style="stroke-width:1;fill:lightgray;"/><rect x="105.95555555555555" y="8.88888888888889" width="9.6" height="9.6" rx="0" ry="0" style="stroke-width:1;fill:gray;"/><text x="104.88888888888889" y="8.88888888888889" font-size="12"><tspan x="104.88888888888889" dy="0em">f19</tspan></text><rect x="115.55555555555554" y="0.0" width="44.44444444444444" height="32.0" rx="0" ry="0" style="stroke-width:1;fill:lightgray;"/><rect x="150.39999999999998" y="16.0" width="9.6" height="9.6" rx="0" ry="0" style="stroke-width:1;fill:gray;"/><text x="136.88888888888889" y="16.0" font-size="12"><tspan x="136.88888888888889" dy="0em">f16</tspan></text><rect x="160.0" y="32.0" width="16.0" height="10.666666666666666" rx="0" ry="0" style="stroke-width:1;fill:lightgray;"/><rect x="166.39999999999998" y="37.33333333333333" width="9.6" height="9.6" rx="0" ry="0" style="stroke-width:1;fill:gray;"/><text x="167.11111111111111" y="37.333333333333336" font-size="12"><tspan x="167.11111111111111" dy="0em">f5</tspan></text><rect x="176.0" y="32.0" width="26.666666666666664" height="17.77777777777778" rx="0" ry="0" style="stroke-width:1;fill:lightgray;"/><rect x="188.44444444444443" y="32.0" width="9.6" height="9.6" rx="0" ry="0" style="stroke-width:1;fill:gray;"/><text x="188.44444444444446" y="40.888888888888886" font-size="12"><tspan x="188.44444444444446" dy="0em">f1</tspan></text><rect x="160.0" y="0.0" width="44.44444444444444" height="32.0" rx="0" ry="0" style="stroke-width:1;fill:lightgray;"/><rect x="181.33333333333331" y="22.4" width="9.6" height="9.6" rx="0" ry="0" style="stroke-width:1;fill:gray;"/><text x="181.33333333333334" y="16.0" font-size="12"><tspan x="181.33333333333334" dy="0em">f6</tspan></text><rect x="247.1111111111111" y="0.0" width="16.0" height="16.0" rx="0" ry="0" style="stroke-width:1;fill:lightgray;"/><rect x="254.2222222222222" y="6.399999999999999" width="9.6" height="9.6" rx="0" ry="0" style="stroke-width:1;fill:gray;"/><text x="254.2222222222222" y="7.111111111111111" font-size="12"><tspan x="254.2222222222222" dy="0em">f4</tspan></text><rect x="263.1111111111111" y="0.0" width="35.55555555555556" height="28.444444444444443" rx="0" ry="0" style="stroke-width:1;fill:lightgray;"/><rect x="289.06666666666666" y="14.222222222222221" width="9.6" height="9.6" rx="0" ry="0" style="stroke-width:1;fill:gray;"/><text x="280.88888888888886" y="14.222222222222221" font-size="12"><tspan x="280.88888888888886" dy="0em">f7</tspan></text><rect x="298.66666666666663" y="78.22222222222221" width="19.555555555555554" height="19.555555555555554" rx="0" ry="0" style="stroke-width:1;fill:lightgray;"/><rect x="298.66666666666663" y="87.1111111111111" width="9.6" height="9.6" rx="0" ry="0" style="stroke-width:1;fill:gray;"/><text x="307.55555555555554" y="87.1111111111111" font-size="12"><tspan x="307.55555555555554" dy="0em">f9</tspan></text><rect x="298.66666666666663" y="35.55555555555556" width="16.0" height="10.666666666666666" rx="0" ry="0" style="stroke-width:1;fill:lightgray;"/><rect x="298.66666666666663" y="40.888888888888886" width="9.6" height="9.6" rx="0" ry="0" style="stroke-width:1;fill:gray;"/><text x="305.7777777777777" y="40.88888888888889" font-size="12"><tspan x="305.7777777777777" dy="0em">f15</tspan></text><rect x="314.66666666666663" y="53.33333333333333" width="21.333333333333332" height="14.222222222222221" rx="0" ry="0" style="stroke-width:1;fill:lightgray;"/><rect x="314.66666666666663" y="60.44444444444444" width="9.6" height="9.6" rx="0" ry="0" style="stroke-width:1;fill:gray;"/><text x="325.3333333333333" y="60.44444444444444" font-size="12"><tspan x="325.3333333333333" dy="0em">f12</tspan></text><rect x="314.66666666666663" y="35.55555555555556" width="26.666666666666664" height="17.77777777777778" rx="0" ry="0" style="stroke-width:1;fill:lightgray;"/><rect x="314.66666666666663" y="44.44444444444444" width="9.6" height="9.6" rx="0" ry="0" style="stroke-width:1;fill:gray;"/><text x="327.1111111111111" y="44.44444444444444" font-size="12"><tspan x="327.1111111111111" dy="0em">f11</tspan></text><rect x="382.22222222222223" y="35.55555555555556" width="16.0" height="16.0" rx="0" ry="0" style="stroke-width:1;fill:lightgray;"/><rect x="382.22222222222223" y="42.666666666666664" width="9.6" height="9.6" rx="0" ry="0" style="stroke-width:1;fill:gray;"/><text x="389.3333333333333" y="42.66666666666667" font-size="12"><tspan x="389.3333333333333" dy="0em">f14</tspan></text><rect x="298.66666666666663" y="21.333333333333332" width="21.333333333333332" height="14.222222222222221" rx="0" ry="0" style="stroke-width:1;fill:lightgray;"/><rect x="309.3333333333333" y="25.955555555555552" width="9.6" height="9.6" rx="0" ry="0" style="stroke-width:1;fill:gray;"/><text x="309.3333333333333" y="28.444444444444443" font-size="12"><tspan x="309.3333333333333" dy="0em">f2</tspan></text><rect x="298.66666666666663" y="0.0" width="26.666666666666664" height="21.333333333333332" rx="0" ry="0" style="stroke-width:1;fill:lightgray;"/><rect x="298.66666666666663" y="10.666666666666666" width="9.6" height="9.6" rx="0" ry="0" style="stroke-width:1;fill:gray;"/><text x="311.1111111111111" y="10.666666666666666" font-size="12"><tspan x="311.1111111111111" dy="0em">f13</tspan></text><rect x="446.2222222222222" y="32.0" width="14.222222222222221" height="8.88888888888889" rx="0" ry="0" style="stroke-width:1;fill:lightgray;"/><rect x="446.2222222222222" y="35.55555555555556" width="9.6" height="9.6" rx="0" ry="0" style="stroke-width:1;fill:gray;"/><text x="453.33333333333326" y="35.55555555555556" font-size="12"><tspan x="453.33333333333326" dy="0em">f18</tspan></text><rect x="446.2222222222222" y="8.88888888888889" width="33.77777777777778" height="23.11111111111111" rx="0" ry="0" style="stroke-width:1;fill:lightgray;"/><rect x="446.2222222222222" y="19.555555555555554" width="9.6" height="9.6" rx="0" ry="0" style="stroke-width:1;fill:gray;"/><text x="462.2222222222222" y="19.555555555555557" font-size="12"><tspan x="462.2222222222222" dy="0em">f10</tspan></text><rect x="446.2222222222222" y="0.0" width="14.222222222222221" height="8.88888888888889" rx="0" ry="0" style="stroke-width:1;fill:lightgray;"/><rect x="446.2222222222222" y="3.5555555555555554" width="9.6" height="9.6" rx="0" ry="0" style="stroke-width:1;fill:gray;"/><text x="453.33333333333326" y="3.5555555555555554" font-size="12"><tspan x="453.33333333333326" dy="0em">f8</tspan></text></g></svg>