<?xml version="1.0" standalone="no"?>
<!DOCTYPE svg PUBLIC "-//W3C//DTD SVG 1.1//EN"
  "http://www.w3.org/Graphics/SVG/1.1/DTD/svg11.dtd">
<svg width="393.8461538461538" height="640.0" version="1.1"
  xmlns="http://www.w3.org/2000/svg">
<g style="stroke:black;"><rect x="0.0" y="569.6703296703297" width="70.32967032967034" height="56.26373626373626" rx="0" ry="0" style="stroke-width:1;fill:lightgray;"/><rect x="62.452747252747244" y="597.8021978021978" width="7.876923076923077" height="7.876923076923077" rx="0" ry="0" style="stroke-width:1;fill:gray;"/><text x="35.16483516483517" y="597.8021978021978" font-size="12"><tspan x="35.16483516483517" dy="0em">f6</tspan></text><rect x="70.32967032967034" y="569.6703296703297" width="70.32967032967034" height="70.32967032967034" rx="0" ry="0" style="stroke-width:1;fill:lightgray;"/><rect x="70.32967032967034" y="604.8351648351648" width="7.876923076923077" height="7.876923076923077" rx="0" ry="0" style="stroke-width:1;fill:gray;"/><text x="105.4945054945055" y="604.8351648351648" font-size="12"><tspan x="105.4945054945055" dy="0em">f10</tspan></text><rect x="140.65934065934067" y="569.6703296703297" width="84.3956043956044" height="70.32967032967034" rx="0" ry="0" style="stroke-width:1;fill:lightgray;"/><rect x="182.85714285714286" y="569.6703296703297" width="7.876923076923077" height="7.876923076923077" rx="0" ry="0" style="stroke-width:1;fill:gray;"/><text x="182.85714285714286" y="604.8351648351648" font-size="12"><tspan x="182.85714285714286" dy="0em">f3</tspan></text><rect x="0.0" y="485.27472527472526" width="84.3956043956044" height="84.3956043956044" rx="0" ry="0" style="stroke-width:1;fill:lightgray;"/><rect x="76.51868131868132" y="527.4725274725274" width="7.876923076923077" height="7.876923076923077" rx="0" ry="0" style="stroke-width:1;fill:gray;"/><text x="42.1978021978022" y="527.4725274725274" font-size="12"><tspan x="42.1978021978022" dy="0em">f5</tspan></text><rect x="309.45054945054943" y="485.27472527472526" width="84.3956043956044" height="63.2967032967033" rx="0" ry="0" style="stroke-width:1;fill:lightgray;"/><rect x="309.45054945054943" y="513.4065934065934" width="7.876923076923077" height="7.876923076923077" rx="0" ry="0" style="stroke-width:1;fill:gray;"/><text x="351.64835164835165" y="513.4065934065934" font-size="12"><tspan x="351.64835164835165" dy="0em">f9</tspan></text><rect x="0.0" y="295.38461538461536" width="56.26373626373626" height="56.26373626373626" rx="0" ry="0" style="stroke-width:1;fill:lightgray;"/><rect x="28.13186813186813" y="343.7714285714286" width="7.876923076923077" height="7.876923076923077" rx="0" ry="0" style="stroke-width:1;fill:gray;"/><text x="28.13186813186813" y="323.5164835164835" font-size="12"><tspan x="28.13186813186813" dy="0em">f4</tspan></text><rect x="56.26373626373626" y="295.38461538461536" width="105.49450549450549" height="77.36263736263736" rx="0" ry="0" style="stroke-width:1;fill:lightgray;"/><rect x="105.49450549450549" y="364.8703296703297" width="7.876923076923077" height="7.876923076923077" rx="0" ry="0" style="stroke-width:1;fill:gray;"/><text x="105.49450549450549" y="330.5494505494505" font-size="12"><tspan x="105.49450549450549" dy="0em">f8</tspan></text><rect x="161.75824175824175" y="295.38461538461536" width="84.3956043956044" height="56.26373626373626" rx="0" ry="0" style="stroke-width:1;fill:lightgray;"/><rect x="203.95604395604394" y="295.38461538461536" width="7.876923076923077" height="7.876923076923077" rx="0" ry="0" style="stroke-width:1;fill:gray;"/><text x="203.95604395604394" y="323.5164835164835" font-size="12"><tspan x="203.95604395604394" dy="0em">f12</tspan></text><rect x="0.0" y="218.02197802197801" width="77.36263736263736" height="77.36263736263736" rx="0" ry="0" style="stroke-width:1;fill:lightgray;"/><rect x="69.48571428571428" y="253.1868131868132" width="7.876923076923077" height="7.876923076923077" rx="0" ry="0" style="stroke-width:1;fill:gray;"/><text x="35.16483516483517" y="253.1868131868132" font-size="12"><tspan x="35.16483516483517" dy="0em">f11</tspan></text><rect x="0.0" y="147.69230769230768" width="98.46153846153845" height="70.32967032967034" rx="0" ry="0" style="stroke-width:1;fill:lightgray;"/><rect x="90.58461538461538" y="182.85714285714286" width="7.876923076923077" height="7.876923076923077" rx="0" ry="0" style="stroke-width:1;fill:gray;"/><text x="49.230769230769226" y="182.85714285714283" font-size="12"><tspan x="49.230769230769226" dy="0em">f2</tspan></text><rect x="0.0" y="49.230769230769226" width="140.65934065934067" height="98.46153846153845" rx="0" ry="0" style="stroke-width:1;fill:lightgray;"/><rect x="132.78241758241757" y="98.46153846153845" width="7.876923076923077" height="7.876923076923077" rx="0" ry="0" style="stroke-width:1;fill:gray;"/><text x="70.32967032967034" y="98.46153846153845" font-size="12"><tspan x="70.32967032967034" dy="0em">f7</tspan></text><rect x="0.0" y="0.0" width="63.2967032967033" height="49.230769230769226" rx="0" ry="0" style="stroke-width:1;fill:lightgray;"/><rect x="55.419780219780215" y="21.0989010989011" width="7.876923076923077" height="7.876923076923077" rx="0" ry="0" style="stroke-width:1;fill:gray;"/><text x="28.13186813186813" y="21.0989010989011" font-size="12"><tspan x="28.13186813186813" dy="0em">f1</tspan></text></g></svg>