<?xml version="1.0" standalone="no"?>
<!DOCTYPE svg PUBLIC "-//W3C//DTD SVG 1.1//EN"
  "http://www.w3.org/Graphics/SVG/1.1/DTD/svg11.dtd">
<svg width="480.0" height="397.89473684210526" version="1.1"
  xmlns="http://www.w3.org/2000/svg">
<g style="stroke:black;"><rect x="0.0" y="0.0" width="126.31578947368422" height="88.42105263157895" rx="0" ry="0" style="stroke-width:1;fill:lightgray;"/><rect x="116.71578947368421" y="44.21052631578947" width="9.6" height="9.6" rx="0" ry="0" style="stroke-width:1;fill:gray;"/><text x="63.15789473684211" y="44.21052631578947" font-size="12"><tspan x="63.15789473684211" dy="0em">f7</tspan></text><rect x="126.31578947368422" y="0.0" width="50.526315789473685" height="50.526315789473685" rx="0" ry="0" style="stroke-width:1;fill:lightgray;"/><rect x="151.57894736842104" y="40.92631578947369" width="9.6" height="9.6" rx="0" ry="0" style="stroke-width:1;fill:gray;"/><text x="151.57894736842107" y="25.263157894736842" font-size="12"><tspan x="151.57894736842107" dy="0em">f4</tspan></text><rect x="176.8421052631579" y="221.05263157894737" width="69.47368421052632" height="69.47368421052632" rx="0" ry="0" style="stroke-width:1;fill:lightgray;"/><rect x="236.7157894736842" y="252.63157894736844" width="9.6" height="9.6" rx="0" ry="0" style="stroke-width:1;fill:gray;"/><text x="208.42105263157896" y="252.63157894736844" font-size="12"><tspan x="208.42105263157896" dy="0em">f11</tspan></text><rect x="246.31578947368422" y="221.05263157894737" width="75.78947368421052" height="75.78947368421052" rx="0" ry="0" style="stroke-width:1;fill:lightgray;"/><rect x="284.2105263157895" y="221.05263157894737" width="9.6" height="9.6" rx="0" ry="0" style="stroke-width:1;fill:gray;"/><text x="284.2105263157895" y="258.9473684210526" font-size="12"><tspan x="284.2105263157895" dy="0em">f5</tspan></text><rect x="322.10526315789474" y="271.57894736842104" width="63.15789473684211" height="63.15789473684211" rx="0" ry="0" style="stroke-width:1;fill:lightgray;"/><rect x="353.6842105263158" y="271.57894736842104" width="9.6" height="9.6" rx="0" ry="0" style="stroke-width:1;fill:gray;"/><text x="353.6842105263158" y="303.1578947368421" font-size="12"><tspan x="353.6842105263158" dy="0em">f10</tspan></text><rect x="385.2631578947368" y="328.42105263157896" width="94.73684210526316" height="69.47368421052632" rx="0" ry="0" style="stroke-width:1;fill:lightgray;"/><rect x="385.2631578947368" y="360.0" width="9.6" height="9.6" rx="0" ry="0" style="stroke-width:1;fill:gray;"/><text x="429.4736842105263" y="360.0" font-size="12"><tspan x="429.4736842105263" dy="0em">f8</tspan></text><rect x="385.2631578947368" y="271.57894736842104" width="75.78947368421052" height="56.8421052631579" rx="0" ry="0" style="stroke-width:1;fill:lightgray;"/><rect x="385.2631578947368" y="296.8421052631579" width="9.6" height="9.6" rx="0" ry="0" style="stroke-width:1;fill:gray;"/><text x="423.1578947368421" y="296.84210526315786" font-size="12"><tspan x="423.1578947368421" dy="0em">f9</tspan></text><rect x="322.10526315789474" y="221.05263157894737" width="63.15789473684211" height="50.526315789473685" rx="0" ry="0" style="stroke-width:1;fill:lightgray;"/><rect x="353.6842105263158" y="261.978947368421" width="9.6" height="9.6" rx="0" ry="0" style="stroke-width:1;fill:gray;"/><text x="353.6842105263158" y="246.31578947368422" font-size="12"><tspan x="353.6842105263158" dy="0em">f6</tspan></text><rect x="176.8421052631579" y="126.31578947368422" width="56.8421052631579" height="44.21052631578947" rx="0" ry="0" style="stroke-width:1;fill:lightgray;"/><rect x="224.0842105263158" y="145.26315789473685" width="9.6" height="9.6" rx="0" ry="0" style="stroke-width:1;fill:gray;"/><text x="202.10526315789474" y="145.26315789473685" font-size="12"><tspan x="202.10526315789474" dy="0em">f1</tspan></text><rect x="233.68421052631578" y="126.31578947368422" width="75.78947368421052" height="50.526315789473685" rx="0" ry="0" style="stroke-width:1;fill:lightgray;"/><rect x="233.68421052631578" y="151.57894736842104" width="9.6" height="9.6" rx="0" ry="0" style="stroke-width:1;fill:gray;"/><text x="271.57894736842104" y="151.57894736842107" font-size="12"><tspan x="271.57894736842104" dy="0em">f12</tspan></text><rect x="176.8421052631579" y="63.15789473684211" width="75.78947368421052" height="63.15789473684211" rx="0" ry="0" style="stroke-width:1;fill:lightgray;"/><rect x="214.73684210526315" y="116.71578947368421" width="9.6" height="9.6" rx="0" ry="0" style="stroke-width:1;fill:gray;"/><text x="214.73684210526315" y="94.73684210526316" font-size="12"><tspan x="214.73684210526315" dy="0em">f3</tspan></text><rect x="176.8421052631579" y="0.0" width="88.42105263157895" height="63.15789473684211" rx="0" ry="0" style="stroke-width:1;fill:lightgray;"/><rect x="221.05263157894737" y="53.55789473684211" width="9.6" height="9.6" rx="0" ry="0" style="stroke-width:1;fill:gray;"/><text x="221.05263157894737" y="31.578947368421055" font-size="12"><tspan x="221.05263157894737" dy="0em">f2</tspan></text></g></svg>