<?xml version="1.0" standalone="no"?>
<!DOCTYPE svg PUBLIC "-//W3C//DTD SVG 1.1//EN"
  "http://www.w3.org/Graphics/SVG/1.1/DTD/svg11.dtd">
<svg width="553.2203389830509" height="640.0" version="1.1"
  xmlns="http://www.w3.org/2000/svg">
<g style="stroke:black;"><rect x="0.0" y="585.7627118644068" width="65.08474576271186" height="54.23728813559322" rx="0" ry="0" style="stroke-width:1;fill:lightgray;"/><rect x="32.54237288135593" y="585.7627118644068" width="11.064406779661017" height="11.064406779661017" rx="0" ry="0" style="stroke-width:1;fill:gray;"/><text x="32.54237288135593" y="612.8813559322034" font-size="12"><tspan x="32.54237288135593" dy="0em">f3</tspan></text><rect x="0.0" y="520.6779661016949" width="65.08474576271186" height="65.08474576271186" rx="0" ry="0" style="stroke-width:1;fill:lightgray;"/><rect x="32.54237288135593" y="574.6983050847457" width="11.064406779661017" height="11.064406779661017" rx="0" ry="0" style="stroke-width:1;fill:gray;"/><text x="32.54237288135593" y="553.2203389830509" font-size="12"><tspan x="32.54237288135593" dy="0em">f5</tspan></text><rect x="0.0" y="477.2881355932203" width="43.389830508474574" height="43.389830508474574" rx="0" ry="0" style="stroke-width:1;fill:lightgray;"/><rect x="21.694915254237287" y="509.61355932203384" width="11.064406779661017" height="11.064406779661017" rx="0" ry="0" style="stroke-width:1;fill:gray;"/><text x="21.694915254237287" y="498.9830508474576" font-size="12"><tspan x="21.694915254237287" dy="0em">f4</tspan></text><rect x="0.0" y="43.389830508474574" width="54.23728813559322" height="54.23728813559322" rx="0" ry="0" style="stroke-width:1;fill:lightgray;"/><rect x="27.11864406779661" y="43.389830508474574" width="11.064406779661017" height="11.064406779661017" rx="0" ry="0" style="stroke-width:1;fill:gray;"/><text x="27.11864406779661" y="70.50847457627118" font-size="12"><tspan x="27.11864406779661" dy="0em">f10</tspan></text><rect x="54.23728813559322" y="43.389830508474574" width="48.813559322033896" height="37.96610169491525" rx="0" ry="0" style="stroke-width:1;fill:lightgray;"/><rect x="91.9864406779661" y="59.66101694915254" width="11.064406779661017" height="11.064406779661017" rx="0" ry="0" style="stroke-width:1;fill:gray;"/><text x="75.9322033898305" y="59.66101694915254" font-size="12"><tspan x="75.9322033898305" dy="0em">f1</tspan></text><rect x="103.05084745762711" y="43.389830508474574" width="81.35593220338983" height="59.66101694915254" rx="0" ry="0" style="stroke-width:1;fill:lightgray;"/><rect x="141.01694915254237" y="91.9864406779661" width="11.064406779661017" height="11.064406779661017" rx="0" ry="0" style="stroke-width:1;fill:gray;"/><text x="141.01694915254237" y="70.50847457627118" font-size="12"><tspan x="141.01694915254237" dy="0em">f8</tspan></text><rect x="184.40677966101694" y="43.389830508474574" width="108.47457627118644" height="75.9322033898305" rx="0" ry="0" style="stroke-width:1;fill:lightgray;"/><rect x="281.81694915254235" y="81.35593220338983" width="11.064406779661017" height="11.064406779661017" rx="0" ry="0" style="stroke-width:1;fill:gray;"/><text x="238.64406779661016" y="81.35593220338983" font-size="12"><tspan x="238.64406779661016" dy="0em">f7</tspan></text><rect x="292.8813559322034" y="43.389830508474574" width="75.9322033898305" height="54.23728813559322" rx="0" ry="0" style="stroke-width:1;fill:lightgray;"/><rect x="330.8474576271186" y="86.56271186440678" width="11.064406779661017" height="11.064406779661017" rx="0" ry="0" style="stroke-width:1;fill:gray;"/><text x="330.8474576271187" y="70.50847457627118" font-size="12"><tspan x="330.8474576271187" dy="0em">f2</tspan></text><rect x="368.8135593220339" y="43.389830508474574" width="65.08474576271186" height="43.389830508474574" rx="0" ry="0" style="stroke-width:1;fill:lightgray;"/><rect x="368.8135593220339" y="65.08474576271186" width="11.064406779661017" height="11.064406779661017" rx="0" ry="0" style="stroke-width:1;fill:gray;"/><text x="401.3559322033898" y="65.08474576271186" font-size="12"><tspan x="401.3559322033898" dy="0em">f12</tspan></text><rect x="0.0" y="0.0" width="54.23728813559322" height="43.389830508474574" rx="0" ry="0" style="stroke-width:1;fill:lightgray;"/><rect x="27.11864406779661" y="32.325423728813554" width="11.064406779661017" height="11.064406779661017" rx="0" ry="0" style="stroke-width:1;fill:gray;"/><text x="27.11864406779661" y="21.694915254237287" font-size="12"><tspan x="27.11864406779661" dy="0em">f6</tspan></text><rect x="488.13559322033893" y="48.813559322033896" width="59.66101694915254" height="59.66101694915254" rx="0" ry="0" style="stroke-width:1;fill:lightgray;"/><rect x="515.2542372881355" y="97.41016949152542" width="11.064406779661017" height="11.064406779661017" rx="0" ry="0" style="stroke-width:1;fill:gray;"/><text x="515.2542372881355" y="75.9322033898305" font-size="12"><tspan x="515.2542372881355" dy="0em">f11</tspan></text><rect x="488.13559322033893" y="0.0" width="65.08474576271186" height="48.813559322033896" rx="0" ry="0" style="stroke-width:1;fill:lightgray;"/><rect x="488.13559322033893" y="21.694915254237287" width="11.064406779661017" height="11.064406779661017" rx="0" ry="0" style="stroke-width:1;fill:gray;"/><text x="520.6779661016949" y="21.694915254237287" font-size="12"><tspan x="520.6779661016949" dy="0em">f9</tspan></text></g></svg>