<?xml version="1.0" standalone="no"?>
<!DOCTYPE svg PUBLIC "-//W3C//DTD SVG 1.1//EN"
  "http://www.w3.org/Graphics/SVG/1.1/DTD/svg11.dtd">
<svg width="562.4242424242425" height="640.0" version="1.1"
  xmlns="http://www.w3.org/2000/svg">
<g style="stroke:black;"><rect x="0.0" y="533.3333333333334" width="87.27272727272728" height="58.18181818181819" rx="0" ry="0" style="stroke-width:1;fill:lightgray;"/><rect x="76.02424242424243" y="562.4242424242425" width="11.248484848484848" height="11.248484848484848" rx="0" ry="0" style="stroke-width:1;fill:gray;"/><text x="38.78787878787879" y="562.4242424242425" font-size="12"><tspan x="38.78787878787879" dy="0em">f7</tspan></text><rect x="87.27272727272728" y="533.3333333333334" width="77.57575757575758" height="77.57575757575758" rx="0" ry="0" style="stroke-width:1;fill:lightgray;"/><rect x="126.06060606060606" y="533.3333333333334" width="11.248484848484848" height="11.248484848484848" rx="0" ry="0" style="stroke-width:1;fill:gray;"/><text x="126.06060606060606" y="572.1212121212121" font-size="12"><tspan x="126.06060606060606" dy="0em">f6</tspan></text><rect x="164.84848484848484" y="533.3333333333334" width="145.45454545454547" height="106.66666666666667" rx="0" ry="0" style="stroke-width:1;fill:lightgray;"/><rect x="164.84848484848484" y="581.8181818181819" width="11.248484848484848" height="11.248484848484848" rx="0" ry="0" style="stroke-width:1;fill:gray;"/><text x="232.72727272727272" y="581.8181818181819" font-size="12"><tspan x="232.72727272727272" dy="0em">f8</tspan></text><rect x="0.0" y="436.3636363636364" width="135.75757575757575" height="96.96969696969697" rx="0" ry="0" style="stroke-width:1;fill:lightgray;"/><rect x="67.87878787878788" y="436.3636363636364" width="11.248484848484848" height="11.248484848484848" rx="0" ry="0" style="stroke-width:1;fill:gray;"/><text x="67.87878787878788" y="484.8484848484849" font-size="12"><tspan x="67.87878787878788" dy="0em">f1</tspan></text><rect x="0.0" y="126.06060606060606" width="96.96969696969697" height="96.96969696969697" rx="0" ry="0" style="stroke-width:1;fill:lightgray;"/><rect x="48.484848484848484" y="211.78181818181818" width="11.248484848484848" height="11.248484848484848" rx="0" ry="0" style="stroke-width:1;fill:gray;"/><text x="48.484848484848484" y="174.54545454545456" font-size="12"><tspan x="48.484848484848484" dy="0em">f3</tspan></text><rect x="0.0" y="0.0" width="174.54545454545456" height="126.06060606060606" rx="0" ry="0" style="stroke-width:1;fill:lightgray;"/><rect x="87.27272727272728" y="114.81212121212121" width="11.248484848484848" height="11.248484848484848" rx="0" ry="0" style="stroke-width:1;fill:gray;"/><text x="87.27272727272728" y="58.18181818181819" font-size="12"><tspan x="87.27272727272728" dy="0em">f5</tspan></text><rect x="271.5151515151515" y="0.0" width="96.96969696969697" height="67.87878787878788" rx="0" ry="0" style="stroke-width:1;fill:lightgray;"/><rect x="320.0" y="56.63030303030303" width="11.248484848484848" height="11.248484848484848" rx="0" ry="0" style="stroke-width:1;fill:gray;"/><text x="320.0" y="29.090909090909093" font-size="12"><tspan x="320.0" dy="0em">f2</tspan></text><rect x="368.4848484848485" y="0.0" width="193.93939393939394" height="145.45454545454547" rx="0" ry="0" style="stroke-width:1;fill:lightgray;"/><rect x="465.4545454545455" y="134.20606060606062" width="11.248484848484848" height="11.248484848484848" rx="0" ry="0" style="stroke-width:1;fill:gray;"/><text x="465.4545454545455" y="67.87878787878788" font-size="12"><tspan x="465.4545454545455" dy="0em">f4</tspan></text></g></svg>