<?xml version="1.0" standalone="no"?>
<!DOCTYPE svg PUBLIC "-//W3C//DTD SVG 1.1//EN"
  "http://www.w3.org/Graphics/SVG/1.1/DTD/svg11.dtd">
<svg width="263.3142857142857" height="640.0" version="1.1"
  xmlns="http://www.w3.org/2000/svg">
<g style="stroke:black;"><rect x="0.0" y="533.9428571428572" width="29.257142857142856" height="18.285714285714285" rx="0" ry="0" style="stroke-width:1;fill:lightgray;"/><rect x="14.628571428571428" y="533.9428571428572" width="5.266285714285714" height="5.266285714285714" rx="0" ry="0" style="stroke-width:1;fill:gray;"/><text x="14.628571428571428" y="541.2571428571429" font-size="12"><tspan x="14.628571428571428" dy="0em">f8</tspan></text><rect x="29.257142857142856" y="533.9428571428572" width="32.91428571428571" height="21.942857142857143" rx="0" ry="0" style="stroke-width:1;fill:lightgray;"/><rect x="43.885714285714286" y="533.9428571428572" width="5.266285714285714" height="5.266285714285714" rx="0" ry="0" style="stroke-width:1;fill:gray;"/><text x="43.885714285714286" y="544.9142857142857" font-size="12"><tspan x="43.885714285714286" dy="0em">f5</tspan></text><rect x="62.17142857142857" y="533.9428571428572" width="32.91428571428571" height="32.91428571428571" rx="0" ry="0" style="stroke-width:1;fill:lightgray;"/><rect x="89.81942857142856" y="548.5714285714286" width="5.266285714285714" height="5.266285714285714" rx="0" ry="0" style="stroke-width:1;fill:gray;"/><text x="76.8" y="548.5714285714286" font-size="12"><tspan x="76.8" dy="0em">f4</tspan></text><rect x="95.08571428571429" y="574.1714285714286" width="54.857142857142854" height="36.57142857142857" rx="0" ry="0" style="stroke-width:1;fill:lightgray;"/><rect x="120.68571428571428" y="574.1714285714286" width="5.266285714285714" height="5.266285714285714" rx="0" ry="0" style="stroke-width:1;fill:gray;"/><text x="120.68571428571428" y="592.4571428571429" font-size="12"><tspan x="120.68571428571428" dy="0em">f1</tspan></text><rect x="95.08571428571429" y="533.9428571428572" width="40.22857142857143" height="40.22857142857143" rx="0" ry="0" style="stroke-width:1;fill:lightgray;"/><rect x="95.08571428571429" y="552.2285714285714" width="5.266285714285714" height="5.266285714285714" rx="0" ry="0" style="stroke-width:1;fill:gray;"/><text x="113.37142857142857" y="552.2285714285715" font-size="12"><tspan x="113.37142857142857" dy="0em">f9</tspan></text><rect x="190.17142857142858" y="592.4571428571428" width="69.48571428571428" height="47.542857142857144" rx="0" ry="0" style="stroke-width:1;fill:lightgray;"/><rect x="223.0857142857143" y="592.4571428571428" width="5.266285714285714" height="5.266285714285714" rx="0" ry="0" style="stroke-width:1;fill:gray;"/><text x="223.0857142857143" y="614.4" font-size="12"><tspan x="223.0857142857143" dy="0em">f10</tspan></text><rect x="190.17142857142858" y="533.9428571428572" width="73.14285714285714" height="58.51428571428571" rx="0" ry="0" style="stroke-width:1;fill:lightgray;"/><rect x="226.74285714285713" y="587.1908571428571" width="5.266285714285714" height="5.266285714285714" rx="0" ry="0" style="stroke-width:1;fill:gray;"/><text x="226.74285714285713" y="563.2" font-size="12"><tspan x="226.74285714285713" dy="0em">f7</tspan></text><rect x="0.0" y="490.0571428571428" width="54.857142857142854" height="43.885714285714286" rx="0" ry="0" style="stroke-width:1;fill:lightgray;"/><rect x="49.590857142857146" y="512.0" width="5.266285714285714" height="5.266285714285714" rx="0" ry="0" style="stroke-width:1;fill:gray;"/><text x="25.599999999999998" y="511.99999999999994" font-size="12"><tspan x="25.599999999999998" dy="0em">f3</tspan></text><rect x="0.0" y="424.2285714285714" width="91.42857142857143" height="65.82857142857142" rx="0" ry="0" style="stroke-width:1;fill:lightgray;"/><rect x="43.885714285714286" y="484.79085714285713" width="5.266285714285714" height="5.266285714285714" rx="0" ry="0" style="stroke-width:1;fill:gray;"/><text x="43.885714285714286" y="457.1428571428571" font-size="12"><tspan x="43.885714285714286" dy="0em">f6</tspan></text><rect x="0.0" y="394.97142857142853" width="43.885714285714286" height="29.257142857142856" rx="0" ry="0" style="stroke-width:1;fill:lightgray;"/><rect x="21.942857142857143" y="418.9622857142857" width="5.266285714285714" height="5.266285714285714" rx="0" ry="0" style="stroke-width:1;fill:gray;"/><text x="21.942857142857143" y="409.59999999999997" font-size="12"><tspan x="21.942857142857143" dy="0em">f2</tspan></text><rect x="0.0" y="157.25714285714284" width="32.91428571428571" height="32.91428571428571" rx="0" ry="0" style="stroke-width:1;fill:lightgray;"/><rect x="27.648" y="171.88571428571427" width="5.266285714285714" height="5.266285714285714" rx="0" ry="0" style="stroke-width:1;fill:gray;"/><text x="14.628571428571428" y="171.88571428571427" font-size="12"><tspan x="14.628571428571428" dy="0em">f14</tspan></text><rect x="32.91428571428571" y="179.2" width="40.22857142857143" height="40.22857142857143" rx="0" ry="0" style="stroke-width:1;fill:lightgray;"/><rect x="51.199999999999996" y="179.2" width="5.266285714285714" height="5.266285714285714" rx="0" ry="0" style="stroke-width:1;fill:gray;"/><text x="51.199999999999996" y="197.48571428571427" font-size="12"><tspan x="51.199999999999996" dy="0em">f19</tspan></text><rect x="73.14285714285714" y="179.2" width="54.857142857142854" height="36.57142857142857" rx="0" ry="0" style="stroke-width:1;fill:lightgray;"/><rect x="73.14285714285714" y="197.48571428571427" width="5.266285714285714" height="5.266285714285714" rx="0" ry="0" style="stroke-width:1;fill:gray;"/><text x="98.74285714285713" y="197.48571428571427" font-size="12"><tspan x="98.74285714285713" dy="0em">f11</tspan></text><rect x="128.0" y="237.7142857142857" width="69.48571428571428" height="47.542857142857144" rx="0" ry="0" style="stroke-width:1;fill:lightgray;"/><rect x="160.9142857142857" y="237.7142857142857" width="5.266285714285714" height="5.266285714285714" rx="0" ry="0" style="stroke-width:1;fill:gray;"/><text x="160.9142857142857" y="259.65714285714284" font-size="12"><tspan x="160.9142857142857" dy="0em">f20</tspan></text><rect x="128.0" y="179.2" width="73.14285714285714" height="58.51428571428571" rx="0" ry="0" style="stroke-width:1;fill:lightgray;"/><rect x="164.57142857142856" y="232.448" width="5.266285714285714" height="5.266285714285714" rx="0" ry="0" style="stroke-width:1;fill:gray;"/><text x="164.57142857142856" y="208.45714285714286" font-size="12"><tspan x="164.57142857142856" dy="0em">f17</tspan></text><rect x="32.91428571428571" y="157.25714285714284" width="32.91428571428571" height="21.942857142857143" rx="0" ry="0" style="stroke-width:1;fill:lightgray;"/><rect x="47.542857142857144" y="157.25714285714284" width="5.266285714285714" height="5.266285714285714" rx="0" ry="0" style="stroke-width:1;fill:gray;"/><text x="47.54285714285714" y="168.2285714285714" font-size="12"><tspan x="47.54285714285714" dy="0em">f15</tspan></text><rect x="0.0" y="138.97142857142856" width="29.257142857142856" height="18.285714285714285" rx="0" ry="0" style="stroke-width:1;fill:lightgray;"/><rect x="23.990857142857145" y="146.28571428571428" width="5.266285714285714" height="5.266285714285714" rx="0" ry="0" style="stroke-width:1;fill:gray;"/><text x="14.628571428571428" y="146.28571428571428" font-size="12"><tspan x="14.628571428571428" dy="0em">f18</tspan></text><rect x="0.0" y="73.14285714285714" width="91.42857142857143" height="65.82857142857142" rx="0" ry="0" style="stroke-width:1;fill:lightgray;"/><rect x="43.885714285714286" y="133.70514285714287" width="5.266285714285714" height="5.266285714285714" rx="0" ry="0" style="stroke-width:1;fill:gray;"/><text x="43.885714285714286" y="106.05714285714285" font-size="12"><tspan x="43.885714285714286" dy="0em">f16</tspan></text><rect x="0.0" y="29.257142857142856" width="54.857142857142854" height="43.885714285714286" rx="0" ry="0" style="stroke-width:1;fill:lightgray;"/><rect x="25.599999999999998" y="67.87657142857142" width="5.266285714285714" height="5.266285714285714" rx="0" ry="0" style="stroke-width:1;fill:gray;"/><text x="25.599999999999998" y="51.2" font-size="12"><tspan x="25.599999999999998" dy="0em">f13</tspan></text><rect x="0.0" y="0.0" width="43.885714285714286" height="29.257142857142856" rx="0" ry="0" style="stroke-width:1;fill:lightgray;"/><rect x="21.942857142857143" y="23.990857142857145" width="5.266285714285714" height="5.266285714285714" rx="0" ry="0" style="stroke-width:1;fill:gray;"/><text x="21.942857142857143" y="14.628571428571428" font-size="12"><tspan x="21.942857142857143" dy="0em">f12</tspan></text></g></svg>