<?xml version="1.0" standalone="no"?>
<!DOCTYPE svg PUBLIC "-//W3C//DTD SVG 1.1//EN"
  "http://www.w3.org/Graphics/SVG/1.1/DTD/svg11.dtd">
<svg width="594.2857142857142" height="640.0" version="1.1"
  xmlns="http://www.w3.org/2000/svg">
<g style="stroke:black;"><rect x="0.0" y="0.0" width="228.57142857142856" height="164.57142857142856" rx="0" ry="0" style="stroke-width:1;fill:lightgray;"/><rect x="216.68571428571425" y="82.28571428571428" width="11.885714285714286" height="11.885714285714286" rx="0" ry="0" style="stroke-width:1;fill:gray;"/><text x="109.71428571428571" y="82.28571428571428" font-size="12"><tspan x="109.71428571428571" dy="0em">f6</tspan></text><rect x="228.57142857142856" y="210.28571428571428" width="82.28571428571428" height="82.28571428571428" rx="0" ry="0" style="stroke-width:1;fill:lightgray;"/><rect x="298.9714285714286" y="246.85714285714283" width="11.885714285714286" height="11.885714285714286" rx="0" ry="0" style="stroke-width:1;fill:gray;"/><text x="265.1428571428571" y="246.85714285714283" font-size="12"><tspan x="265.1428571428571" dy="0em">f4</tspan></text><rect x="310.85714285714283" y="301.7142857142857" width="100.57142857142857" height="100.57142857142857" rx="0" ry="0" style="stroke-width:1;fill:lightgray;"/><rect x="356.57142857142856" y="301.7142857142857" width="11.885714285714286" height="11.885714285714286" rx="0" ry="0" style="stroke-width:1;fill:gray;"/><text x="356.57142857142856" y="347.42857142857144" font-size="12"><tspan x="356.57142857142856" dy="0em">f9</tspan></text><rect x="411.4285714285714" y="493.71428571428567" width="182.85714285714283" height="146.28571428571428" rx="0" ry="0" style="stroke-width:1;fill:lightgray;"/><rect x="502.85714285714283" y="493.71428571428567" width="11.885714285714286" height="11.885714285714286" rx="0" ry="0" style="stroke-width:1;fill:gray;"/><text x="502.8571428571428" y="566.8571428571428" font-size="12"><tspan x="502.8571428571428" dy="0em">f7</tspan></text><rect x="411.4285714285714" y="374.85714285714283" width="173.7142857142857" height="118.85714285714285" rx="0" ry="0" style="stroke-width:1;fill:lightgray;"/><rect x="493.71428571428567" y="481.8285714285714" width="11.885714285714286" height="11.885714285714286" rx="0" ry="0" style="stroke-width:1;fill:gray;"/><text x="493.71428571428567" y="429.71428571428567" font-size="12"><tspan x="493.71428571428567" dy="0em">f10</tspan></text><rect x="411.4285714285714" y="301.7142857142857" width="109.71428571428571" height="73.14285714285714" rx="0" ry="0" style="stroke-width:1;fill:lightgray;"/><rect x="411.4285714285714" y="338.2857142857143" width="11.885714285714286" height="11.885714285714286" rx="0" ry="0" style="stroke-width:1;fill:gray;"/><text x="466.2857142857142" y="338.2857142857143" font-size="12"><tspan x="466.2857142857142" dy="0em">f2</tspan></text><rect x="310.85714285714283" y="210.28571428571428" width="137.14285714285714" height="91.42857142857142" rx="0" ry="0" style="stroke-width:1;fill:lightgray;"/><rect x="310.85714285714283" y="256.0" width="11.885714285714286" height="11.885714285714286" rx="0" ry="0" style="stroke-width:1;fill:gray;"/><text x="374.85714285714283" y="256.0" font-size="12"><tspan x="374.85714285714283" dy="0em">f1</tspan></text><rect x="228.57142857142856" y="155.42857142857142" width="82.28571428571428" height="54.857142857142854" rx="0" ry="0" style="stroke-width:1;fill:lightgray;"/><rect x="265.1428571428571" y="155.42857142857142" width="11.885714285714286" height="11.885714285714286" rx="0" ry="0" style="stroke-width:1;fill:gray;"/><text x="265.1428571428571" y="182.85714285714283" font-size="12"><tspan x="265.1428571428571" dy="0em">f5</tspan></text><rect x="228.57142857142856" y="109.71428571428571" width="73.14285714285714" height="45.71428571428571" rx="0" ry="0" style="stroke-width:1;fill:lightgray;"/><rect x="265.1428571428571" y="109.71428571428571" width="11.885714285714286" height="11.885714285714286" rx="0" ry="0" style="stroke-width:1;fill:gray;"/><text x="265.1428571428571" y="128.0" font-size="12"><tspan x="265.1428571428571" dy="0em">f8</tspan></text><rect x="228.57142857142856" y="0.0" width="137.14285714285714" height="109.71428571428571" rx="0" ry="0" style="stroke-width:1;fill:lightgray;"/><rect x="292.57142857142856" y="97.82857142857142" width="11.885714285714286" height="11.885714285714286" rx="0" ry="0" style="stroke-width:1;fill:gray;"/><text x="292.57142857142856" y="54.857142857142854" font-size="12"><tspan x="292.57142857142856" dy="0em">f3</tspan></text></g></svg>