<?xml version="1.0" standalone="no"?>
<!DOCTYPE svg PUBLIC "-//W3C//DTD SVG 1.1//EN"
  "http://www.w3.org/Graphics/SVG/1.1/DTD/svg11.dtd">
<svg width="426.66666666666663" height="640.0" version="1.1"
  xmlns="http://www.w3.org/2000/svg">
<g style="stroke:black;"><rect x="0.0" y="0.0" width="164.1025641025641" height="131.28205128205127" rx="0" ry="0" style="stroke-width:1;fill:lightgray;"/><rect x="155.56923076923076" y="65.64102564102564" width="8.533333333333333" height="8.533333333333333" rx="0" ry="0" style="stroke-width:1;fill:gray;"/><text x="82.05128205128204" y="65.64102564102564" font-size="12"><tspan x="82.05128205128204" dy="0em">f7</tspan></text><rect x="164.1025641025641" y="344.6153846153846" width="73.84615384615384" height="73.84615384615384" rx="0" ry="0" style="stroke-width:1;fill:lightgray;"/><rect x="229.4153846153846" y="377.4358974358974" width="8.533333333333333" height="8.533333333333333" rx="0" ry="0" style="stroke-width:1;fill:gray;"/><text x="196.9230769230769" y="377.4358974358974" font-size="12"><tspan x="196.9230769230769" dy="0em">f4</tspan></text><rect x="164.1025641025641" y="303.58974358974353" width="65.64102564102564" height="41.02564102564102" rx="0" ry="0" style="stroke-width:1;fill:lightgray;"/><rect x="221.2102564102564" y="320.0" width="8.533333333333333" height="8.533333333333333" rx="0" ry="0" style="stroke-width:1;fill:gray;"/><text x="196.9230769230769" y="319.99999999999994" font-size="12"><tspan x="196.9230769230769" dy="0em">f8</tspan></text><rect x="303.58974358974353" y="541.5384615384614" width="123.07692307692307" height="98.46153846153845" rx="0" ry="0" style="stroke-width:1;fill:lightgray;"/><rect x="303.58974358974353" y="590.7692307692307" width="8.533333333333333" height="8.533333333333333" rx="0" ry="0" style="stroke-width:1;fill:gray;"/><text x="361.025641025641" y="590.7692307692307" font-size="12"><tspan x="361.025641025641" dy="0em">f3</tspan></text><rect x="303.58974358974353" y="475.89743589743586" width="98.46153846153845" height="65.64102564102564" rx="0" ry="0" style="stroke-width:1;fill:lightgray;"/><rect x="303.58974358974353" y="508.7179487179487" width="8.533333333333333" height="8.533333333333333" rx="0" ry="0" style="stroke-width:1;fill:gray;"/><text x="352.82051282051276" y="508.7179487179487" font-size="12"><tspan x="352.82051282051276" dy="0em">f2</tspan></text><rect x="303.58974358974353" y="385.64102564102564" width="90.25641025641025" height="90.25641025641025" rx="0" ry="0" style="stroke-width:1;fill:lightgray;"/><rect x="303.58974358974353" y="426.66666666666663" width="8.533333333333333" height="8.533333333333333" rx="0" ry="0" style="stroke-width:1;fill:gray;"/><text x="344.6153846153845" y="426.66666666666663" font-size="12"><tspan x="344.6153846153845" dy="0em">f9</tspan></text><rect x="303.58974358974353" y="303.58974358974353" width="123.07692307692307" height="82.05128205128204" rx="0" ry="0" style="stroke-width:1;fill:lightgray;"/><rect x="303.58974358974353" y="344.6153846153846" width="8.533333333333333" height="8.533333333333333" rx="0" ry="0" style="stroke-width:1;fill:gray;"/><text x="361.025641025641" y="344.6153846153845" font-size="12"><tspan x="361.025641025641" dy="0em">f1</tspan></text><rect x="164.1025641025641" y="254.35897435897434" width="73.84615384615384" height="49.230769230769226" rx="0" ry="0" style="stroke-width:1;fill:lightgray;"/><rect x="229.4153846153846" y="278.97435897435895" width="8.533333333333333" height="8.533333333333333" rx="0" ry="0" style="stroke-width:1;fill:gray;"/><text x="196.9230769230769" y="278.97435897435895" font-size="12"><tspan x="196.9230769230769" dy="0em">f5</tspan></text><rect x="164.1025641025641" y="106.66666666666666" width="205.1282051282051" height="147.69230769230768" rx="0" ry="0" style="stroke-width:1;fill:lightgray;"/><rect x="262.56410256410254" y="245.825641025641" width="8.533333333333333" height="8.533333333333333" rx="0" ry="0" style="stroke-width:1;fill:gray;"/><text x="262.56410256410254" y="180.5128205128205" font-size="12"><tspan x="262.56410256410254" dy="0em">f6</tspan></text><rect x="164.1025641025641" y="0.0" width="155.89743589743588" height="106.66666666666666" rx="0" ry="0" style="stroke-width:1;fill:lightgray;"/><rect x="164.1025641025641" y="49.230769230769226" width="8.533333333333333" height="8.533333333333333" rx="0" ry="0" style="stroke-width:1;fill:gray;"/><text x="237.94871794871793" y="49.230769230769226" font-size="12"><tspan x="237.94871794871793" dy="0em">f10</tspan></text></g></svg>