<?xml version="1.0" standalone="no"?>
<!DOCTYPE svg PUBLIC "-//W3C//DTD SVG 1.1//EN"
  "http://www.w3.org/Graphics/SVG/1.1/DTD/svg11.dtd">
<svg width="299.1304347826087" height="640.0" version="1.1"
  xmlns="http://www.w3.org/2000/svg">
<g style="stroke:black;"><rect x="0.0" y="292.17391304347825" width="55.65217391304348" height="55.65217391304348" rx="0" ry="0" style="stroke-width:1;fill:lightgray;"/><rect x="27.82608695652174" y="292.17391304347825" width="5.982608695652174" height="5.982608695652174" rx="0" ry="0" style="stroke-width:1;fill:gray;"/><text x="27.82608695652174" y="320.0" font-size="12"><tspan x="27.82608695652174" dy="0em">f4</tspan></text><rect x="55.65217391304348" y="340.8695652173913" width="76.52173913043478" height="76.52173913043478" rx="0" ry="0" style="stroke-width:1;fill:lightgray;"/><rect x="126.19130434782609" y="375.65217391304344" width="5.982608695652174" height="5.982608695652174" rx="0" ry="0" style="stroke-width:1;fill:gray;"/><text x="90.43478260869566" y="375.6521739130435" font-size="12"><tspan x="90.43478260869566" dy="0em">f11</tspan></text><rect x="55.65217391304348" y="292.17391304347825" width="62.608695652173914" height="48.69565217391304" rx="0" ry="0" style="stroke-width:1;fill:lightgray;"/><rect x="83.47826086956522" y="292.17391304347825" width="5.982608695652174" height="5.982608695652174" rx="0" ry="0" style="stroke-width:1;fill:gray;"/><text x="83.47826086956522" y="313.04347826086956" font-size="12"><tspan x="83.47826086956522" dy="0em">f1</tspan></text><rect x="194.78260869565216" y="563.4782608695652" width="104.34782608695652" height="76.52173913043478" rx="0" ry="0" style="stroke-width:1;fill:lightgray;"/><rect x="194.78260869565216" y="598.2608695652174" width="5.982608695652174" height="5.982608695652174" rx="0" ry="0" style="stroke-width:1;fill:gray;"/><text x="243.4782608695652" y="598.2608695652174" font-size="12"><tspan x="243.4782608695652" dy="0em">f8</tspan></text><rect x="194.78260869565216" y="500.8695652173913" width="83.47826086956522" height="62.608695652173914" rx="0" ry="0" style="stroke-width:1;fill:lightgray;"/><rect x="194.78260869565216" y="528.695652173913" width="5.982608695652174" height="5.982608695652174" rx="0" ry="0" style="stroke-width:1;fill:gray;"/><text x="236.52173913043475" y="528.695652173913" font-size="12"><tspan x="236.52173913043475" dy="0em">f9</tspan></text><rect x="194.78260869565216" y="431.30434782608694" width="97.39130434782608" height="69.56521739130434" rx="0" ry="0" style="stroke-width:1;fill:lightgray;"/><rect x="194.78260869565216" y="466.0869565217391" width="5.982608695652174" height="5.982608695652174" rx="0" ry="0" style="stroke-width:1;fill:gray;"/><text x="243.4782608695652" y="466.0869565217391" font-size="12"><tspan x="243.4782608695652" dy="0em">f2</tspan></text><rect x="194.78260869565216" y="375.65217391304344" width="69.56521739130434" height="55.65217391304348" rx="0" ry="0" style="stroke-width:1;fill:lightgray;"/><rect x="194.78260869565216" y="403.4782608695652" width="5.982608695652174" height="5.982608695652174" rx="0" ry="0" style="stroke-width:1;fill:gray;"/><text x="229.56521739130432" y="403.4782608695652" font-size="12"><tspan x="229.56521739130432" dy="0em">f6</tspan></text><rect x="194.78260869565216" y="292.17391304347825" width="83.47826086956522" height="83.47826086956522" rx="0" ry="0" style="stroke-width:1;fill:lightgray;"/><rect x="194.78260869565216" y="333.9130434782609" width="5.982608695652174" height="5.982608695652174" rx="0" ry="0" style="stroke-width:1;fill:gray;"/><text x="236.52173913043475" y="333.9130434782609" font-size="12"><tspan x="236.52173913043475" dy="0em">f5</tspan></text><rect x="0.0" y="222.6086956521739" width="83.47826086956522" height="69.56521739130434" rx="0" ry="0" style="stroke-width:1;fill:lightgray;"/><rect x="77.49565217391304" y="257.39130434782606" width="5.982608695652174" height="5.982608695652174" rx="0" ry="0" style="stroke-width:1;fill:gray;"/><text x="41.73913043478261" y="257.39130434782606" font-size="12"><tspan x="41.73913043478261" dy="0em">f3</tspan></text><rect x="0.0" y="166.95652173913044" width="83.47826086956522" height="55.65217391304348" rx="0" ry="0" style="stroke-width:1;fill:lightgray;"/><rect x="77.49565217391304" y="194.78260869565216" width="5.982608695652174" height="5.982608695652174" rx="0" ry="0" style="stroke-width:1;fill:gray;"/><text x="41.73913043478261" y="194.7826086956522" font-size="12"><tspan x="41.73913043478261" dy="0em">f12</tspan></text><rect x="0.0" y="97.39130434782608" width="69.56521739130434" height="69.56521739130434" rx="0" ry="0" style="stroke-width:1;fill:lightgray;"/><rect x="63.582608695652176" y="132.17391304347825" width="5.982608695652174" height="5.982608695652174" rx="0" ry="0" style="stroke-width:1;fill:gray;"/><text x="34.78260869565217" y="132.17391304347825" font-size="12"><tspan x="34.78260869565217" dy="0em">f10</tspan></text><rect x="0.0" y="0.0" width="139.1304347826087" height="97.39130434782608" rx="0" ry="0" style="stroke-width:1;fill:lightgray;"/><rect x="69.56521739130434" y="91.40869565217392" width="5.982608695652174" height="5.982608695652174" rx="0" ry="0" style="stroke-width:1;fill:gray;"/><text x="69.56521739130434" y="48.69565217391304" font-size="12"><tspan x="69.56521739130434" dy="0em">f7</tspan></text></g></svg>