<?xml version="1.0" standalone="no"?>
<!DOCTYPE svg PUBLIC "-//W3C//DTD SVG 1.1//EN"
  "http://www.w3.org/Graphics/SVG/1.1/DTD/svg11.dtd">
<svg width="480.0" height="300.8955223880597" version="1.1"
  xmlns="http://www.w3.org/2000/svg">
<g style="stroke:black;"><rect x="0.0" y="265.07462686567163" width="53.73134328358209" height="35.820895522388064" rx="0" ry="0" style="stroke-width:1;fill:lightgray;"/><rect x="44.13134328358209" y="282.9850746268657" width="9.600000000000001" height="9.600000000000001" rx="0" ry="0" style="stroke-width:1;fill:gray;"/><text x="25.074626865671643" y="282.98507462686564" font-size="12"><tspan x="25.074626865671643" dy="0em">f1</tspan></text><rect x="0.0" y="114.6268656716418" width="71.64179104477613" height="57.3134328358209" rx="0" ry="0" style="stroke-width:1;fill:lightgray;"/><rect x="62.041791044776126" y="143.28358208955225" width="9.600000000000001" height="9.600000000000001" rx="0" ry="0" style="stroke-width:1;fill:gray;"/><text x="35.820895522388064" y="143.28358208955225" font-size="12"><tspan x="35.820895522388064" dy="0em">f7</tspan></text><rect x="0.0" y="71.64179104477613" width="53.73134328358209" height="42.985074626865675" rx="0" ry="0" style="stroke-width:1;fill:lightgray;"/><rect x="25.074626865671643" y="71.64179104477613" width="9.600000000000001" height="9.600000000000001" rx="0" ry="0" style="stroke-width:1;fill:gray;"/><text x="25.074626865671643" y="93.13432835820896" font-size="12"><tspan x="25.074626865671643" dy="0em">f3</tspan></text><rect x="0.0" y="0.0" width="39.40298507462687" height="39.40298507462687" rx="0" ry="0" style="stroke-width:1;fill:lightgray;"/><rect x="17.910447761194032" y="29.802985074626868" width="9.600000000000001" height="9.600000000000001" rx="0" ry="0" style="stroke-width:1;fill:gray;"/><text x="17.910447761194032" y="17.910447761194032" font-size="12"><tspan x="17.910447761194032" dy="0em">f9</tspan></text><rect x="39.40298507462687" y="0.0" width="32.23880597014926" height="32.23880597014926" rx="0" ry="0" style="stroke-width:1;fill:lightgray;"/><rect x="39.40298507462687" y="14.328358208955224" width="9.600000000000001" height="9.600000000000001" rx="0" ry="0" style="stroke-width:1;fill:gray;"/><text x="53.73134328358209" y="14.328358208955224" font-size="12"><tspan x="53.73134328358209" dy="0em">f4</tspan></text><rect x="197.01492537313433" y="0.0" width="89.55223880597015" height="64.47761194029852" rx="0" ry="0" style="stroke-width:1;fill:lightgray;"/><rect x="276.9671641791045" y="32.23880597014926" width="9.600000000000001" height="9.600000000000001" rx="0" ry="0" style="stroke-width:1;fill:gray;"/><text x="240.0" y="32.23880597014926" font-size="12"><tspan x="240.0" dy="0em">f6</tspan></text><rect x="286.5671641791045" y="0.0" width="42.985074626865675" height="28.65671641791045" rx="0" ry="0" style="stroke-width:1;fill:lightgray;"/><rect x="308.05970149253733" y="0.0" width="9.600000000000001" height="9.600000000000001" rx="0" ry="0" style="stroke-width:1;fill:gray;"/><text x="308.05970149253733" y="14.328358208955224" font-size="12"><tspan x="308.05970149253733" dy="0em">f2</tspan></text><rect x="383.2835820895522" y="0.0" width="28.65671641791045" height="17.910447761194032" rx="0" ry="0" style="stroke-width:1;fill:lightgray;"/><rect x="383.2835820895522" y="7.164179104477612" width="9.600000000000001" height="9.600000000000001" rx="0" ry="0" style="stroke-width:1;fill:gray;"/><text x="397.6119402985075" y="7.164179104477612" font-size="12"><tspan x="397.6119402985075" dy="0em">f8</tspan></text><rect x="411.9402985074627" y="46.56716417910448" width="32.23880597014926" height="21.492537313432837" rx="0" ry="0" style="stroke-width:1;fill:lightgray;"/><rect x="411.9402985074627" y="57.3134328358209" width="9.600000000000001" height="9.600000000000001" rx="0" ry="0" style="stroke-width:1;fill:gray;"/><text x="426.268656716418" y="57.3134328358209" font-size="12"><tspan x="426.268656716418" dy="0em">f5</tspan></text><rect x="411.9402985074627" y="0.0" width="68.05970149253731" height="46.56716417910448" rx="0" ry="0" style="stroke-width:1;fill:lightgray;"/><rect x="411.9402985074627" y="21.492537313432837" width="9.600000000000001" height="9.600000000000001" rx="0" ry="0" style="stroke-width:1;fill:gray;"/><text x="444.179104477612" y="21.492537313432837" font-size="12"><tspan x="444.179104477612" dy="0em">f10</tspan></text></g></svg>